/* XPM */
static char * swim_right_0_xpm[] = {
"48 48 813 2",
"  	c #6DBADE",
". 	c #6DBADD",
"+ 	c #6AB5D6",
"@ 	c #62AEC7",
"# 	c #5CA6BB",
"$ 	c #5AA5B8",
"% 	c #59A4B7",
"& 	c #5AA4B8",
"* 	c #64AFCB",
"= 	c #6CB9DC",
"- 	c #68B3D2",
"; 	c #54A4AD",
"> 	c #3F9A85",
", 	c #219152",
"' 	c #169454",
") 	c #1A8D48",
"! 	c #168146",
"~ 	c #1C8246",
"{ 	c #1B7845",
"] 	c #1E7544",
"^ 	c #217844",
"/ 	c #287C53",
"( 	c #529EA9",
"_ 	c #67B0CF",
": 	c #419083",
"< 	c #1B934A",
"[ 	c #13964D",
"} 	c #13984D",
"| 	c #159A4B",
"1 	c #129B54",
"2 	c #179449",
"3 	c #158648",
"4 	c #1A8847",
"5 	c #197B46",
"6 	c #1F7944",
"7 	c #368570",
"8 	c #5CA4B4",
"9 	c #208E4A",
"0 	c #118743",
"a 	c #129A4A",
"b 	c #11A14D",
"c 	c #0F9F4F",
"d 	c #12A24C",
"e 	c #10A154",
"f 	c #149B4B",
"g 	c #148C49",
"h 	c #198D48",
"i 	c #187F46",
"j 	c #1F7D45",
"k 	c #3E8B80",
"l 	c #6AB6D8",
"m 	c #5BA3B5",
"n 	c #188947",
"o 	c #149C4B",
"p 	c #119B49",
"q 	c #0E9947",
"r 	c #0FAB4E",
"s 	c #0DA751",
"t 	c #0FAA4E",
"u 	c #0FA653",
"v 	c #11A04D",
"w 	c #119149",
"x 	c #1F9148",
"y 	c #238545",
"z 	c #238045",
"A 	c #1F7845",
"B 	c #509CA5",
"C 	c #63ADC6",
"D 	c #20904B",
"E 	c #11924A",
"F 	c #0F9C4B",
"G 	c #0FAC4E",
"H 	c #0BA34A",
"I 	c #3CB64A",
"J 	c #68BF45",
"K 	c #A0D93C",
"L 	c #ABD637",
"M 	c #C2E42C",
"N 	c #AECB25",
"O 	c #B2CB28",
"P 	c #C9DA21",
"Q 	c #99EF66",
"R 	c #DCEA2A",
"S 	c #D2E061",
"T 	c #C4DA8E",
"U 	c #A9D0BB",
"V 	c #70BBDD",
"W 	c #4E9C9B",
"X 	c #179849",
"Y 	c #0DA24C",
"Z 	c #4AB84A",
"` 	c #9EDC3A",
" .	c #CFFC2B",
"..	c #C8EE27",
"+.	c #D4F726",
"@.	c #C9EE27",
"#.	c #DEF41F",
"$.	c #D7EA1D",
"%.	c #E5F319",
"&.	c #D0EE3D",
"*.	c #DFF12C",
"=.	c #EEF311",
"-.	c #E4EA10",
";.	c #E3E80E",
">.	c #F7F708",
",.	c #E8F063",
"'.	c #93C8CB",
").	c #468880",
"!.	c #178040",
"~.	c #1F893F",
"{.	c #11A64B",
"].	c #55C04A",
"^.	c #B7F031",
"/.	c #ABEA32",
"(.	c #D4FF2A",
"_.	c #D5FE29",
":.	c #B2E92E",
"<.	c #D6F625",
"[.	c #DAF323",
"}.	c #E1F51E",
"|.	c #D5EB25",
"1.	c #D2ED34",
"2.	c #DDF02D",
"3.	c #EDF211",
"4.	c #BCF75D",
"5.	c #F1F411",
"6.	c #F5F60A",
"7.	c #F8F807",
"8.	c #F6F832",
"9.	c #A5CFBF",
"0.	c #63A8C1",
"a.	c #1D8C46",
"b.	c #149649",
"c.	c #109A49",
"d.	c #0E9E48",
"e.	c #B4EB35",
"f.	c #D1FE2C",
"g.	c #C4F42C",
"h.	c #D9FA25",
"i.	c #AACC22",
"j.	c #CEE620",
"k.	c #9ED13B",
"l.	c #C8E32B",
"m.	c #E7F217",
"n.	c #E3EC15",
"o.	c #DEF433",
"p.	c #EFF311",
"q.	c #F2F40C",
"r.	c #F7F814",
"s.	c #A0CDC2",
"t.	c #68B3D3",
"u.	c #64ADCC",
"v.	c #3E8871",
"w.	c #15904D",
"x.	c #129A4D",
"y.	c #10A64D",
"z.	c #5EC249",
"A.	c #CEF92A",
"B.	c #D3FE2A",
"C.	c #D3FF2A",
"D.	c #A3EC47",
"E.	c #B8E328",
"F.	c #C5EB26",
"G.	c #D1F224",
"H.	c #DBF622",
"I.	c #DFF51F",
"J.	c #D2E828",
"K.	c #E5F31A",
"L.	c #D2E219",
"M.	c #EAF214",
"N.	c #EDF312",
"O.	c #EFF30F",
"P.	c #F1F40D",
"Q.	c #F3F50C",
"R.	c #F4F50A",
"S.	c #F0F434",
"T.	c #89C4D0",
"U.	c #67B1D2",
"V.	c #277B52",
"W.	c #1F6545",
"X.	c #68B3D4",
"Y.	c #66AAC7",
"Z.	c #1E8647",
"`.	c #15924C",
" +	c #119B4E",
".+	c #0EA350",
"++	c #A7E33C",
"@+	c #AFDB27",
"#+	c #D0FB2A",
"$+	c #D4FE29",
"%+	c #B6E238",
"&+	c #D7F726",
"*+	c #91DF4D",
"=+	c #D9F325",
"-+	c #E2F41C",
";+	c #E9F215",
">+	c #ECF213",
",+	c #F0F40E",
"'+	c #F1F40E",
")+	c #E1EC63",
"!+	c #72BCDC",
"~+	c #367F77",
"{+	c #166435",
"]+	c #1A743E",
"^+	c #38867B",
"/+	c #6CB9DD",
"(+	c #529299",
"_+	c #198545",
":+	c #169148",
"<+	c #139D4B",
"[+	c #49B349",
"}+	c #C4F12B",
"|+	c #CDF92A",
"1+	c #CCF82A",
"2+	c #CCF72A",
"3+	c #B5E128",
"4+	c #C0EC29",
"5+	c #B3EE3D",
"6+	c #CAF62B",
"7+	c #D0F527",
"8+	c #C2EE33",
"9+	c #D8F322",
"0+	c #DCF21F",
"a+	c #C8DF1E",
"b+	c #E2F21B",
"c+	c #E5F219",
"d+	c #E8F217",
"e+	c #EAF215",
"f+	c #EBF213",
"g+	c #EDF311",
"h+	c #C2DD99",
"i+	c #7FBFE0",
"j+	c #7BBEE0",
"k+	c #5FA7C3",
"l+	c #0E6831",
"m+	c #0A7434",
"n+	c #117739",
"o+	c #15783C",
"p+	c #89C48C",
"q+	c #7DC3D2",
"r+	c #3E7B6B",
"s+	c #167941",
"t+	c #148243",
"u+	c #1C8D44",
"v+	c #98CE32",
"w+	c #AEDB28",
"x+	c #C3EF29",
"y+	c #A7F35A",
"z+	c #BFEE2F",
"A+	c #BBE729",
"B+	c #C1ED29",
"C+	c #B1E836",
"D+	c #C1EE2A",
"E+	c #C3EE29",
"F+	c #C7ED27",
"G+	c #CBED24",
"H+	c #D0ED22",
"I+	c #D4ED20",
"J+	c #D8ED1E",
"K+	c #DCEE1C",
"L+	c #E0EF1A",
"M+	c #E3F018",
"N+	c #E4EF18",
"O+	c #D8E474",
"P+	c #EDF2BB",
"Q+	c #F4F8BB",
"R+	c #EDF46B",
"S+	c #E8EBC9",
"T+	c #F4F4F4",
"U+	c #C6DFEF",
"V+	c #398485",
"W+	c #10693D",
"X+	c #0E7838",
"Y+	c #08843A",
"Z+	c #55A23A",
"`+	c #C9F529",
" @	c #C6F239",
".@	c #A5DA9C",
"+@	c #4D873E",
"@@	c #369946",
"#@	c #97D037",
"$@	c #BCE828",
"%@	c #BAE728",
"&@	c #B9E628",
"*@	c #A4E950",
"=@	c #B6E52B",
"-@	c #B7E428",
";@	c #A2D026",
">@	c #AAD727",
",@	c #B8E428",
"'@	c #B8E528",
")@	c #BAE628",
"!@	c #BDE627",
"~@	c #C2E624",
"{@	c #C7E623",
"]@	c #CBE721",
"^@	c #D0E81F",
"/@	c #D4E91D",
"(@	c #D8EA1C",
"_@	c #BACF81",
":@	c #E6E6E5",
"<@	c #EEEEEE",
"[@	c #FAFAFA",
"}@	c #F4F4EF",
"|@	c #EDF59B",
"1@	c #8D8E79",
"2@	c #A2A0A0",
"3@	c #70B1D1",
"4@	c #17613C",
"5@	c #0E7140",
"6@	c #0D7941",
"7@	c #0C8A40",
"8@	c #81C338",
"9@	c #C2EE29",
"0@	c #BFEC29",
"a@	c #BDE929",
"b@	c #B2E02B",
"c@	c #93C833",
"d@	c #A9D92C",
"e@	c #B4E128",
"f@	c #B2DF28",
"g@	c #B1DE28",
"h@	c #AFDD28",
"i@	c #AEDC28",
"j@	c #ADDA28",
"k@	c #ABD827",
"l@	c #ACD927",
"m@	c #ADDB28",
"n@	c #AFDC28",
"o@	c #B0DD28",
"p@	c #B3DE27",
"q@	c #B8DF25",
"r@	c #BDE023",
"s@	c #C2E122",
"t@	c #C7E220",
"u@	c #C4DF20",
"v@	c #B9C4B5",
"w@	c #E4E4E4",
"x@	c #CECECE",
"y@	c #8D8C8C",
"z@	c #575454",
"A@	c #D2D4BE",
"B@	c #C4D228",
"C@	c #3C3A26",
"D@	c #71ABC9",
"E@	c #5CA4BD",
"F@	c #0F6230",
"G@	c #0F7738",
"H@	c #0C8E40",
"I@	c #0A9944",
"J@	c #86C637",
"K@	c #AFDD2A",
"L@	c #5CA03A",
"M@	c #4A953C",
"N@	c #579C3A",
"O@	c #A6D429",
"P@	c #A9D627",
"Q@	c #A7D527",
"R@	c #A6D427",
"S@	c #A4D227",
"T@	c #A3D227",
"U@	c #A3D127",
"V@	c #A2D027",
"W@	c #A6D328",
"X@	c #A6D127",
"Y@	c #B0D625",
"Z@	c #B1D423",
"`@	c #BBC5BA",
" #	c #ECECEC",
".#	c #B9B9B9",
"+#	c #241C1C",
"@#	c #BEBDBD",
"##	c #DBEF53",
"$#	c #D3E573",
"%#	c #7BBFDD",
"&#	c #4F93A4",
"*#	c #116A34",
"=#	c #0E7C3A",
"-#	c #0E8D40",
";#	c #0D9F47",
">#	c #87CB3B",
",#	c #B3E028",
"'#	c #96C730",
")#	c #49943E",
"!#	c #49933F",
"~#	c #48933F",
"{#	c #8CBE37",
"]#	c #A0CE2B",
"^#	c #9ECC26",
"/#	c #9CCA27",
"(#	c #9BC926",
"_#	c #9AC826",
":#	c #99C726",
"<#	c #98C726",
"[#	c #99C826",
"}#	c #9AC926",
"|#	c #9BCA26",
"1#	c #97C828",
"2#	c #8DC22A",
"3#	c #85BF30",
"4#	c #89C14C",
"5#	c #A0CD5C",
"6#	c #A8D326",
"7#	c #A0B89A",
"8#	c #E1E1E1",
"9#	c #AFAEAE",
"0#	c #AAA9A9",
"a#	c #E9ECE3",
"b#	c #CCE837",
"c#	c #CEEB22",
"d#	c #B9DE76",
"e#	c #74BDD8",
"f#	c #96D2BE",
"g#	c #97D1B9",
"h#	c #488895",
"i#	c #136333",
"j#	c #107839",
"k#	c #0D8D3F",
"l#	c #09A145",
"m#	c #78C53C",
"n#	c #AFDA3A",
"o#	c #AED743",
"p#	c #9BC845",
"q#	c #489240",
"r#	c #479140",
"s#	c #46903F",
"t#	c #85B641",
"u#	c #A3CA52",
"v#	c #A6CB60",
"w#	c #A8CB68",
"x#	c #A9CB6D",
"y#	c #A7CA6B",
"z#	c #A6C969",
"A#	c #A4C865",
"B#	c #A3C764",
"C#	c #A6C96A",
"D#	c #A7CA6E",
"E#	c #A9CA6E",
"F#	c #AACC72",
"G#	c #A8CA73",
"H#	c #A0C673",
"I#	c #99C377",
"J#	c #85BC66",
"K#	c #7CB964",
"L#	c #76BA3B",
"M#	c #A2D123",
"N#	c #79B030",
"O#	c #C2CEC1",
"P#	c #F1F2F1",
"Q#	c #F3F3F3",
"R#	c #EBEEEB",
"S#	c #ADD18A",
"T#	c #BBE427",
"U#	c #C0E726",
"V#	c #BDE326",
"W#	c #A4CE58",
"X#	c #77BCC4",
"Y#	c #6EBADA",
"Z#	c #75BED7",
"`#	c #C7EE45",
" $	c #ADD058",
".$	c #488B96",
"+$	c #116E36",
"@$	c #0D853D",
"#$	c #099E45",
"$$	c #08B54D",
"%$	c #6ACA46",
"&$	c #9ECC27",
"*$	c #6EA834",
"=$	c #448F3B",
"-$	c #48903A",
";$	c #87B92A",
">$	c #8EBE26",
",$	c #8CBB25",
"'$	c #89B925",
")$	c #88B828",
"!$	c #89B733",
"~$	c #8BB73A",
"{$	c #8BB83D",
"]$	c #8BB73D",
"^$	c #88B536",
"/$	c #86B52F",
"($	c #86B529",
"_$	c #84B525",
":$	c #79B029",
"<$	c #6CAB2D",
"[$	c #5DA931",
"}$	c #4EA735",
"|$	c #41A738",
"1$	c #60B333",
"2$	c #98CC1D",
"3$	c #99CD1E",
"4$	c #70AC25",
"5$	c #6F9F64",
"6$	c #85AC80",
"7$	c #75B042",
"8$	c #A7D826",
"9$	c #B2DF27",
"0$	c #B5E228",
"a$	c #ACD826",
"b$	c #87B81C",
"c$	c #7CB213",
"d$	c #7AB029",
"e$	c #A9C31E",
"f$	c #ADCB1E",
"g$	c #6FBBDD",
"h$	c #4E92A1",
"i$	c #156C37",
"j$	c #15813F",
"k$	c #139747",
"l$	c #0FAD4D",
"m$	c #4BBE4A",
"n$	c #A0CF27",
"o$	c #9CCB27",
"p$	c #94C326",
"q$	c #83B52A",
"r$	c #7BB02B",
"s$	c #88B826",
"t$	c #86B625",
"u$	c #84B325",
"v$	c #81B125",
"w$	c #7EAF25",
"x$	c #7DAD25",
"y$	c #7BAB24",
"z$	c #7AAA24",
"A$	c #79AA24",
"B$	c #7AAB24",
"C$	c #78AA26",
"D$	c #6CA62A",
"E$	c #5EA32F",
"F$	c #4FA233",
"G$	c #3EA238",
"H$	c #2CA43C",
"I$	c #53B035",
"J$	c #8BC519",
"K$	c #8CC718",
"L$	c #8FC919",
"M$	c #93CC1A",
"N$	c #97CF1B",
"O$	c #9FD41D",
"P$	c #A5D71F",
"Q$	c #ABDB22",
"R$	c #B0DE25",
"S$	c #B4E127",
"T$	c #AFDC25",
"U$	c #94C51D",
"V$	c #94A518",
"W$	c #A5C01C",
"X$	c #70BBDC",
"Y$	c #5DA6BF",
"Z$	c #126E37",
"`$	c #0B9846",
" %	c #0EA34F",
".%	c #1BAE4A",
"+%	c #98C928",
"@%	c #97C626",
"#%	c #93C226",
"$%	c #80B270",
"%%	c #37672C",
"&%	c #2E7E36",
"*%	c #319A3E",
"=%	c #5DB23A",
"-%	c #76AE2A",
";%	c #79A924",
">%	c #76A724",
",%	c #73A424",
"'%	c #71A324",
")%	c #70A124",
"!%	c #6FA024",
"~%	c #659B27",
"{%	c #5B962C",
"]%	c #5F992B",
"^%	c #689E28",
"/%	c #639E2A",
"(%	c #579D2E",
"_%	c #489D33",
":%	c #389F38",
"<%	c #27A23C",
"[%	c #58B02F",
"}%	c #7ABC14",
"|%	c #79BD13",
"1%	c #7BBF13",
"2%	c #80C214",
"3%	c #87C615",
"4%	c #8FCB17",
"5%	c #98D01A",
"6%	c #A1D51D",
"7%	c #A8DA20",
"8%	c #AFDE24",
"9%	c #B3E027",
"0%	c #AFDC26",
"a%	c #A5D223",
"b%	c #90A118",
"c%	c #A3BD1B",
"d%	c #6FBBDC",
"e%	c #6BB7DA",
"f%	c #186F41",
"g%	c #0C8149",
"h%	c #0D8F4C",
"i%	c #119C44",
"j%	c #3F9B40",
"k%	c #7FB830",
"l%	c #81BD9D",
"m%	c #6CB7DA",
"n%	c #305E37",
"o%	c #267533",
"p%	c #21923E",
"q%	c #18AA48",
"r%	c #22C74E",
"s%	c #4EC145",
"t%	c #6CA126",
"u%	c #6B9D23",
"v%	c #689A23",
"w%	c #669823",
"x%	c #48872E",
"y%	c #0E7A37",
"z%	c #0A8139",
"A%	c #09853B",
"B%	c #0E873A",
"C%	c #2E8F38",
"D%	c #449433",
"E%	c #4D9C31",
"F%	c #3E9B35",
"G%	c #329E39",
"H%	c #65B11B",
"I%	c #67B310",
"J%	c #63B20E",
"K%	c #62B20E",
"L%	c #66B50F",
"M%	c #6FBA10",
"N%	c #7AC012",
"O%	c #86C715",
"P%	c #93CE18",
"Q%	c #9ED41B",
"R%	c #A7DA1F",
"S%	c #AFDE23",
"T%	c #B3E127",
"U%	c #B6E328",
"V%	c #AFDA27",
"W%	c #9AB21C",
"X%	c #A1BC43",
"Y%	c #419294",
"Z%	c #0D7B47",
"`%	c #168740",
" &	c #369145",
".&	c #1C9040",
"+&	c #4D9031",
"@&	c #76B27C",
"#&	c #4D8188",
"$&	c #256B31",
"%&	c #218339",
"&&	c #1A9F44",
"*&	c #1CB54A",
"=&	c #1BC050",
"-&	c #40AC44",
";&	c #649623",
">&	c #609323",
",&	c #578C26",
"'&	c #107636",
")&	c #0B7E39",
"!&	c #09873B",
"~&	c #078E3D",
"{&	c #06923E",
"]&	c #088C3C",
"^&	c #3F9635",
"/&	c #64AE2B",
"(&	c #499F32",
"_&	c #419A34",
":&	c #5AA91D",
"<&	c #57AB0C",
"[&	c #4CA60A",
"}&	c #45A309",
"|&	c #47A509",
"1&	c #51AB0B",
"2&	c #61B30D",
"3&	c #72BD10",
"4&	c #83C614",
"5&	c #91CE18",
"6&	c #9ED51B",
"7&	c #A5D848",
"8&	c #99D098",
"9&	c #84C5C4",
"0&	c #9CD29D",
"a&	c #B2D825",
"b&	c #A1C05D",
"c&	c #63AFCC",
"d&	c #177643",
"e&	c #268C51",
"f&	c #16823E",
"g&	c #2B7C34",
"h&	c #247A3E",
"i&	c #67B4D3",
"j&	c #68AFD0",
"k&	c #2F5F35",
"l&	c #1E7435",
"m&	c #298C39",
"n&	c #229C42",
"o&	c #0FA54A",
"p&	c #0BA24A",
"q&	c #4F922E",
"r&	c #5A8D22",
"s&	c #478129",
"t&	c #0D7637",
"u&	c #0A8039",
"v&	c #08893C",
"w&	c #078F3D",
"x&	c #05963F",
"y&	c #039C40",
"z&	c #67AF30",
"A&	c #76B726",
"B&	c #5CAA2D",
"C&	c #529E2F",
"D&	c #539D37",
"E&	c #50A73F",
"F&	c #3C9E08",
"G&	c #299505",
"H&	c #229104",
"I&	c #319906",
"J&	c #48A609",
"K&	c #60B306",
"L&	c #74BE58",
"M&	c #7EC397",
"N&	c #79C0C3",
"O&	c #6EBBDC",
"P&	c #A8DB8A",
"Q&	c #A2D08C",
"R&	c #419B95",
"S&	c #157641",
"T&	c #1D7338",
"U&	c #227135",
"V&	c #438E8F",
"W&	c #5D9CB6",
"X&	c #31642D",
"Y&	c #1E7436",
"Z&	c #288438",
"`&	c #0E8943",
" *	c #0F8841",
".*	c #2F8134",
"+*	c #508626",
"@*	c #457F29",
"#*	c #0D7436",
"$*	c #08883B",
"%*	c #05983F",
"&*	c #2FA53E",
"**	c #67AB2D",
"=*	c #5FA52B",
"-*	c #609A2B",
";*	c #65ABA6",
">*	c #6BB8D5",
",*	c #64B4C4",
"'*	c #62B2C4",
")*	c #61B1C5",
"!*	c #66B4C9",
"~*	c #6AB7CB",
"{*	c #6DBAD9",
"]*	c #76BED6",
"^*	c #69B5D6",
"/*	c #246E53",
"(*	c #1C6E3E",
"_*	c #146333",
":*	c #61ABC8",
"<*	c #63A3C0",
"[*	c #46756F",
"}*	c #30663C",
"|*	c #1F6937",
"1*	c #296A3D",
"2*	c #427157",
"3*	c #578E96",
"4*	c #508E6E",
"5*	c #0E7035",
"6*	c #0C7A38",
"7*	c #09833A",
"8*	c #088A3C",
"9*	c #049A40",
"0*	c #088D3C",
"a*	c #5FA38E",
"b*	c #6CB5CD",
"c*	c #62AECB",
"d*	c #236651",
"e*	c #2E6A62",
"f*	c #6DB9DC",
"g*	c #6CB6D9",
"h*	c #6CB8DC",
"i*	c #6CB8DB",
"j*	c #186E42",
"k*	c #0B7C38",
"l*	c #0B8139",
"m*	c #0F8B43",
"n*	c #69B5D7",
"o*	c #69B4D6",
"p*	c #41888B",
"q*	c #0F6C34",
"r*	c #0D7336",
"s*	c #0B7F39",
"t*	c #1E8452",
"u*	c #66B1D0",
"v*	c #16653B",
"w*	c #106A34",
"x*	c #0C7837",
"y*	c #388B7D",
"z*	c #5DA6C0",
"A*	c #166239",
"B*	c #116532",
"C*	c #106933",
"D*	c #0F6D34",
"E*	c #519CAA",
"F*	c #63ACCA",
"G*	c #2F7066",
"H*	c #135E31",
"I*	c #126131",
"J*	c #1D6947",
"K*	c #61A9C6",
"L*	c #599FB7",
"                                                                                                ",
"                                                                                                ",
"                                                                                                ",
"                                                                                                ",
"                                                                                                ",
"                                                                                                ",
"                                                                                                ",
"                                                                                                ",
"                                        . + @ # $ % & # * =                                     ",
"                                  - ; > , ' ) ! ~ { ] ^ ^ / (                                   ",
"                              _ : < [ } | 1 2 3 4 5 6 ^ ^ ^ 7                                   ",
"                            8 9 0 a b c d e f g h i j ^ ^ k l                                   ",
"                          m n o p q r s t u v w x y z A B .                                     ",
"                        C D E F G H I J K L M N O P Q R S T U V                                 ",
"                      + W X d Y Z `  ...+.@.#.$.%.&.*.=.-.;.>.,.'.                              ",
"                      ).!.~.{.].^./.(._.:.<.[.}.|.1.2.3.4.5.6.7.8.9.                            ",
"                    0.a.b.c.d.e.(.(.f.(.g.h.i.j.k.l.m.n.o.p.q.6.>.r.s.                          ",
"      t.u.          v.w.x.y.z.A.B.C.D.(.E.F.G.H.I.J.K.L.M.N.O.P.Q.R.S.T.                        ",
"    U.V.W.X.      Y.Z.`. +.+++@+#+(.C.B.B.$+%+&+*+=+-+K.m.;+>+=.O.,+'+)+!+                      ",
"    ~+{+]+^+/+    (+_+:+<+[+}+|+1+2+3+4+2+5+6+7+8+9+0+a+b+c+d+e+f+N.g+=.h+i+j+                  ",
"  k+l+m+n+o+p+q+  r+s+t+u+v+w+x+y+z+A+4+B+C+D+E+F+G+H+I+J+K+L+M+N+O+P+Q+R+S+T+U+                ",
"  V+W+X+Y+Z+`+ @.@+@4 @@#@$@%@&@*@=@-@-@;@>@,@'@)@!@~@{@]@^@/@(@_@:@<@[@}@|@1@2@3@              ",
"l 4@5@6@7@8@9@0@a@b@c@d@e@f@g@h@i@w+j@j@k@l@m@w+n@o@p@q@r@s@t@u@v@w@x@y@z@A@B@C@D@              ",
"E@F@G@H@I@J@%@-@K@L@M@N@O@P@Q@R@S@T@U@V@V@V@U@U@S@R@Q@Q@W@X@Y@Z@`@ #.#+#+#@###$#%#              ",
"&#*#=#-#;#>#,#o@'#)#!#~#{#]#^#/#(#_#:#<#<#<#:#[#}#|#1#2#3#4#5#6#7#T+8#9#0#a#b#c#d#e#      f#g#  ",
"h#i#j#k#l#m#n#o#p#q#r#s#t#u#v#w#x#y#z#A#B#C#D#E#F#G#H#I#J#K#L#M#N#O#P#Q#R#S#T#U#V#W#X#Y#Z#`# $  ",
".$+$@$#$$$%$R@V@&$*$=$-$;$>$,$'$)$!$~${$]$^$/$($_$:$<$[$}$|$1$2$3$4$5$6$7$8$9$0$&@a$b$c$d$e$f$g$",
"h$i$j$k$l$m$n$o$<#p$q$r$s$t$u$v$w$x$y$z$A$A$A$B$C$D$E$F$G$H$I$J$K$L$M$N$O$P$Q$R$S$'@'@T$U$V$W$X$",
"Y$Z$@$`$ %.%+%@%#%$%%%&%*%=%-%;%>%,%'%)%!%~%{%]%^%/%(%_%:%<%[%}%|%1%2%3%4%5%6%7%8%9%-@0%a%b%c%d%",
"e%f%g%h%i%j%k%p$l%m%n%o%p%q%r%s%t%u%v%w%x%y%z%A%B%C%D%E%F%G%H%I%J%K%L%M%N%O%P%Q%R%S%T%U%V%W%X%  ",
"  Y%Z%`% &.&+&@&.   #&$&%&&&*&=&-&;&>&,&'&)&!&~&{&]&^&/&(&_&:&<&[&}&|&1&2&3&4&5&6&7&8&9&0&a&b&  ",
"  c&d&e&f&g&h&i&    j&k&l&m&n&o&p&q&r&s&t&u&v&w&x&y&z&A&B&C&D&E&F&G&H&I&J&K&L&M&N&O&      P&Q&  ",
"    R&S&T&U&V&        W&X&Y&Z&`& *.*+*@*#*)&$*{&%*x&&***=*-*;*>*,*'*)*!*~*{*              d%]*  ",
"    ^*/*(*_*:*          <*[*}*|*1*2*3*4*5*6*7*8*8*9*0*~&a*b*                                    ",
"      c*d*e*                f*g*h*    i*j*#*k*u&8*w&l*m*=                                       ",
"        n*o*                            p*q*r*6*u&s*u&t*                                        ",
"                                        u*v*w*5*#*#*x*y*                                        ",
"                                          z*A*B*C*q*D*E*                                        ",
"                                            F*G*H*I*J*^*                                        ",
"                                                K*L*X.                                          ",
"                                                                                                ",
"                                                                                                ",
"                                                                                                ",
"                                                                                                ",
"                                                                                                ",
"                                                                                                ",
"                                                                                                ",
"                                                                                                "};
