/* XPM */
static char * swim_right_5_xpm[] = {
"48 48 774 2",
"  	c #6DBADE",
". 	c #6CB8DB",
"+ 	c #65B1CD",
"@ 	c #5DA8BD",
"# 	c #5AA5B8",
"$ 	c #59A5B7",
"% 	c #59A4B8",
"& 	c #5CA5BA",
"* 	c #63AFCA",
"= 	c #6CB9DC",
"- 	c #60ACC2",
"; 	c #4B9F9C",
"> 	c #2D9363",
", 	c #199353",
"' 	c #18914D",
") 	c #188647",
"! 	c #198146",
"~ 	c #1C7C45",
"{ 	c #1D7544",
"] 	c #217844",
"^ 	c #247949",
"/ 	c #509BA4",
"( 	c #5BA3B4",
"_ 	c #2A8A5A",
": 	c #16974A",
"< 	c #11964F",
"[ 	c #149B4B",
"} 	c #139C50",
"| 	c #15984E",
"1 	c #168D48",
"2 	c #188747",
"3 	c #1A8046",
"4 	c #1E7A45",
"5 	c #3F8C82",
"6 	c #6CB8DC",
"7 	c #479689",
"8 	c #179147",
"9 	c #108A44",
"0 	c #12A04B",
"a 	c #10A14F",
"b 	c #10A24E",
"c 	c #11A34F",
"d 	c #129F51",
"e 	c #14934A",
"f 	c #178D48",
"g 	c #188247",
"h 	c #1E7F45",
"i 	c #45918F",
"j 	c #6BB8DB",
"k 	c #6DBADD",
"l 	c #469288",
"m 	c #138E49",
"n 	c #139F4B",
"o 	c #0F9C49",
"p 	c #0DA14A",
"q 	c #0DAD4E",
"r 	c #0DA950",
"s 	c #0FAA4E",
"t 	c #0EA453",
"u 	c #11994A",
"v 	c #1D9248",
"w 	c #228846",
"x 	c #228345",
"y 	c #1F7945",
"z 	c #55A1B0",
"A 	c #549FA5",
"B 	c #179549",
"C 	c #11964B",
"D 	c #0EA04C",
"E 	c #0DAF4E",
"F 	c #3BAE47",
"G 	c #68C244",
"H 	c #A0D93D",
"I 	c #ABD736",
"J 	c #C2E42E",
"K 	c #AECC25",
"L 	c #B1CB28",
"M 	c #C9DA21",
"N 	c #99EF66",
"O 	c #DCEA2A",
"P 	c #D2E061",
"Q 	c #C4DA8E",
"R 	c #A9D0BB",
"S 	c #70BBDD",
"T 	c #63AAC4",
"U 	c #3D8D78",
"V 	c #1B9747",
"W 	c #10A74D",
"X 	c #4BB349",
"Y 	c #9EDB3A",
"Z 	c #CFFC2B",
"` 	c #C8EE27",
" .	c #D4F726",
"..	c #C9EE27",
"+.	c #DEF41F",
"@.	c #D7EA1D",
"#.	c #E5F319",
"$.	c #D0EE3D",
"%.	c #DFF12C",
"&.	c #EEF311",
"*.	c #E4EA10",
"=.	c #E3E80E",
"-.	c #F7F708",
";.	c #E8F063",
">.	c #93C8CB",
",.	c #6CB7DA",
"'.	c #32825A",
").	c #138744",
"!.	c #168C42",
"~.	c #55B647",
"{.	c #B7F031",
"].	c #ABEA32",
"^.	c #D4FF2A",
"/.	c #D5FE29",
"(.	c #B2E92E",
"_.	c #D6F625",
":.	c #DAF323",
"<.	c #E1F51E",
"[.	c #D5EB25",
"}.	c #D2ED34",
"|.	c #DDF02D",
"1.	c #EDF211",
"2.	c #BCF75D",
"3.	c #F1F411",
"4.	c #F5F60A",
"5.	c #F8F807",
"6.	c #F6F832",
"7.	c #A5CFBF",
"8.	c #579AA5",
"9.	c #18904A",
"0.	c #12A44C",
"a.	c #B4EA35",
"b.	c #D1FE2C",
"c.	c #C4F42C",
"d.	c #D9FA25",
"e.	c #AACC22",
"f.	c #CEE620",
"g.	c #9ED13B",
"h.	c #C8E32B",
"i.	c #E7F217",
"j.	c #E3EC15",
"k.	c #DEF433",
"l.	c #EFF311",
"m.	c #F2F40C",
"n.	c #F7F814",
"o.	c #A0CDC2",
"p.	c #63ABCA",
"q.	c #6BB7DA",
"r.	c #2E8355",
"s.	c #13904E",
"t.	c #10994F",
"u.	c #5EBA49",
"v.	c #CEF92A",
"w.	c #D3FE2A",
"x.	c #D3FF2A",
"y.	c #A3EC47",
"z.	c #B8E328",
"A.	c #C5EB26",
"B.	c #D1F224",
"C.	c #DBF622",
"D.	c #DFF51F",
"E.	c #D2E828",
"F.	c #E5F31A",
"G.	c #D2E219",
"H.	c #EAF214",
"I.	c #EDF312",
"J.	c #EFF30F",
"K.	c #F1F40D",
"L.	c #F3F50C",
"M.	c #F4F50A",
"N.	c #F0F434",
"O.	c #89C4D0",
"P.	c #60A9C4",
"Q.	c #1F7340",
"R.	c #478B95",
"S.	c #60A2B8",
"T.	c #1C8947",
"U.	c #179449",
"V.	c #139E4C",
"W.	c #A7E13A",
"X.	c #AFDB27",
"Y.	c #D0FB2A",
"Z.	c #D4FE29",
"`.	c #B6E238",
" +	c #D7F726",
".+	c #91DF4D",
"++	c #D9F325",
"@+	c #E2F41C",
"#+	c #E9F215",
"$+	c #ECF213",
"%+	c #F0F40E",
"&+	c #F1F40E",
"*+	c #E1EC63",
"=+	c #72BCDC",
"-+	c #6CB9DD",
";+	c #2B7361",
">+	c #186C3A",
",+	c #18723D",
"'+	c #62AEC9",
")+	c #4C8A8D",
"!+	c #167B41",
"~+	c #148744",
"{+	c #49A343",
"]+	c #C4F12B",
"^+	c #CDF92A",
"/+	c #CCF82A",
"(+	c #CCF72A",
"_+	c #B5E128",
":+	c #C0EC29",
"<+	c #B3EE3E",
"[+	c #CAF62B",
"}+	c #D0F527",
"|+	c #C2EE33",
"1+	c #D8F322",
"2+	c #DCF21F",
"3+	c #C8DF1E",
"4+	c #E2F21B",
"5+	c #E5F219",
"6+	c #E8F217",
"7+	c #EAF215",
"8+	c #EBF213",
"9+	c #EDF311",
"0+	c #C2DD99",
"a+	c #7FBFE0",
"b+	c #7BBEE0",
"c+	c #5CA3BE",
"d+	c #0D6B32",
"e+	c #0C7435",
"f+	c #13793B",
"g+	c #28835F",
"h+	c #3C7D66",
"i+	c #198345",
"j+	c #1C8E47",
"k+	c #96CC33",
"l+	c #AEDB28",
"m+	c #C3EF29",
"n+	c #A7F35A",
"o+	c #BFEE2F",
"p+	c #BBE729",
"q+	c #C1ED29",
"r+	c #B1E836",
"s+	c #C1EE2A",
"t+	c #C3EE29",
"u+	c #C7ED27",
"v+	c #CBED24",
"w+	c #D0ED22",
"x+	c #D4ED20",
"y+	c #D8ED1E",
"z+	c #DCEE1C",
"A+	c #E0EF1A",
"B+	c #E3F018",
"C+	c #E4EF18",
"D+	c #D8E474",
"E+	c #EDF2BB",
"F+	c #F4F8BB",
"G+	c #EDF46B",
"H+	c #E8EBC9",
"I+	c #F4F4F4",
"J+	c #C6DFEF",
"K+	c #3A8486",
"L+	c #106B3B",
"M+	c #0C7D39",
"N+	c #0D873B",
"O+	c #9DD132",
"P+	c #ACDF7E",
"Q+	c #81C4CD",
"R+	c #4D8F8D",
"S+	c #278945",
"T+	c #8EC738",
"U+	c #BCE828",
"V+	c #BAE728",
"W+	c #B9E628",
"X+	c #A4E950",
"Y+	c #B6E52B",
"Z+	c #B7E428",
"`+	c #A2D026",
" @	c #AAD727",
".@	c #B8E428",
"+@	c #B8E528",
"@@	c #BAE628",
"#@	c #BDE627",
"$@	c #C2E624",
"%@	c #C7E623",
"&@	c #CBE721",
"*@	c #D0E81F",
"=@	c #D4E91D",
"-@	c #D8EA1C",
";@	c #BACF81",
">@	c #E6E6E5",
",@	c #EEEEEE",
"'@	c #FAFAFA",
")@	c #F4F4EF",
"!@	c #EDF59B",
"~@	c #8D8E79",
"{@	c #A2A0A0",
"]@	c #70B1D1",
"^@	c #1A6444",
"/@	c #0D7341",
"(@	c #0D7D40",
"_@	c #55A83D",
":@	c #C2EE29",
"<@	c #BFEC29",
"[@	c #BDE929",
"}@	c #A8DA6C",
"|@	c #89C287",
"1@	c #A8D733",
"2@	c #B4E128",
"3@	c #B2DF28",
"4@	c #B1DE28",
"5@	c #AFDD28",
"6@	c #AEDC28",
"7@	c #ADDA28",
"8@	c #ABD827",
"9@	c #ACD927",
"0@	c #ADDB28",
"a@	c #AFDC28",
"b@	c #B0DD28",
"c@	c #B3DE27",
"d@	c #B8DF25",
"e@	c #BDE023",
"f@	c #C2E122",
"g@	c #C7E220",
"h@	c #C4DF20",
"i@	c #B9C4B5",
"j@	c #E4E4E4",
"k@	c #CECECE",
"l@	c #8D8C8C",
"m@	c #575454",
"n@	c #D2D4BE",
"o@	c #C4D228",
"p@	c #3C3A26",
"q@	c #71ABC9",
"r@	c #61AAC8",
"s@	c #0F622F",
"t@	c #0E7B3A",
"u@	c #0B9342",
"v@	c #78BD3B",
"w@	c #AFDD2A",
"x@	c #5CA03A",
"y@	c #4A953C",
"z@	c #579C3A",
"A@	c #A6D429",
"B@	c #A9D627",
"C@	c #A7D527",
"D@	c #A6D427",
"E@	c #A4D227",
"F@	c #A3D227",
"G@	c #A3D127",
"H@	c #A2D027",
"I@	c #A6D328",
"J@	c #A6D127",
"K@	c #B0D625",
"L@	c #B1D423",
"M@	c #BBC5BA",
"N@	c #ECECEC",
"O@	c #B9B9B9",
"P@	c #241C1C",
"Q@	c #BEBDBD",
"R@	c #DBEF53",
"S@	c #D3E573",
"T@	c #7BBFDD",
"U@	c #569CB2",
"V@	c #116A34",
"W@	c #0E7F3B",
"X@	c #0E9342",
"Y@	c #7BC43B",
"Z@	c #B3E028",
"`@	c #96C730",
" #	c #49943E",
".#	c #49933F",
"+#	c #48933F",
"@#	c #8CBE37",
"##	c #A0CE2B",
"$#	c #9ECC26",
"%#	c #9CCA27",
"&#	c #9BC926",
"*#	c #9AC826",
"=#	c #99C726",
"-#	c #98C726",
";#	c #99C826",
">#	c #9AC926",
",#	c #9BCA26",
"'#	c #97C828",
")#	c #8DC22A",
"!#	c #85BF30",
"~#	c #89C14C",
"{#	c #A0CD5C",
"]#	c #A8D326",
"^#	c #A0B89A",
"/#	c #E1E1E1",
"(#	c #AFAEAE",
"_#	c #AAA9A9",
":#	c #E9ECE3",
"<#	c #CCE837",
"[#	c #CEEB22",
"}#	c #B9DE76",
"|#	c #74BDD8",
"1#	c #5194A8",
"2#	c #136433",
"3#	c #0F7B3A",
"4#	c #0C9341",
"5#	c #73BF3C",
"6#	c #AFDA3A",
"7#	c #AED743",
"8#	c #9BC845",
"9#	c #489240",
"0#	c #479140",
"a#	c #46903F",
"b#	c #85B641",
"c#	c #A3CA52",
"d#	c #A6CB60",
"e#	c #A8CB68",
"f#	c #A9CB6D",
"g#	c #A7CA6B",
"h#	c #A6C969",
"i#	c #A4C865",
"j#	c #A3C764",
"k#	c #A6C96A",
"l#	c #A7CA6E",
"m#	c #A9CA6E",
"n#	c #AACC72",
"o#	c #A8CA73",
"p#	c #A0C673",
"q#	c #99C377",
"r#	c #85BC66",
"s#	c #7CB964",
"t#	c #76BA3B",
"u#	c #A2D123",
"v#	c #79B030",
"w#	c #C2CEC1",
"x#	c #F1F2F1",
"y#	c #F3F3F3",
"z#	c #EBEEEB",
"A#	c #ADD18A",
"B#	c #BBE427",
"C#	c #C0E726",
"D#	c #BFE426",
"E#	c #A4CF58",
"F#	c #78BCC4",
"G#	c #6EBADB",
"H#	c #78C0D8",
"I#	c #7DC2D4",
"J#	c #5196A8",
"K#	c #116F36",
"L#	c #0D893E",
"M#	c #08A547",
"N#	c #61C344",
"O#	c #9ECC27",
"P#	c #6EA834",
"Q#	c #448F3B",
"R#	c #48903A",
"S#	c #87B92A",
"T#	c #8EBE26",
"U#	c #8CBB25",
"V#	c #89B925",
"W#	c #88B828",
"X#	c #89B733",
"Y#	c #8BB73A",
"Z#	c #8BB83D",
"`#	c #8BB73D",
" $	c #88B536",
".$	c #86B52F",
"+$	c #86B529",
"@$	c #84B525",
"#$	c #79B029",
"$$	c #6CAB2D",
"%$	c #5DA931",
"&$	c #4EA735",
"*$	c #41A738",
"=$	c #60B333",
"-$	c #98CC1D",
";$	c #99CD1E",
">$	c #70AC25",
",$	c #6F9F64",
"'$	c #85AC80",
")$	c #75B042",
"!$	c #A7D826",
"~$	c #B2DF27",
"{$	c #B5E228",
"]$	c #B0DC27",
"^$	c #8CBC1E",
"/$	c #6CA60F",
"($	c #5E9F55",
"_$	c #C6F24A",
":$	c #A4C874",
"<$	c #559BAF",
"[$	c #156D38",
"}$	c #148441",
"|$	c #129E49",
"1$	c #38B84B",
"2$	c #A0CE27",
"3$	c #9CCB27",
"4$	c #94C326",
"5$	c #87B828",
"6$	c #8AB925",
"7$	c #86B625",
"8$	c #84B325",
"9$	c #81B125",
"0$	c #7EAF25",
"a$	c #7DAD25",
"b$	c #7BAB24",
"c$	c #7AAA24",
"d$	c #79AA24",
"e$	c #7AAB24",
"f$	c #78AA26",
"g$	c #6CA62A",
"h$	c #5EA32F",
"i$	c #4FA233",
"j$	c #3EA238",
"k$	c #2CA43C",
"l$	c #53B035",
"m$	c #8BC519",
"n$	c #8CC718",
"o$	c #8FC919",
"p$	c #93CC1A",
"q$	c #97CF1B",
"r$	c #9FD41D",
"s$	c #A5D71F",
"t$	c #ABDB22",
"u$	c #B0DE25",
"v$	c #B4E127",
"w$	c #B4E027",
"x$	c #B9E627",
"y$	c #8DBF1C",
"z$	c #B9DC24",
"A$	c #98B35A",
"B$	c #62ACC9",
"C$	c #126E36",
"D$	c #0C9C4A",
"E$	c #0EA84E",
"F$	c #86C331",
"G$	c #97C626",
"H$	c #93C226",
"I$	c #8FBE24",
"J$	c #76A427",
"K$	c #679B2C",
"L$	c #5EA234",
"M$	c #6BAF31",
"N$	c #78AD27",
"O$	c #79A924",
"P$	c #76A724",
"Q$	c #73A424",
"R$	c #71A324",
"S$	c #70A124",
"T$	c #6FA024",
"U$	c #6EA125",
"V$	c #619D2A",
"W$	c #579D2E",
"X$	c #489D33",
"Y$	c #389F38",
"Z$	c #27A23C",
"`$	c #58B02F",
" %	c #7ABC14",
".%	c #79BD13",
"+%	c #7BBF13",
"@%	c #80C214",
"#%	c #87C615",
"$%	c #8FCB17",
"%%	c #98D01A",
"&%	c #A1D51D",
"*%	c #A8DA20",
"=%	c #AFDE24",
"-%	c #B3E027",
";%	c #BBE728",
">%	c #ABD725",
",%	c #ABC920",
"'%	c #94AE59",
")%	c #1B7148",
"!%	c #0C834B",
"~%	c #0C9349",
"{%	c #299D44",
"]%	c #54A13B",
"^%	c #83B528",
"/%	c #7BB78E",
"(%	c #70BAD6",
"_%	c #437166",
":%	c #216E33",
"<%	c #288C39",
"[%	c #16A547",
"}%	c #20C04D",
"|%	c #4FBF43",
"1%	c #6CA126",
"2%	c #6B9D23",
"3%	c #689A23",
"4%	c #669823",
"5%	c #659723",
"6%	c #649623",
"7%	c #649723",
"8%	c #3E8631",
"9%	c #148339",
"0%	c #238C39",
"a%	c #3B9535",
"b%	c #429D34",
"c%	c #329E39",
"d%	c #65B11B",
"e%	c #67B310",
"f%	c #63B20E",
"g%	c #62B20E",
"h%	c #66B50F",
"i%	c #6FBA10",
"j%	c #7AC012",
"k%	c #86C715",
"l%	c #93CE18",
"m%	c #9ED41B",
"n%	c #A7DA1F",
"o%	c #AFDE23",
"p%	c #B3E127",
"q%	c #B9E528",
"r%	c #B3D724",
"s%	c #94AE5A",
"t%	c #439396",
"u%	c #0D7C43",
"v%	c #228C43",
"w%	c #319142",
"x%	c #268939",
"y%	c #39845B",
"z%	c #5794A8",
"A%	c #2F682B",
"B%	c #1B7E39",
"C%	c #1A9841",
"D%	c #20B046",
"E%	c #1CC04F",
"F%	c #40B044",
"G%	c #609323",
"H%	c #5D9023",
"I%	c #5B8E22",
"J%	c #5A8D22",
"K%	c #508828",
"L%	c #0C7B38",
"M%	c #08883B",
"N%	c #088C3C",
"O%	c #369337",
"P%	c #5AA82E",
"Q%	c #429B34",
"R%	c #5AA91D",
"S%	c #57AB0C",
"T%	c #4CA60A",
"U%	c #45A309",
"V%	c #47A509",
"W%	c #51AB0B",
"X%	c #61B30D",
"Y%	c #72BD10",
"Z%	c #83C614",
"`%	c #91CE18",
" &	c #9ED51B",
".&	c #A5D848",
"+&	c #99D098",
"@&	c #84C5C4",
"#&	c #92CDB4",
"$&	c #B5E365",
"%&	c #A1C46F",
"&&	c #61ACC7",
"*&	c #197B46",
"=&	c #258A4C",
"-&	c #17813B",
";&	c #2E7931",
">&	c #58A5B6",
",&	c #346554",
"'&	c #287031",
")&	c #258839",
"!&	c #1B9A42",
"~&	c #1EA646",
"{&	c #0AA44C",
"]&	c #4C9632",
"^&	c #568922",
"/&	c #538622",
"(&	c #508422",
"_&	c #508322",
":&	c #3D7D2B",
"<&	c #0B7E39",
"[&	c #088B3C",
"}&	c #05953F",
"|&	c #4EA737",
"1&	c #70B428",
"2&	c #55A02E",
"3&	c #539D37",
"4&	c #50A73F",
"5&	c #3C9E08",
"6&	c #299505",
"7&	c #229104",
"8&	c #319906",
"9&	c #48A609",
"0&	c #60B306",
"a&	c #74BE58",
"b&	c #7EC397",
"c&	c #79C0C3",
"d&	c #6EBBDC",
"e&	c #71BCDB",
"f&	c #79BED2",
"g&	c #32927D",
"h&	c #13723A",
"i&	c #267336",
"j&	c #1D7447",
"k&	c #65A9C6",
"l&	c #2A5D31",
"m&	c #2A7431",
"n&	c #298337",
"o&	c #128B40",
"p&	c #0D8B45",
"q&	c #2C8638",
"r&	c #518825",
"s&	c #4E8122",
"t&	c #4A7D21",
"u&	c #477B21",
"v&	c #36782B",
"w&	c #0B7D38",
"x&	c #078D3D",
"y&	c #04993F",
"z&	c #219F3F",
"A&	c #5DA72F",
"B&	c #5F992B",
"C&	c #65ABA6",
"D&	c #6BB8D5",
"E&	c #64B4C4",
"F&	c #62B2C4",
"G&	c #61B1C5",
"H&	c #66B4C9",
"I&	c #6AB7CB",
"J&	c #6DBAD9",
"K&	c #62ADCA",
"L&	c #196B40",
"M&	c #196938",
"N&	c #448A90",
"O&	c #67AAC9",
"P&	c #42726F",
"Q&	c #33672C",
"R&	c #1B6C35",
"S&	c #1A6F3B",
"T&	c #366B39",
"U&	c #497C72",
"V&	c #5A936E",
"W&	c #528524",
"X&	c #4F8222",
"Y&	c #4D8122",
"Z&	c #3E7B2A",
"`&	c #0C7937",
" *	c #05963F",
".*	c #269153",
"+*	c #6CB5CD",
"@*	c #4F98A8",
"#*	c #15562F",
"$*	c #5FA6C2",
"%*	c #6CB5D8",
"&*	c #6AAFD1",
"**	c #6AB1D3",
"=*	c #6BB5D3",
"-*	c #66ADBD",
";*	c #63A6AE",
">*	c #589C9D",
",*	c #0D7336",
"'*	c #0A8039",
")*	c #08893C",
"!*	c #09883B",
"~*	c #2A9369",
"{*	c #66B0D0",
"]*	c #136D3A",
"^*	c #0C7737",
"/*	c #0B7F39",
"(*	c #2C8B69",
"_*	c #3F8686",
":*	c #0F6D34",
"<*	c #0D7536",
"[*	c #0D7737",
"}*	c #3E8F88",
"|*	c #63ADCB",
"1*	c #16653A",
"2*	c #106A34",
"3*	c #469196",
"4*	c #5499AD",
"5*	c #135E31",
"6*	c #126231",
"7*	c #58A0B6",
"8*	c #60A9C6",
"9*	c #5398AC",
"                                                                                                ",
"                                                                                                ",
"                                                                                                ",
"                                                                                                ",
"                                                                                                ",
"                                                                                                ",
"                                                                                                ",
"                                                                                                ",
"                                          . + @ # $ % & * =                                     ",
"                                  = - ; > , ' ) ! ~ { ] ] ^ /                                   ",
"                                ( _ : < [ } | 1 2 3 4 ] ] ] 5                                   ",
"                            6 7 8 9 0 a b c d e f g h ] ] i j                                   ",
"                          k l m n o p q r s t u v w x y z                                       ",
"                          A B C D E F G H I J K L M N O P Q R S                                 ",
"                        T U V W X Y Z `  ...+.@.#.$.%.&.*.=.-.;.>.                              ",
"                      ,.'.).!.~.{.].^./.(._.:.<.[.}.|.1.2.3.4.5.6.7.                            ",
"                      8.9.[ 0.a.^.^.b.^.c.d.e.f.g.h.i.j.k.l.m.4.-.n.o.                          ",
"        p.q.        . r.s.t.u.v.w.x.y.^.z.A.B.C.D.E.F.G.H.I.J.K.L.M.N.O.                        ",
"      P.Q.R.        S.T.U.V.W.X.Y.^.x.w.w.Z.`. +.+++@+F.i.#+$+&.J.%+&+*+=+                      ",
"    -+;+>+,+'+      )+!+~+{+]+^+/+(+_+:+(+<+[+}+|+1+2+3+4+5+6+7+8+I.9+&.0+a+b+                  ",
"    c+d+e+f+g+j     h+i+j+k+l+m+n+o+p+:+q+r+s+t+u+v+w+x+y+z+A+B+C+D+E+F+G+H+I+J+                ",
"    K+L+M+N+O+P+Q+  R+S+T+U+V+W+X+Y+Z+Z+`+ @.@+@@@#@$@%@&@*@=@-@;@>@,@'@)@!@~@{@]@              ",
"  . ^@/@(@_@:@<@[@}@|@1@2@3@4@5@6@l+7@7@8@9@0@l+a@b@c@d@e@f@g@h@i@j@k@l@m@n@o@p@q@              ",
"  r@s@t@u@v@V+Z+w@x@y@z@A@B@C@D@E@F@G@H@H@H@G@G@E@D@C@C@I@J@K@L@M@N@O@P@P@Q@R@S@T@              ",
"  U@V@W@X@Y@Z@b@`@ #.#+#@###$#%#&#*#=#-#-#-#=#;#>#,#'#)#!#~#{#]#^#I+/#(#_#:#<#[#}#|#            ",
"  1#2#3#4#5#6#7#8#9#0#a#b#c#d#e#f#g#h#i#j#k#l#m#n#o#p#q#r#s#t#u#v#w#x#y#z#A#B#C#D#E#F#G#k H#I#  ",
"  J#K#L#M#N#D@H@O#P#Q#R#S#T#U#V#W#X#Y#Z#`# $.$+$@$#$$$%$&$*$=$-$;$>$,$'$)$!$~${$@@]$^$/$($_$:$  ",
"  <$[$}$|$1$2$3$-#4$S#5$6$7$8$9$0$a$b$c$d$d$d$e$f$g$h$i$j$k$l$m$n$o$p$q$r$s$t$u$v$+@w$x$y$z$A$  ",
"  B$C$L#D$E$F$G$H$I$J$K$L$M$N$O$P$Q$R$S$T$T$T$S$U$V$W$X$Y$Z$`$ %.%+%@%#%$%%%&%*%=%-%Z+;%>%,%'%  ",
"  = )%!%~%{%]%^%/%(%_%:%<%[%}%|%1%2%3%4%5%6%7%5%8%9%0%a%b%c%d%e%f%g%h%i%j%k%l%m%n%o%p%+@q%r%s%  ",
"    t%u%v%w%x%y%j   z%A%B%C%D%E%F%6%G%H%I%J%J%K%L%M%N%O%P%Q%R%S%T%U%V%W%X%Y%Z%`% &.&+&@&#&$&%&  ",
"    &&*&=&-&;&>&    ,.,&'&)&!&~&{&]&J%^&/&(&_&:&<&[&}&|&1&2&3&4&5&6&7&8&9&0&a&b&c&d&      e&f&  ",
"      g&h&i&j&j       k&l&m&n&o&p&q&r&/&s&t&u&v&w&x&y&z&A&B&C&D&E&F&G&H&I&J&                    ",
"      K&L&M&N&          O&P&Q&R&S&T&U&V&W&X&Y&Z&`&M%x& *.*+*                                    ",
"        @*#*$*              %*&***6     =*-*;*>*,*'*)*!*~*                                      ",
"          {*                                  j ]*^*'*/*(*                                      ",
"                                                _*:*<*[*}*                                      ",
"                                                |*1*2*:*3*                                      ",
"                                                  4*5*6*7*                                      ",
"                                                    8*9*=                                       ",
"                                                                                                ",
"                                                                                                ",
"                                                                                                ",
"                                                                                                ",
"                                                                                                ",
"                                                                                                ",
"                                                                                                ",
"                                                                                                "};
