/* XPM */
static char * swim_right_3_xpm[] = {
"48 48 702 2",
"  	c #6DBADE",
". 	c #6DB9DD",
"+ 	c #67B3D1",
"@ 	c #5FABC0",
"# 	c #5AA5B9",
"$ 	c #59A5B7",
"% 	c #59A3B8",
"& 	c #5BA5B9",
"* 	c #62ADC7",
"= 	c #6BB8DB",
"- 	c #68B3D1",
"; 	c #54A5AE",
"> 	c #3B987D",
", 	c #1D9250",
"' 	c #169350",
") 	c #198A48",
"! 	c #178046",
"~ 	c #1C7F46",
"{ 	c #1B7444",
"] 	c #217844",
"^ 	c #237948",
"/ 	c #4E99A0",
"( 	c #69B4D4",
"_ 	c #45918B",
": 	c #1A9247",
"< 	c #13974D",
"[ 	c #13994D",
"} 	c #149B4C",
"| 	c #139B52",
"1 	c #169249",
"2 	c #168647",
"3 	c #1A8347",
"4 	c #1C7A45",
"5 	c #3F8C83",
"6 	c #65AECA",
"7 	c #2A9057",
"8 	c #128C45",
"9 	c #119648",
"0 	c #11A34D",
"a 	c #0FA050",
"b 	c #11A34C",
"c 	c #10A153",
"d 	c #14984A",
"e 	c #158C48",
"f 	c #188647",
"g 	c #1D7F46",
"h 	c #217944",
"i 	c #43908B",
"j 	c #6BB8DA",
"k 	c #68B2D1",
"l 	c #258753",
"m 	c #13974A",
"n 	c #11A14B",
"o 	c #0D9747",
"p 	c #0EAC4E",
"q 	c #0CA951",
"r 	c #0EAB4E",
"s 	c #0DA653",
"t 	c #119E4B",
"u 	c #1C9148",
"v 	c #228B46",
"w 	c #218445",
"x 	c #1E7945",
"y 	c #4D999F",
"z 	c #6CB8DC",
"A 	c #36916A",
"B 	c #14974A",
"C 	c #0F974B",
"D 	c #0EAA4D",
"E 	c #3CB44A",
"F 	c #68BC42",
"G 	c #A0DB3D",
"H 	c #ABD736",
"I 	c #C2E52D",
"J 	c #AECC26",
"K 	c #B1CB28",
"L 	c #C9DA21",
"M 	c #99EF66",
"N 	c #DBE927",
"O 	c #D2E15F",
"P 	c #C4DA8E",
"Q 	c #A9D0BB",
"R 	c #70BBDD",
"S 	c #599FAF",
"T 	c #378F6C",
"U 	c #14A04B",
"V 	c #4BB449",
"W 	c #9ED839",
"X 	c #CFFC2B",
"Y 	c #C8EE27",
"Z 	c #D4F726",
"` 	c #C9EE27",
" .	c #DEF41F",
"..	c #D7EA1D",
"+.	c #E5F319",
"@.	c #D0EE3D",
"#.	c #DFF12C",
"$.	c #EEF311",
"%.	c #E4EA10",
"&.	c #E3E80E",
"*.	c #F7F708",
"=.	c #E8F063",
"-.	c #93C8CB",
";.	c #65AAC5",
">.	c #1C8242",
",.	c #128943",
"'.	c #57AA40",
").	c #B7F031",
"!.	c #ABEA32",
"~.	c #D4FF2A",
"{.	c #D5FE29",
"].	c #B2E92E",
"^.	c #D6F625",
"/.	c #DAF323",
"(.	c #E1F51E",
"_.	c #D5EB25",
":.	c #D2ED34",
"<.	c #DDF02D",
"[.	c #EDF211",
"}.	c #BCF75D",
"|.	c #F1F411",
"1.	c #F5F60A",
"2.	c #F8F807",
"3.	c #F6F832",
"4.	c #A5CFBF",
"5.	c #418C79",
"6.	c #17944A",
"7.	c #159F4B",
"8.	c #B4EA35",
"9.	c #D1FE2C",
"0.	c #C4F42C",
"a.	c #D9FA25",
"b.	c #AACC22",
"c.	c #CEE620",
"d.	c #9ED13B",
"e.	c #C8E32B",
"f.	c #E7F217",
"g.	c #E3EC15",
"h.	c #DEF433",
"i.	c #EFF311",
"j.	c #F2F40C",
"k.	c #F7F814",
"l.	c #A0CDC2",
"m.	c #66ABC8",
"n.	c #1B874B",
"o.	c #12934F",
"p.	c #5FB549",
"q.	c #CEF92A",
"r.	c #D3FE2A",
"s.	c #D3FF2A",
"t.	c #A3EC47",
"u.	c #B8E328",
"v.	c #C5EB26",
"w.	c #D1F224",
"x.	c #DBF622",
"y.	c #DFF51F",
"z.	c #D2E828",
"A.	c #E5F31A",
"B.	c #D2E219",
"C.	c #EAF214",
"D.	c #EDF312",
"E.	c #EFF30F",
"F.	c #F1F40D",
"G.	c #F3F50C",
"H.	c #F4F50A",
"I.	c #F0F434",
"J.	c #89C4D0",
"K.	c #6DBADD",
"L.	c #60A8C4",
"M.	c #4F9394",
"N.	c #1A8D48",
"O.	c #16984A",
"P.	c #A8E039",
"Q.	c #AFDB27",
"R.	c #D0FB2A",
"S.	c #D4FE29",
"T.	c #B6E238",
"U.	c #D7F726",
"V.	c #91DF4D",
"W.	c #D9F325",
"X.	c #E2F41C",
"Y.	c #E9F215",
"Z.	c #ECF213",
"`.	c #F0F40E",
" +	c #F1F40E",
".+	c #E1EC63",
"++	c #72BCDC",
"@+	c #60A9C4",
"#+	c #277554",
"$+	c #6CB9DD",
"%+	c #367659",
"&+	c #167E42",
"*+	c #499C42",
"=+	c #C4F02A",
"-+	c #CDF92A",
";+	c #CCF82A",
">+	c #CCF72A",
",+	c #B5E128",
"'+	c #C0EC29",
")+	c #B3EE3E",
"!+	c #CAF62B",
"~+	c #D0F527",
"{+	c #C2EE33",
"]+	c #D8F322",
"^+	c #DCF21F",
"/+	c #C8DF1E",
"(+	c #E2F21B",
"_+	c #E5F219",
":+	c #E8F217",
"<+	c #EAF215",
"[+	c #EBF213",
"}+	c #EDF311",
"|+	c #C2DD99",
"1+	c #7FBFE0",
"2+	c #7BBEE0",
"3+	c #489299",
"4+	c #157139",
"5+	c #5DAAC1",
"6+	c #6CB7DA",
"7+	c #28753D",
"8+	c #198646",
"9+	c #8CC335",
"0+	c #AEDB28",
"a+	c #C3EF29",
"b+	c #A7F35A",
"c+	c #BFEE2F",
"d+	c #BBE729",
"e+	c #C1ED29",
"f+	c #B1E836",
"g+	c #C1EE2A",
"h+	c #C3EE29",
"i+	c #C7ED27",
"j+	c #CBED24",
"k+	c #D0ED22",
"l+	c #D4ED20",
"m+	c #D8ED1E",
"n+	c #DCEE1C",
"o+	c #E0EF1A",
"p+	c #E3F018",
"q+	c #E4EF18",
"r+	c #D8E474",
"s+	c #EDF2BB",
"t+	c #F4F8BB",
"u+	c #EDF46B",
"v+	c #E8EBC9",
"w+	c #F4F4F4",
"x+	c #C6DFEF",
"y+	c #30796D",
"z+	c #0B7E39",
"A+	c #40948B",
"B+	c #3A8062",
"C+	c #64A740",
"D+	c #BAE729",
"E+	c #BAE728",
"F+	c #B9E628",
"G+	c #A4E950",
"H+	c #B6E52B",
"I+	c #B7E428",
"J+	c #A2D026",
"K+	c #AAD727",
"L+	c #B8E428",
"M+	c #B8E528",
"N+	c #BAE628",
"O+	c #BDE627",
"P+	c #C2E624",
"Q+	c #C7E623",
"R+	c #CBE721",
"S+	c #D0E81F",
"T+	c #D4E91D",
"U+	c #D8EA1C",
"V+	c #BACF81",
"W+	c #E6E6E5",
"X+	c #EEEEEE",
"Y+	c #FAFAFA",
"Z+	c #F4F4EF",
"`+	c #EDF59B",
" @	c #8D8E79",
".@	c #A2A0A0",
"+@	c #70B1D1",
"@@	c #126D45",
"#@	c #11893F",
"$@	c #81BD36",
"%@	c #9AD2A1",
"&@	c #77BED2",
"*@	c #85C5BE",
"=@	c #B2DF2A",
"-@	c #B2DF28",
";@	c #B1DE28",
">@	c #AFDD28",
",@	c #AEDC28",
"'@	c #ADDA28",
")@	c #ABD827",
"!@	c #ACD927",
"~@	c #ADDB28",
"{@	c #AFDC28",
"]@	c #B0DD28",
"^@	c #B3DE27",
"/@	c #B8DF25",
"(@	c #BDE023",
"_@	c #C2E122",
":@	c #C7E220",
"<@	c #C4DF20",
"[@	c #B9C4B5",
"}@	c #E4E4E4",
"|@	c #CECECE",
"1@	c #8D8C8C",
"2@	c #575454",
"3@	c #D2D4BE",
"4@	c #C4D228",
"5@	c #3C3A26",
"6@	c #71ABC9",
"7@	c #65B0CF",
"8@	c #0F7036",
"9@	c #73B438",
"0@	c #9FD02E",
"a@	c #60A23A",
"b@	c #51993A",
"c@	c #6EAB37",
"d@	c #A8D628",
"e@	c #A9D627",
"f@	c #A7D527",
"g@	c #A6D427",
"h@	c #A4D227",
"i@	c #A3D227",
"j@	c #A3D127",
"k@	c #A2D027",
"l@	c #A6D328",
"m@	c #A6D127",
"n@	c #B0D625",
"o@	c #B1D423",
"p@	c #BBC5BA",
"q@	c #ECECEC",
"r@	c #B9B9B9",
"s@	c #241C1C",
"t@	c #BEBDBD",
"u@	c #DBEF53",
"v@	c #D3E573",
"w@	c #7BBFDD",
"x@	c #0F7638",
"y@	c #8AC433",
"z@	c #7CB435",
"A@	c #49943C",
"B@	c #49933F",
"C@	c #48933F",
"D@	c #8DBF36",
"E@	c #A0CE2B",
"F@	c #9ECC26",
"G@	c #9CCA27",
"H@	c #9BC926",
"I@	c #9AC826",
"J@	c #99C726",
"K@	c #98C726",
"L@	c #99C826",
"M@	c #9AC926",
"N@	c #9BCA26",
"O@	c #97C828",
"P@	c #8DC22A",
"Q@	c #85BF30",
"R@	c #89C14C",
"S@	c #A0CD5C",
"T@	c #A8D326",
"U@	c #A0B89A",
"V@	c #E1E1E1",
"W@	c #AFAEAE",
"X@	c #AAA9A9",
"Y@	c #E9ECE3",
"Z@	c #CCE837",
"`@	c #CEEB22",
" #	c #BEE376",
".#	c #76BED8",
"+#	c #5BA2BC",
"@#	c #117036",
"##	c #7BB84D",
"$#	c #91C04A",
"%#	c #489242",
"&#	c #479141",
"*#	c #46903F",
"=#	c #85B641",
"-#	c #A3CA52",
";#	c #A6CB60",
">#	c #A8CB68",
",#	c #A9CB6D",
"'#	c #A7CA6B",
")#	c #A6C969",
"!#	c #A4C865",
"~#	c #A3C764",
"{#	c #A6C96A",
"]#	c #A7CA6E",
"^#	c #A9CA6E",
"/#	c #AACC72",
"(#	c #A8CA73",
"_#	c #A0C673",
":#	c #99C377",
"<#	c #85BC66",
"[#	c #7CB964",
"}#	c #76BA3B",
"|#	c #A2D123",
"1#	c #79B030",
"2#	c #C2CEC1",
"3#	c #F1F2F1",
"4#	c #F3F3F3",
"5#	c #EBEEEB",
"6#	c #ADD18A",
"7#	c #BBE427",
"8#	c #C0E726",
"9#	c #C4EA26",
"0#	c #B8E059",
"a#	c #7FC1CA",
"b#	c #5DA5BF",
"c#	c #0F813C",
"d#	c #30B14A",
"e#	c #97CB2B",
"f#	c #6EA834",
"g#	c #448F3B",
"h#	c #48903A",
"i#	c #87B92A",
"j#	c #8EBE26",
"k#	c #8CBB25",
"l#	c #89B925",
"m#	c #88B828",
"n#	c #89B733",
"o#	c #8BB73A",
"p#	c #8BB83D",
"q#	c #8BB73D",
"r#	c #88B536",
"s#	c #86B52F",
"t#	c #86B529",
"u#	c #84B525",
"v#	c #79B029",
"w#	c #6CAB2D",
"x#	c #5DA931",
"y#	c #4EA735",
"z#	c #41A738",
"A#	c #60B333",
"B#	c #98CC1D",
"C#	c #99CD1E",
"D#	c #70AC25",
"E#	c #6F9F64",
"F#	c #85AC80",
"G#	c #75B042",
"H#	c #A7D826",
"I#	c #B2DF27",
"J#	c #B5E228",
"K#	c #B7E228",
"L#	c #9AC724",
"M#	c #78B58F",
"N#	c #71BACB",
"O#	c #61AAC7",
"P#	c #147A3C",
"Q#	c #0CA94B",
"R#	c #52B343",
"S#	c #91C127",
"T#	c #88B92A",
"U#	c #87B828",
"V#	c #8AB925",
"W#	c #86B625",
"X#	c #84B325",
"Y#	c #81B125",
"Z#	c #7EAF25",
"`#	c #7DAD25",
" $	c #7BAB24",
".$	c #7AAA24",
"+$	c #79AA24",
"@$	c #7AAB24",
"#$	c #78AA26",
"$$	c #6CA62A",
"%$	c #5EA32F",
"&$	c #4FA233",
"*$	c #3EA238",
"=$	c #2CA43C",
"-$	c #53B035",
";$	c #8BC519",
">$	c #75B426",
",$	c #479133",
"'$	c #88C21F",
")$	c #97CF1B",
"!$	c #9FD41D",
"~$	c #A5D71F",
"{$	c #ABDB22",
"]$	c #B0DE25",
"^$	c #B4E127",
"/$	c #B3E027",
"($	c #B0DD25",
"_$	c #94C51D",
":$	c #B7E764",
"<$	c #69B5D6",
"[$	c #107C3E",
"}$	c #0F9D4B",
"|$	c #35983F",
"1$	c #5CA7A0",
"2$	c #7ABBB4",
"3$	c #78B294",
"4$	c #6C9C27",
"5$	c #74A829",
"6$	c #79AC26",
"7$	c #79A924",
"8$	c #76A724",
"9$	c #73A424",
"0$	c #71A324",
"a$	c #70A124",
"b$	c #6FA024",
"c$	c #6EA125",
"d$	c #639E2A",
"e$	c #579D2E",
"f$	c #489D33",
"g$	c #389F38",
"h$	c #27A23C",
"i$	c #58B02F",
"j$	c #69B123",
"k$	c #10883A",
"l$	c #0A7F39",
"m$	c #5EA328",
"n$	c #87C615",
"o$	c #8FCB17",
"p$	c #98D01A",
"q$	c #A1D51D",
"r$	c #A8DA20",
"s$	c #AFDE24",
"t$	c #BCE929",
"u$	c #B1DE26",
"v$	c #C4F036",
"w$	c #6EBBDD",
"x$	c #1B7F59",
"y$	c #2A9142",
"z$	c #2D883A",
"A$	c #69B6D6",
"B$	c #66ACCB",
"C$	c #29652D",
"D$	c #1C843B",
"E$	c #22A745",
"F$	c #4FB73F",
"G$	c #6CA126",
"H$	c #6B9D23",
"I$	c #689A23",
"J$	c #669823",
"K$	c #659723",
"L$	c #649623",
"M$	c #649723",
"N$	c #669824",
"O$	c #5E9728",
"P$	c #54972D",
"Q$	c #4A9931",
"R$	c #3E9B35",
"S$	c #329E39",
"T$	c #61AF23",
"U$	c #238E38",
"V$	c #078F3D",
"W$	c #0A833A",
"X$	c #42932A",
"Y$	c #6FBA10",
"Z$	c #7AC012",
"`$	c #86C715",
" %	c #93CE18",
".%	c #9ED41B",
"+%	c #A7DA1F",
"@%	c #AFDE23",
"#%	c #B3E127",
"$%	c #BCE829",
"%%	c #BFEC3C",
"&%	c #6EBADD",
"*%	c #3C8C83",
"=%	c #208845",
"-%	c #3B896F",
";%	c #6BB4D6",
">%	c #2D612D",
",%	c #1E8039",
"'%	c #22A041",
")%	c #1CBA4D",
"!%	c #40B345",
"~%	c #609323",
"{%	c #5D9023",
"]%	c #5B8E22",
"^%	c #5A8D22",
"/%	c #5E9023",
"(%	c #5C9125",
"_%	c #569229",
":%	c #4F942D",
"<%	c #489731",
"[%	c #419A34",
"}%	c #5EAA2D",
"|%	c #339E3B",
"1%	c #06923E",
"2%	c #09833A",
"3%	c #2E8929",
"4%	c #51AB0B",
"5%	c #61B30D",
"6%	c #72BD10",
"7%	c #83C614",
"8%	c #91CE18",
"9%	c #9ED51B",
"0%	c #A5D848",
"a%	c #99D098",
"b%	c #8AC9BB",
"c%	c #8CCABD",
"d%	c #8DCBBD",
"e%	c #53A5B1",
"f%	c #1D7439",
"g%	c #4D98A1",
"h%	c #3C6C61",
"i%	c #2A7832",
"j%	c #21913E",
"k%	c #15A448",
"l%	c #0CAA4D",
"m%	c #4D9631",
"n%	c #568922",
"o%	c #538622",
"p%	c #508422",
"q%	c #508322",
"r%	c #528522",
"s%	c #558822",
"t%	c #598C22",
"u%	c #5F9324",
"v%	c #53942B",
"w%	c #519A2E",
"x%	c #6FB328",
"y%	c #33A03B",
"z%	c #05953F",
"A%	c #0A8039",
"B%	c #1A8126",
"C%	c #319906",
"D%	c #48A609",
"E%	c #60B306",
"F%	c #74BE58",
"G%	c #7EC397",
"H%	c #79C0C3",
"I%	c #6EBBDC",
"J%	c #68B3D4",
"K%	c #18693B",
"L%	c #5CA4BD",
"M%	c #62A2BD",
"N%	c #2B662F",
"O%	c #217E38",
"P%	c #0D8A45",
"Q%	c #1F903F",
"R%	c #24873A",
"S%	c #568621",
"T%	c #4E8122",
"U%	c #4A7D21",
"V%	c #477B21",
"W%	c #4B7E21",
"X%	c #548722",
"Y%	c #5E9123",
"Z%	c #5D9326",
"`%	c #609A2B",
" &	c #50A143",
".&	c #039B40",
"+&	c #09883B",
"@&	c #0C7A38",
"#&	c #499699",
"$&	c #66B4C9",
"%&	c #6AB7CB",
"&&	c #6DBAD9",
"*&	c #448690",
"=&	c #63A3BF",
"-&	c #3C7368",
";&	c #1B6F3B",
">&	c #2E7631",
",&	c #2B6E30",
"'&	c #3C6830",
")&	c #588D60",
"!&	c #528524",
"~&	c #4F8222",
"{&	c #4D8122",
"]&	c #4E8222",
"^&	c #5A8D21",
"/&	c #609446",
"(&	c #67A492",
"_&	c #6CB5CD",
":&	c #43A093",
"<&	c #088B3C",
"[&	c #09853A",
"}&	c #0E7236",
"|&	c #5EA7C1",
"1&	c #6AB0D1",
"2&	c #64A4C1",
"3&	c #63A4C0",
"4&	c #6AB2D4",
"5&	c #6BB5D3",
"6&	c #66ADBD",
"7&	c #63A6AE",
"8&	c #63A6AB",
"9&	c #64A8AF",
"0&	c #68AEC0",
"a&	c #6BB5D0",
"b&	c #489F9C",
"c&	c #0A823A",
"d&	c #0C7B38",
"e&	c #126B37",
"f&	c #69B5D7",
"g&	c #4F9FA6",
"h&	c #0E7135",
"i&	c #377D78",
"j&	c #56A3B4",
"k&	c #0E7035",
"l&	c #116632",
"m&	c #5BA3BC",
"n&	c #61ADC8",
"o&	c #116532",
"p&	c #357772",
"q&	c #6CB9DC",
"r&	c #458891",
"s&	c #67B2D3",
"                                                                                                ",
"                                                                                                ",
"                                                                                                ",
"                                                                                                ",
"                                                                                                ",
"                                                                                                ",
"                                                                                                ",
"                                                                                                ",
"                                          . + @ # $ % & * =                                     ",
"                                    - ; > , ' ) ! ~ { ] ] ^ /                                   ",
"                                ( _ : < [ } | 1 2 3 4 ] ] ] 5                                   ",
"                              6 7 8 9 0 a b c d e f g h ] i j                                   ",
"                            k l m n o p q r s t u v w x y                                       ",
"                          z A B C D E F G H I J K L M N O P Q R                                 ",
"                          S T U V W X Y Z `  ...+.@.#.$.%.&.*.=.-.                              ",
"                        ;.>.,.'.).!.~.{.].^./.(._.:.<.[.}.|.1.2.3.4.                            ",
"                        5.6.7.8.~.~.9.~.0.a.b.c.d.e.f.g.h.i.j.1.*.k.l.                          ",
"                      m.n.o.p.q.r.s.t.~.u.v.w.x.y.z.A.B.C.D.E.F.G.H.I.J.                        ",
"            K.L.      M.N.O.P.Q.R.~.s.r.r.S.T.U.V.W.X.A.f.Y.Z.$.E.`. +.+++                      ",
"            @+#+$+    %+&+*+=+-+;+>+,+'+>+)+!+~+{+]+^+/+(+_+:+<+[+D.}+$.|+1+2+                  ",
"            3+4+5+  6+7+8+9+0+a+b+c+d+'+e+f+g+h+i+j+k+l+m+n+o+p+q+r+s+t+u+v+w+x+                ",
"            y+z+A+  K.B+C+D+E+F+G+H+I+I+J+K+L+M+N+O+P+Q+R+S+T+U+V+W+X+Y+Z+`+ @.@+@              ",
"          z @@#@$@%@&@*@=@-@;@>@,@0+'@'@)@!@~@0+{@]@^@/@(@_@:@<@[@}@|@1@2@3@4@5@6@              ",
"          7@8@9@0@a@b@c@d@e@f@g@h@i@j@k@k@k@j@j@h@g@f@f@l@m@n@o@p@q@r@s@s@t@u@v@w@              ",
"          L.x@y@z@A@B@C@D@E@F@G@H@I@J@K@K@K@J@L@M@N@O@P@Q@R@S@T@U@w+V@W@X@Y@Z@`@ #.#            ",
"          +#@###$#%#&#*#=#-#;#>#,#'#)#!#~#{#]#^#/#(#_#:#<#[#}#|#1#2#3#4#5#6#7#8#9#0#a#          ",
"          b#c#d#e#f#g#h#i#j#k#l#m#n#o#p#q#r#s#t#u#v#w#x#y#z#A#B#C#D#E#F#G#H#I#J#N+K#L#M#N#      ",
"          O#P#Q#R#S#T#U#V#W#X#Y#Z#`# $.$+$+$+$@$#$$$%$&$*$=$-$;$>$,$'$)$!$~${$]$^$M+/$($_$:$    ",
"          <$[$}$|$1$2$3$4$5$6$7$8$9$0$a$b$b$b$a$c$d$e$f$g$h$i$j$k$l$m$n$o$p$q$r$s$/$I+t$u$v$w$  ",
"          K.x$y$z$A$  B$C$D$E$F$G$H$I$J$K$L$M$J$N$O$P$Q$R$S$T$U$V$W$X$Y$Z$`$ %.%+%@%#%M+$%%%&%  ",
"            *%=%-%    ;%>%,%'%)%!%L$~%{%]%^%^%]%/%(%_%:%<%[%}%|%1%2%3%4%5%6%7%8%9%0%a%b%c%d%    ",
"            e%f%g%      h%i%j%k%l%m%^%n%o%p%q%r%s%t%{%u%v%w%x%y%z%A%B%C%D%E%F%G%H%I%            ",
"            J%K%L%      M%N%O%P%Q%R%S%o%T%U%V%W%q%X%t%Y%Z%`% &.&+&@&#&$&%&&&                    ",
"              *&J%        =&-&;&>&,&'&)&!&~&{&]&r%n%^&/&(&_&:&<&[&}&|&                          ",
"                              1&2&3&4&  5&6&7&8&9&0&a&      b&c&d&e&f&                          ",
"                                                            g&@&h&i&                            ",
"                                                            j&k&l&m&                            ",
"                                                            n&o&p&K.                            ",
"                                                            q&r&s&                              ",
"                                                                                                ",
"                                                                                                ",
"                                                                                                ",
"                                                                                                ",
"                                                                                                ",
"                                                                                                ",
"                                                                                                ",
"                                                                                                ",
"                                                                                                "};
