/* XPM */
static char * swim_right_4_xpm[] = {
"48 48 745 2",
"  	c #6DBADE",
". 	c #6CB9DB",
"+ 	c #65B1CD",
"@ 	c #5DA8BD",
"# 	c #5AA5B9",
"$ 	c #59A5B7",
"% 	c #59A3B8",
"& 	c #5CA5BA",
"* 	c #63AECA",
"= 	c #6DB9DD",
"- 	c #60ACC3",
"; 	c #4CA09E",
"> 	c #309468",
", 	c #1A9353",
"' 	c #17914D",
") 	c #188747",
"! 	c #198146",
"~ 	c #1C7C45",
"{ 	c #1D7544",
"] 	c #217844",
"^ 	c #247949",
"/ 	c #4F9AA2",
"( 	c #5CA4B8",
"_ 	c #2D8A5F",
": 	c #16974A",
"< 	c #11964F",
"[ 	c #149B4B",
"} 	c #139C50",
"| 	c #14994F",
"1 	c #168E48",
"2 	c #1A8046",
"3 	c #1E7A45",
"4 	c #3F8C83",
"5 	c #6DB9DC",
"6 	c #49978E",
"7 	c #179147",
"8 	c #108944",
"9 	c #12A04B",
"0 	c #10A14F",
"a 	c #10A24E",
"b 	c #11A34E",
"c 	c #129F51",
"d 	c #14944A",
"e 	c #178D48",
"f 	c #188347",
"g 	c #1E7F45",
"h 	c #469291",
"i 	c #6BB8DB",
"j 	c #4A9590",
"k 	c #138D49",
"l 	c #139F4B",
"m 	c #0F9D49",
"n 	c #0DA04A",
"o 	c #0DAE4E",
"p 	c #0CA950",
"q 	c #0FAA4E",
"r 	c #0EA553",
"s 	c #11994A",
"t 	c #1D9248",
"u 	c #228846",
"v 	c #228345",
"w 	c #1F7945",
"x 	c #55A1B0",
"y 	c #57A2AD",
"z 	c #189448",
"A 	c #11974B",
"B 	c #0E9F4C",
"C 	c #0DAF4E",
"D 	c #3BAE48",
"E 	c #68C144",
"F 	c #A0D93D",
"G 	c #ABD736",
"H 	c #C2E42E",
"I 	c #AECC25",
"J 	c #B1CB28",
"K 	c #C9DA21",
"L 	c #99EF66",
"M 	c #DCEA2A",
"N 	c #D2E061",
"O 	c #C4DA8E",
"P 	c #A9D0BB",
"Q 	c #70BBDD",
"R 	c #64AAC6",
"S 	c #479590",
"T 	c #1C9646",
"U 	c #10A64D",
"V 	c #4BB449",
"W 	c #9EDB3A",
"X 	c #CFFC2B",
"Y 	c #C8EE27",
"Z 	c #D4F726",
"` 	c #C9EE27",
" .	c #DEF41F",
"..	c #D7EA1D",
"+.	c #E5F319",
"@.	c #D0EE3D",
"#.	c #DFF12C",
"$.	c #EEF311",
"%.	c #E4EA10",
"&.	c #E3E80E",
"*.	c #F7F708",
"=.	c #E8F063",
"-.	c #93C8CB",
";.	c #6CB8DC",
">.	c #378464",
",.	c #138844",
"'.	c #158C42",
").	c #55B546",
"!.	c #B7F031",
"~.	c #ABEA32",
"{.	c #D4FF2A",
"].	c #D5FE29",
"^.	c #B2E92E",
"/.	c #D6F625",
"(.	c #DAF323",
"_.	c #E1F51E",
":.	c #D5EB25",
"<.	c #D2ED34",
"[.	c #DDF02D",
"}.	c #EDF211",
"|.	c #BCF75D",
"1.	c #F1F411",
"2.	c #F5F60A",
"3.	c #F8F807",
"4.	c #F6F832",
"5.	c #A5CFBF",
"6.	c #5B9FB0",
"7.	c #188F49",
"8.	c #12A54C",
"9.	c #B4EA35",
"0.	c #D1FE2C",
"a.	c #C4F42C",
"b.	c #D9FA25",
"c.	c #AACC22",
"d.	c #CEE620",
"e.	c #9ED13B",
"f.	c #C8E32B",
"g.	c #E7F217",
"h.	c #E3EC15",
"i.	c #DEF433",
"j.	c #EFF311",
"k.	c #F2F40C",
"l.	c #F7F814",
"m.	c #A0CDC2",
"n.	c #6CB9DC",
"o.	c #63ACCA",
"p.	c #348460",
"q.	c #148F4E",
"r.	c #10994F",
"s.	c #5EB949",
"t.	c #CEF92A",
"u.	c #D3FE2A",
"v.	c #D3FF2A",
"w.	c #A3EC47",
"x.	c #B8E328",
"y.	c #C5EB26",
"z.	c #D1F224",
"A.	c #DBF622",
"B.	c #DFF51F",
"C.	c #D2E828",
"D.	c #E5F31A",
"E.	c #D2E219",
"F.	c #EAF214",
"G.	c #EDF312",
"H.	c #EFF30F",
"I.	c #F1F40D",
"J.	c #F3F50C",
"K.	c #F4F50A",
"L.	c #F0F434",
"M.	c #89C4D0",
"N.	c #479093",
"O.	c #1B683C",
"P.	c #64AFCD",
"Q.	c #64A7C1",
"R.	c #1D8746",
"S.	c #179349",
"T.	c #139E4B",
"U.	c #A7E13A",
"V.	c #AFDB27",
"W.	c #D0FB2A",
"X.	c #D4FE29",
"Y.	c #B6E238",
"Z.	c #D7F726",
"`.	c #91DF4D",
" +	c #D9F325",
".+	c #E2F41C",
"++	c #E9F215",
"@+	c #ECF213",
"#+	c #F0F40E",
"$+	c #F1F40E",
"%+	c #E1EC63",
"&+	c #72BCDC",
"*+	c #5FAAC4",
"=+	c #116331",
"-+	c #1A723D",
";+	c #32826F",
">+	c #6CB9DD",
",+	c #518F98",
"'+	c #167A41",
")+	c #148544",
"!+	c #4EA443",
"~+	c #C4F12A",
"{+	c #CDF92A",
"]+	c #CCF82A",
"^+	c #CCF72A",
"/+	c #B5E128",
"(+	c #C0EC29",
"_+	c #B3EE3E",
":+	c #CAF62B",
"<+	c #D0F527",
"[+	c #C2EE33",
"}+	c #D8F322",
"|+	c #DCF21F",
"1+	c #C8DF1E",
"2+	c #E2F21B",
"3+	c #E5F219",
"4+	c #E8F217",
"5+	c #EAF215",
"6+	c #EBF213",
"7+	c #EDF311",
"8+	c #C2DD99",
"9+	c #7FBFE0",
"0+	c #7BBEE0",
"a+	c #3D7E81",
"b+	c #0B7134",
"c+	c #0D7838",
"d+	c #137A3C",
"e+	c #4F9FA6",
"f+	c #478780",
"g+	c #1A8345",
"h+	c #198E47",
"i+	c #94CA34",
"j+	c #AEDB28",
"k+	c #C3EF29",
"l+	c #A7F35A",
"m+	c #BFEE2F",
"n+	c #BBE729",
"o+	c #C1ED29",
"p+	c #B1E836",
"q+	c #C1EE2A",
"r+	c #C3EE29",
"s+	c #C7ED27",
"t+	c #CBED24",
"u+	c #D0ED22",
"v+	c #D4ED20",
"w+	c #D8ED1E",
"x+	c #DCEE1C",
"y+	c #E0EF1A",
"z+	c #E3F018",
"A+	c #E4EF18",
"B+	c #D8E474",
"C+	c #EDF2BB",
"D+	c #F4F8BB",
"E+	c #EDF46B",
"F+	c #E8EBC9",
"G+	c #F4F4F4",
"H+	c #C6DFEF",
"I+	c #69B5D7",
"J+	c #0E6B49",
"K+	c #0F733D",
"L+	c #0A853B",
"M+	c #25913D",
"N+	c #8FC434",
"O+	c #8AC9BD",
"P+	c #6EBADE",
"Q+	c #54969F",
"R+	c #1F8546",
"S+	c #82BD3B",
"T+	c #BCE829",
"U+	c #BAE728",
"V+	c #B9E628",
"W+	c #A4E950",
"X+	c #B6E52B",
"Y+	c #B7E428",
"Z+	c #A2D026",
"`+	c #AAD727",
" @	c #B8E428",
".@	c #B8E528",
"+@	c #BAE628",
"@@	c #BDE627",
"#@	c #C2E624",
"$@	c #C7E623",
"%@	c #CBE721",
"&@	c #D0E81F",
"*@	c #D4E91D",
"=@	c #D8EA1C",
"-@	c #BACF81",
";@	c #E6E6E5",
">@	c #EEEEEE",
",@	c #FAFAFA",
"'@	c #F4F4EF",
")@	c #EDF59B",
"!@	c #8D8E79",
"~@	c #A2A0A0",
"{@	c #70B1D1",
"]@	c #5AA0B9",
"^@	c #126735",
"/@	c #0D7B3F",
"(@	c #0C8541",
"_@	c #92CC35",
":@	c #BFEC29",
"<@	c #BDE928",
"[@	c #ABDC6F",
"}@	c #8DC79D",
"|@	c #AAD958",
"1@	c #B4E128",
"2@	c #B2DF28",
"3@	c #B1DE28",
"4@	c #AFDD28",
"5@	c #AEDC28",
"6@	c #ADDA28",
"7@	c #ABD827",
"8@	c #ACD927",
"9@	c #ADDB28",
"0@	c #AFDC28",
"a@	c #B0DD28",
"b@	c #B3DE27",
"c@	c #B8DF25",
"d@	c #BDE023",
"e@	c #C2E122",
"f@	c #C7E220",
"g@	c #C4DF20",
"h@	c #B9C4B5",
"i@	c #E4E4E4",
"j@	c #CECECE",
"k@	c #8D8C8C",
"l@	c #575454",
"m@	c #D2D4BE",
"n@	c #C4D228",
"o@	c #3C3A26",
"p@	c #71ABC9",
"q@	c #4A8E9B",
"r@	c #0E6A33",
"s@	c #0E813C",
"t@	c #1E9E44",
"u@	c #B4E42A",
"v@	c #AFDD2A",
"w@	c #62A339",
"x@	c #4A953C",
"y@	c #62A239",
"z@	c #A7D529",
"A@	c #A9D627",
"B@	c #A7D527",
"C@	c #A6D427",
"D@	c #A4D227",
"E@	c #A3D227",
"F@	c #A3D127",
"G@	c #A2D027",
"H@	c #A6D328",
"I@	c #A6D127",
"J@	c #B0D625",
"K@	c #B1D423",
"L@	c #BBC5BA",
"M@	c #ECECEC",
"N@	c #B9B9B9",
"O@	c #241C1C",
"P@	c #BEBDBD",
"Q@	c #DBEF53",
"R@	c #D3E573",
"S@	c #7BBFDD",
"T@	c #3D7F81",
"U@	c #107538",
"V@	c #0B9041",
"W@	c #40AF44",
"X@	c #B2E028",
"Y@	c #96C730",
"Z@	c #49943E",
"`@	c #49933F",
" #	c #48933F",
".#	c #8DBF37",
"+#	c #A0CE2B",
"@#	c #9ECC26",
"##	c #9CCA27",
"$#	c #9BC926",
"%#	c #9AC826",
"&#	c #99C726",
"*#	c #98C726",
"=#	c #99C826",
"-#	c #9AC926",
";#	c #9BCA26",
">#	c #97C828",
",#	c #8DC22A",
"'#	c #85BF30",
")#	c #89C14C",
"!#	c #A0CD5C",
"~#	c #A8D326",
"{#	c #A0B89A",
"]#	c #E1E1E1",
"^#	c #AFAEAE",
"/#	c #AAA9A9",
"(#	c #E9ECE3",
"_#	c #CCE837",
":#	c #CEEB22",
"<#	c #BDE276",
"[#	c #75BDD8",
"}#	c #3B7C7E",
"|#	c #126B35",
"1#	c #0E843C",
"2#	c #30A543",
"3#	c #AEDA3A",
"4#	c #AED743",
"5#	c #9BC845",
"6#	c #489240",
"7#	c #479140",
"8#	c #46903F",
"9#	c #85B641",
"0#	c #A3CA52",
"a#	c #A6CB60",
"b#	c #A8CB68",
"c#	c #A9CB6D",
"d#	c #A7CA6B",
"e#	c #A6C969",
"f#	c #A4C865",
"g#	c #A3C764",
"h#	c #A6C96A",
"i#	c #A7CA6E",
"j#	c #A9CA6E",
"k#	c #AACC72",
"l#	c #A8CA73",
"m#	c #A0C673",
"n#	c #99C377",
"o#	c #85BC66",
"p#	c #7CB964",
"q#	c #76BA3B",
"r#	c #A2D123",
"s#	c #79B030",
"t#	c #C2CEC1",
"u#	c #F1F2F1",
"v#	c #F3F3F3",
"w#	c #EBEEEB",
"x#	c #ADD18A",
"y#	c #BBE427",
"z#	c #C0E726",
"A#	c #C3E926",
"B#	c #AFD756",
"C#	c #7BBEC5",
"D#	c #6FBBDB",
"E#	c #6DBADD",
"F#	c #3D8282",
"G#	c #12783A",
"H#	c #129144",
"I#	c #14AA4C",
"J#	c #97D02F",
"K#	c #9ECC27",
"L#	c #6EA834",
"M#	c #448F3B",
"N#	c #48903A",
"O#	c #87B92A",
"P#	c #8EBE26",
"Q#	c #8CBB25",
"R#	c #89B925",
"S#	c #88B828",
"T#	c #89B733",
"U#	c #8BB73A",
"V#	c #8BB83D",
"W#	c #8BB73D",
"X#	c #88B536",
"Y#	c #86B52F",
"Z#	c #86B529",
"`#	c #84B525",
" $	c #79B029",
".$	c #6CAB2D",
"+$	c #5DA931",
"@$	c #4EA735",
"#$	c #41A738",
"$$	c #60B333",
"%$	c #98CC1D",
"&$	c #99CD1E",
"*$	c #70AC25",
"=$	c #6F9F64",
"-$	c #85AC80",
";$	c #75B042",
">$	c #A7D826",
",$	c #B2DF27",
"'$	c #B5E228",
")$	c #B7E328",
"!$	c #94C320",
"~$	c #6CA50F",
"{$	c #5EA066",
"]$	c #8FCDBE",
"^$	c #8CC8C1",
"/$	c #4A8F9B",
"($	c #13753A",
"_$	c #0D9242",
":$	c #0BA64C",
"<$	c #5BB844",
"[$	c #9BCA27",
"}$	c #94C326",
"|$	c #87B828",
"1$	c #8AB925",
"2$	c #86B625",
"3$	c #84B325",
"4$	c #81B125",
"5$	c #7EAF25",
"6$	c #7DAD25",
"7$	c #7BAB24",
"8$	c #7AAA24",
"9$	c #79AA24",
"0$	c #7AAB24",
"a$	c #78AA26",
"b$	c #6CA62A",
"c$	c #5EA32F",
"d$	c #4EA233",
"e$	c #3CA038",
"f$	c #2CA43C",
"g$	c #53B035",
"h$	c #8BC519",
"i$	c #8CC718",
"j$	c #8FC919",
"k$	c #93CC1A",
"l$	c #97CF1B",
"m$	c #9FD41D",
"n$	c #A5D71F",
"o$	c #ABDB22",
"p$	c #B0DE25",
"q$	c #B4E127",
"r$	c #B5E227",
"s$	c #B1DE25",
"t$	c #A1D120",
"u$	c #B7DF24",
"v$	c #9BB75D",
"w$	c #5EA7C1",
"x$	c #10753A",
"y$	c #0C8B4B",
"z$	c #0B9B49",
"A$	c #359F43",
"B$	c #5AA439",
"C$	c #7EB237",
"D$	c #8BBE5F",
"E$	c #82B13D",
"F$	c #79AA28",
"G$	c #75AC29",
"H$	c #76AF2C",
"I$	c #7AAC26",
"J$	c #79A924",
"K$	c #76A724",
"L$	c #73A424",
"M$	c #71A324",
"N$	c #70A124",
"O$	c #6FA024",
"P$	c #6EA125",
"Q$	c #639E2A",
"R$	c #579D2E",
"S$	c #439733",
"T$	c #1C8C3A",
"U$	c #27A23C",
"V$	c #58B02F",
"W$	c #7ABC14",
"X$	c #79BD13",
"Y$	c #7BBF13",
"Z$	c #80C214",
"`$	c #87C615",
" %	c #8FCB17",
".%	c #98D01A",
"+%	c #A1D51D",
"@%	c #A8DA20",
"#%	c #AFDE24",
"$%	c #B3E027",
"%%	c #BCE929",
"&%	c #B2DE26",
"*%	c #ABCA21",
"=%	c #94AF59",
"-%	c #6CB8DB",
";%	c #1A7C5B",
">%	c #0E8241",
",%	c #2E9144",
"'%	c #279240",
")%	c #348232",
"!%	c #56A3AF",
"~%	c #518C9C",
"{%	c #29692E",
"]%	c #248639",
"^%	c #18A044",
"/%	c #23BD4B",
"(%	c #4EBF43",
"_%	c #6CA126",
":%	c #6B9D23",
"<%	c #689A23",
"[%	c #669823",
"}%	c #659723",
"|%	c #649623",
"1%	c #649723",
"2%	c #669824",
"3%	c #5E9728",
"4%	c #54972D",
"5%	c #409032",
"6%	c #0A863B",
"7%	c #319D39",
"8%	c #65B11B",
"9%	c #67B310",
"0%	c #63B20E",
"a%	c #62B20E",
"b%	c #66B50F",
"c%	c #6FBA10",
"d%	c #7AC012",
"e%	c #86C715",
"f%	c #93CE18",
"g%	c #9ED41B",
"h%	c #A7DA1F",
"i%	c #AFDE23",
"j%	c #B3E127",
"k%	c #BAE62A",
"l%	c #B8DF27",
"m%	c #97B15B",
"n%	c #479197",
"o%	c #1F854C",
"p%	c #1F8644",
"q%	c #287E35",
"r%	c #338463",
"s%	c #66ABC9",
"t%	c #255F2D",
"u%	c #237935",
"v%	c #1A9541",
"w%	c #20AE46",
"x%	c #1DBE4E",
"y%	c #3CB147",
"z%	c #639623",
"A%	c #609323",
"B%	c #5D9023",
"C%	c #5B8E22",
"D%	c #5A8D22",
"E%	c #5E9023",
"F%	c #5C9125",
"G%	c #569229",
"H%	c #438C30",
"I%	c #078B3C",
"J%	c #489F32",
"K%	c #5AA91D",
"L%	c #57AB0C",
"M%	c #4CA60A",
"N%	c #45A309",
"O%	c #47A509",
"P%	c #51AB0B",
"Q%	c #61B30D",
"R%	c #72BD10",
"S%	c #83C614",
"T%	c #91CE18",
"U%	c #9ED51B",
"V%	c #A5D848",
"W%	c #99D098",
"X%	c #84C5C4",
"Y%	c #86C7C4",
"Z%	c #8AC9C2",
"`%	c #8CC4B8",
" &	c #67B4D3",
".&	c #1A8255",
"+&	c #187238",
"@&	c #227135",
"#&	c #519CA9",
"$&	c #477777",
"%&	c #1F6C33",
"&&	c #2A8536",
"*&	c #1F9841",
"=&	c #17A547",
"-&	c #0AA44C",
";&	c #4C9531",
">&	c #568922",
",&	c #538622",
"'&	c #508422",
")&	c #508322",
"!&	c #528522",
"~&	c #558822",
"{&	c #598C22",
"]&	c #548C29",
"^&	c #06903D",
"/&	c #59A72F",
"(&	c #539D37",
"_&	c #50A73F",
":&	c #3C9E08",
"<&	c #299505",
"[&	c #229104",
"}&	c #319906",
"|&	c #48A609",
"1&	c #60B306",
"2&	c #74BE58",
"3&	c #7EC397",
"4&	c #79C0C3",
"5&	c #6EBBDC",
"6&	c #4D93A0",
"7&	c #1A6E40",
"8&	c #176438",
"9&	c #68B4D4",
"0&	c #69B2D4",
"a&	c #3F6C5A",
"b&	c #1F6F34",
"c&	c #2A8136",
"d&	c #0E8941",
"e&	c #0D8A44",
"f&	c #2E8536",
"g&	c #508726",
"h&	c #4E8122",
"i&	c #4A7D21",
"j&	c #477B21",
"k&	c #4B7E21",
"l&	c #548722",
"m&	c #558B26",
"n&	c #08883B",
"o&	c #4DA236",
"p&	c #65ABA6",
"q&	c #6BB8D5",
"r&	c #64B4C4",
"s&	c #62B2C4",
"t&	c #61B1C5",
"u&	c #66B4C9",
"v&	c #6AB7CB",
"w&	c #6DBAD9",
"x&	c #3D8083",
"y&	c #3C797E",
"z&	c #6AB2D4",
"A&	c #538894",
"B&	c #36694B",
"C&	c #1F6936",
"D&	c #1F6B35",
"E&	c #396A30",
"F&	c #427566",
"G&	c #599168",
"H&	c #528524",
"I&	c #4F8222",
"J&	c #4D8122",
"K&	c #4E8222",
"L&	c #5A8D21",
"M&	c #5B9040",
"N&	c #0A8139",
"O&	c #42A191",
"P&	c #6CB6D9",
"Q&	c #6BB4D7",
"R&	c #6BB5D3",
"S&	c #66ADBD",
"T&	c #63A6AE",
"U&	c #63A6AB",
"V&	c #64A8AF",
"W&	c #68AEC0",
"X&	c #6BB5D0",
"Y&	c #6BB7DA",
"Z&	c #0B7936",
"`&	c #459D95",
" *	c #257B5B",
".*	c #459995",
"+*	c #3B8480",
"@*	c #469595",
"#*	c #5097A8",
"$*	c #469095",
"%*	c #64ADCC",
"&*	c #488D97",
"**	c #67B1D1",
"                                                                                                ",
"                                                                                                ",
"                                                                                                ",
"                                                                                                ",
"                                                                                                ",
"                                                                                                ",
"                                                                                                ",
"                                                                                                ",
"                                          . + @ # $ % & * .                                     ",
"                                  = - ; > , ' ) ! ~ { ] ] ^ /                                   ",
"                                ( _ : < [ } | 1 ) 2 3 ] ] ] 4                                   ",
"                            5 6 7 8 9 0 a b c d e f g ] ] h i                                   ",
"                            j k l m n o p q r s t u v w x                                       ",
"                          y z A B C D E F G H I J K L M N O P Q                                 ",
"                        R S T U V W X Y Z `  ...+.@.#.$.%.&.*.=.-.                              ",
"                      ;.>.,.'.).!.~.{.].^./.(._.:.<.[.}.|.1.2.3.4.5.                            ",
"                      6.7.[ 8.9.{.{.0.{.a.b.c.d.e.f.g.h.i.j.k.2.*.l.m.                          ",
"        n.o.        = p.q.r.s.t.u.v.w.{.x.y.z.A.B.C.D.E.F.G.H.I.J.K.L.M.                        ",
"        N.O.P.      Q.R.S.T.U.V.W.{.v.u.u.X.Y.Z.`. +.+D.g.++@+$.H.#+$+%+&+                      ",
"      *+=+-+;+>+    ,+'+)+!+~+{+]+^+/+(+^+_+:+<+[+}+|+1+2+3+4+5+6+G.7+$.8+9+0+                  ",
"      a+b+c+d+e+    f+g+h+i+j+k+l+m+n+(+o+p+q+r+s+t+u+v+w+x+y+z+A+B+C+D+E+F+G+H+                ",
"    I+J+K+L+M+N+O+P+Q+R+S+T+U+V+W+X+Y+Y+Z+`+ @.@+@@@#@$@%@&@*@=@-@;@>@,@'@)@!@~@{@              ",
"    ]@^@/@(@_@:@<@[@}@|@1@2@3@4@5@j+6@6@7@8@9@j+0@a@b@c@d@e@f@g@h@i@j@k@l@m@n@o@p@              ",
"    q@r@s@t@u@Y+v@w@x@y@z@A@B@C@D@E@F@G@G@G@F@F@D@C@B@B@H@I@J@K@L@M@N@O@O@P@Q@R@S@              ",
"    T@U@V@W@X@a@Y@Z@`@ #.#+#@###$#%#&#*#*#*#&#=#-#;#>#,#'#)#!#~#{#G+]#^#/#(#_#:#<#[#            ",
"    }#|#1#2#3#4#5#6#7#8#9#0#a#b#c#d#e#f#g#h#i#j#k#l#m#n#o#p#q#r#s#t#u#v#w#x#y#z#A#B#C#D#E#      ",
"    F#G#H#I#J#G@K#L#M#N#O#P#Q#R#S#T#U#V#W#X#Y#Z#`# $.$+$@$#$$$%$&$*$=$-$;$>$,$'$+@)$!$~${$]$^$  ",
"    /$($_$:$<$[$*#}$O#|$1$2$3$4$5$6$7$8$9$9$9$0$a$b$c$d$e$f$g$h$i$j$k$l$m$n$o$p$q$.@r$s$t$u$v$  ",
"    w$x$y$z$A$B$C$D$E$F$G$H$I$J$K$L$M$N$O$O$O$N$P$Q$R$S$T$U$V$W$X$Y$Z$`$ %.%+%@%#%$%Y+%%&%*%=%  ",
"    -%;%>%,%'%)%!%  ~%{%]%^%/%(%_%:%<%[%}%|%1%[%2%3%4%5%6%7%8%9%0%a%b%c%d%e%f%g%h%i%j%.@k%l%m%  ",
"      n%o%p%q%r%>+  s%t%u%v%w%x%y%z%A%B%C%D%D%C%E%F%G%H%I%J%K%L%M%N%O%P%Q%R%S%T%U%V%W%X%Y%Z%`%  ",
"       &.&+&@&#&      $&%&&&*&=&-&;&D%>&,&'&)&!&~&{&B%]&^&/&(&_&:&<&[&}&|&1&2&3&4&5&            ",
"        6&7&8&9&      0&a&b&c&d&e&f&g&,&h&i&j&k&)&l&{&m&n&o&p&q&r&s&t&u&v&w&                    ",
"        n.x&y&          z&A&B&C&D&E&F&G&H&I&J&K&!&>&L&M&N&O&                                    ",
"            n.                P&Q&;.    R&S&T&U&V&W&X&Y&Z&`&                                    ",
"                                                         *.*                                    ",
"                                                        +*@*                                    ",
"                                                        #*$*                                    ",
"                                                        %*&*                                    ",
"                                                          **                                    ",
"                                                                                                ",
"                                                                                                ",
"                                                                                                ",
"                                                                                                ",
"                                                                                                ",
"                                                                                                ",
"                                                                                                ",
"                                                                                                "};
