/* XPM */
static char * swim_left_0_xpm[] = {
"48 48 719 2",
"  	c None",
". 	c #6DBADE",
"+ 	c #217844",
"@ 	c #1E7544",
"# 	c #1B7845",
"$ 	c #1C8246",
"% 	c #168146",
"& 	c #1A8D48",
"* 	c #159453",
"= 	c #1B9049",
"- 	c #1F8C45",
"; 	c #1F7944",
"> 	c #197B46",
", 	c #1A8847",
"' 	c #158648",
") 	c #179449",
"! 	c #129B54",
"~ 	c #159A4B",
"{ 	c #13984D",
"] 	c #13964D",
"^ 	c #1A9348",
"/ 	c #237B3C",
"( 	c #6CB9DC",
"_ 	c #1F7D45",
": 	c #187F46",
"< 	c #198D48",
"[ 	c #148C49",
"} 	c #149B4B",
"| 	c #10A154",
"1 	c #12A24C",
"2 	c #0F9F4F",
"3 	c #11A14D",
"4 	c #129A4A",
"5 	c #118743",
"6 	c #1E8D45",
"7 	c #1E7844",
"8 	c #238045",
"9 	c #238545",
"0 	c #1F9148",
"a 	c #119149",
"b 	c #11A04D",
"c 	c #0FA653",
"d 	c #0FAA4E",
"e 	c #0DA751",
"f 	c #0FAB4E",
"g 	c #0E9947",
"h 	c #119B49",
"i 	c #149C4B",
"j 	c #188947",
"k 	c #E5EA0F",
"l 	c #DFE711",
"m 	c #DCEA24",
"n 	c #99EF66",
"o 	c #C9DA21",
"p 	c #B1CB28",
"q 	c #AECB25",
"r 	c #C2E42C",
"s 	c #ABD637",
"t 	c #A0D93C",
"u 	c #68BF45",
"v 	c #3CB64A",
"w 	c #0BA34A",
"x 	c #0FAC4E",
"y 	c #0F9C4B",
"z 	c #11924A",
"A 	c #1D8F46",
"B 	c #F8FA07",
"C 	c #F7F708",
"D 	c #E3E80E",
"E 	c #E4EA10",
"F 	c #EEF311",
"G 	c #DFF12C",
"H 	c #D0EE3D",
"I 	c #E5F319",
"J 	c #D7EA1D",
"K 	c #DEF41F",
"L 	c #C9EE27",
"M 	c #D4F726",
"N 	c #C8EE27",
"O 	c #CFFC2B",
"P 	c #9EDC3A",
"Q 	c #4AB84A",
"R 	c #0DA24C",
"S 	c #179849",
"T 	c #6AB5D6",
"U 	c #FAFA05",
"V 	c #F8F807",
"W 	c #F5F60A",
"X 	c #F1F411",
"Y 	c #BCF75D",
"Z 	c #EDF211",
"` 	c #DDF02D",
" .	c #D2ED34",
"..	c #D5EB25",
"+.	c #E1F51E",
"@.	c #DAF323",
"#.	c #D6F625",
"$.	c #B2E92E",
"%.	c #D5FE29",
"&.	c #D4FF2A",
"*.	c #ABEA32",
"=.	c #B7F031",
"-.	c #55C04A",
";.	c #11A64B",
">.	c #1F893F",
",.	c #178040",
"'.	c #306F35",
").	c #F2F40C",
"!.	c #EFF311",
"~.	c #DEF433",
"{.	c #E3EC15",
"].	c #E7F217",
"^.	c #C8E32B",
"/.	c #9ED13B",
"(.	c #CEE620",
"_.	c #AACC22",
":.	c #D9FA25",
"<.	c #C4F42C",
"[.	c #D1FE2C",
"}.	c #B4EB35",
"|.	c #0E9E48",
"1.	c #109A49",
"2.	c #149649",
"3.	c #1D8C46",
"4.	c #F4F60B",
"5.	c #F4F50A",
"6.	c #F3F50C",
"7.	c #F1F40D",
"8.	c #EFF30F",
"9.	c #EDF312",
"0.	c #EAF214",
"a.	c #D2E219",
"b.	c #E5F31A",
"c.	c #D2E828",
"d.	c #DFF51F",
"e.	c #DBF622",
"f.	c #D1F224",
"g.	c #C5EB26",
"h.	c #B8E328",
"i.	c #A3EC47",
"j.	c #D3FF2A",
"k.	c #D3FE2A",
"l.	c #CEF92A",
"m.	c #5EC249",
"n.	c #10A64D",
"o.	c #129A4D",
"p.	c #15904D",
"q.	c #2D7A41",
"r.	c #F0F40E",
"s.	c #F1F40E",
"t.	c #ECF213",
"u.	c #E9F215",
"v.	c #E2F41C",
"w.	c #D9F325",
"x.	c #91DF4D",
"y.	c #D7F726",
"z.	c #B6E238",
"A.	c #D4FE29",
"B.	c #D0FB2A",
"C.	c #AFDB27",
"D.	c #A7E33C",
"E.	c #0EA350",
"F.	c #119B4E",
"G.	c #15924C",
"H.	c #1F8647",
"I.	c #176034",
"J.	c #207743",
"K.	c #ECF315",
"L.	c #EDF311",
"M.	c #EBF213",
"N.	c #EAF215",
"O.	c #E8F217",
"P.	c #E5F219",
"Q.	c #E2F21B",
"R.	c #C8DF1E",
"S.	c #DCF21F",
"T.	c #D8F322",
"U.	c #C2EE33",
"V.	c #D0F527",
"W.	c #CAF62B",
"X.	c #B3EE3D",
"Y.	c #CCF72A",
"Z.	c #C0EC29",
"`.	c #B5E128",
" +	c #CCF82A",
".+	c #CDF92A",
"++	c #C4F12B",
"@+	c #49B349",
"#+	c #139D4B",
"$+	c #169148",
"%+	c #198545",
"&+	c #376A32",
"*+	c #127037",
"=+	c #1A743E",
"-+	c #166435",
";+	c #0D6630",
">+	c #F5F4F4",
",+	c #E8EBC9",
"'+	c #EDF46B",
")+	c #F4F8BB",
"!+	c #EDF2BB",
"~+	c #D8E474",
"{+	c #E4EF18",
"]+	c #E3F018",
"^+	c #E0EF1A",
"/+	c #DCEE1C",
"(+	c #D8ED1E",
"_+	c #D4ED20",
":+	c #D0ED22",
"<+	c #CBED24",
"[+	c #C7ED27",
"}+	c #C3EE29",
"|+	c #C1EE2A",
"1+	c #B1E836",
"2+	c #C1ED29",
"3+	c #BBE729",
"4+	c #BFEE2F",
"5+	c #A7F35A",
"6+	c #C3EF29",
"7+	c #AEDB28",
"8+	c #98CE32",
"9+	c #1C8D44",
"0+	c #148243",
"a+	c #167941",
"b+	c #2F6935",
"c+	c #95C833",
"d+	c #15783C",
"e+	c #117739",
"f+	c #0A7434",
"g+	c #0E6831",
"h+	c #A2A0A0",
"i+	c #8D8E79",
"j+	c #EDF59B",
"k+	c #F4F4EF",
"l+	c #FAFAFA",
"m+	c #EEEEEE",
"n+	c #E6E6E5",
"o+	c #BACF81",
"p+	c #D8EA1C",
"q+	c #D4E91D",
"r+	c #D0E81F",
"s+	c #CBE721",
"t+	c #C7E623",
"u+	c #C2E624",
"v+	c #BDE627",
"w+	c #BAE628",
"x+	c #B8E528",
"y+	c #B8E428",
"z+	c #AAD727",
"A+	c #A2D026",
"B+	c #B7E428",
"C+	c #B6E52B",
"D+	c #A4E950",
"E+	c #B9E628",
"F+	c #BAE728",
"G+	c #BCE828",
"H+	c #97D037",
"I+	c #369946",
"J+	c #4C873A",
"K+	c #C7F329",
"L+	c #C9F529",
"M+	c #55A23A",
"N+	c #08843A",
"O+	c #0E7838",
"P+	c #10693D",
"Q+	c #0C6949",
"R+	c #3C3A26",
"S+	c #C4D228",
"T+	c #D2D4BE",
"U+	c #575454",
"V+	c #8D8C8C",
"W+	c #CECECE",
"X+	c #E4E4E4",
"Y+	c #B9C4B5",
"Z+	c #C4DF20",
"`+	c #C7E220",
" @	c #C2E122",
".@	c #BDE023",
"+@	c #B8DF25",
"@@	c #B3DE27",
"#@	c #B0DD28",
"$@	c #AFDC28",
"%@	c #ADDB28",
"&@	c #ACD927",
"*@	c #ABD827",
"=@	c #ADDA28",
"-@	c #AEDC28",
";@	c #AFDD28",
">@	c #B1DE28",
",@	c #B2DF28",
"'@	c #B4E128",
")@	c #A9D92C",
"!@	c #93C833",
"~@	c #B2E02B",
"{@	c #BDE929",
"]@	c #BFEC29",
"^@	c #C2EE29",
"/@	c #81C338",
"(@	c #0C8A40",
"_@	c #0D7941",
":@	c #0E7140",
"<@	c #135F35",
"[@	c #D3E571",
"}@	c #DBEF53",
"|@	c #BEBDBD",
"1@	c #241C1C",
"2@	c #B9B9B9",
"3@	c #ECECEC",
"4@	c #BBC5BA",
"5@	c #B1D423",
"6@	c #B0D625",
"7@	c #A6D127",
"8@	c #A6D328",
"9@	c #A7D527",
"0@	c #A6D427",
"a@	c #A4D227",
"b@	c #A3D127",
"c@	c #A2D027",
"d@	c #A3D227",
"e@	c #A9D627",
"f@	c #A6D429",
"g@	c #579C3A",
"h@	c #4A953C",
"i@	c #5CA03A",
"j@	c #AFDD2A",
"k@	c #86C637",
"l@	c #0A9944",
"m@	c #0C8E40",
"n@	c #0F7738",
"o@	c #0F6230",
"p@	c #C9E723",
"q@	c #CEEB22",
"r@	c #CCE837",
"s@	c #E9ECE3",
"t@	c #AAA9A9",
"u@	c #AFAEAE",
"v@	c #E1E1E1",
"w@	c #F4F4F4",
"x@	c #A0B89A",
"y@	c #A8D326",
"z@	c #A0CD5C",
"A@	c #89C14C",
"B@	c #85BF30",
"C@	c #8DC22A",
"D@	c #97C828",
"E@	c #9BCA26",
"F@	c #9AC926",
"G@	c #99C826",
"H@	c #99C726",
"I@	c #98C726",
"J@	c #9AC826",
"K@	c #9BC926",
"L@	c #9CCA27",
"M@	c #9ECC26",
"N@	c #A0CE2B",
"O@	c #8CBE37",
"P@	c #48933F",
"Q@	c #49933F",
"R@	c #49943E",
"S@	c #96C730",
"T@	c #B3E028",
"U@	c #87CB3B",
"V@	c #0D9F47",
"W@	c #0E8D40",
"X@	c #0E7C3A",
"Y@	c #116A34",
"Z@	c #B3D324",
"`@	c #CAF127",
" #	c #72BDDA",
".#	c #A9D123",
"+#	c #BDE326",
"@#	c #C0E726",
"##	c #BBE427",
"$#	c #ADD18A",
"%#	c #EBEEEB",
"&#	c #F3F3F3",
"*#	c #F1F2F1",
"=#	c #C2CEC1",
"-#	c #79B030",
";#	c #A2D123",
">#	c #76BA3B",
",#	c #7CB964",
"'#	c #85BC66",
")#	c #99C377",
"!#	c #A0C673",
"~#	c #A8CA73",
"{#	c #AACC72",
"]#	c #A9CA6E",
"^#	c #A7CA6E",
"/#	c #A6C96A",
"(#	c #A3C764",
"_#	c #A4C865",
":#	c #A6C969",
"<#	c #A7CA6B",
"[#	c #A9CB6D",
"}#	c #A8CB68",
"|#	c #A6CB60",
"1#	c #A3CA52",
"2#	c #85B641",
"3#	c #46903F",
"4#	c #479140",
"5#	c #489240",
"6#	c #9BC845",
"7#	c #AED743",
"8#	c #AFDA3A",
"9#	c #78C53C",
"0#	c #09A145",
"a#	c #0D8D3F",
"b#	c #107839",
"c#	c #136333",
"d#	c #15562F",
"e#	c #ACCA22",
"f#	c #A9C31E",
"g#	c #7AB014",
"h#	c #7CB217",
"i#	c #87B81D",
"j#	c #ACD826",
"k#	c #B5E228",
"l#	c #B2DF27",
"m#	c #A7D826",
"n#	c #75B042",
"o#	c #85AC80",
"p#	c #6F9F64",
"q#	c #70AC25",
"r#	c #99CD1E",
"s#	c #98CC1D",
"t#	c #60B333",
"u#	c #41A738",
"v#	c #4EA735",
"w#	c #5DA931",
"x#	c #6CAB2D",
"y#	c #79B029",
"z#	c #84B525",
"A#	c #86B529",
"B#	c #86B52F",
"C#	c #88B536",
"D#	c #8BB73D",
"E#	c #8BB83D",
"F#	c #8BB73A",
"G#	c #89B733",
"H#	c #88B828",
"I#	c #89B925",
"J#	c #8CBB25",
"K#	c #8EBE26",
"L#	c #87B92A",
"M#	c #48903A",
"N#	c #448F3B",
"O#	c #6EA834",
"P#	c #9ECC27",
"Q#	c #6ACA46",
"R#	c #08B54D",
"S#	c #099E45",
"T#	c #0D853D",
"U#	c #116E36",
"V#	c #145D31",
"W#	c #A5C01F",
"X#	c #94A518",
"Y#	c #94C51D",
"Z#	c #AFDC25",
"`#	c #B4E127",
" $	c #B0DE25",
".$	c #ABDB22",
"+$	c #A5D71F",
"@$	c #9FD41D",
"#$	c #97CF1B",
"$$	c #93CC1A",
"%$	c #8FC919",
"&$	c #8CC718",
"*$	c #8BC519",
"=$	c #53B035",
"-$	c #2CA43C",
";$	c #3EA238",
">$	c #4FA233",
",$	c #5EA32F",
"'$	c #6CA62A",
")$	c #78AA26",
"!$	c #7AAB24",
"~$	c #79AA24",
"{$	c #7AAA24",
"]$	c #7BAB24",
"^$	c #7DAD25",
"/$	c #7EAF25",
"($	c #81B125",
"_$	c #84B325",
":$	c #86B625",
"<$	c #88B826",
"[$	c #7BB02B",
"}$	c #83B52A",
"|$	c #94C326",
"1$	c #9CCB27",
"2$	c #A0CF27",
"3$	c #4BBE4A",
"4$	c #0FAD4D",
"5$	c #139747",
"6$	c #15813F",
"7$	c #156C37",
"8$	c #A3BD1F",
"9$	c #90A118",
"0$	c #A5D223",
"a$	c #AFDC26",
"b$	c #B3E027",
"c$	c #AFDE24",
"d$	c #A8DA20",
"e$	c #A1D51D",
"f$	c #98D01A",
"g$	c #8FCB17",
"h$	c #87C615",
"i$	c #80C214",
"j$	c #7BBF13",
"k$	c #79BD13",
"l$	c #7ABC14",
"m$	c #58B02F",
"n$	c #27A23C",
"o$	c #389F38",
"p$	c #489D33",
"q$	c #579D2E",
"r$	c #639E2A",
"s$	c #689E28",
"t$	c #5F992B",
"u$	c #5B962C",
"v$	c #659B27",
"w$	c #6FA024",
"x$	c #70A124",
"y$	c #71A324",
"z$	c #73A424",
"A$	c #76A724",
"B$	c #79A924",
"C$	c #76AE2A",
"D$	c #5DB23A",
"E$	c #319A3E",
"F$	c #2E7E36",
"G$	c #37672C",
"H$	c #85B026",
"I$	c #93C226",
"J$	c #97C626",
"K$	c #98C928",
"L$	c #1BAE4A",
"M$	c #0EA34F",
"N$	c #0B9846",
"O$	c #126E37",
"P$	c #A3BC1F",
"Q$	c #9AB21C",
"R$	c #AFDA27",
"S$	c #B6E328",
"T$	c #B3E127",
"U$	c #AFDE23",
"V$	c #A7DA1F",
"W$	c #9ED41B",
"X$	c #93CE18",
"Y$	c #86C715",
"Z$	c #7AC012",
"`$	c #6FBA10",
" %	c #66B50F",
".%	c #62B20E",
"+%	c #63B20E",
"@%	c #67B310",
"#%	c #65B11B",
"$%	c #329E39",
"%%	c #3E9B35",
"&%	c #4D9C31",
"*%	c #449433",
"=%	c #2E8F38",
"-%	c #0E873A",
";%	c #09853B",
">%	c #0A8139",
",%	c #0E7A37",
"'%	c #48872E",
")%	c #669823",
"!%	c #689A23",
"~%	c #6B9D23",
"{%	c #6CA126",
"]%	c #4EC145",
"^%	c #22C74E",
"/%	c #18AA48",
"(%	c #21923E",
"_%	c #267533",
":%	c #2E5B2A",
"<%	c #7FB830",
"[%	c #3F9B40",
"}%	c #119C44",
"|%	c #0D8F4C",
"1%	c #0C8149",
"2%	c #116C37",
"3%	c #A8C120",
"4%	c #B2D825",
"5%	c #B7E328",
"6%	c #B0DF25",
"7%	c #9ED51B",
"8%	c #91CE18",
"9%	c #83C614",
"0%	c #72BD10",
"a%	c #61B30D",
"b%	c #51AB0B",
"c%	c #47A509",
"d%	c #45A309",
"e%	c #4CA60A",
"f%	c #57AB0C",
"g%	c #5AA91D",
"h%	c #419A34",
"i%	c #499F32",
"j%	c #64AE2B",
"k%	c #3F9635",
"l%	c #088C3C",
"m%	c #06923E",
"n%	c #078E3D",
"o%	c #09873B",
"p%	c #0B7E39",
"q%	c #107636",
"r%	c #578C26",
"s%	c #609323",
"t%	c #649623",
"u%	c #40AC44",
"v%	c #1BC050",
"w%	c #1CB54A",
"x%	c #1A9F44",
"y%	c #218339",
"z%	c #256B31",
"A%	c #375624",
"B%	c #78B02D",
"C%	c #4D9031",
"D%	c #1C9040",
"E%	c #369145",
"F%	c #168740",
"G%	c #0D7B47",
"H%	c #0C774F",
"I%	c #B6DA25",
"J%	c #88C916",
"K%	c #75BE11",
"L%	c #60B30D",
"M%	c #48A609",
"N%	c #319906",
"O%	c #229104",
"P%	c #299505",
"Q%	c #3C9E08",
"R%	c #4DA60B",
"S%	c #529C2B",
"T%	c #529E2F",
"U%	c #5CAA2D",
"V%	c #76B726",
"W%	c #67AF30",
"X%	c #039C40",
"Y%	c #05963F",
"Z%	c #078F3D",
"`%	c #08893C",
" &	c #0A8039",
".&	c #0D7637",
"+&	c #478129",
"@&	c #5A8D22",
"#&	c #4F922E",
"$&	c #0BA24A",
"%&	c #0FA54A",
"&&	c #229C42",
"*&	c #298C39",
"=&	c #1E7435",
"-&	c #2D5D2A",
";&	c #217936",
">&	c #2B7C34",
",&	c #16823E",
"'&	c #268C51",
")&	c #167640",
"!&	c #76BED6",
"~&	c #609A28",
"{&	c #5FA52B",
"]&	c #67AB2D",
"^&	c #2FA53E",
"/&	c #05983F",
"(&	c #08883B",
"_&	c #0D7436",
":&	c #457F29",
"<&	c #508626",
"[&	c #2F8134",
"}&	c #0F8841",
"|&	c #0E8943",
"1&	c #288438",
"2&	c #1E7436",
"3&	c #31632A",
"4&	c #116F36",
"5&	c #227135",
"6&	c #1D7338",
"7&	c #157641",
"8&	c #168A5D",
"9&	c #56952B",
"0&	c #088D3C",
"a&	c #049A40",
"b&	c #088A3C",
"c&	c #09833A",
"d&	c #0C7A38",
"e&	c #0E7035",
"f&	c #488128",
"g&	c #436226",
"h&	c #3A6428",
"i&	c #266834",
"j&	c #206A38",
"k&	c #2D632F",
"l&	c #375928",
"m&	c #146333",
"n&	c #1C6E3E",
"o&	c #156638",
"p&	c #0B8139",
"q&	c #0B7C38",
"r&	c #0F6B34",
"s&	c #15552F",
"t&	c #165D37",
"u&	c #0B7F39",
"v&	c #0D7336",
"w&	c #0F6C34",
"x&	c #116532",
"y&	c #6BB7DA",
"z&	c #0C7737",
"A&	c #0C7837",
"B&	c #106A34",
"C&	c #116332",
"D&	c #0F6D34",
"E&	c #106933",
"F&	c #126031",
"G&	c #126332",
"H&	c #126131",
"I&	c #135E30",
"J&	c #135B30",
". . . . . . . . . . . . . . . . . . . . . . . . . . . . . . . . . . . . . . . . . . . . . . . . ",
". . . . . . . . . . . . . . . . . . . . . . . . . . . . . . . . . . . . . . . . . . . . . . . . ",
". . . . . . . . . . . . . . . . . . . . . . . . . . . . . . . . . . . . . . . . . . . . . . . . ",
". . . . . . . . . . . . . . . . . . . . . . . . . . . . . . . . . . . . . . . . . . . . . . . . ",
". . . . . . . . . . . . . . . . . . . . . . . . . . . . . . . . . . . . . . . . . . . . . . . . ",
". . . . . . . . . . . . . . . . . . . . . . . . . . . . . . . . . . . . . . . . . . . . . . . . ",
". . . . . . . . . . . . . . . . . . . . . . . . . . . . . . . . . . . . . . . . . . . . . . . . ",
". . . . . . . . . . . . . . . . . . . . . . . . . . . . . . . . . . . . . . . . . . . . . . . . ",
". . . . . . . . . . . . . . . . . . .                 . . . . . . . . . . . . . . . . . . . . . ",
". . . . . . . . . . . . . . . . .   + + + @ # $ % & * = -     . . . . . . . . . . . . . . . . . ",
". . . . . . . . . . . . . . . . . + + + + ; > , ' ) ! ~ { ] ^ /   . . . . . . . . . . . . . . . ",
". . . . . . . . . . . . . . . . . ( + + + _ : < [ } | 1 2 3 4 5 6   . . . . . . . . . . . . . . ",
". . . . . . . . . . . . . . . . . . .   7 8 9 0 a b c d e f g h i j   . . . . . . . . . . . . . ",
". . . . . . . . . . . . . . . . .   k l m n o p q r s t u v w x y z A   . . . . . . . . . . . . ",
". . . . . . . . . . . . . . .   B C D E F G H I J K L M N O P Q R 1 S   T . . . . . . . . . . . ",
". . . . . . . . . . . . . .   U V W X Y Z `  ...+.@.#.$.%.&.*.=.-.;.>.,.'.. . . . . . . . . . . ",
". . . . . . . . . . . . .   V C W ).!.~.{.].^./.(._.:.<.&.[.&.&.}.|.1.2.3.  . . . . . . . . . . ",
". . . . . . . . . . . .   4.5.6.7.8.9.0.a.b.c.d.e.f.g.h.&.i.j.k.l.m.n.o.p.q.. . . . .     . . . ",
". . . . . . . . . . . . r.s.r.8.F t.u.].b.v.w.x.y.z.A.k.k.j.&.B.C.D.E.F.G.H.  . . .   I.J.  . . ",
". . . . . . . . . .   K.F L.9.M.N.O.P.Q.R.S.T.U.V.W.X.Y.Z.`.Y. +.+++@+#+$+%+&+. . . *+=+-+;+. . ",
". . . . . . . .   >+,+'+)+!+~+{+]+^+/+(+_+:+<+[+}+|+1+2+Z.3+4+5+6+7+8+9+0+a+b+.   c+d+e+f+g+  . ",
". . . . . . .   h+i+j+k+l+m+n+o+p+q+r+s+t+u+v+w+x+y+z+A+B+B+C+D+E+F+G+H+I+, J+6+K+L+M+N+O+P+Q+. ",
". . . . . . .   R+S+T+U+V+W+X+Y+Z+`+ @.@+@@@#@$@7+%@&@*@=@=@7+-@;@>@,@'@)@!@~@{@]@^@/@(@_@:@<@. ",
". . . . . . . . [@}@|@1@1@2@3@4@5@6@7@8@9@9@0@a@b@b@c@c@c@b@d@a@0@9@e@f@g@h@i@j@B+F+k@l@m@n@o@  ",
".     . . . . p@q@r@s@t@u@v@w@x@y@z@A@B@C@D@E@F@G@H@I@I@I@H@J@K@L@M@N@O@P@Q@R@S@#@T@U@V@W@X@Y@  ",
". Z@`@ #.   .#+#@###$#%#&#*#=#-#;#>#,#'#)#!#~#{#]#^#/#(#_#:#<#[#}#|#1#2#3#4#5#6#7#8#9#0#a#b#c#d#",
". e#f#g#h#i#j#E+k#l#m#n#o#p#q#r#s#t#u#v#w#x#y#z#A#B#C#D#E#F#G#H#I#J#K#L#M#N#O#P#c@0@Q#R#S#T#U#V#",
". W#X#Y#Z#x+x+`# $.$+$@$#$$$%$&$*$=$-$;$>$,$'$)$!$~$~$~${$]$^$/$($_$:$<$[$}$|$I@1$2$3$4$5$6$7$  ",
". 8$9$0$a$B+b$c$d$e$f$g$h$i$j$k$l$m$n$o$p$q$r$s$t$u$v$w$x$y$z$A$B$C$D$E$F$G$H$I$J$K$L$M$N$T#O$  ",
". P$Q$R$S$T$U$V$W$X$Y$Z$`$ %.%+%@%#%$%%%&%*%=%-%;%>%,%'%)%!%~%{%]%^%/%(%_%:%.   |$<%[%}%|%1%2%. ",
". 3%4%5%  6%d$7%8%9%0%a%b%c%d%e%f%g%h%i%j%k%l%m%n%o%p%q%r%s%t%u%v%w%x%y%z%A%. . B%C%D%E%F%G%H%. ",
". I%{@. . . .   J%K%L%M%N%O%P%Q%R%S%T%U%V%W%X%Y%Z%`% &.&+&@&#&$&%&&&*&=&-&  . .   ;&>&,&'&)&  . ",
". !&. . . . . . . . .               ~&{&]&^&Y%/&m%(&p%_&:&<&[&}&|&1&2&3&  . . . . 4&5&6&7&8&. . ",
". . . . . . . . . . . . . . . . . .   9&n%0&a&b&b&c&d&e&f&g&h&i&j&k&l&  . . . . .   m&n&o&  . . ",
". . . . . . . . . . . . . . . . . . . . b&p&Z%b& &q&_&r&. . . . . . . . . . . . . . s&t&  . . . ",
". . . . . . . . . . . . . . . . . . . .  & &u& &d&v&w&x&. . . . . . . . . . . . . .   y&. . . . ",
". . . . . . . . . . . . . . . . . . . . z&A&_&_&e&B&C&  . . . . . . . . . . . . . . . . . . . . ",
". . . . . . . . . . . . . . . . . . . .   D&w&E&x&F&  . . . . . . . . . . . . . . . . . . . . . ",
". . . . . . . . . . . . . . . . . . . .   G&H&I&J&  . . . . . . . . . . . . . . . . . . . . . . ",
". . . . . . . . . . . . . . . . . . . . .       . . . . . . . . . . . . . . . . . . . . . . . . ",
". . . . . . . . . . . . . . . . . . . . . . . . . . . . . . . . . . . . . . . . . . . . . . . . ",
". . . . . . . . . . . . . . . . . . . . . . . . . . . . . . . . . . . . . . . . . . . . . . . . ",
". . . . . . . . . . . . . . . . . . . . . . . . . . . . . . . . . . . . . . . . . . . . . . . . ",
". . . . . . . . . . . . . . . . . . . . . . . . . . . . . . . . . . . . . . . . . . . . . . . . ",
". . . . . . . . . . . . . . . . . . . . . . . . . . . . . . . . . . . . . . . . . . . . . . . . ",
". . . . . . . . . . . . . . . . . . . . . . . . . . . . . . . . . . . . . . . . . . . . . . . . ",
". . . . . . . . . . . . . . . . . . . . . . . . . . . . . . . . . . . . . . . . . . . . . . . . ",
". . . . . . . . . . . . . . . . . . . . . . . . . . . . . . . . . . . . . . . . . . . . . . . . "};
