/* XPM */
static char * swim_left_4_xpm[] = {
"48 48 653 2",
"  	c None",
". 	c #6DBADE",
"+ 	c #217844",
"@ 	c #1D7544",
"# 	c #1C7C45",
"$ 	c #198146",
"% 	c #188747",
"& 	c #17914D",
"* 	c #189350",
"= 	c #1E8E45",
"- 	c #1E8947",
"; 	c #1E7A45",
"> 	c #1A8046",
", 	c #168E48",
"' 	c #14994F",
") 	c #139C50",
"! 	c #149B4B",
"~ 	c #11964F",
"{ 	c #16974A",
"] 	c #1F8440",
"^ 	c #1E7F45",
"/ 	c #188347",
"( 	c #178D48",
"_ 	c #14944A",
": 	c #129F51",
"< 	c #11A34E",
"[ 	c #10A24E",
"} 	c #10A14F",
"| 	c #12A04B",
"1 	c #108944",
"2 	c #179147",
"3 	c #2D803C",
"4 	c #1E7844",
"5 	c #228345",
"6 	c #228846",
"7 	c #1D9248",
"8 	c #11994A",
"9 	c #0EA553",
"0 	c #0FAA4E",
"a 	c #0CA950",
"b 	c #0DAE4E",
"c 	c #0DA04A",
"d 	c #0F9D49",
"e 	c #139F4B",
"f 	c #138D49",
"g 	c #2B7B3C",
"h 	c #E5EA0F",
"i 	c #DFE711",
"j 	c #DDEA24",
"k 	c #99EF66",
"l 	c #C9DA21",
"m 	c #B1CB28",
"n 	c #AECC25",
"o 	c #C2E42E",
"p 	c #ABD736",
"q 	c #A0D93D",
"r 	c #68C144",
"s 	c #3BAE48",
"t 	c #0DAF4E",
"u 	c #0E9F4C",
"v 	c #11974B",
"w 	c #189449",
"x 	c #F8FA07",
"y 	c #F7F708",
"z 	c #E3E80E",
"A 	c #E4EA10",
"B 	c #EEF311",
"C 	c #DFF12C",
"D 	c #D0EE3D",
"E 	c #E5F319",
"F 	c #D7EA1D",
"G 	c #DEF41F",
"H 	c #C9EE27",
"I 	c #D4F726",
"J 	c #C8EE27",
"K 	c #CFFC2B",
"L 	c #9EDB3A",
"M 	c #4BB449",
"N 	c #10A64D",
"O 	c #1D9646",
"P 	c #247C3B",
"Q 	c #FAFA05",
"R 	c #F8F807",
"S 	c #F5F60A",
"T 	c #F1F411",
"U 	c #BCF75D",
"V 	c #EDF211",
"W 	c #DDF02D",
"X 	c #D2ED34",
"Y 	c #D5EB25",
"Z 	c #E1F51E",
"` 	c #DAF323",
" .	c #D6F625",
"..	c #B2E92E",
"+.	c #D5FE29",
"@.	c #D4FF2A",
"#.	c #ABEA32",
"$.	c #B7F031",
"%.	c #55B546",
"&.	c #158C42",
"*.	c #138844",
"=.	c #297B3C",
"-.	c #F2F40C",
";.	c #EFF311",
">.	c #DEF433",
",.	c #E3EC15",
"'.	c #E7F217",
").	c #C8E32B",
"!.	c #9ED13B",
"~.	c #CEE620",
"{.	c #AACC22",
"].	c #D9FA25",
"^.	c #C4F42C",
"/.	c #D1FE2C",
"(.	c #B4EA35",
"_.	c #12A54C",
":.	c #188F49",
"<.	c #F4F60B",
"[.	c #F4F50A",
"}.	c #F3F50C",
"|.	c #F1F40D",
"1.	c #EFF30F",
"2.	c #EDF312",
"3.	c #EAF214",
"4.	c #D2E219",
"5.	c #E5F31A",
"6.	c #D2E828",
"7.	c #DFF51F",
"8.	c #DBF622",
"9.	c #D1F224",
"0.	c #C5EB26",
"a.	c #B8E328",
"b.	c #A3EC47",
"c.	c #D3FF2A",
"d.	c #D3FE2A",
"e.	c #CEF92A",
"f.	c #5EB949",
"g.	c #10994F",
"h.	c #148F4E",
"i.	c #2A7D43",
"j.	c #F0F40E",
"k.	c #F1F40E",
"l.	c #ECF213",
"m.	c #E9F215",
"n.	c #E2F41C",
"o.	c #D9F325",
"p.	c #91DF4D",
"q.	c #D7F726",
"r.	c #B6E238",
"s.	c #D4FE29",
"t.	c #D0FB2A",
"u.	c #AFDB27",
"v.	c #A7E13A",
"w.	c #139E4B",
"x.	c #179349",
"y.	c #1D8746",
"z.	c #1A6839",
"A.	c #1F713F",
"B.	c #ECF315",
"C.	c #EDF311",
"D.	c #EBF213",
"E.	c #EAF215",
"F.	c #E8F217",
"G.	c #E5F219",
"H.	c #E2F21B",
"I.	c #C8DF1E",
"J.	c #DCF21F",
"K.	c #D8F322",
"L.	c #C2EE33",
"M.	c #D0F527",
"N.	c #CAF62B",
"O.	c #B3EE3E",
"P.	c #CCF72A",
"Q.	c #C0EC29",
"R.	c #B5E128",
"S.	c #CCF82A",
"T.	c #CDF92A",
"U.	c #C4F12A",
"V.	c #4EA443",
"W.	c #148544",
"X.	c #167A41",
"Y.	c #346631",
"Z.	c #137138",
"`.	c #1A723D",
" +	c #116331",
".+	c #F5F4F4",
"++	c #E8EBC9",
"@+	c #EDF46B",
"#+	c #F4F8BB",
"$+	c #EDF2BB",
"%+	c #D8E474",
"&+	c #E4EF18",
"*+	c #E3F018",
"=+	c #E0EF1A",
"-+	c #DCEE1C",
";+	c #D8ED1E",
">+	c #D4ED20",
",+	c #D0ED22",
"'+	c #CBED24",
")+	c #C7ED27",
"!+	c #C3EE29",
"~+	c #C1EE2A",
"{+	c #B1E836",
"]+	c #C1ED29",
"^+	c #BBE729",
"/+	c #BFEE2F",
"(+	c #A7F35A",
"_+	c #C3EF29",
":+	c #AEDB28",
"<+	c #94CA34",
"[+	c #198E47",
"}+	c #1A8345",
"|+	c #326F38",
"1+	c #137A3C",
"2+	c #0D7838",
"3+	c #0B7134",
"4+	c #135B31",
"5+	c #A2A0A0",
"6+	c #8D8E79",
"7+	c #EDF59B",
"8+	c #F4F4EF",
"9+	c #FAFAFA",
"0+	c #EEEEEE",
"a+	c #E6E6E5",
"b+	c #BACF81",
"c+	c #D8EA1C",
"d+	c #D4E91D",
"e+	c #D0E81F",
"f+	c #CBE721",
"g+	c #C7E623",
"h+	c #C2E624",
"i+	c #BDE627",
"j+	c #BAE628",
"k+	c #B8E528",
"l+	c #B8E428",
"m+	c #AAD727",
"n+	c #A2D026",
"o+	c #B7E428",
"p+	c #B6E52B",
"q+	c #A4E950",
"r+	c #B9E628",
"s+	c #BAE728",
"t+	c #BCE829",
"u+	c #82BD3B",
"v+	c #1F8546",
"w+	c #376E35",
"x+	c #8FC433",
"y+	c #25913D",
"z+	c #0A853B",
"A+	c #0F733D",
"B+	c #0C6B47",
"C+	c #6CB8DC",
"D+	c #3C3A26",
"E+	c #C4D228",
"F+	c #D2D4BE",
"G+	c #575454",
"H+	c #8D8C8C",
"I+	c #CECECE",
"J+	c #E4E4E4",
"K+	c #B9C4B5",
"L+	c #C4DF20",
"M+	c #C7E220",
"N+	c #C2E122",
"O+	c #BDE023",
"P+	c #B8DF25",
"Q+	c #B3DE27",
"R+	c #B0DD28",
"S+	c #AFDC28",
"T+	c #ADDB28",
"U+	c #ACD927",
"V+	c #ABD827",
"W+	c #ADDA28",
"X+	c #AEDC28",
"Y+	c #AFDD28",
"Z+	c #B1DE28",
"`+	c #B2DF28",
" @	c #B4E128",
".@	c #AFDD29",
"+@	c #A0D12E",
"@@	c #B6E429",
"#@	c #BDE929",
"$@	c #BFEC29",
"%@	c #92CC35",
"&@	c #0C8541",
"*@	c #0D7B3F",
"=@	c #126735",
"-@	c #D3E571",
";@	c #DBEF53",
">@	c #BEBDBD",
",@	c #241C1C",
"'@	c #B9B9B9",
")@	c #ECECEC",
"!@	c #BBC5BA",
"~@	c #B1D423",
"{@	c #B0D625",
"]@	c #A6D127",
"^@	c #A6D328",
"/@	c #A7D527",
"(@	c #A6D427",
"_@	c #A4D227",
":@	c #A3D127",
"<@	c #A2D027",
"[@	c #A3D227",
"}@	c #A9D627",
"|@	c #A7D529",
"1@	c #62A239",
"2@	c #4A953C",
"3@	c #62A339",
"4@	c #AFDD2A",
"5@	c #B4E42A",
"6@	c #1E9E44",
"7@	c #0E813C",
"8@	c #0E6A33",
"9@	c #0F5B2D",
"0@	c #CEED23",
"a@	c #CEEB22",
"b@	c #CCE837",
"c@	c #E9ECE3",
"d@	c #AAA9A9",
"e@	c #AFAEAE",
"f@	c #E1E1E1",
"g@	c #F4F4F4",
"h@	c #A0B89A",
"i@	c #A8D326",
"j@	c #A0CD5C",
"k@	c #89C14C",
"l@	c #85BF30",
"m@	c #8DC22A",
"n@	c #97C828",
"o@	c #9BCA26",
"p@	c #9AC926",
"q@	c #99C826",
"r@	c #99C726",
"s@	c #98C726",
"t@	c #9AC826",
"u@	c #9BC926",
"v@	c #9CCA27",
"w@	c #9ECC26",
"x@	c #A0CE2B",
"y@	c #8DBF37",
"z@	c #48933F",
"A@	c #49933F",
"B@	c #49943E",
"C@	c #96C730",
"D@	c #B2E028",
"E@	c #40AF44",
"F@	c #0B9041",
"G@	c #107538",
"H@	c #145C31",
"I@	c #B4DB25",
"J@	c #C3E926",
"K@	c #C0E726",
"L@	c #BBE427",
"M@	c #ADD18A",
"N@	c #EBEEEB",
"O@	c #F3F3F3",
"P@	c #F1F2F1",
"Q@	c #C2CEC1",
"R@	c #79B030",
"S@	c #A2D123",
"T@	c #76BA3B",
"U@	c #7CB964",
"V@	c #85BC66",
"W@	c #99C377",
"X@	c #A0C673",
"Y@	c #A8CA73",
"Z@	c #AACC72",
"`@	c #A9CA6E",
" #	c #A7CA6E",
".#	c #A6C96A",
"+#	c #A3C764",
"@#	c #A4C865",
"##	c #A6C969",
"$#	c #A7CA6B",
"%#	c #A9CB6D",
"&#	c #A8CB68",
"*#	c #A6CB60",
"=#	c #A3CA52",
"-#	c #85B641",
";#	c #46903F",
">#	c #479140",
",#	c #489240",
"'#	c #9BC845",
")#	c #AED743",
"!#	c #AEDA3A",
"~#	c #30A543",
"{#	c #0E843C",
"]#	c #126B35",
"^#	c #155A30",
"/#	c #5B9A0C",
"(#	c #6CA514",
"_#	c #94C320",
":#	c #B7E328",
"<#	c #B5E228",
"[#	c #B2DF27",
"}#	c #A7D826",
"|#	c #75B042",
"1#	c #85AC80",
"2#	c #6F9F64",
"3#	c #70AC25",
"4#	c #99CD1E",
"5#	c #98CC1D",
"6#	c #60B333",
"7#	c #41A738",
"8#	c #4EA735",
"9#	c #5DA931",
"0#	c #6CAB2D",
"a#	c #79B029",
"b#	c #84B525",
"c#	c #86B529",
"d#	c #86B52F",
"e#	c #88B536",
"f#	c #8BB73D",
"g#	c #8BB83D",
"h#	c #8BB73A",
"i#	c #89B733",
"j#	c #88B828",
"k#	c #89B925",
"l#	c #8CBB25",
"m#	c #8EBE26",
"n#	c #87B92A",
"o#	c #48903A",
"p#	c #448F3B",
"q#	c #6EA834",
"r#	c #9ECC27",
"s#	c #97D02F",
"t#	c #14AA4C",
"u#	c #129144",
"v#	c #12783A",
"w#	c #146233",
"x#	c #A1B71E",
"y#	c #B7DF24",
"z#	c #A1D120",
"A#	c #B1DE25",
"B#	c #B5E227",
"C#	c #B4E127",
"D#	c #B0DE25",
"E#	c #ABDB22",
"F#	c #A5D71F",
"G#	c #9FD41D",
"H#	c #97CF1B",
"I#	c #93CC1A",
"J#	c #8FC919",
"K#	c #8CC718",
"L#	c #8BC519",
"M#	c #53B035",
"N#	c #2CA43C",
"O#	c #3CA038",
"P#	c #4EA233",
"Q#	c #5EA32F",
"R#	c #6CA62A",
"S#	c #78AA26",
"T#	c #7AAB24",
"U#	c #79AA24",
"V#	c #7AAA24",
"W#	c #7BAB24",
"X#	c #7DAD25",
"Y#	c #7EAF25",
"Z#	c #81B125",
"`#	c #84B325",
" $	c #86B625",
".$	c #8AB925",
"+$	c #87B828",
"@$	c #94C326",
"#$	c #9BCA27",
"$$	c #5BB844",
"%$	c #0BA64C",
"&$	c #0D9242",
"*$	c #13753A",
"=$	c #166033",
"-$	c #99AD1B",
";$	c #ABCA21",
">$	c #B2DE26",
",$	c #BCE929",
"'$	c #B3E027",
")$	c #AFDE24",
"!$	c #A8DA20",
"~$	c #A1D51D",
"{$	c #98D01A",
"]$	c #8FCB17",
"^$	c #87C615",
"/$	c #80C214",
"($	c #7BBF13",
"_$	c #79BD13",
":$	c #7ABC14",
"<$	c #58B02F",
"[$	c #27A23C",
"}$	c #1C8C3A",
"|$	c #439733",
"1$	c #579D2E",
"2$	c #639E2A",
"3$	c #6EA125",
"4$	c #70A124",
"5$	c #6FA024",
"6$	c #71A324",
"7$	c #73A424",
"8$	c #76A724",
"9$	c #79A924",
"0$	c #7AAC26",
"a$	c #76AF2C",
"b$	c #75AC29",
"c$	c #79AA28",
"d$	c #83B025",
"e$	c #8FBF26",
"f$	c #7EB129",
"g$	c #5AA439",
"h$	c #359F43",
"i$	c #0B9B49",
"j$	c #0C8B4B",
"k$	c #10753A",
"l$	c #9CB01C",
"m$	c #B8DF26",
"n$	c #B3E127",
"o$	c #AFDE23",
"p$	c #A7DA1F",
"q$	c #9ED41B",
"r$	c #93CE18",
"s$	c #86C715",
"t$	c #7AC012",
"u$	c #6FBA10",
"v$	c #66B50F",
"w$	c #62B20E",
"x$	c #63B20E",
"y$	c #67B310",
"z$	c #65B11B",
"A$	c #319D39",
"B$	c #0A863B",
"C$	c #409032",
"D$	c #54972D",
"E$	c #5E9728",
"F$	c #669824",
"G$	c #669823",
"H$	c #649723",
"I$	c #649623",
"J$	c #659723",
"K$	c #689A23",
"L$	c #6B9D23",
"M$	c #6CA126",
"N$	c #4EBF43",
"O$	c #23BD4B",
"P$	c #18A044",
"Q$	c #248639",
"R$	c #29692E",
"S$	c #2D5028",
"T$	c #348232",
"U$	c #279240",
"V$	c #2E9144",
"W$	c #0E8241",
"X$	c #0C784D",
"Y$	c #B0DF25",
"Z$	c #9ED51B",
"`$	c #91CE18",
" %	c #83C614",
".%	c #72BD10",
"+%	c #61B30D",
"@%	c #51AB0B",
"#%	c #47A509",
"$%	c #45A309",
"%%	c #4CA60A",
"&%	c #57AB0C",
"*%	c #5AA91D",
"=%	c #489F32",
"-%	c #078B3C",
";%	c #438C30",
">%	c #569229",
",%	c #5C9125",
"'%	c #5E9023",
")%	c #5B8E22",
"!%	c #5A8D22",
"~%	c #5D9023",
"{%	c #609323",
"]%	c #639623",
"^%	c #3CB147",
"/%	c #1DBE4E",
"(%	c #20AE46",
"_%	c #1A9541",
":%	c #237935",
"<%	c #255F2D",
"[%	c #217936",
"}%	c #287E35",
"|%	c #1F8644",
"1%	c #1F854C",
"2%	c #126D3A",
"3%	c #88C916",
"4%	c #75BE11",
"5%	c #60B30D",
"6%	c #48A609",
"7%	c #319906",
"8%	c #229104",
"9%	c #299505",
"0%	c #3C9E08",
"a%	c #4DA60B",
"b%	c #529C2B",
"c%	c #59A72F",
"d%	c #06903D",
"e%	c #548C29",
"f%	c #598C22",
"g%	c #558822",
"h%	c #528522",
"i%	c #508322",
"j%	c #508422",
"k%	c #538622",
"l%	c #568922",
"m%	c #4C9531",
"n%	c #0AA44C",
"o%	c #17A547",
"p%	c #1F9841",
"q%	c #2A8536",
"r%	c #1F6C33",
"s%	c #365525",
"t%	c #227135",
"u%	c #187238",
"v%	c #168151",
"w%	c #4DA233",
"x%	c #08883B",
"y%	c #558B26",
"z%	c #548722",
"A%	c #4B7E21",
"B%	c #477B21",
"C%	c #4A7D21",
"D%	c #4E8122",
"E%	c #508726",
"F%	c #2E8536",
"G%	c #0D8A44",
"H%	c #0E8941",
"I%	c #2A8136",
"J%	c #1F6F34",
"K%	c #365C27",
"L%	c #1A6E40",
"M%	c #09913D",
"N%	c #0A8139",
"O%	c #5A8E25",
"P%	c #4E8222",
"Q%	c #4D8122",
"R%	c #4F8222",
"S%	c #558622",
"T%	c #36612B",
"U%	c #38692A",
"V%	c #1F6B37",
"W%	c #206938",
"X%	c #2F602D",
"Y%	c #3B5425",
"Z%	c #15542E",
"`%	c #155F3A",
" &	c #09873B",
".&	c #0C7A38",
"+&	c #6CB6DA",
"@&	c #0B7F39",
"#&	c #0E7135",
"$&	c #0D7637",
"%&	c #106933",
"&&	c #0F6C34",
"*&	c #126131",
". . . . . . . . . . . . . . . . . . . . . . . . . . . . . . . . . . . . . . . . . . . . . . . . ",
". . . . . . . . . . . . . . . . . . . . . . . . . . . . . . . . . . . . . . . . . . . . . . . . ",
". . . . . . . . . . . . . . . . . . . . . . . . . . . . . . . . . . . . . . . . . . . . . . . . ",
". . . . . . . . . . . . . . . . . . . . . . . . . . . . . . . . . . . . . . . . . . . . . . . . ",
". . . . . . . . . . . . . . . . . . . . . . . . . . . . . . . . . . . . . . . . . . . . . . . . ",
". . . . . . . . . . . . . . . . . . . . . . . . . . . . . . . . . . . . . . . . . . . . . . . . ",
". . . . . . . . . . . . . . . . . . . . . . . . . . . . . . . . . . . . . . . . . . . . . . . . ",
". . . . . . . . . . . . . . . . . . . . . . . . . . . . . . . . . . . . . . . . . . . . . . . . ",
". . . . . . . . . . . . . . . . . . .               . . . . . . . . . . . . . . . . . . . . . . ",
". . . . . . . . . . . . . . . . . + + + + @ # $ % & * = -   . . . . . . . . . . . . . . . . . . ",
". . . . . . . . . . . . . . . . . + + + + ; > % , ' ) ! ~ { ]   . . . . . . . . . . . . . . . . ",
". . . . . . . . . . . . . . . . . . + + + ^ / ( _ : < [ } | 1 2 3 . . . . . . . . . . . . . . . ",
". . . . . . . . . . . . . . . . . . .   4 5 6 7 8 9 0 a b c d e f g . . . . . . . . . . . . . . ",
". . . . . . . . . . . . . . . . .   h i j k l m n o p q r s t u v w   . . . . . . . . . . . . . ",
". . . . . . . . . . . . . . .   x y z A B C D E F G H I J K L M N O P   . . . . . . . . . . . . ",
". . . . . . . . . . . . . .   Q R S T U V W X Y Z `  ...+.@.#.$.%.&.*.=.. . . . . . . . . . . . ",
". . . . . . . . . . . . .   R y S -.;.>.,.'.).!.~.{.].^.@./.@.@.(._.! :.  . . . . . . . . . . . ",
". . . . . . . . . . . .   <.[.}.|.1.2.3.4.5.6.7.8.9.0.a.@.b.c.d.e.f.g.h.i.. . . . .   . . . . . ",
". . . . . . . . . . . . j.k.j.1.B l.m.'.5.n.o.p.q.r.s.d.d.c.@.t.u.v.w.x.y.  . . .   z.A.. . . . ",
". . . . . . . . . .   B.B C.2.D.E.F.G.H.I.J.K.L.M.N.O.P.Q.R.P.S.T.U.V.W.X.Y.. . . Z.`. +  . . . ",
". . . . . . . .   .+++@+#+$+%+&+*+=+-+;+>+,+'+)+!+~+{+]+Q.^+/+(+_+:+<+[+}+|+. .   1+2+3+4+. . . ",
". . . . . . .   5+6+7+8+9+0+a+b+c+d+e+f+g+h+i+j+k+l+m+n+o+o+p+q+r+s+t+u+v+w+.   x+y+z+A+B+C+. . ",
". . . . . . .   D+E+F+G+H+I+J+K+L+M+N+O+P+Q+R+S+:+T+U+V+W+W+:+X+Y+Z+`+ @.@+@@@#@$@%@&@*@=@  . . ",
". . . . . . . . -@;@>@,@,@'@)@!@~@{@]@^@/@/@(@_@:@:@<@<@<@:@[@_@(@/@}@|@1@2@3@4@o+5@6@7@8@9@. . ",
". . . . . . . 0@a@b@c@d@e@f@g@h@i@j@k@l@m@n@o@p@q@r@s@s@s@r@t@u@v@w@x@y@z@A@B@C@R+D@E@F@G@H@. . ",
". . . . .   I@J@K@L@M@N@O@P@Q@R@S@T@U@V@W@X@Y@Z@`@ #.#+#@###$#%#&#*#=#-#;#>#,#'#)#!#~#{#]#^#. . ",
".     /#(#_#:#j+<#[#}#|#1#2#3#4#5#6#7#8#9#0#a#b#c#d#e#f#g#h#i#j#k#l#m#n#o#p#q#r#<@s#t#u#v#w#. . ",
". x#y#z#A#B#k+C#D#E#F#G#H#I#J#K#L#M#N#O#P#Q#R#S#T#U#U#U#V#W#X#Y#Z#`# $.$+$n#@$s@#$$$%$&$*$=$. . ",
". -$;$>$,$o+'$)$!$~${$]$^$/$($_$:$<$[$}$|$1$2$3$4$5$5$5$4$6$7$8$9$0$a$b$c$d$e$f$g$h$i$j$k$  . . ",
". l$m$j+k+n$o$p$q$r$s$t$u$v$w$x$y$z$A$B$C$D$E$F$G$H$I$J$G$K$L$M$N$O$P$Q$R$S$.   T$U$V$W$X$. . . ",
".         Y$!$Z$`$ %.%+%@%#%$%%%&%*%=%-%;%>%,%'%)%!%!%)%~%{%]%^%/%(%_%:%<%  . . [%}%|%1%2%. . . ",
". . . . . . .   3%4%5%6%7%8%9%0%a%b%c%d%e%~%f%g%h%i%j%k%l%!%m%n%o%p%q%r%s%. . .   t%u%v%  . . . ",
". . . . . . . . . . .               w%x%y%f%z%i%A%B%C%D%k%E%F%G%H%I%J%K%  . . .   w#L%  . . . . ",
". . . . . . . . . . . . . . . . . . M%N%O%!%l%h%P%Q%R%h%S%T%U%V%W%X%Y%  . . . . . Z%`%. . . . . ",
". . . . . . . . . . . . . . . . . .  &.&.               . . . +&. . . . . . . . . . . . . . . . ",
". . . . . . . . . . . . . . . . . . @&#&. . . . . . . . . . . . . . . . . . . . . . . . . . . . ",
". . . . . . . . . . . . . . . . . . $&%&. . . . . . . . . . . . . . . . . . . . . . . . . . . . ",
". . . . . . . . . . . . . . . . . . &&  . . . . . . . . . . . . . . . . . . . . . . . . . . . . ",
". . . . . . . . . . . . . . . . . . *&  . . . . . . . . . . . . . . . . . . . . . . . . . . . . ",
". . . . . . . . . . . . . . . . . .   . . . . . . . . . . . . . . . . . . . . . . . . . . . . . ",
". . . . . . . . . . . . . . . . . . . . . . . . . . . . . . . . . . . . . . . . . . . . . . . . ",
". . . . . . . . . . . . . . . . . . . . . . . . . . . . . . . . . . . . . . . . . . . . . . . . ",
". . . . . . . . . . . . . . . . . . . . . . . . . . . . . . . . . . . . . . . . . . . . . . . . ",
". . . . . . . . . . . . . . . . . . . . . . . . . . . . . . . . . . . . . . . . . . . . . . . . ",
". . . . . . . . . . . . . . . . . . . . . . . . . . . . . . . . . . . . . . . . . . . . . . . . ",
". . . . . . . . . . . . . . . . . . . . . . . . . . . . . . . . . . . . . . . . . . . . . . . . ",
". . . . . . . . . . . . . . . . . . . . . . . . . . . . . . . . . . . . . . . . . . . . . . . . ",
". . . . . . . . . . . . . . . . . . . . . . . . . . . . . . . . . . . . . . . . . . . . . . . . "};
