/* XPM */
static char * swim_left_5_xpm[] = {
"48 48 681 2",
"  	c None",
". 	c #6DBADE",
"+ 	c #217844",
"@ 	c #1D7544",
"# 	c #1C7C45",
"$ 	c #198146",
"% 	c #188647",
"& 	c #18914D",
"* 	c #179350",
"= 	c #1E8E45",
"- 	c #1E8947",
"; 	c #1E7A45",
"> 	c #1A8046",
", 	c #188747",
"' 	c #168D48",
") 	c #15984E",
"! 	c #139C50",
"~ 	c #149B4B",
"{ 	c #11964F",
"] 	c #16974A",
"^ 	c #1E8541",
"/ 	c #1E7F45",
"( 	c #188247",
"_ 	c #178D48",
": 	c #14934A",
"< 	c #129F51",
"[ 	c #11A34F",
"} 	c #10A24E",
"| 	c #10A14F",
"1 	c #12A04B",
"2 	c #108A44",
"3 	c #179147",
"4 	c #2C823D",
"5 	c #1E7844",
"6 	c #228345",
"7 	c #228846",
"8 	c #1D9248",
"9 	c #11994A",
"0 	c #0EA453",
"a 	c #0FAA4E",
"b 	c #0DA950",
"c 	c #0DAD4E",
"d 	c #0DA14A",
"e 	c #0F9C49",
"f 	c #139F4B",
"g 	c #138E49",
"h 	c #297C3D",
"i 	c #E5EA0F",
"j 	c #DFE711",
"k 	c #DDEA24",
"l 	c #99EF66",
"m 	c #C9DA21",
"n 	c #B1CB28",
"o 	c #AECC25",
"p 	c #C2E42E",
"q 	c #ABD736",
"r 	c #A0D93D",
"s 	c #68C244",
"t 	c #3BAE47",
"u 	c #0DAF4E",
"v 	c #0EA04C",
"w 	c #11964B",
"x 	c #179549",
"y 	c #F8FA07",
"z 	c #F7F708",
"A 	c #E3E80E",
"B 	c #E4EA10",
"C 	c #EEF311",
"D 	c #DFF12C",
"E 	c #D0EE3D",
"F 	c #E5F319",
"G 	c #D7EA1D",
"H 	c #DEF41F",
"I 	c #C9EE27",
"J 	c #D4F726",
"K 	c #C8EE27",
"L 	c #CFFC2B",
"M 	c #9EDB3A",
"N 	c #4BB349",
"O 	c #10A74D",
"P 	c #1B9747",
"Q 	c #257D3B",
"R 	c #FAFA05",
"S 	c #F8F807",
"T 	c #F5F60A",
"U 	c #F1F411",
"V 	c #BCF75D",
"W 	c #EDF211",
"X 	c #DDF02D",
"Y 	c #D2ED34",
"Z 	c #D5EB25",
"` 	c #E1F51E",
" .	c #DAF323",
"..	c #D6F625",
"+.	c #B2E92E",
"@.	c #D5FE29",
"#.	c #D4FF2A",
"$.	c #ABEA32",
"%.	c #B7F031",
"&.	c #55B647",
"*.	c #168C42",
"=.	c #138744",
"-.	c #287B3D",
";.	c #F2F40C",
">.	c #EFF311",
",.	c #DEF433",
"'.	c #E3EC15",
").	c #E7F217",
"!.	c #C8E32B",
"~.	c #9ED13B",
"{.	c #CEE620",
"].	c #AACC22",
"^.	c #D9FA25",
"/.	c #C4F42C",
"(.	c #D1FE2C",
"_.	c #B4EA35",
":.	c #12A44C",
"<.	c #18904A",
"[.	c #F4F60B",
"}.	c #F4F50A",
"|.	c #F3F50C",
"1.	c #F1F40D",
"2.	c #EFF30F",
"3.	c #EDF312",
"4.	c #EAF214",
"5.	c #D2E219",
"6.	c #E5F31A",
"7.	c #D2E828",
"8.	c #DFF51F",
"9.	c #DBF622",
"0.	c #D1F224",
"a.	c #C5EB26",
"b.	c #B8E328",
"c.	c #A3EC47",
"d.	c #D3FF2A",
"e.	c #D3FE2A",
"f.	c #CEF92A",
"g.	c #5EBA49",
"h.	c #10994F",
"i.	c #13904E",
"j.	c #287F44",
"k.	c #F0F40E",
"l.	c #F1F40E",
"m.	c #ECF213",
"n.	c #E9F215",
"o.	c #E2F41C",
"p.	c #D9F325",
"q.	c #91DF4D",
"r.	c #D7F726",
"s.	c #B6E238",
"t.	c #D4FE29",
"u.	c #D0FB2A",
"v.	c #AFDB27",
"w.	c #A7E13A",
"x.	c #139E4C",
"y.	c #179449",
"z.	c #1C8947",
"A.	c #145D31",
"B.	c #1F7340",
"C.	c #ECF315",
"D.	c #EDF311",
"E.	c #EBF213",
"F.	c #EAF215",
"G.	c #E8F217",
"H.	c #E5F219",
"I.	c #E2F21B",
"J.	c #C8DF1E",
"K.	c #DCF21F",
"L.	c #D8F322",
"M.	c #C2EE33",
"N.	c #D0F527",
"O.	c #CAF62B",
"P.	c #B3EE3E",
"Q.	c #CCF72A",
"R.	c #C0EC29",
"S.	c #B5E128",
"T.	c #CCF82A",
"U.	c #CDF92A",
"V.	c #C4F12B",
"W.	c #49A343",
"X.	c #148744",
"Y.	c #167B41",
"Z.	c #336733",
"`.	c #17713B",
" +	c #186C3A",
".+	c #0F6330",
"++	c #F5F4F4",
"@+	c #E8EBC9",
"#+	c #EDF46B",
"$+	c #F4F8BB",
"%+	c #EDF2BB",
"&+	c #D8E474",
"*+	c #E4EF18",
"=+	c #E3F018",
"-+	c #E0EF1A",
";+	c #DCEE1C",
">+	c #D8ED1E",
",+	c #D4ED20",
"'+	c #D0ED22",
")+	c #CBED24",
"!+	c #C7ED27",
"~+	c #C3EE29",
"{+	c #C1EE2A",
"]+	c #B1E836",
"^+	c #C1ED29",
"/+	c #BBE729",
"(+	c #BFEE2F",
"_+	c #A7F35A",
":+	c #C3EF29",
"<+	c #AEDB28",
"[+	c #96CC33",
"}+	c #1C8E47",
"|+	c #198345",
"1+	c #2F6F38",
"2+	c #127B3B",
"3+	c #13793B",
"4+	c #0C7435",
"5+	c #0D6B32",
"6+	c #A2A0A0",
"7+	c #8D8E79",
"8+	c #EDF59B",
"9+	c #F4F4EF",
"0+	c #FAFAFA",
"a+	c #EEEEEE",
"b+	c #E6E6E5",
"c+	c #BACF81",
"d+	c #D8EA1C",
"e+	c #D4E91D",
"f+	c #D0E81F",
"g+	c #CBE721",
"h+	c #C7E623",
"i+	c #C2E624",
"j+	c #BDE627",
"k+	c #BAE628",
"l+	c #B8E528",
"m+	c #B8E428",
"n+	c #AAD727",
"o+	c #A2D026",
"p+	c #B7E428",
"q+	c #B6E52B",
"r+	c #A4E950",
"s+	c #B9E628",
"t+	c #BAE728",
"u+	c #BCE828",
"v+	c #8EC738",
"w+	c #278946",
"x+	c #347137",
"y+	c #BCEA2B",
"z+	c #9DD132",
"A+	c #0D873B",
"B+	c #0C7D39",
"C+	c #106B3B",
"D+	c #0C6948",
"E+	c #3C3A26",
"F+	c #C4D228",
"G+	c #D2D4BE",
"H+	c #575454",
"I+	c #8D8C8C",
"J+	c #CECECE",
"K+	c #E4E4E4",
"L+	c #B9C4B5",
"M+	c #C4DF20",
"N+	c #C7E220",
"O+	c #C2E122",
"P+	c #BDE023",
"Q+	c #B8DF25",
"R+	c #B3DE27",
"S+	c #B0DD28",
"T+	c #AFDC28",
"U+	c #ADDB28",
"V+	c #ACD927",
"W+	c #ABD827",
"X+	c #ADDA28",
"Y+	c #AEDC28",
"Z+	c #AFDD28",
"`+	c #B1DE28",
" @	c #B2DF28",
".@	c #B4E128",
"+@	c #A9D72B",
"@@	c #93C631",
"#@	c #B2E02A",
"$@	c #BDE929",
"%@	c #BFEC29",
"&@	c #C2EE29",
"*@	c #55A83D",
"=@	c #0D7D40",
"-@	c #0D7341",
";@	c #136036",
">@	c #D3E571",
",@	c #DBEF53",
"'@	c #BEBDBD",
")@	c #241C1C",
"!@	c #B9B9B9",
"~@	c #ECECEC",
"{@	c #BBC5BA",
"]@	c #B1D423",
"^@	c #B0D625",
"/@	c #A6D127",
"(@	c #A6D328",
"_@	c #A7D527",
":@	c #A6D427",
"<@	c #A4D227",
"[@	c #A3D127",
"}@	c #A2D027",
"|@	c #A3D227",
"1@	c #A9D627",
"2@	c #A6D429",
"3@	c #579C3A",
"4@	c #4A953C",
"5@	c #5CA03A",
"6@	c #AFDD2A",
"7@	c #78BD3B",
"8@	c #0B9342",
"9@	c #0E7B3A",
"0@	c #0F6230",
"a@	c #C9E723",
"b@	c #CEEB22",
"c@	c #CCE837",
"d@	c #E9ECE3",
"e@	c #AAA9A9",
"f@	c #AFAEAE",
"g@	c #E1E1E1",
"h@	c #F4F4F4",
"i@	c #A0B89A",
"j@	c #A8D326",
"k@	c #A0CD5C",
"l@	c #89C14C",
"m@	c #85BF30",
"n@	c #8DC22A",
"o@	c #97C828",
"p@	c #9BCA26",
"q@	c #9AC926",
"r@	c #99C826",
"s@	c #99C726",
"t@	c #98C726",
"u@	c #9AC826",
"v@	c #9BC926",
"w@	c #9CCA27",
"x@	c #9ECC26",
"y@	c #A0CE2B",
"z@	c #8CBE37",
"A@	c #48933F",
"B@	c #49933F",
"C@	c #49943E",
"D@	c #96C730",
"E@	c #B3E028",
"F@	c #7BC43B",
"G@	c #0E9342",
"H@	c #0E7F3B",
"I@	c #116A34",
"J@	c #6FBBDD",
"K@	c #AAD123",
"L@	c #BFE426",
"M@	c #C0E726",
"N@	c #BBE427",
"O@	c #ADD18A",
"P@	c #EBEEEB",
"Q@	c #F3F3F3",
"R@	c #F1F2F1",
"S@	c #C2CEC1",
"T@	c #79B030",
"U@	c #A2D123",
"V@	c #76BA3B",
"W@	c #7CB964",
"X@	c #85BC66",
"Y@	c #99C377",
"Z@	c #A0C673",
"`@	c #A8CA73",
" #	c #AACC72",
".#	c #A9CA6E",
"+#	c #A7CA6E",
"@#	c #A6C96A",
"##	c #A3C764",
"$#	c #A4C865",
"%#	c #A6C969",
"&#	c #A7CA6B",
"*#	c #A9CB6D",
"=#	c #A8CB68",
"-#	c #A6CB60",
";#	c #A3CA52",
">#	c #85B641",
",#	c #46903F",
"'#	c #479140",
")#	c #489240",
"!#	c #9BC845",
"~#	c #AED743",
"{#	c #AFDA3A",
"]#	c #73BF3C",
"^#	c #0C9341",
"/#	c #0F7B3A",
"(#	c #136433",
"_#	c #B0CC22",
":#	c #CAF528",
"<#	c #5C9B0D",
"[#	c #6CA614",
"}#	c #8CBC1E",
"|#	c #B0DC27",
"1#	c #B5E228",
"2#	c #B2DF27",
"3#	c #A7D826",
"4#	c #75B042",
"5#	c #85AC80",
"6#	c #6F9F64",
"7#	c #70AC25",
"8#	c #99CD1E",
"9#	c #98CC1D",
"0#	c #60B333",
"a#	c #41A738",
"b#	c #4EA735",
"c#	c #5DA931",
"d#	c #6CAB2D",
"e#	c #79B029",
"f#	c #84B525",
"g#	c #86B529",
"h#	c #86B52F",
"i#	c #88B536",
"j#	c #8BB73D",
"k#	c #8BB83D",
"l#	c #8BB73A",
"m#	c #89B733",
"n#	c #88B828",
"o#	c #89B925",
"p#	c #8CBB25",
"q#	c #8EBE26",
"r#	c #87B92A",
"s#	c #48903A",
"t#	c #448F3B",
"u#	c #6EA834",
"v#	c #9ECC27",
"w#	c #61C344",
"x#	c #08A547",
"y#	c #0D893E",
"z#	c #116F36",
"A#	c #9DB21C",
"B#	c #B9DC24",
"C#	c #8DBF1C",
"D#	c #B9E627",
"E#	c #B4E027",
"F#	c #B4E127",
"G#	c #B0DE25",
"H#	c #ABDB22",
"I#	c #A5D71F",
"J#	c #9FD41D",
"K#	c #97CF1B",
"L#	c #93CC1A",
"M#	c #8FC919",
"N#	c #8CC718",
"O#	c #8BC519",
"P#	c #53B035",
"Q#	c #2CA43C",
"R#	c #3EA238",
"S#	c #4FA233",
"T#	c #5EA32F",
"U#	c #6CA62A",
"V#	c #78AA26",
"W#	c #7AAB24",
"X#	c #79AA24",
"Y#	c #7AAA24",
"Z#	c #7BAB24",
"`#	c #7DAD25",
" $	c #7EAF25",
".$	c #81B125",
"+$	c #84B325",
"@$	c #86B625",
"#$	c #8AB925",
"$$	c #87B828",
"%$	c #94C326",
"&$	c #9CCB27",
"*$	c #A0CE27",
"=$	c #38B84B",
"-$	c #129E49",
";$	c #148441",
">$	c #156D38",
",$	c #98AC1B",
"'$	c #ABC920",
")$	c #ABD725",
"!$	c #BBE728",
"~$	c #B3E027",
"{$	c #AFDE24",
"]$	c #A8DA20",
"^$	c #A1D51D",
"/$	c #98D01A",
"($	c #8FCB17",
"_$	c #87C615",
":$	c #80C214",
"<$	c #7BBF13",
"[$	c #79BD13",
"}$	c #7ABC14",
"|$	c #58B02F",
"1$	c #27A23C",
"2$	c #389F38",
"3$	c #489D33",
"4$	c #579D2E",
"5$	c #619D2A",
"6$	c #6EA125",
"7$	c #70A124",
"8$	c #6FA024",
"9$	c #71A324",
"0$	c #73A424",
"a$	c #76A724",
"b$	c #79A924",
"c$	c #78AD27",
"d$	c #6BAF31",
"e$	c #5EA234",
"f$	c #679B2C",
"g$	c #76A427",
"h$	c #8FBE26",
"i$	c #93C226",
"j$	c #97C626",
"k$	c #86C331",
"l$	c #0EA84E",
"m$	c #0C9C4A",
"n$	c #126F37",
"o$	c #99AC1B",
"p$	c #B3D724",
"q$	c #B9E528",
"r$	c #B3E127",
"s$	c #AFDE23",
"t$	c #A7DA1F",
"u$	c #9ED41B",
"v$	c #93CE18",
"w$	c #86C715",
"x$	c #7AC012",
"y$	c #6FBA10",
"z$	c #66B50F",
"A$	c #62B20E",
"B$	c #63B20E",
"C$	c #67B310",
"D$	c #65B11B",
"E$	c #329E39",
"F$	c #429D34",
"G$	c #3B9535",
"H$	c #238C39",
"I$	c #148339",
"J$	c #3E8631",
"K$	c #659723",
"L$	c #649723",
"M$	c #649623",
"N$	c #669823",
"O$	c #689A23",
"P$	c #6B9D23",
"Q$	c #6CA126",
"R$	c #4FBF43",
"S$	c #20C04D",
"T$	c #16A547",
"U$	c #288C39",
"V$	c #216E33",
"W$	c #365A27",
"X$	c #81B52A",
"Y$	c #83B528",
"Z$	c #54A13B",
"`$	c #299D44",
" %	c #0C9349",
".%	c #0C834B",
"+%	c #116D37",
"@%	c #ABC621",
"#%	c #BEEA29",
"$%	c #B0DF25",
"%%	c #9ED51B",
"&%	c #91CE18",
"*%	c #83C614",
"=%	c #72BD10",
"-%	c #61B30D",
";%	c #51AB0B",
">%	c #47A509",
",%	c #45A309",
"'%	c #4CA60A",
")%	c #57AB0C",
"!%	c #5AA91D",
"~%	c #429B34",
"{%	c #5AA82E",
"]%	c #369337",
"^%	c #088C3C",
"/%	c #08883B",
"(%	c #0C7B38",
"_%	c #508828",
":%	c #5A8D22",
"<%	c #5B8E22",
"[%	c #5D9023",
"}%	c #609323",
"|%	c #40B044",
"1%	c #1CC04F",
"2%	c #20B046",
"3%	c #1A9841",
"4%	c #1B7E39",
"5%	c #2F682B",
"6%	c #2F7C32",
"7%	c #268939",
"8%	c #319142",
"9%	c #228C43",
"0%	c #0D7C43",
"a%	c #0C774F",
"b%	c #88C916",
"c%	c #75BE11",
"d%	c #60B30D",
"e%	c #48A609",
"f%	c #319906",
"g%	c #229104",
"h%	c #299505",
"i%	c #3C9E08",
"j%	c #4DA60B",
"k%	c #529C2B",
"l%	c #55A02E",
"m%	c #70B428",
"n%	c #4EA737",
"o%	c #05953F",
"p%	c #088B3C",
"q%	c #0B7E39",
"r%	c #3D7D2B",
"s%	c #508322",
"t%	c #508422",
"u%	c #538622",
"v%	c #568922",
"w%	c #4C9632",
"x%	c #0AA44C",
"y%	c #1EA646",
"z%	c #1B9A42",
"A%	c #258839",
"B%	c #287031",
"C%	c #29562A",
"D%	c #2E7931",
"E%	c #17813B",
"F%	c #258A4C",
"G%	c #187B45",
"H%	c #5F9928",
"I%	c #5DA72F",
"J%	c #219F3F",
"K%	c #04993F",
"L%	c #078D3D",
"M%	c #0B7D38",
"N%	c #36782B",
"O%	c #477B21",
"P%	c #4A7D21",
"Q%	c #4E8122",
"R%	c #518825",
"S%	c #2C8638",
"T%	c #0D8B45",
"U%	c #128B40",
"V%	c #298337",
"W%	c #2A7431",
"X%	c #295C2C",
"Y%	c #147036",
"Z%	c #267336",
"`%	c #13723A",
" &	c #16885A",
".&	c #1B8E3B",
"+&	c #05963F",
"@&	c #0C7937",
"#&	c #3E7B2A",
"$&	c #4D8122",
"%&	c #4F8222",
"&&	c #528522",
"*&	c #558722",
"=&	c #3C6428",
"-&	c #34692C",
";&	c #1A6F3C",
">&	c #1B6C36",
",&	c #33662C",
"'&	c #31552A",
")&	c #136233",
"!&	c #196938",
"~&	c #186A3D",
"{&	c #09883B",
"]&	c #08893C",
"^&	c #0A8039",
"/&	c #0D7336",
"(&	c #417C2A",
"_&	c #155630",
":&	c #0A8139",
"<&	c #0B7F39",
"[&	c #0C7737",
"}&	c #0F6B34",
"|&	c #0D7737",
"1&	c #0D7536",
"2&	c #0F6D34",
"3&	c #116532",
"4&	c #0F6D35",
"5&	c #106A34",
"6&	c #116332",
"7&	c #126232",
"8&	c #135E31",
". . . . . . . . . . . . . . . . . . . . . . . . . . . . . . . . . . . . . . . . . . . . . . . . ",
". . . . . . . . . . . . . . . . . . . . . . . . . . . . . . . . . . . . . . . . . . . . . . . . ",
". . . . . . . . . . . . . . . . . . . . . . . . . . . . . . . . . . . . . . . . . . . . . . . . ",
". . . . . . . . . . . . . . . . . . . . . . . . . . . . . . . . . . . . . . . . . . . . . . . . ",
". . . . . . . . . . . . . . . . . . . . . . . . . . . . . . . . . . . . . . . . . . . . . . . . ",
". . . . . . . . . . . . . . . . . . . . . . . . . . . . . . . . . . . . . . . . . . . . . . . . ",
". . . . . . . . . . . . . . . . . . . . . . . . . . . . . . . . . . . . . . . . . . . . . . . . ",
". . . . . . . . . . . . . . . . . . . . . . . . . . . . . . . . . . . . . . . . . . . . . . . . ",
". . . . . . . . . . . . . . . . . . .               . . . . . . . . . . . . . . . . . . . . . . ",
". . . . . . . . . . . . . . . . .   + + + @ # $ % & * = -   . . . . . . . . . . . . . . . . . . ",
". . . . . . . . . . . . . . . . . + + + + ; > , ' ) ! ~ { ] ^   . . . . . . . . . . . . . . . . ",
". . . . . . . . . . . . . . . . . . + + + / ( _ : < [ } | 1 2 3 4 . . . . . . . . . . . . . . . ",
". . . . . . . . . . . . . . . . . . .   5 6 7 8 9 0 a b c d e f g h . . . . . . . . . . . . . . ",
". . . . . . . . . . . . . . . . .   i j k l m n o p q r s t u v w x   . . . . . . . . . . . . . ",
". . . . . . . . . . . . . . .   y z A B C D E F G H I J K L M N O P Q   . . . . . . . . . . . . ",
". . . . . . . . . . . . . .   R S T U V W X Y Z `  ...+.@.#.$.%.&.*.=.-.. . . . . . . . . . . . ",
". . . . . . . . . . . . .   S z T ;.>.,.'.).!.~.{.].^./.#.(.#.#._.:.~ <.  . . . . . . . . . . . ",
". . . . . . . . . . . .   [.}.|.1.2.3.4.5.6.7.8.9.0.a.b.#.c.d.e.f.g.h.i.j.. . . . . .   . . . . ",
". . . . . . . . . . . . k.l.k.2.C m.n.).6.o.p.q.r.s.t.e.e.d.#.u.v.w.x.y.z.  . . . . A.B.  . . . ",
". . . . . . . . . .   C.C D.3.E.F.G.H.I.J.K.L.M.N.O.P.Q.R.S.Q.T.U.V.W.X.Y.Z.. . .   `. +.+. . . ",
". . . . . . . .   ++@+#+$+%+&+*+=+-+;+>+,+'+)+!+~+{+]+^+R./+(+_+:+<+[+}+|+1+. . . 2+3+4+5+  . . ",
". . . . . . .   6+7+8+9+0+a+b+c+d+e+f+g+h+i+j+k+l+m+n+o+p+p+q+r+s+t+u+v+w+x+.   y+z+A+B+C+D+. . ",
". . . . . . .   E+F+G+H+I+J+K+L+M+N+O+P+Q+R+S+T+<+U+V+W+X+X+<+Y+Z+`+ @.@+@@@#@$@%@&@*@=@-@;@. . ",
". . . . . . . . >@,@'@)@)@!@~@{@]@^@/@(@_@_@:@<@[@[@}@}@}@[@|@<@:@_@1@2@3@4@5@6@p+t+7@8@9@0@  . ",
". . . . . . . a@b@c@d@e@f@g@h@i@j@k@l@m@n@o@p@q@r@s@t@t@t@s@u@v@w@x@y@z@A@B@C@D@S+E@F@G@H@I@  . ",
".   J@. .   K@L@M@N@O@P@Q@R@S@T@U@V@W@X@Y@Z@`@ #.#+#@###$#%#&#*#=#-#;#>#,#'#)#!#~#{#]#^#/#(#  . ",
". _#:#<#[#}#|#k+1#2#3#4#5#6#7#8#9#0#a#b#c#d#e#f#g#h#i#j#k#l#m#n#o#p#q#r#s#t#u#v#}@:@w#x#y#z#  . ",
". A#B#C#D#E#l+F#G#H#I#J#K#L#M#N#O#P#Q#R#S#T#U#V#W#X#X#X#Y#Z#`# $.$+$@$#$$$r#%$t@&$*$=$-$;$>$  . ",
". ,$'$)$!$p+~${$]$^$/$($_$:$<$[$}$|$1$2$3$4$5$6$7$8$8$8$7$9$0$a$b$c$d$e$f$g$h$i$j$k$l$m$y#n$  . ",
". o$p$q$l+r$s$t$u$v$w$x$y$z$A$B$C$D$E$F$G$H$I$J$K$L$M$K$N$O$P$Q$R$S$T$U$V$W$  X$Y$Z$`$ %.%+%. . ",
". @%#%    $%]$%%&%*%=%-%;%>%,%'%)%!%~%{%]%^%/%(%_%:%:%<%[%}%M$|%1%2%3%4%5%  . . 6%7%8%9%0%a%. . ",
".   . . . . .   b%c%d%e%f%g%h%i%j%k%l%m%n%o%p%q%r%s%t%u%v%:%w%x%y%z%A%B%C%. . .   D%E%F%G%  . . ",
". . . . . . . . . . .               H%I%J%K%L%M%N%O%P%Q%u%R%S%T%U%V%W%X%  . . . . Y%Z%`% &. . . ",
". . . . . . . . . . . . . . . . . .   .&+&L%/%@&#&$&%&&&*&=&-&;&>&,&'&  . . . . . )&!&~&  . . . ",
". . . . . . . . . . . . . . . . . . . p%{&]&^&/&(&      . . .     . . . . . . . .   _&  . . . . ",
". . . . . . . . . . . . . . . . . . . :&<&^&[&}&. . . . . . . . . . . . . . . . . .   . . . . . ",
". . . . . . . . . . . . . . . . . . . |&|&1&2&3&. . . . . . . . . . . . . . . . . . . . . . . . ",
". . . . . . . . . . . . . . . . . . . 4&2&5&6&  . . . . . . . . . . . . . . . . . . . . . . . . ",
". . . . . . . . . . . . . . . . . . .   7&8&  . . . . . . . . . . . . . . . . . . . . . . . . . ",
". . . . . . . . . . . . . . . . . . . .     . . . . . . . . . . . . . . . . . . . . . . . . . . ",
". . . . . . . . . . . . . . . . . . . . . . . . . . . . . . . . . . . . . . . . . . . . . . . . ",
". . . . . . . . . . . . . . . . . . . . . . . . . . . . . . . . . . . . . . . . . . . . . . . . ",
". . . . . . . . . . . . . . . . . . . . . . . . . . . . . . . . . . . . . . . . . . . . . . . . ",
". . . . . . . . . . . . . . . . . . . . . . . . . . . . . . . . . . . . . . . . . . . . . . . . ",
". . . . . . . . . . . . . . . . . . . . . . . . . . . . . . . . . . . . . . . . . . . . . . . . ",
". . . . . . . . . . . . . . . . . . . . . . . . . . . . . . . . . . . . . . . . . . . . . . . . ",
". . . . . . . . . . . . . . . . . . . . . . . . . . . . . . . . . . . . . . . . . . . . . . . . ",
". . . . . . . . . . . . . . . . . . . . . . . . . . . . . . . . . . . . . . . . . . . . . . . . "};
