/* XPM */
static char * swim_left_3_xpm[] = {
"48 48 605 2",
"  	c None",
". 	c #6DBADE",
"+ 	c #217844",
"@ 	c #1B7444",
"# 	c #1C7F46",
"$ 	c #178046",
"% 	c #198A48",
"& 	c #169350",
"* 	c #1A914B",
"= 	c #1E8D45",
"- 	c #1C7A45",
"; 	c #1A8347",
"> 	c #168647",
", 	c #169249",
"' 	c #139B52",
") 	c #149B4C",
"! 	c #13994D",
"~ 	c #13974D",
"{ 	c #199247",
"] 	c #24783B",
"^ 	c #217944",
"/ 	c #1D7F46",
"( 	c #188647",
"_ 	c #158C48",
": 	c #14984A",
"< 	c #10A153",
"[ 	c #11A34C",
"} 	c #0FA050",
"| 	c #11A34D",
"1 	c #119648",
"2 	c #128C45",
"3 	c #218D44",
"4 	c #1E7944",
"5 	c #218445",
"6 	c #228B46",
"7 	c #1C9148",
"8 	c #119E4B",
"9 	c #0DA653",
"0 	c #0EAB4E",
"a 	c #0CA951",
"b 	c #0EAC4E",
"c 	c #0D9747",
"d 	c #11A14B",
"e 	c #13974A",
"f 	c #1D8444",
"g 	c #E5EA0F",
"h 	c #DFE711",
"i 	c #DBE924",
"j 	c #99EF66",
"k 	c #C9DA21",
"l 	c #B1CB28",
"m 	c #AECC26",
"n 	c #C2E52D",
"o 	c #ABD736",
"p 	c #A0DB3D",
"q 	c #68BC42",
"r 	c #3CB44A",
"s 	c #0EAA4D",
"t 	c #0F974B",
"u 	c #14974A",
"v 	c #258942",
"w 	c #F8FA07",
"x 	c #F7F708",
"y 	c #E3E80E",
"z 	c #E4EA10",
"A 	c #EEF311",
"B 	c #DFF12C",
"C 	c #D0EE3D",
"D 	c #E5F319",
"E 	c #D7EA1D",
"F 	c #DEF41F",
"G 	c #C9EE27",
"H 	c #D4F726",
"I 	c #C8EE27",
"J 	c #CFFC2B",
"K 	c #9ED839",
"L 	c #4BB449",
"M 	c #14A04B",
"N 	c #26853E",
"O 	c #FAFA05",
"P 	c #F8F807",
"Q 	c #F5F60A",
"R 	c #F1F411",
"S 	c #BCF75D",
"T 	c #EDF211",
"U 	c #DDF02D",
"V 	c #D2ED34",
"W 	c #D5EB25",
"X 	c #E1F51E",
"Y 	c #DAF323",
"Z 	c #D6F625",
"` 	c #B2E92E",
" .	c #D5FE29",
"..	c #D4FF2A",
"+.	c #ABEA32",
"@.	c #B7F031",
"#.	c #57AA40",
"$.	c #128943",
"%.	c #1C8242",
"&.	c #F2F40C",
"*.	c #EFF311",
"=.	c #DEF433",
"-.	c #E3EC15",
";.	c #E7F217",
">.	c #C8E32B",
",.	c #9ED13B",
"'.	c #CEE620",
").	c #AACC22",
"!.	c #D9FA25",
"~.	c #C4F42C",
"{.	c #D1FE2C",
"].	c #B4EA35",
"^.	c #159F4B",
"/.	c #17944A",
"(.	c #2E7D3F",
"_.	c #F4F60B",
":.	c #F4F50A",
"<.	c #F3F50C",
"[.	c #F1F40D",
"}.	c #EFF30F",
"|.	c #EDF312",
"1.	c #EAF214",
"2.	c #D2E219",
"3.	c #E5F31A",
"4.	c #D2E828",
"5.	c #DFF51F",
"6.	c #DBF622",
"7.	c #D1F224",
"8.	c #C5EB26",
"9.	c #B8E328",
"0.	c #A3EC47",
"a.	c #D3FF2A",
"b.	c #D3FE2A",
"c.	c #CEF92A",
"d.	c #5FB549",
"e.	c #12934F",
"f.	c #1B874B",
"g.	c #F0F40E",
"h.	c #F1F40E",
"i.	c #ECF213",
"j.	c #E9F215",
"k.	c #E2F41C",
"l.	c #D9F325",
"m.	c #91DF4D",
"n.	c #D7F726",
"o.	c #B6E238",
"p.	c #D4FE29",
"q.	c #D0FB2A",
"r.	c #AFDB27",
"s.	c #A8E039",
"t.	c #16984A",
"u.	c #1A8D48",
"v.	c #357337",
"w.	c #ECF315",
"x.	c #EDF311",
"y.	c #EBF213",
"z.	c #EAF215",
"A.	c #E8F217",
"B.	c #E5F219",
"C.	c #E2F21B",
"D.	c #C8DF1E",
"E.	c #DCF21F",
"F.	c #D8F322",
"G.	c #C2EE33",
"H.	c #D0F527",
"I.	c #CAF62B",
"J.	c #B3EE3E",
"K.	c #CCF72A",
"L.	c #C0EC29",
"M.	c #B5E128",
"N.	c #CCF82A",
"O.	c #CDF92A",
"P.	c #C4F02A",
"Q.	c #499C42",
"R.	c #167E42",
"S.	c #2C6C37",
"T.	c #1B6E3C",
"U.	c #F5F4F4",
"V.	c #E8EBC9",
"W.	c #EDF46B",
"X.	c #F4F8BB",
"Y.	c #EDF2BB",
"Z.	c #D8E474",
"`.	c #E4EF18",
" +	c #E3F018",
".+	c #E0EF1A",
"++	c #DCEE1C",
"@+	c #D8ED1E",
"#+	c #D4ED20",
"$+	c #D0ED22",
"%+	c #CBED24",
"&+	c #C7ED27",
"*+	c #C3EE29",
"=+	c #C1EE2A",
"-+	c #B1E836",
";+	c #C1ED29",
">+	c #BBE729",
",+	c #BFEE2F",
"'+	c #A7F35A",
")+	c #C3EF29",
"!+	c #AEDB28",
"~+	c #8CC335",
"{+	c #198646",
"]+	c #28753D",
"^+	c #157139",
"/+	c #0C6B31",
"(+	c #A2A0A0",
"_+	c #8D8E79",
":+	c #EDF59B",
"<+	c #F4F4EF",
"[+	c #FAFAFA",
"}+	c #EEEEEE",
"|+	c #E6E6E5",
"1+	c #BACF81",
"2+	c #D8EA1C",
"3+	c #D4E91D",
"4+	c #D0E81F",
"5+	c #CBE721",
"6+	c #C7E623",
"7+	c #C2E624",
"8+	c #BDE627",
"9+	c #BAE628",
"0+	c #B8E528",
"a+	c #B8E428",
"b+	c #AAD727",
"c+	c #A2D026",
"d+	c #B7E428",
"e+	c #B6E52B",
"f+	c #A4E950",
"g+	c #B9E628",
"h+	c #BAE728",
"i+	c #BAE729",
"j+	c #64A740",
"k+	c #2F763C",
"l+	c #107E3C",
"m+	c #0B7E39",
"n+	c #106639",
"o+	c #3C3A26",
"p+	c #C4D228",
"q+	c #D2D4BE",
"r+	c #575454",
"s+	c #8D8C8C",
"t+	c #CECECE",
"u+	c #E4E4E4",
"v+	c #B9C4B5",
"w+	c #C4DF20",
"x+	c #C7E220",
"y+	c #C2E122",
"z+	c #BDE023",
"A+	c #B8DF25",
"B+	c #B3DE27",
"C+	c #B0DD28",
"D+	c #AFDC28",
"E+	c #ADDB28",
"F+	c #ACD927",
"G+	c #ABD827",
"H+	c #ADDA28",
"I+	c #AEDC28",
"J+	c #AFDD28",
"K+	c #B1DE28",
"L+	c #B2DF28",
"M+	c #81BD34",
"N+	c #11893F",
"O+	c #0E6B41",
"P+	c #D3E571",
"Q+	c #DBEF53",
"R+	c #BEBDBD",
"S+	c #241C1C",
"T+	c #B9B9B9",
"U+	c #ECECEC",
"V+	c #BBC5BA",
"W+	c #B1D423",
"X+	c #B0D625",
"Y+	c #A6D127",
"Z+	c #A6D328",
"`+	c #A7D527",
" @	c #A6D427",
".@	c #A4D227",
"+@	c #A3D127",
"@@	c #A2D027",
"#@	c #A3D227",
"$@	c #A9D627",
"%@	c #A8D628",
"&@	c #6EAB37",
"*@	c #52993B",
"=@	c #60A23A",
"-@	c #9FD02E",
";@	c #73B438",
">@	c #0F7036",
",@	c #CFEE23",
"'@	c #CEEB22",
")@	c #CCE837",
"!@	c #E9ECE3",
"~@	c #AAA9A9",
"{@	c #AFAEAE",
"]@	c #E1E1E1",
"^@	c #F4F4F4",
"/@	c #A0B89A",
"(@	c #A8D326",
"_@	c #A0CD5C",
":@	c #89C14C",
"<@	c #85BF30",
"[@	c #8DC22A",
"}@	c #97C828",
"|@	c #9BCA26",
"1@	c #9AC926",
"2@	c #99C826",
"3@	c #99C726",
"4@	c #98C726",
"5@	c #9AC826",
"6@	c #9BC926",
"7@	c #9CCA27",
"8@	c #9ECC26",
"9@	c #A0CE2B",
"0@	c #8DBF36",
"a@	c #48933F",
"b@	c #49933F",
"c@	c #49943C",
"d@	c #7CB435",
"e@	c #8AC433",
"f@	c #0F7638",
"g@	c #BFE426",
"h@	c #C4EA26",
"i@	c #C0E726",
"j@	c #BBE427",
"k@	c #ADD18A",
"l@	c #EBEEEB",
"m@	c #F3F3F3",
"n@	c #F1F2F1",
"o@	c #C2CEC1",
"p@	c #79B030",
"q@	c #A2D123",
"r@	c #76BA3B",
"s@	c #7CB964",
"t@	c #85BC66",
"u@	c #99C377",
"v@	c #A0C673",
"w@	c #A8CA73",
"x@	c #AACC72",
"y@	c #A9CA6E",
"z@	c #A7CA6E",
"A@	c #A6C96A",
"B@	c #A3C764",
"C@	c #A4C865",
"D@	c #A6C969",
"E@	c #A7CA6B",
"F@	c #A9CB6D",
"G@	c #A8CB68",
"H@	c #A6CB60",
"I@	c #A3CA52",
"J@	c #85B641",
"K@	c #46903F",
"L@	c #479141",
"M@	c #489242",
"N@	c #91C04A",
"O@	c #7BB84D",
"P@	c #117036",
"Q@	c #7DB219",
"R@	c #9AC722",
"S@	c #B7E228",
"T@	c #B5E228",
"U@	c #B2DF27",
"V@	c #A7D826",
"W@	c #75B042",
"X@	c #85AC80",
"Y@	c #6F9F64",
"Z@	c #70AC25",
"`@	c #99CD1E",
" #	c #98CC1D",
".#	c #60B333",
"+#	c #41A738",
"@#	c #4EA735",
"##	c #5DA931",
"$#	c #6CAB2D",
"%#	c #79B029",
"&#	c #84B525",
"*#	c #86B529",
"=#	c #86B52F",
"-#	c #88B536",
";#	c #8BB73D",
">#	c #8BB83D",
",#	c #8BB73A",
"'#	c #89B733",
")#	c #88B828",
"!#	c #89B925",
"~#	c #8CBB25",
"{#	c #8EBE26",
"]#	c #87B92A",
"^#	c #48903A",
"/#	c #448F3B",
"(#	c #6EA834",
"_#	c #97CB2B",
":#	c #30B14A",
"<#	c #0F813C",
"[#	c #C1EE27",
"}#	c #94C51D",
"|#	c #B0DD25",
"1#	c #B3E027",
"2#	c #B4E127",
"3#	c #B0DE25",
"4#	c #ABDB22",
"5#	c #A5D71F",
"6#	c #9FD41D",
"7#	c #97CF1B",
"8#	c #88C21F",
"9#	c #479133",
"0#	c #75B426",
"a#	c #8BC519",
"b#	c #53B035",
"c#	c #2CA43C",
"d#	c #3EA238",
"e#	c #4FA233",
"f#	c #5EA32F",
"g#	c #6CA62A",
"h#	c #78AA26",
"i#	c #7AAB24",
"j#	c #79AA24",
"k#	c #7AAA24",
"l#	c #7BAB24",
"m#	c #7DAD25",
"n#	c #7EAF25",
"o#	c #81B125",
"p#	c #84B325",
"q#	c #86B625",
"r#	c #8AB925",
"s#	c #87B828",
"t#	c #88B92A",
"u#	c #91C127",
"v#	c #52B343",
"w#	c #0CA94B",
"x#	c #147A3C",
"y#	c #C5F129",
"z#	c #B1DE26",
"A#	c #BCE929",
"B#	c #AFDE24",
"C#	c #A8DA20",
"D#	c #A1D51D",
"E#	c #98D01A",
"F#	c #8FCB17",
"G#	c #87C615",
"H#	c #5EA328",
"I#	c #0A7F39",
"J#	c #10883A",
"K#	c #69B123",
"L#	c #58B02F",
"M#	c #27A23C",
"N#	c #389F38",
"O#	c #489D33",
"P#	c #579D2E",
"Q#	c #639E2A",
"R#	c #6EA125",
"S#	c #70A124",
"T#	c #6FA024",
"U#	c #71A324",
"V#	c #73A424",
"W#	c #76A724",
"X#	c #79A924",
"Y#	c #79AC26",
"Z#	c #74A829",
"`#	c #6C9C27",
" $	c #7FAC25",
".$	c #35983F",
"+$	c #0F9D4B",
"@$	c #0F7C3D",
"#$	c #C2EE29",
"$$	c #BCE829",
"%$	c #B3E127",
"&$	c #AFDE23",
"*$	c #A7DA1F",
"=$	c #9ED41B",
"-$	c #93CE18",
";$	c #86C715",
">$	c #7AC012",
",$	c #6FBA10",
"'$	c #42932A",
")$	c #0A833A",
"!$	c #078F3D",
"~$	c #238E38",
"{$	c #61AF23",
"]$	c #329E39",
"^$	c #3E9B35",
"/$	c #4A9931",
"($	c #54972D",
"_$	c #5E9728",
":$	c #669824",
"<$	c #669823",
"[$	c #649723",
"}$	c #649623",
"|$	c #659723",
"1$	c #689A23",
"2$	c #6B9D23",
"3$	c #6CA126",
"4$	c #4FB73F",
"5$	c #22A745",
"6$	c #1C843B",
"7$	c #29652D",
"8$	c #2C8837",
"9$	c #2A9142",
"0$	c #0D7B4A",
"a$	c #B0DF25",
"b$	c #9ED51B",
"c$	c #91CE18",
"d$	c #83C614",
"e$	c #72BD10",
"f$	c #61B30D",
"g$	c #51AB0B",
"h$	c #2E8929",
"i$	c #09833A",
"j$	c #06923E",
"k$	c #339E3B",
"l$	c #5EAA2D",
"m$	c #419A34",
"n$	c #489731",
"o$	c #4F942D",
"p$	c #569229",
"q$	c #5C9125",
"r$	c #5E9023",
"s$	c #5B8E22",
"t$	c #5A8D22",
"u$	c #5D9023",
"v$	c #609323",
"w$	c #40B345",
"x$	c #1CBA4D",
"y$	c #22A041",
"z$	c #1E8039",
"A$	c #2D612B",
"B$	c #6BB4D6",
"C$	c #267B34",
"D$	c #208845",
"E$	c #157741",
"F$	c #88C916",
"G$	c #75BE11",
"H$	c #60B30D",
"I$	c #48A609",
"J$	c #319906",
"K$	c #1A8126",
"L$	c #0A8039",
"M$	c #05953F",
"N$	c #33A03B",
"O$	c #6FB328",
"P$	c #519A2E",
"Q$	c #53942B",
"R$	c #5F9324",
"S$	c #598C22",
"T$	c #558822",
"U$	c #528522",
"V$	c #508322",
"W$	c #508422",
"X$	c #538622",
"Y$	c #568922",
"Z$	c #4D9631",
"`$	c #0CAA4D",
" %	c #15A448",
".%	c #21913E",
"+%	c #2A7832",
"@%	c #2F5829",
"#%	c #167136",
"$%	c #1D7439",
"%%	c #15742D",
"&%	c #0C7A38",
"*%	c #09883B",
"=%	c #039B40",
"-%	c #4FA032",
";%	c #5F9A28",
">%	c #5D9326",
",%	c #5E9123",
"'%	c #548722",
")%	c #4B7E21",
"!%	c #477B21",
"~%	c #4A7D21",
"{%	c #4E8122",
"]%	c #568621",
"^%	c #24873A",
"/%	c #1F903F",
"(%	c #0D8A45",
"_%	c #217E38",
":%	c #2B662E",
"<%	c #18693B",
"[%	c #0E7236",
"}%	c #09853A",
"|%	c #088B3C",
"1%	c #07903D",
"2%	c #639523",
"3%	c #5F9123",
"4%	c #4E8222",
"5%	c #4D8122",
"6%	c #4F8222",
"7%	c #538422",
"8%	c #3B6726",
"9%	c #2B6E30",
"0%	c #2E7631",
"a%	c #1B6F3B",
"b%	c #2C5D2F",
"c%	c #155A35",
"d%	c #6CB8DC",
"e%	c #106A34",
"f%	c #0C7B38",
"g%	c #0A823A",
"h%	c #08883B",
"i%	c #116332",
"j%	c #0E7135",
"k%	c #116632",
"l%	c #0E7035",
"m%	c #135C30",
"n%	c #116532",
". . . . . . . . . . . . . . . . . . . . . . . . . . . . . . . . . . . . . . . . . . . . . . . . ",
". . . . . . . . . . . . . . . . . . . . . . . . . . . . . . . . . . . . . . . . . . . . . . . . ",
". . . . . . . . . . . . . . . . . . . . . . . . . . . . . . . . . . . . . . . . . . . . . . . . ",
". . . . . . . . . . . . . . . . . . . . . . . . . . . . . . . . . . . . . . . . . . . . . . . . ",
". . . . . . . . . . . . . . . . . . . . . . . . . . . . . . . . . . . . . . . . . . . . . . . . ",
". . . . . . . . . . . . . . . . . . . . . . . . . . . . . . . . . . . . . . . . . . . . . . . . ",
". . . . . . . . . . . . . . . . . . . . . . . . . . . . . . . . . . . . . . . . . . . . . . . . ",
". . . . . . . . . . . . . . . . . . . . . . . . . . . . . . . . . . . . . . . . . . . . . . . . ",
". . . . . . . . . . . . . . . . . . .               . . . . . . . . . . . . . . . . . . . . . . ",
". . . . . . . . . . . . . . . . . + + + + @ # $ % & * =     . . . . . . . . . . . . . . . . . . ",
". . . . . . . . . . . . . . . . . + + + + - ; > , ' ) ! ~ { ]   . . . . . . . . . . . . . . . . ",
". . . . . . . . . . . . . . . . . . + + ^ / ( _ : < [ } | 1 2 3   . . . . . . . . . . . . . . . ",
". . . . . . . . . . . . . . . . . . .   4 5 6 7 8 9 0 a b c d e f   . . . . . . . . . . . . . . ",
". . . . . . . . . . . . . . . . .   g h i j k l m n o p q r s t u v . . . . . . . . . . . . . . ",
". . . . . . . . . . . . . . .   w x y z A B C D E F G H I J K L M N   . . . . . . . . . . . . . ",
". . . . . . . . . . . . . .   O P Q R S T U V W X Y Z `  ...+.@.#.$.%.  . . . . . . . . . . . . ",
". . . . . . . . . . . . .   P x Q &.*.=.-.;.>.,.'.).!.~...{.....].^./.(.. . . . . . . . . . . . ",
". . . . . . . . . . . .   _.:.<.[.}.|.1.2.3.4.5.6.7.8.9...0.a.b.c.d.e.f.  . . . . . . . . . . . ",
". . . . . . . . . . . . g.h.g.}.A i.j.;.3.k.l.m.n.o.p.b.b.a...q.r.s.t.u.v.. . .   . . . . . . . ",
". . . . . . . . . .   w.A x.|.y.z.A.B.C.D.E.F.G.H.I.J.K.L.M.K.N.O.P.Q.R.S.. . . T.  . . . . . . ",
". . . . . . . .   U.V.W.X.Y.Z.`. +.+++@+#+$+%+&+*+=+-+;+L.>+,+'+)+!+~+{+]+. .   ^+/+. . . . . . ",
". . . . . . .   (+_+:+<+[+}+|+1+2+3+4+5+6+7+8+9+0+a+b+c+d+d+e+f+g+h+i+j+k+. . l+m+n+. . . . . . ",
". . . . . . .   o+p+q+r+s+t+u+v+w+x+y+z+A+B+C+D+!+E+F+G+H+H+!+I+J+K+L+L+      M+N+O+. . . . . . ",
". . . . . . . . P+Q+R+S+S+T+U+V+W+X+Y+Z+`+`+ @.@+@+@@@@@@@+@#@.@ @`+$@%@&@*@=@-@;@>@  . . . . . ",
". . . . . . . ,@'@)@!@~@{@]@^@/@(@_@:@<@[@}@|@1@2@3@4@4@4@3@5@6@7@8@9@0@a@b@c@d@e@f@  . . . . . ",
". . . . .   g@h@i@j@k@l@m@n@o@p@q@r@s@t@u@v@w@x@y@z@A@B@C@D@E@F@G@H@I@J@K@L@M@N@O@P@  . . . . . ",
". . .   Q@R@S@9+T@U@V@W@X@Y@Z@`@ #.#+#@###$#%#&#*#=#-#;#>#,#'#)#!#~#{#]#^#/#(#_#:#<#  . . . . . ",
". . [#}#|#1#0+2#3#4#5#6#7#8#9#0#a#b#c#d#e#f#g#h#i#j#j#j#k#l#m#n#o#p#q#r#s#t#u#v#w#x#  . . . . . ",
". . y#z#A#d+1#B#C#D#E#F#G#H#I#J#K#L#M#N#O#P#Q#R#S#T#T#T#S#U#V#W#X#Y#Z#`# $    .$+$@$  . . . . . ",
". . #$$$0+%$&$*$=$-$;$>$,$'$)$!$~${$]$^$/$($_$:$<$[$}$|$<$1$2$3$4$5$6$7$  .   8$9$0$. . . . . . ",
". .       a$C#b$c$d$e$f$g$h$i$j$k$l$m$n$o$p$q$r$s$t$t$s$u$v$}$w$x$y$z$A$B$. . C$D$E$. . . . . . ",
". . . . . . .   F$G$H$I$J$K$L$M$N$O$P$Q$R$u$S$T$U$V$W$X$Y$t$Z$`$ %.%+%@%. . . #%$%  . . . . . . ",
". . . . . . . . . . .     %%&%*%=%-%;%>%,%S$'%V$)%!%~%{%X$]%^%/%(%_%:%  . . .   <%  . . . . . . ",
". . . . . . . . . . . . .   [%}%|%1%  2%3%t$Y$U$4%5%6%U$7%8%9%0%a%b%  . . . .   c%. . . . . . . ",
". . . . . . . . . . . . . d%e%f%g%h%. . .               .         . . . . . . . . . . . . . . . ",
". . . . . . . . . . . . . . i%j%&%  . . . . . . . . . . . . . . . . . . . . . . . . . . . . . . ",
". . . . . . . . . . . . . .   k%l%  . . . . . . . . . . . . . . . . . . . . . . . . . . . . . . ",
". . . . . . . . . . . . . . . m%n%  . . . . . . . . . . . . . . . . . . . . . . . . . . . . . . ",
". . . . . . . . . . . . . . .   m%. . . . . . . . . . . . . . . . . . . . . . . . . . . . . . . ",
". . . . . . . . . . . . . . . . . . . . . . . . . . . . . . . . . . . . . . . . . . . . . . . . ",
". . . . . . . . . . . . . . . . . . . . . . . . . . . . . . . . . . . . . . . . . . . . . . . . ",
". . . . . . . . . . . . . . . . . . . . . . . . . . . . . . . . . . . . . . . . . . . . . . . . ",
". . . . . . . . . . . . . . . . . . . . . . . . . . . . . . . . . . . . . . . . . . . . . . . . ",
". . . . . . . . . . . . . . . . . . . . . . . . . . . . . . . . . . . . . . . . . . . . . . . . ",
". . . . . . . . . . . . . . . . . . . . . . . . . . . . . . . . . . . . . . . . . . . . . . . . ",
". . . . . . . . . . . . . . . . . . . . . . . . . . . . . . . . . . . . . . . . . . . . . . . . ",
". . . . . . . . . . . . . . . . . . . . . . . . . . . . . . . . . . . . . . . . . . . . . . . . ",
". . . . . . . . . . . . . . . . . . . . . . . . . . . . . . . . . . . . . . . . . . . . . . . . "};
