/* XPM */
static char * enime_0_xpm[] = {
"48 48 596 2",
"  	c #6DBADE",
". 	c #6CBADF",
"+ 	c #89B1CB",
"@ 	c #89B0CB",
"# 	c #7CB6D5",
"$ 	c #6CBADE",
"% 	c #6ABBE0",
"& 	c #7DB7D6",
"* 	c #AEA0A4",
"= 	c #8492A4",
"- 	c #9F5B29",
"; 	c #A05A21",
"> 	c #A05B20",
", 	c #AE641A",
"' 	c #7F757B",
") 	c #9F9CA6",
"! 	c #A2A6B2",
"~ 	c #69BCE1",
"{ 	c #B4948D",
"] 	c #5F5A69",
"^ 	c #75402D",
"/ 	c #BA6D2B",
"( 	c #C06A34",
"_ 	c #BF5D3B",
": 	c #BF4D41",
"< 	c #C34644",
"[ 	c #C04044",
"} 	c #894233",
"| 	c #794B42",
"1 	c #A87C6D",
"2 	c #86B2CD",
"3 	c #72B9DB",
"4 	c #A89798",
"5 	c #8A4337",
"6 	c #CE5343",
"7 	c #D0792E",
"8 	c #D05344",
"9 	c #D04648",
"0 	c #D04548",
"a 	c #D06C38",
"b 	c #CF5244",
"c 	c #B6483F",
"d 	c #BC723F",
"e 	c #85B2CD",
"f 	c #6FBADD",
"g 	c #A99698",
"h 	c #9E5920",
"i 	c #C9653A",
"j 	c #B7573A",
"k 	c #C16835",
"l 	c #CA4746",
"m 	c #D1603F",
"n 	c #D04448",
"o 	c #D04748",
"p 	c #D1613E",
"q 	c #D14449",
"r 	c #B07350",
"s 	c #8FAEC6",
"t 	c #6DB7DB",
"u 	c #77483A",
"v 	c #AF672E",
"w 	c #D15E40",
"x 	c #C74A44",
"y 	c #CA4F44",
"z 	c #CE4847",
"A 	c #D16C39",
"B 	c #D04349",
"C 	c #D27433",
"D 	c #D04947",
"E 	c #CF4648",
"F 	c #D05245",
"G 	c #C7543D",
"H 	c #AB9FA3",
"I 	c #6DBCE0",
"J 	c #536175",
"K 	c #C56C34",
"L 	c #C75341",
"M 	c #C74745",
"N 	c #D15C41",
"O 	c #D04848",
"P 	c #D16E38",
"Q 	c #D16D38",
"R 	c #A75536",
"S 	c #A74A3A",
"T 	c #CD6037",
"U 	c #84B0CC",
"V 	c #92AFC5",
"W 	c #655058",
"X 	c #B4473F",
"Y 	c #D24549",
"Z 	c #AE483D",
"` 	c #C04643",
" .	c #D15942",
"..	c #D1653C",
"+.	c #D15842",
"@.	c #B86831",
"#.	c #CF4748",
"$.	c #D14648",
"%.	c #C15837",
"&.	c #848B99",
"*.	c #6DB9DD",
"=.	c #6DBADF",
"-.	c #708EA6",
";.	c #7E452E",
">.	c #CF4747",
",.	c #B5493F",
"'.	c #C74845",
").	c #CF6D37",
"!.	c #CA4646",
"~.	c #D04C46",
"{.	c #D27532",
"].	c #D04E46",
"^.	c #D14D46",
"/.	c #C7723A",
"(.	c #70B9DC",
"_.	c #5689A6",
":.	c #C0712A",
"<.	c #C66E33",
"[.	c #AF6231",
"}.	c #D05145",
"|.	c #D06F3F",
"1.	c #73AECD",
"2.	c #5889A6",
"3.	c #A45E2C",
"4.	c #CA4D44",
"5.	c #C1593D",
"6.	c #D14548",
"7.	c #B6493F",
"8.	c #CF4548",
"9.	c #B27351",
"0.	c #6DBBDF",
"a.	c #72A7C5",
"b.	c #7A90A5",
"c.	c #7699B2",
"d.	c #6BBADF",
"e.	c #5A8AA6",
"f.	c #7F472D",
"g.	c #D16F36",
"h.	c #B64E3E",
"i.	c #C8742F",
"j.	c #D05244",
"k.	c #A65F2B",
"l.	c #68ACCD",
"m.	c #9C837F",
"n.	c #7A5955",
"o.	c #B49287",
"p.	c #5E94B2",
"q.	c #A1B3C4",
"r.	c #84B7D5",
"s.	c #C07129",
"t.	c #D27C2D",
"u.	c #D0603F",
"v.	c #C64845",
"w.	c #773437",
"x.	c #A86127",
"y.	c #84B0CB",
"z.	c #6EB9DC",
"A.	c #926657",
"B.	c #9FACBB",
"C.	c #6CB9DD",
"D.	c #85B7D4",
"E.	c #A5847B",
"F.	c #86A9C1",
"G.	c #6CB7DB",
"H.	c #5D88A4",
"I.	c #69ADCF",
"J.	c #63A5C6",
"K.	c #966857",
"L.	c #B76234",
"M.	c #D14349",
"N.	c #BF4643",
"O.	c #C85F44",
"P.	c #963A5F",
"Q.	c #C7444D",
"R.	c #C04145",
"S.	c #862D25",
"T.	c #7EABCB",
"U.	c #8A4732",
"V.	c #A58791",
"W.	c #7CBADB",
"X.	c #60A5C6",
"Y.	c #977F7C",
"Z.	c #A0AAB8",
"`.	c #62A3C4",
" +	c #6EBCE0",
".+	c #4E5D72",
"++	c #974B35",
"@+	c #D27434",
"#+	c #CB623C",
"$+	c #CE5244",
"%+	c #CF7A31",
"&+	c #BF7340",
"*+	c #CD5147",
"=+	c #BE4043",
"-+	c #6B7F98",
";+	c #73B8DB",
">+	c #7A9FBB",
",+	c #B95749",
"'+	c #7A6373",
")+	c #68ADCF",
"!+	c #6EBBE0",
"~+	c #59768E",
"{+	c #B56A2E",
"]+	c #8E4A33",
"^+	c #D04D46",
"/+	c #D05544",
"(+	c #8C4234",
"_+	c #A29DA5",
":+	c #798EA3",
"<+	c #C39081",
"[+	c #6BADCE",
"}+	c #5A809A",
"|+	c #934032",
"1+	c #CB4746",
"2+	c #BA6335",
"3+	c #C96639",
"4+	c #C04743",
"5+	c #CC4544",
"6+	c #9191A9",
"7+	c #6CBCE0",
"8+	c #6DBBE0",
"9+	c #7691A7",
"0+	c #C37A6D",
"a+	c #535B6F",
"b+	c #67AACC",
"c+	c #66382A",
"d+	c #C34744",
"e+	c #D15444",
"f+	c #9E5E2F",
"g+	c #BD4044",
"h+	c #AE493D",
"i+	c #A54A3A",
"j+	c #CF4647",
"k+	c #AF5C5F",
"l+	c #826E71",
"m+	c #7F808E",
"n+	c #71ADCD",
"o+	c #A96F51",
"p+	c #CD6757",
"q+	c #535D72",
"r+	c #794940",
"s+	c #C44744",
"t+	c #C6623A",
"u+	c #C55240",
"v+	c #B7493F",
"w+	c #984B36",
"x+	c #924636",
"y+	c #A93B41",
"z+	c #994B36",
"A+	c #C64C45",
"B+	c #975A30",
"C+	c #7AA0BA",
"D+	c #71AFCF",
"E+	c #6EB8DB",
"F+	c #71ABCA",
"G+	c #72ABC9",
"H+	c #A35B43",
"I+	c #D04647",
"J+	c #CF5F5B",
"K+	c #535D71",
"L+	c #67382B",
"M+	c #653223",
"N+	c #A7612C",
"O+	c #B04A3D",
"P+	c #C34843",
"Q+	c #B84940",
"R+	c #A7413E",
"S+	c #CA4447",
"T+	c #D24648",
"U+	c #B93F44",
"V+	c #C74346",
"W+	c #D3683C",
"X+	c #B86625",
"Y+	c #A87051",
"Z+	c #7790A6",
"`+	c #858997",
" @	c #B2650C",
".@	c #B14D2F",
"+@	c #D24146",
"@@	c #AA766D",
"#@	c #6195B2",
"$@	c #66AACB",
"%@	c #66ABCD",
"&@	c #71646D",
"*@	c #56373D",
"=@	c #65323B",
"-@	c #5B2E34",
";@	c #613732",
">@	c #6B3D32",
",@	c #702C38",
"'@	c #AB473D",
")@	c #9A4B36",
"!@	c #D04A4A",
"~@	c #D15245",
"{@	c #CF5B40",
"]@	c #C67529",
"^@	c #C6742A",
"/@	c #C86F30",
"(@	c #D05F5B",
"_@	c #679BBA",
":@	c #6BB6D9",
"<@	c #6B7D97",
"[@	c #732C36",
"}@	c #964A36",
"|@	c #954B35",
"1@	c #C54645",
"2@	c #D0613E",
"3@	c #B6503D",
"4@	c #C64A44",
"5@	c #C94345",
"6@	c #755B6B",
"7@	c #C39083",
"8@	c #D1635E",
"9@	c #D14D4D",
"0@	c #D04547",
"a@	c #D04747",
"b@	c #D05755",
"c@	c #D1645F",
"d@	c #B1474E",
"e@	c #5D95B2",
"f@	c #69809A",
"g@	c #BB393B",
"h@	c #D24748",
"i@	c #D14549",
"j@	c #D37534",
"k@	c #D15544",
"l@	c #9B2E34",
"m@	c #64AACC",
"n@	c #6A879E",
"o@	c #A17E71",
"p@	c #A04A47",
"q@	c #D2867A",
"r@	c #D26B64",
"s@	c #D37D73",
"t@	c #BB655F",
"u@	c #9E7E73",
"v@	c #5C758E",
"w@	c #C14145",
"x@	c #D1623E",
"y@	c #8F4338",
"z@	c #D04847",
"A@	c #D27632",
"B@	c #B66C2D",
"C@	c #C95C31",
"D@	c #81ABCC",
"E@	c #65A9CA",
"F@	c #66A8C9",
"G@	c #735D5F",
"H@	c #73494F",
"I@	c #735456",
"J@	c #735355",
"K@	c #6C809A",
"L@	c #66AACC",
"M@	c #6CB8DB",
"N@	c #AA6032",
"O@	c #CA4546",
"P@	c #CF7432",
"Q@	c #C4732E",
"R@	c #A83A41",
"S@	c #AC5D24",
"T@	c #6EAACB",
"U@	c #6CB8DC",
"V@	c #C0583D",
"W@	c #CC7A2B",
"X@	c #C9792C",
"Y@	c #B9523D",
"Z@	c #CD7A2C",
"`@	c #B6563B",
" #	c #D5632A",
".#	c #89ABCC",
"+#	c #59768F",
"@#	c #A65535",
"##	c #D37A2F",
"$#	c #D27D2C",
"%#	c #CD7332",
"&#	c #C74147",
"*#	c #D37B2F",
"=#	c #905232",
"-#	c #B0889B",
";#	c #72B8DB",
">#	c #525D72",
",#	c #CE4648",
"'#	c #A6602F",
")#	c #D37E2C",
"!#	c #C3742E",
"~#	c #8E373C",
"{#	c #A86030",
"]#	c #CF5144",
"^#	c #D04449",
"/#	c #C5722B",
"(#	c #6E8AA7",
"_#	c #96505E",
":#	c #D47E2C",
"<#	c #734033",
"[#	c #D14748",
"}#	c #CA782D",
"|#	c #B8513E",
"1#	c #D15743",
"2#	c #D2792F",
"3#	c #D3742D",
"4#	c #AA8EA8",
"5#	c #BF3F42",
"6#	c #C86F33",
"7#	c #764233",
"8#	c #A74C39",
"9#	c #CC7332",
"0#	c #B76830",
"a#	c #C78767",
"b#	c #79B4D7",
"c#	c #568AA6",
"d#	c #AE5B5F",
"e#	c #B9866F",
"f#	c #C4752F",
"g#	c #D47E2A",
"h#	c #754133",
"i#	c #CF7333",
"j#	c #783238",
"k#	c #D05444",
"l#	c #D17D2B",
"m#	c #B36978",
"n#	c #6ABCE0",
"o#	c #CA4443",
"p#	c #9190A8",
"q#	c #69BADF",
"r#	c #5F5460",
"s#	c #C2917C",
"t#	c #AD642C",
"u#	c #B56234",
"v#	c #712C38",
"w#	c #D27D28",
"x#	c #D07C2B",
"y#	c #4A5D71",
"z#	c #CE5F5A",
"A#	c #A0AEBC",
"B#	c #4E6076",
"C#	c #79B8D9",
"D#	c #C6896A",
"E#	c #C26A34",
"F#	c #D05343",
"G#	c #D0936D",
"H#	c #D1864F",
"I#	c #C56874",
"J#	c #7BBADA",
"K#	c #4F6076",
"L#	c #72B9DC",
"M#	c #C59F9D",
"N#	c #D04144",
"O#	c #8A343B",
"P#	c #C94346",
"Q#	c #C34143",
"R#	c #6D8CA7",
"S#	c #B8AFB3",
"T#	c #C38769",
"U#	c #66B3D6",
"V#	c #CA676D",
"W#	c #8EB8D1",
"X#	c #524A59",
"Y#	c #75A9C7",
"Z#	c #86B2D0",
"`#	c #D3695E",
" $	c #BF4144",
".$	c #9B6560",
"+$	c #D15855",
"@$	c #D14546",
"#$	c #A991AB",
"$$	c #C88D6C",
"%$	c #8694A5",
"&$	c #6CBBDF",
"*$	c #CE6564",
"=$	c #9EB5C8",
"-$	c #649CBA",
";$	c #6E4F50",
">$	c #72BADC",
",$	c #B18EA2",
"'$	c #CD4547",
")$	c #9C4D4D",
"!$	c #C24C4D",
"~$	c #A14F5B",
"{$	c #D0A390",
"]$	c #CC7155",
"^$	c #83AED0",
"/$	c #C56974",
"($	c #5F92B0",
"_$	c #639EBD",
":$	c #A0B4C7",
"<$	c #CE6463",
"[$	c #A8363E",
"}$	c #B58B7F",
"|$	c #D04849",
"1$	c #D14241",
"2$	c #839DBB",
"3$	c #8AB1CB",
"4$	c #D57F2C",
"5$	c #9AA4BB",
"6$	c #6EBADE",
"7$	c #D05552",
"8$	c #AAA3B5",
"9$	c #5F95B2",
"0$	c #68BBE0",
"a$	c #C39194",
"b$	c #D34749",
"c$	c #732B37",
"d$	c #D1796E",
"e$	c #D24243",
"f$	c #6F2E3A",
"g$	c #7BB9D9",
"h$	c #AAABB5",
"i$	c #9F595F",
"j$	c #6EB8DC",
"k$	c #536075",
"l$	c #CD4445",
"m$	c #A98FA8",
"n$	c #C17A84",
"o$	c #D04A4B",
"p$	c #763541",
"q$	c #87B4D1",
"r$	c #B1869D",
"s$	c #C14245",
"t$	c #5B768F",
"u$	c #9FB7CA",
"v$	c #BD6567",
"w$	c #6FB9DC",
"x$	c #735B6E",
"y$	c #CB796E",
"z$	c #87B5D2",
"A$	c #6AB4D7",
"B$	c #55586B",
"C$	c #C59D9A",
"D$	c #D04244",
"E$	c #CD494D",
"F$	c #6AACCE",
"G$	c #9FB5C7",
"H$	c #CE6464",
"I$	c #C06A79",
"J$	c #7BBCDC",
"K$	c #7A6171",
"L$	c #6DB8DC",
"M$	c #65ABCC",
"N$	c #9F1D20",
"O$	c #B2A5B2",
"P$	c #6AB2D5",
"Q$	c #4F6075",
"R$	c #577E98",
"S$	c #85AACC",
"T$	c #D13E3E",
"U$	c #CE4548",
"V$	c #525A6F",
"W$	c #8FB9D3",
"X$	c #C26A7A",
"Y$	c #93A3B3",
"Z$	c #AB8EA1",
"`$	c #6FB9DD",
" %	c #697F9A",
".%	c #C05E5D",
"+%	c #66A9CA",
"@%	c #567A94",
"#%	c #88B5D2",
"$%	c #D27B70",
"%%	c #CE4547",
"&%	c #7CBBDC",
"*%	c #6CB4D6",
"=%	c #6DB8DB",
"-%	c #5D768E",
";%	c #BF6C7C",
">%	c #69BCE0",
",%	c #5A88A3",
"'%	c #B28DA0",
")%	c #CF4547",
"!%	c #CD6665",
"~%	c #B67E93",
"{%	c #6FBBDF",
"]%	c #A890AA",
"^%	c #90A6C5",
"/%	c #5A86A2",
"(%	c #6BB2D4",
"_%	c #B3ABB4",
":%	c #D46960",
"<%	c #A93B42",
"[%	c #8CA8C8",
"}%	c #C95A65",
"|%	c #72B7DB",
"1%	c #7CB2D5",
"2%	c #6AB2D4",
"3%	c #6CB7DA",
"4%	c #9AA9C2",
"5%	c #AB2D2F",
"6%	c #679CBA",
"7%	c #AA8DA7",
"8%	c #999EBB",
"9%	c #88ACCC",
"0%	c #A24954",
"a%	c #67ADCF",
"b%	c #AA8DA6",
"c%	c #83AECF",
"d%	c #A98EA8",
"e%	c #8FA7C7",
"              .   + + + @ # . $                                                                 ",
"          % & * = - ; > , ' ) ! ~ $                                                             ",
"        . { ] ^ / ( _ : < [ } | 1 2                                                             ",
"      3 4 5 6 7 8 8 9 9 9 0 a b c d e .                                                         ",
"    f g h i j k l m n m o 9 0 p q c r s                                                         ",
"    t u v w x y z A B C D 9 E 0 p F G H                                                         ",
"  I J K p L M p N O n P Q q R E o E S T U                                                       ",
"  V W X Y c Z ` p o  ...0 +.@.#.9 9 $.%.&.*.                                                    ",
"=.-.;.>.,.'.).!.9 9 ~.{.o ].x 9 9 9 9 ^./.(.                                                    ",
"=._.:.<.[.}.8 p 9 9 9 o 9 9 9 9 9 9 9 0 |.1..                         =.                        ",
"=.2.3.4.5.m 9 6.7.]. .9 9 9 9 9 0 9 9 9 8.9.s                     0.a.b.c.I     d.$             ",
"=.e.f.g.h.i.O o M D ].9 9 9 9 9 p j.9 9 E k.H                     l.m.n.o.p.  $ q.r.            ",
"=._.s.t.u.v.9 p F 9 9 9 9 9 9 9 o 9 9 9 E w.x.y.                z.A.B.C.D.E.F.G.H.I.            ",
"  J.K.L.M.L.o N.!.9 9 9 9 9 9 9 9 o O.P.Q.R.S.T.                z.U.V.W.. X.Y.Z.`.0.            ",
"   +.+++n @+o #+$+9 9 9 9 9 9 9 9 O %+&+*+=+-+;+                  >+,+'+*.0.)+r.$               ",
"  !+~+{+]+'.9 o 9 9 9 9 9 ^+/+j.9 9 O O E (+_+.                     :+<+[+                      ",
"    0.}+|+1+9 9 9 9 9 9 ^+2+3+#+4+9 9 9 $.5+6+7+8+                0.9+0+a+ +                    ",
"      b+c+d+9 o 9 9 9 9 e+f+g+d+h+9 9 $.i+j+k+l+m+                n+o+p+q+ +                    ",
"        p.r+s+t+u+9 9 9 $.v+w+x+y+9 9 $.z+E 8.a A+B+C+D+0.=.E+F+G+H+I+J+K+ +                    ",
"         +p.L+M+N+O+P+Q+O+R+S+T+U+V+9 $.z+E 9 B ].W+X+Y+9+Z+`+ @.@p +@@@#@0.                    ",
"            $@%@&@*@=@-@;@>@,@E '@< 9 $.)@E 0 a !@0 ~@{@]@^@/@e+D (@@@_@                        ",
"                *.:@<@[@}@|@1@j.2@9 9 3@4@9 5@6@7@8@9@0@a@a@I+b@c@d@e@                          ",
"                0.f@g@h@$.i@T+9 0 9 ~.j@k@9 l@m@n@o@p@q@r@s@s@t@u@e@ +                          ",
"              0.v@w@$.9 9 x@y@E 9 z@A@B@x j.C@D@G.E@F@G@H@I@J@K@L@                              ",
"            M@f@w@9 !.$+w N@w@9 O@P@Q@R@9 e+S@T@      U@U@U@U@*.                                ",
"          0.f@g@$.i@V@W@X@Y@$.0 V@Z@x@6.E `@ #.#                                                ",
"        !++#w@$.E @###$#%#&#9 b *#=#E 9 D /@-#;#                                                ",
"         +>#,#9 E '#)#!#~#$.E {#*#]#9 ^#C /#(#=.                                                ",
"        J._#E $.7.$#:#<#9 9 [#}#|#9 9 1#2#3#4#$                                                 ",
"      =._.5#9 0 6#$#:#7#,#$.8#9#&#9 M 0#$#a#b#                                                  ",
"      =.c#5#9 d#e#f#g#h#,#n i#j#T+9 k#l#t.m#n#                                                  ",
"      =.c#5#o#p#q#r#s#t##.6.u#v#h@9 k#w#x#y# +                                                  ",
"      =.c#5#z#A#C.B#C#D#!@9 v.E#0 9 F#G#H#m#n#                                                  ",
"      =.c#5#I#J#U@K# +L#M#N#E O#P#9 Q#R#S#T#U#                                                  ",
"      =.c#5#V#W#U@X#Y#=.Z#`#0  $.$+$@$#$  $$%$&$                                                ",
"      =.c#5#*$=$$ -$;$D+>$,$0@'$)$!$9 ~$[+{$]$^$                                                ",
"      =._.5#/$J#    ($_$$ :$<$9 [$}$|$1$2$3$4$5$6$                                              ",
"        J._#7$8$$    +9$*.0$a$|$b$c$d$e$f$g$h$i$j$                                              ",
"         +k$l$m$          % n$o$T+p$q$r$s$t$u$v$w$                                              ",
"          M@x$y$z$        A$B$C$D$E$F$G$H$I$J$K$L$                                              ",
"            M$N$O$f     P$Q$R$S$T$U$V$W$V#X$Y$Z$`$                                              ",
"            G. %.%;#    +%@%M@#%$%%%q+&%I#X$*%=%                                                ",
"              0.-%;%>%  +%,%0.>$'%)%+#u$!%~%%                                                   ",
"                {%]%^%  P$/%(%_%:%<%6$[%}%6$                                                    ",
"                  |%1%    2%3%4%5%6%$ 7%8%6$                                                    ",
"                              9%0%a%|%b%c%                                                      ",
"                            `$d%e%0.1%^%&$                                                      ",
"                            6$^$&$                                                              "};
