/* XPM */
static char * enime_1_xpm[] = {
"48 48 606 2",
"  	c #6DBADE",
". 	c #6CBADF",
"+ 	c #6EBADE",
"@ 	c #89B1CB",
"# 	c #7CAFCD",
"$ 	c #B48067",
"% 	c #C0722E",
"& 	c #C5752D",
"* 	c #C1722B",
"= 	c #9B9198",
"- 	c #83B0CB",
"; 	c #84B3CF",
"> 	c #6CBBDF",
", 	c #7AB6D6",
"' 	c #AEA0A4",
") 	c #6F8EA5",
"! 	c #9E5C29",
"~ 	c #A9601E",
"{ 	c #A25F2D",
"] 	c #9C403C",
"^ 	c #9C4D38",
"/ 	c #AB443E",
"( 	c #9C353F",
"_ 	c #9D313A",
": 	c #9F5426",
"< 	c #996852",
"[ 	c #9599A5",
"} 	c #72B8DB",
"| 	c #B5826B",
"1 	c #723E2D",
"2 	c #B4403F",
"3 	c #BF4D41",
"4 	c #C9653A",
"5 	c #D15543",
"6 	c #D14A47",
"7 	c #D14E46",
"8 	c #D04648",
"9 	c #D14549",
"0 	c #C36A35",
"a 	c #C04444",
"b 	c #B04E36",
"c 	c #BA846A",
"d 	c #8E3B3B",
"e 	c #D05543",
"f 	c #C64A44",
"g 	c #CE4747",
"h 	c #CA4646",
"i 	c #D16C39",
"j 	c #D04748",
"k 	c #D04E46",
"l 	c #D04947",
"m 	c #D04847",
"n 	c #D16C38",
"o 	c #D04449",
"p 	c #A64C3A",
"q 	c #6DBBDF",
"r 	c #8B95A6",
"s 	c #76412B",
"t 	c #D1663C",
"u 	c #D2683B",
"v 	c #B6503D",
"w 	c #C94646",
"x 	c #BF4643",
"y 	c #D1603F",
"z 	c #D15942",
"A 	c #D04D46",
"B 	c #D14648",
"C 	c #D04448",
"D 	c #B85436",
"E 	c #AAA0A5",
"F 	c #6BBADF",
"G 	c #67ADCF",
"H 	c #946552",
"I 	c #C45340",
"J 	c #D17434",
"K 	c #CF4448",
"L 	c #CF4648",
"M 	c #D05245",
"N 	c #D1623E",
"O 	c #A74B3A",
"P 	c #CF4947",
"Q 	c #A74C39",
"R 	c #CC7258",
"S 	c #83B2CF",
"T 	c #7FA1B9",
"U 	c #75362A",
"V 	c #C74745",
"W 	c #C74845",
"X 	c #974B36",
"Y 	c #9A4A37",
"Z 	c #C64745",
"` 	c #D05244",
" .	c #C76F33",
"..	c #B84D34",
"+.	c #7AA0BA",
"@.	c #985625",
"#.	c #A63E3F",
"$.	c #B64740",
"%.	c #D24549",
"&.	c #D1613E",
"*.	c #B64840",
"=.	c #D14548",
"-.	c #D1683B",
";.	c #B64F3D",
">.	c #D25843",
",.	c #B76932",
"'.	c #6D3E33",
").	c #CF7730",
"!.	c #A65635",
"~.	c #C76D34",
"{.	c #D05344",
"].	c #D26C38",
"^.	c #D04548",
"/.	c #CF5246",
"(.	c #82808D",
"_.	c #6EBBDF",
":.	c #6E3F33",
"<.	c #CE633C",
"[.	c #A65536",
"}.	c #CF4747",
"|.	c #CA4746",
"1.	c #C8762C",
"2.	c #A9A0A7",
"3.	c #532D33",
"4.	c #AF5A36",
"5.	c #D2663C",
"6.	c #B6513D",
"7.	c #BF4743",
"8.	c #7B4530",
"9.	c #B1887A",
"0.	c #7CB6D5",
"a.	c #CD6839",
"b.	c #D16E37",
"c.	c #C74B44",
"d.	c #CF4E45",
"e.	c #CE4649",
"f.	c #B13E42",
"g.	c #7C4120",
"h.	c #78ADCB",
"i.	c #706169",
"j.	c #C5752A",
"k.	c #CE5343",
"l.	c #965232",
"m.	c #C74A44",
"n.	c #CE4647",
"o.	c #D04848",
"p.	c #C4743C",
"q.	c #684865",
"r.	c #C2474E",
"s.	c #BF4144",
"t.	c #924C5A",
"u.	c #83AED0",
"v.	c #66ABCD",
"w.	c #613123",
"x.	c #C54745",
"y.	c #CA4E44",
"z.	c #C05A3C",
"A.	c #D3683A",
"B.	c #D04E45",
"C.	c #9F4039",
"D.	c #8A98A9",
"E.	c #6CBBE0",
"F.	c #66AACB",
"G.	c #975629",
"H.	c #A25534",
"I.	c #A54D39",
"J.	c #D17533",
"K.	c #D27433",
"L.	c #D16D38",
"M.	c #CF4548",
"N.	c #B44141",
"O.	c #7C5853",
"P.	c #72AFCF",
"Q.	c #6DB9DD",
"R.	c #6EB9DC",
"S.	c #70B9DC",
"T.	c #70B8DB",
"U.	c #836F74",
"V.	c #836D71",
"W.	c #70B7DB",
"X.	c #6FB9DD",
"Y.	c #6094B2",
"Z.	c #774B42",
"`.	c #C54744",
" +	c #C1712F",
".+	c #9D373F",
"++	c #D14848",
"@+	c #C54844",
"#+	c #AF493D",
"$+	c #D15E36",
"%+	c #8AA3BA",
"&+	c #71AFCF",
"*+	c #7BB7D7",
"=+	c #95726B",
"-+	c #A4623A",
";+	c #D1783C",
">+	c #CF554C",
",+	c #CF4647",
"'+	c #BE4042",
")+	c #C14C4E",
"!+	c #B18EA2",
"~+	c #71B8DB",
"{+	c #6EBDE1",
"]+	c #4E5A6F",
"^+	c #964B35",
"/+	c #D24649",
"(+	c #C25F3A",
"_+	c #8E4237",
":+	c #AE493D",
"<+	c #A3473B",
"[+	c #A5413E",
"}+	c #B74840",
"|+	c #D14449",
"1+	c #B86029",
"2+	c #A75A58",
"3+	c #7690A6",
"4+	c #6FB4D6",
"5+	c #6DBBE0",
"6+	c #79B7D6",
"7+	c #C0857A",
"8+	c #D26639",
"9+	c #D2623E",
"0+	c #D04349",
"a+	c #D04246",
"b+	c #D25754",
"c+	c #BB665E",
"d+	c #9D3339",
"e+	c #5889A5",
"f+	c #568AA6",
"g+	c #6C93AC",
"h+	c #C29E9F",
"i+	c #B48DA0",
"j+	c #68ACCD",
"k+	c #673F43",
"l+	c #CF5244",
"m+	c #D0613E",
"n+	c #C44744",
"o+	c #C34644",
"p+	c #C74346",
"q+	c #994B36",
"r+	c #D15245",
"s+	c #CE5243",
"t+	c #C77526",
"u+	c #936F67",
"v+	c #7F818E",
"w+	c #C46974",
"x+	c #D14C43",
"y+	c #D04649",
"z+	c #CF4447",
"A+	c #CF9085",
"B+	c #7A6373",
"C+	c #79B2D1",
"D+	c #65AACB",
"E+	c #6DBADF",
"F+	c #7CBADB",
"G+	c #775D6D",
"H+	c #774A42",
"I+	c #7E452E",
"J+	c #8C502E",
"K+	c #BE4B41",
"L+	c #CB4746",
"M+	c #C24444",
"N+	c #BF4145",
"O+	c #A13B3E",
"P+	c #C04245",
"Q+	c #D05145",
"R+	c #D06D37",
"S+	c #C77034",
"T+	c #965B3A",
"U+	c #975C3A",
"V+	c #98533E",
"W+	c #D06C38",
"X+	c #D04547",
"Y+	c #C16262",
"Z+	c #998C8F",
"`+	c #6AACCE",
" @	c #6AB3D6",
".@	c #537089",
"+@	c #5E95B3",
"@@	c #598AA7",
"#@	c #85767B",
"$@	c #763E20",
"%@	c #723A34",
"&@	c #853938",
"*@	c #643C31",
"=@	c #804C2F",
"-@	c #724430",
";@	c #94383C",
">@	c #AE4A3D",
",@	c #974A36",
"'@	c #D37633",
")@	c #D04C46",
"!@	c #D2683C",
"~@	c #D2673C",
"{@	c #D14447",
"]@	c #D17B71",
"^@	c #5F95B2",
"/@	c #6CBCE1",
"(@	c #64A2C2",
"_@	c #69B1D4",
":@	c #69A7C7",
"<@	c #BE454A",
"[@	c #BE4144",
"}@	c #C5623A",
"|@	c #C86E34",
"1@	c #8D4437",
"2@	c #D06D38",
"3@	c #D04749",
"4@	c #A93A3F",
"5@	c #83A8C2",
"6@	c #6CB8DB",
"7@	c #6B809A",
"8@	c #924A3E",
"9@	c #B6493F",
"0@	c #D04F45",
"a@	c #D1653C",
"b@	c #D27D2D",
"c@	c #8D353C",
"d@	c #C36E39",
"e@	c #D16560",
"f@	c #D14D4D",
"g@	c #C24245",
"h@	c #C37983",
"i@	c #A0B3C5",
"j@	c #6CBADE",
"k@	c #69809A",
"l@	c #BB393B",
"m@	c #D24648",
"n@	c #D1613F",
"o@	c #D05842",
"p@	c #D14D46",
"q@	c #D27434",
"r@	c #AA642F",
"s@	c #CF4748",
"t@	c #A93E45",
"u@	c #6B869D",
"v@	c #A17E71",
"w@	c #A04A47",
"x@	c #D2867A",
"y@	c #D26B64",
"z@	c #D37D73",
"A@	c #D37C72",
"B@	c #D4675D",
"C@	c #7C8AA0",
"D@	c #69BADF",
"E@	c #5C758E",
"F@	c #C14145",
"G@	c #B76334",
"H@	c #D17A2E",
"I@	c #8F4538",
"J@	c #A75834",
"K@	c #D36C39",
"L@	c #C24445",
"M@	c #C1474C",
"N@	c #6EB6D9",
"O@	c #65A9CA",
"P@	c #66A8C9",
"Q@	c #735D5F",
"R@	c #73494F",
"S@	c #735456",
"T@	c #776F7B",
"U@	c #89B3D1",
"V@	c #73BADC",
"W@	c #578BA7",
"X@	c #BE4044",
"Y@	c #A76030",
"Z@	c #C9792C",
"`@	c #CD5243",
" #	c #CE7A2D",
".#	c #C85F3C",
"+#	c #CF5749",
"@#	c #6CB8DC",
"##	c #548BA7",
"$#	c #BF3F42",
"%#	c #D47E2C",
"&#	c #BA6236",
"*#	c #BF4543",
"=#	c #CC7530",
"-#	c #D27632",
";#	c #CA7430",
">#	c #B73C44",
",#	c #D16B39",
"'#	c #D2722E",
")#	c #B08A9D",
"!#	c #944C5A",
"~#	c #CD4547",
"{#	c #B5483F",
"]#	c #C8762E",
"^#	c #C4742D",
"/#	c #A9423F",
"(#	c #CB623C",
"_#	c #C7742F",
":#	c #8F4438",
"<#	c #D27D2C",
"[#	c #D26331",
"}#	c #87ABCC",
"|#	c #9E3035",
"1#	c #AF672C",
"2#	c #D27D2B",
"3#	c #C36C34",
"4#	c #D15D40",
"5#	c #D37E2B",
"6#	c #8F4737",
"7#	c #D0673B",
"8#	c #D27C2D",
"9#	c #CB6D5A",
"0#	c #CA4645",
"a#	c #AB7F81",
"b#	c #CA8457",
"c#	c #A93B41",
"d#	c #D17D2C",
"e#	c #D25544",
"f#	c #D1673B",
"g#	c #D05444",
"h#	c #D27430",
"i#	c #A78FAB",
"j#	c #6BBBDF",
"k#	c #A592AE",
"l#	c #C38B71",
"m#	c #C7703B",
"n#	c #D17E35",
"o#	c #A9652F",
"p#	c #C24545",
"q#	c #CB613C",
"r#	c #D07D30",
"s#	c #D27330",
"t#	c #A78FA9",
"u#	c #856C70",
"v#	c #6BBCE1",
"w#	c #B36878",
"x#	c #CC413C",
"y#	c #86AACA",
"z#	c #82A4BC",
"A#	c #A26D53",
"B#	c #CA6F5D",
"C#	c #C4A69E",
"D#	c #C35F5A",
"E#	c #6E8BA7",
"F#	c #A86B75",
"G#	c #6CBDE2",
"H#	c #4F5D72",
"I#	c #CF4547",
"J#	c #AB7280",
"K#	c #6EB3D5",
"L#	c #4B5B71",
"M#	c #ABA2A8",
"N#	c #D15240",
"O#	c #CC4F44",
"P#	c #AA7382",
"Q#	c #D08174",
"R#	c #AA97A7",
"S#	c #946C73",
"T#	c #535D72",
"U#	c #CF4446",
"V#	c #A891AC",
"W#	c #547992",
"X#	c #67ACCE",
"Y#	c #79B7D7",
"Z#	c #C5846C",
"`#	c #89333B",
" $	c #D17738",
".$	c #A99FA5",
"+$	c #C16A79",
"@$	c #6ABDE2",
"#$	c #525C72",
"$$	c #A892AC",
"%$	c #4E6177",
"&$	c #CF4A4E",
"*$	c #D24748",
"=$	c #752D39",
"-$	c #CE4547",
";$	c #D14140",
">$	c #8AAACA",
",$	c #D17C33",
"'$	c #A99CA6",
")$	c #538AA6",
"!$	c #C03E41",
"~$	c #C26A79",
"{$	c #68BCE1",
"]$	c #9B8B8F",
"^$	c #D04647",
"/$	c #70B9DD",
"($	c #CF7E76",
"_$	c #874039",
":$	c #D17C72",
"<$	c #D13E3E",
"[$	c #89ABCB",
"}$	c #B19699",
"|$	c #A997A7",
"1$	c #73586B",
"2$	c #69BCE0",
"3$	c #86B7D4",
"4$	c #CF494C",
"5$	c #A991AB",
"6$	c #4F6379",
"7$	c #6CB7DB",
"8$	c #CE6564",
"9$	c #8D5352",
"0$	c #D34040",
"a$	c #89AACA",
"b$	c #87B1CB",
"c$	c #CB7154",
"d$	c #82AED0",
"e$	c #6EBBE0",
"f$	c #59768F",
"g$	c #B16879",
"h$	c #6ABCE0",
"i$	c #CF615F",
"j$	c #D14343",
"k$	c #86A9C9",
"l$	c #506379",
"m$	c #6EBCE0",
"n$	c #9BA7C0",
"o$	c #D14141",
"p$	c #CE4648",
"q$	c #702C38",
"r$	c #D24647",
"s$	c #CE4E54",
"t$	c #71B9DC",
"u$	c #7388A3",
"v$	c #6FAACB",
"w$	c #485E73",
"x$	c #6FBADD",
"y$	c #B1A6B2",
"z$	c #D23B39",
"A$	c #87AACA",
"B$	c #4F6076",
"C$	c #B1A4B1",
"D$	c #D14142",
"E$	c #4D4B5E",
"F$	c #B78096",
"G$	c #8A8AA5",
"H$	c #79AACB",
"I$	c #80A0BF",
"J$	c #A198B3",
"K$	c #87ACCC",
"L$	c #D33D38",
"M$	c #70BADD",
"N$	c #C59F9D",
"O$	c #D04244",
"P$	c #525E73",
"Q$	c #CF494D",
"R$	c #9D8DA7",
"S$	c #82AACA",
"T$	c #88ABCB",
"U$	c #B38B9E",
"V$	c #72BADC",
"W$	c #83B8D5",
"X$	c #CD837E",
"Y$	c #87A9CA",
"Z$	c #4F6075",
"`$	c #CF4D50",
" %	c #C14347",
".%	c #60758C",
"+%	c #B28FA3",
"@%	c #907079",
"#%	c #7BB3D5",
"$%	c #C2868D",
"%%	c #87B2D0",
"&%	c #A98DA7",
"*%	c #88AACA",
"=%	c #5C8BA7",
"-%	c #65A4C5",
";%	c #D24547",
">%	c #6F2E3A",
",%	c #7BB9D9",
"'%	c #BF8A93",
")%	c #C36A7A",
"!%	c #79B4D7",
"~%	c #B77C90",
"{%	c #AA8DA6",
"]%	c #67AACB",
"^%	c #5B88A4",
"/%	c #CF6260",
"(%	c #839DBB",
"_%	c #83B7D5",
":%	c #CC837F",
"<%	c #999EBC",
"[%	c #83AFD0",
"}%	c #C16C7C",
"|%	c #CC4A4E",
"1%	c #954C5A",
"2%	c #68ADCF",
"3%	c #CC545B",
"4%	c #90A6C5",
"5%	c #A890AA",
"6%	c #AB8CA5",
"7%	c #87ACCD",
"8%	c #BD4348",
"9%	c #6FBADE",
"0%	c #A790AA",
"a%	c #8DA7C7",
"b%	c #7CB2D5",
"c%	c #72B7DB",
"d%	c #79B4D6",
"e%	c #C06675",
"f%	c #66B3D6",
"g%	c #6ABBE0",
"h%	c #B58096",
"i%	c #84ADCE",
"j%	c #C36877",
"k%	c #8EA6C6",
"l%	c #AC8BA4",
"m%	c #83AECF",
"n%	c #73B7DB",
"o%	c #7CB3D5",
"        . + @ # $ % % & * = - ; >                                                               ",
"      , ' ) ! ~ { ] ^ / ( _ : < [ ,                                                             ",
"    } | 1 2 3 4 5 6 7 8 8 9 0 a b c }                                                           ",
"  , | d e f g h i j k l 8 8 m n o p c ,                                                         ",
"q r s t u v w x y j z A 8 8 B C z 7 D E F                                                       ",
"G H I J K L M N M 8 C n j B O L k P Q R S                                                       ",
"T U V W X Y Z N ` l k j 8 A  .j 8 8 L ..+.                                                      ",
"@.#.B $.%.&.*.=.8 k -.k 8 z ;.L 8 8 8 >.,.+                                                     ",
"'.).!.~.o {.].^.8 8 k l 8 8 8 8 8 8 8 ^./.(._.                                                  ",
":.<.[.}.k l j |.g ` 8 8 8 8 8 8 k l 8 8 j 1.2..                                                 ",
"3.4.5.6.u k 8 7.|.&.^.8 8 8 8 8 z k 8 8 L 8.9.0.                                                ",
":.a.b.c.d.8 ` &.8 8 8 8 8 8 8 8 8 8 j e.L f.g.h.                                                ",
"i.j.k.V l.m.n.|.8 8 8 8 8 8 8 8 8 o.p.q.r.s.t.u.                                                ",
"v.w.x.7 u k y.z.8 8 8 8 8 C C ^.8 j t A.B.C.D.>                               E.E.E.E.E.E.      ",
"F.G.H.I.7 8 l k 8 8 8 8 ` J.K.L.M.8 8 8 8 N.O.P.                      Q.R.S.T.U.V.V.V.V.U.W.X.  ",
"  Y.Z.`.8 8 8 8 8 8 8 o. +.+++@+#+8 8 8 8 8 $+%+&+q                 *+=+-+;+>+L ,+L '+'+'+)+!+~+",
"  {+]+^+/+8 8 ^.8 8 8 j (+_+:+<+[+8 8 B }+L |+1+2+3+4+5+          6+7+8+9+0+a+b+c+d+e+f+f+g+h+i+",
"    j+k+^+Z l+m+8 8 8 8 n.n+n+o+p+8 8 B q+L 8 r+s+t+u+v+  R.R.R.T.w+x+^.y+z+A+B+C+D+  E+E+E+F+G+",
"      j+]+H+I+J+K+V L+`.n+M+N+8 O+P+8 B q+L 8 Q+j 8 R+S+T+U+U+U+V+W+^.X+Y+Z+`+Q.             @.@",
"        {++@@@#@$@%@&@*@=@-@;@L >@n+8 B ,@L C '@8 8 ^.)@!@~@~@!@7 ^.{@]@^@/@                (@ @",
"            q _@:@<@[@N+n+}@l+8 |.n.8 ^.|@j B 1@2@^.8 8 8 8 8 8 8 3@4@5@+                       ",
"            6@7@8@L 9@V l 0@8 8 k l ^.a@b@o.B c@d@e@f@X+^.X+X+8 g@h@i@j@                        ",
"          q k@l@m@8 |+n@!@o@8 8 z k p@q@r@s@B t@u@v@w@x@y@z@A@B@C@D@F                           ",
"        q E@F@B 8 Z G@H@I@B 8 j 8 L J@K@L@8 j M@N@O@P@Q@R@S@T@U@V@                              ",
"        W@X@8 8 L Y@Z@`@L 8 ` n C {. #.#8 m i +#S.    @#@#@#Q.                                  ",
"      q ##$#8 =.&.%#&#p+8 *#=#8 |+-#;#>#j ,#'#)#X.                                              ",
"      G !#~#8 {#]#^#/#8 8 (# #j *._#:#m@l <#[#}#                                                ",
"      F.|#8 n+1#2#3#K 8 4#5#6#M.7#e L o K.8#9#u.                                                ",
"      F.|#8 0#a#b#c#m@9@d#5#e#8 f#g#8 *#=#h#i#j#                                                ",
"      F.|#8 ,+k#l#o.^.m#n#o#p#8 f#g#8 q#r#s#t#j@                                                ",
"      F.|#L u#v#w#8 x#y#z#A#M+8 f#g#^.B#C#D#E#E+                                                ",
"      F.|#8 F#G#H#I#J#K#L#M#N#8 z.O#X+P#K#Q#R#j@                                                ",
"      F.|#8 S#G#T#U#V#W#X#Y#Z#j L+`#L x#y# $.$.                                                 ",
"      G !#~#+$@$#$U#$$%$@#  } &$*$=$-$;$>$,$'$.                                                 ",
"      q )$!$~${$]$^$$$%$@#  /$(${@_$:$<$[$}$|$j#                                                ",
"         @1$+$2$3$4$5$6$7$  S.8$X+Z 9$0$a$b$c$d$                                                ",
"        e$f$g$h$S.i$j$k$l$m$+ n$o$p$q$r$s$t$u$v$                                                ",
"            w$/@x$y$z$A$B$m$x$C$D$p$E$F$&$/$G$H$                                                ",
"            I$J$j@K$L$A$B$m$M$N$O$p$P$$$Q$X.R$S$                                                ",
"            T$U$V$W$X$Y$Z$m$S.`$8  %.%+%Q$S._.@%R.                                              ",
"            #%$%%%F &%*%=%-%/$($;%>%,%'%8 S.2$)%S.                                              ",
"              !%~%X.{%T$]%^%/$/%o$(%_%:%<%+ j@[%+                                               ",
"              2$}%X.{%T$  Q.S.|%1%2%K$3%u.                                                      ",
"              4%5%+ 6%7%    S.8%)$9%0%a%.                                                       ",
"              b%c%  d%~%X.  S.e%f%S.}%2$                                                        ",
"                    g%h%i%j@S.}%2$X.~%d%                                                        ",
"                      + j%2$X.5%k%> K$l%.                                                       ",
"                      + [%j@  } {%m%n%o%                                                        "};
