/* XPM */
static char * exit_xpm[] = {
"48 49 716 2",
"  	c #6DBADE",
". 	c #67B9DD",
"+ 	c #59ACCA",
"@ 	c #6199B0",
"# 	c #6992A5",
"$ 	c #6F95A8",
"% 	c #6FA0B7",
"& 	c #68B0CD",
"* 	c #6BBADD",
"= 	c #59B1D2",
"- 	c #568CA2",
"; 	c #748191",
"> 	c #828B9B",
", 	c #8A93A3",
"' 	c #8E97A6",
") 	c #8E96A5",
"! 	c #7A9CAF",
"~ 	c #6DB4D4",
"{ 	c #6EB9DD",
"] 	c #6EB9DC",
"^ 	c #58A8C8",
"/ 	c #5E8396",
"( 	c #7B8695",
"_ 	c #9DA6B4",
": 	c #A7AFBE",
"< 	c #AAB3C2",
"[ 	c #A7B0BF",
"} 	c #A0A9B7",
"| 	c #949DAC",
"1 	c #8794A4",
"2 	c #71B1D0",
"3 	c #71B5D7",
"4 	c #7EA3BC",
"5 	c #8897A8",
"6 	c #8B95A5",
"7 	c #8C95A5",
"8 	c #8997A8",
"9 	c #81A3BB",
"0 	c #73B4D5",
"a 	c #66B5D7",
"b 	c #5A7F92",
"c 	c #7B8696",
"d 	c #AAB2C0",
"e 	c #BAC3D2",
"f 	c #C5CFDD",
"g 	c #C8D3E2",
"h 	c #C5CFDE",
"i 	c #BAC3D3",
"j 	c #A9B3C2",
"k 	c #97A0AF",
"l 	c #8695A7",
"m 	c #6FB8DB",
"n 	c #77ABC9",
"o 	c #8A94A5",
"p 	c #939EAD",
"q 	c #9CA7B7",
"r 	c #A2ADBC",
"s 	c #A3ADBC",
"t 	c #9FA9B7",
"u 	c #9AA3B1",
"v 	c #949CAA",
"w 	c #80A9C3",
"x 	c #5B9CB8",
"y 	c #7E8FA3",
"z 	c #62728B",
"A 	c #626D81",
"B 	c #89919F",
"C 	c #C9D2DE",
"D 	c #E0EEFB",
"E 	c #E3F1FD",
"F 	c #DEEBFA",
"G 	c #D2DEED",
"H 	c #BEC9D9",
"I 	c #A7B1C0",
"J 	c #909AAA",
"K 	c #7AA7C3",
"L 	c #74ADCB",
"M 	c #9AA5B4",
"N 	c #ABB6C6",
"O 	c #B8C3D4",
"P 	c #BECADA",
"Q 	c #BEC9DA",
"R 	c #B8C3D3",
"S 	c #B0B9C8",
"T 	c #A7AFBD",
"U 	c #9EA5B3",
"V 	c #89B0C9",
"W 	c #6C9AB3",
"X 	c #254C76",
"Y 	c #0D3763",
"Z 	c #787E8F",
"` 	c #9198A3",
" .	c #747C88",
"..	c #BFC5C9",
"+.	c #F7FFFF",
"@.	c #EFFCFF",
"#.	c #E2F0FD",
"$.	c #CEDAEA",
"%.	c #B3BECF",
"&.	c #98A3B2",
"*.	c #839BB0",
"=.	c #6CB9DB",
"-.	c #8396A8",
";.	c #98A2B0",
">.	c #AEB8C8",
",.	c #C3CFDF",
"'.	c #D1DEEE",
").	c #D8E5F6",
"!.	c #D8E5F5",
"~.	c #D2DEEE",
"{.	c #BBC3D2",
"].	c #B0B8C5",
"^.	c #A6ADBA",
"/.	c #7AB7D7",
"(.	c #6BB9DC",
"_.	c #5489A9",
":.	c #004176",
"<.	c #4D678E",
"[.	c #B6CFE2",
"}.	c #87CEF1",
"|.	c #75BEE2",
"1.	c #9DB3C6",
"2.	c #CFD0D2",
"3.	c #F9FFFF",
"4.	c #E9F8FF",
"5.	c #D5E2F2",
"6.	c #BAC6D7",
"7.	c #9EA9B8",
"8.	c #8995A6",
"9.	c #6DAECA",
"0.	c #A4AEBD",
"a.	c #D6E3F2",
"b.	c #E4F3FE",
"c.	c #EBFAFF",
"d.	c #EAF9FF",
"e.	c #DBE6F0",
"f.	c #A8AFBA",
"g.	c #9095A0",
"h.	c #8E95A1",
"i.	c #ADB4C1",
"j.	c #99B3C8",
"k.	c #6AB8DC",
"l.	c #588EB4",
"m.	c #03609F",
"n.	c #759FCC",
"o.	c #B1E7FE",
"p.	c #45DFFF",
"q.	c #42EBFF",
"r.	c #96E4FE",
"s.	c #A3ADB8",
"t.	c #EEF5F5",
"u.	c #E8F7FF",
"v.	c #D4E2F2",
"w.	c #BAC6D6",
"x.	c #8996A7",
"y.	c #73A2B7",
"z.	c #929BAA",
"A.	c #ACB5C4",
"B.	c #C9D4E3",
"C.	c #E1EFFC",
"D.	c #F2FEFF",
"E.	c #FBFFFF",
"F.	c #C1C4C7",
"G.	c #6E727C",
"H.	c #71747E",
"I.	c #4E5567",
"J.	c #182A4E",
"K.	c #3C4965",
"L.	c #A6B2C4",
"M.	c #68C6E4",
"N.	c #29F6FB",
"O.	c #3EEAF6",
"P.	c #58D3EB",
"Q.	c #6BBDE0",
"R.	c #71A7D4",
"S.	c #268EDB",
"T.	c #55C1F4",
"U.	c #80FAFF",
"V.	c #92F7FF",
"W.	c #8DF1FF",
"X.	c #66DBFA",
"Y.	c #99AAB9",
"Z.	c #B6BEC3",
"`.	c #E1EFFD",
" +	c #CDD9EA",
".+	c #B3BFCF",
"++	c #9AA4B3",
"@+	c #849CB1",
"#+	c #7598AA",
"$+	c #ADB7C6",
"%+	c #CBD6E5",
"&+	c #E4F2FD",
"*+	c #F8FFFF",
"=+	c #C2C3C6",
"-+	c #B8CDDB",
";+	c #96D0E6",
">+	c #8BBFD2",
",+	c #AFB7C3",
"'+	c #41577D",
")+	c #244576",
"!+	c #72ACC5",
"~+	c #59D1EC",
"{+	c #66C3E3",
"]+	c #6ED3EA",
"^+	c #6BEAF7",
"/+	c #7CECF7",
"(+	c #78EBF7",
"_+	c #55E1F2",
":+	c #64DDEF",
"<+	c #65C4E4",
"[+	c #66C2E3",
"}+	c #54D7ED",
"|+	c #75CFEE",
"1+	c #73F0FE",
"2+	c #58F2FF",
"3+	c #8BFBFF",
"4+	c #9CDFFF",
"5+	c #7EE4FE",
"6+	c #85C9E2",
"7+	c #898F98",
"8+	c #8D939D",
"9+	c #C0CCDB",
"0+	c #939CAB",
"a+	c #7BA7C3",
"b+	c #7097AA",
"c+	c #A9B1C0",
"d+	c #DFEDFA",
"e+	c #DCE4E6",
"f+	c #92A3B3",
"g+	c #83E1FC",
"h+	c #67EEFF",
"i+	c #55E1FF",
"j+	c #A7C7E0",
"k+	c #5CA1BF",
"l+	c #87ECF1",
"m+	c #80F2F7",
"n+	c #89F9FE",
"o+	c #89F0F9",
"p+	c #85ECF7",
"q+	c #67F6FD",
"r+	c #66D3EB",
"s+	c #5ECCE9",
"t+	c #77DCEF",
"u+	c #7DF5FC",
"v+	c #53D9ED",
"w+	c #6CBBDF",
"x+	c #5CCEE9",
"y+	c #4CDFF1",
"z+	c #61D9EF",
"A+	c #81F5FB",
"B+	c #79EAF6",
"C+	c #8EEFF9",
"D+	c #7CF7FC",
"E+	c #8DF1F9",
"F+	c #7FFAFD",
"G+	c #69EEF7",
"H+	c #52D2FE",
"I+	c #60D7FF",
"J+	c #76F6FB",
"K+	c #68BDDD",
"L+	c #A2B1C3",
"M+	c #AFB5BE",
"N+	c #5F6473",
"O+	c #828995",
"P+	c #B1BBCA",
"Q+	c #9EA7B5",
"R+	c #8B98AA",
"S+	c #669EB5",
"T+	c #858E9E",
"U+	c #9DA7B5",
"V+	c #B9C2D0",
"W+	c #D1DEED",
"X+	c #959BA4",
"Y+	c #91AFC6",
"Z+	c #4EDFFE",
"`+	c #9AF7FF",
" @	c #B1EFFF",
".@	c #7FE4FA",
"+@	c #4DDAEA",
"@@	c #43B2CD",
"#@	c #7193C1",
"$@	c #64C6E4",
"%@	c #5BCFEA",
"&@	c #62C7E6",
"*@	c #63C6E5",
"=@	c #61CBE6",
"-@	c #70E5F3",
";@	c #65F9FD",
">@	c #5AEDF7",
",@	c #68E9F5",
"'@	c #7BF9FD",
")@	c #88EAF6",
"!@	c #63C8E6",
"~@	c #6BBCDF",
"{@	c #6DBADF",
"]@	c #75CEE9",
"^@	c #6AC6E4",
"/@	c #65C5E3",
"(@	c #81C6EC",
"_@	c #85EFFC",
":@	c #3185BA",
"<@	c #084D86",
"[@	c #1C4978",
"}@	c #1C385E",
"|@	c #17284A",
"1@	c #99A0AB",
"2@	c #B8C0CE",
"3@	c #A4ACBA",
"4@	c #939CAA",
"5@	c #77B0CF",
"6@	c #5FAFCD",
"7@	c #778494",
"8@	c #8D96A6",
"9@	c #A6AFBD",
"0@	c #C2CBD9",
"a@	c #4F576A",
"b@	c #AABCCD",
"c@	c #80DAFD",
"d@	c #89EEFF",
"e@	c #75F6FF",
"f@	c #65E5F8",
"g@	c #30B7EB",
"h@	c #1579C0",
"i@	c #81B2DA",
"j@	c #6DC8E6",
"k@	c #6FD4EB",
"l@	c #68C8E5",
"m@	c #68C1E2",
"n@	c #5DCEE8",
"o@	c #7AD8EC",
"p@	c #82EAF6",
"q@	c #7ECBE6",
"r@	c #6483AC",
"s@	c #15416F",
"t@	c #13325A",
"u@	c #182D50",
"v@	c #616A7C",
"w@	c #B5BBC7",
"x@	c #A3ABB8",
"y@	c #95A0AF",
"z@	c #76AFCE",
"A@	c #6BBADE",
"B@	c #5995AB",
"C@	c #7A8594",
"D@	c #8F98A7",
"E@	c #ABB4C2",
"F@	c #213456",
"G@	c #8D94A2",
"H@	c #B5C9D9",
"I@	c #BBE4F4",
"J@	c #80D1F7",
"K@	c #0EE1FF",
"L@	c #43EFFF",
"M@	c #6FF6FE",
"N@	c #7BECF7",
"O@	c #63D1E9",
"P@	c #69EEF8",
"Q@	c #61C8E6",
"R@	c #67C2E2",
"S@	c #7FBEDF",
"T@	c #8DB4CF",
"U@	c #95A8BC",
"V@	c #A1A9B7",
"W@	c #ADB5C3",
"X@	c #9FB0C2",
"Y@	c #8AB2CB",
"Z@	c #71B9DC",
"`@	c #62B7D9",
" #	c #768191",
".#	c #8891A1",
"+#	c #627189",
"@#	c #0E3561",
"##	c #02487E",
"$#	c #0060A1",
"%#	c #0D8CD8",
"&#	c #1BC6FD",
"*#	c #57D3FE",
"=#	c #82C5E8",
"-#	c #5CD5ED",
";#	c #7EE9F6",
">#	c #85F4FA",
",#	c #55D7EC",
"'#	c #75F1F9",
")#	c #63C5E5",
"!#	c #4C90A9",
"~#	c #647687",
"{#	c #7C8B9E",
"]#	c #496688",
"^#	c #053E6F",
"/#	c #004B84",
"(#	c #1F76B6",
"_#	c #68CBEA",
":#	c #84C4E4",
"<#	c #6CD7ED",
"[#	c #7EF8FD",
"}#	c #4EDCF0",
"|#	c #7EEAF5",
"1#	c #6DF0F8",
"2#	c #64C4E5",
"3#	c #6CBADE",
"4#	c #5FAFCF",
"5#	c #5A97B1",
"6#	c #6998AF",
"7#	c #639DBB",
"8#	c #67A9CA",
"9#	c #82BDD9",
"0#	c #6CC2E2",
"a#	c #53D8EE",
"b#	c #50F3FB",
"c#	c #70D0EA",
"d#	c #63E4F2",
"e#	c #97FFFF",
"f#	c #5BD3EC",
"g#	c #66C4E3",
"h#	c #61CAE6",
"i#	c #4DEEF8",
"j#	c #67C1E3",
"k#	c #96FEFF",
"l#	c #64C2E5",
"m#	c #69E1F2",
"n#	c #68DBEF",
"o#	c #61C8E7",
"p#	c #69C4E3",
"q#	c #87F5FB",
"r#	c #56D5EC",
"s#	c #72F9FE",
"t#	c #5DCEE9",
"u#	c #52DDF4",
"v#	c #82EBF7",
"w#	c #52D7EF",
"x#	c #89F5FA",
"y#	c #57E4F3",
"z#	c #53D8F6",
"A#	c #51D7F0",
"B#	c #5CD0E9",
"C#	c #59EEF9",
"D#	c #6FC0E1",
"E#	c #69BFE1",
"F#	c #63C7E5",
"G#	c #5FDDF7",
"H#	c #72E7F4",
"I#	c #6DC6E8",
"J#	c #80F7FD",
"K#	c #78FDFF",
"L#	c #87F2FC",
"M#	c #60E9F5",
"N#	c #65EBF8",
"O#	c #55EFF9",
"P#	c #5CF4FC",
"Q#	c #49E5F7",
"R#	c #69C0E1",
"S#	c #53DCF0",
"T#	c #5ADBF0",
"U#	c #72CBE6",
"V#	c #5FCEE7",
"W#	c #67C3E2",
"X#	c #66F3FB",
"Y#	c #84FBFF",
"Z#	c #5FD6ED",
"`#	c #58D7ED",
" $	c #7CFBFE",
".$	c #7CE2F1",
"+$	c #6BE0F1",
"@$	c #5FFAFD",
"#$	c #64E5F3",
"$$	c #57D4EC",
"%$	c #78D8ED",
"&$	c #9EFDFF",
"*$	c #82EEF8",
"=$	c #84E1F2",
"-$	c #7BEBF5",
";$	c #32F3FB",
">$	c #59ECF7",
",$	c #5ECDE8",
"'$	c #64C7E4",
")$	c #51DAEF",
"!$	c #6CEFF8",
"~$	c #7FEAF6",
"{$	c #81ECF7",
"]$	c #6BCEE8",
"^$	c #5DE9F5",
"/$	c #7CF6FD",
"($	c #55D7ED",
"_$	c #65C4E3",
":$	c #68C0E2",
"<$	c #78FFFF",
"[$	c #68D0E9",
"}$	c #68C2E2",
"|$	c #74F3FC",
"1$	c #64C6E5",
"2$	c #6EC4E4",
"3$	c #82DEF0",
"4$	c #55D6ED",
"5$	c #7DFEFF",
"6$	c #69BDE2",
"7$	c #74DDEF",
"8$	c #5FDFF2",
"9$	c #64D2EB",
"0$	c #83EEF8",
"a$	c #5DD6ED",
"b$	c #5DD0E9",
"c$	c #7AE2F1",
"d$	c #51DBEE",
"e$	c #5BD1EA",
"f$	c #62C8E5",
"g$	c #6CE2F4",
"h$	c #92F7FC",
"i$	c #71DCEF",
"j$	c #68C0E1",
"k$	c #6DCCE7",
"l$	c #70D7ED",
"m$	c #6ABDE0",
"n$	c #5ECBE9",
"o$	c #5BDDF0",
"p$	c #78E0F1",
"q$	c #78E8F8",
"r$	c #6EC9E5",
"s$	c #6CBBDE",
"t$	c #7EEDF8",
"u$	c #67ECF7",
"v$	c #42EDF8",
"w$	c #73F1FA",
"x$	c #66DFF0",
"y$	c #58D5EB",
"z$	c #6ACDE7",
"A$	c #78DEF0",
"B$	c #6EC8E7",
"C$	c #6CBCDF",
"D$	c #65C5E4",
"E$	c #6ABEE0",
"F$	c #5DD1EB",
"G$	c #40ECF7",
"H$	c #0EFEFF",
"I$	c #5ED1EB",
"J$	c #6CC5E3",
"K$	c #78E7F5",
"L$	c #60CBE7",
"M$	c #64C8E6",
"N$	c #65FAFD",
"O$	c #4CE0F0",
"P$	c #68FAFE",
"Q$	c #5CCFEB",
"R$	c #68C5E3",
"S$	c #68BFE3",
"T$	c #75E7F5",
"U$	c #5AE0F1",
"V$	c #74F2FA",
"W$	c #67CCE7",
"X$	c #7BD7EC",
"Y$	c #74C6E4",
"Z$	c #5DD8ED",
"`$	c #7FDEF1",
" %	c #71D1E9",
".%	c #5FFBFF",
"+%	c #6EE0F1",
"@%	c #67CDE8",
"#%	c #8DE4F3",
"$%	c #6DBCE0",
"%%	c #72F7FC",
"&%	c #4AE0F2",
"*%	c #5EDBF2",
"=%	c #79FBFE",
"-%	c #68D2FB",
";%	c #49A6DE",
">%	c #6483AE",
",%	c #7F96B2",
"'%	c #98BAD1",
")%	c #75B9DB",
"!%	c #74CDE7",
"~%	c #74DDF9",
"{%	c #4CCBFF",
"]%	c #84FAFF",
"^%	c #38C7E7",
"/%	c #02528F",
"(%	c #0C3967",
"_%	c #2A4468",
":%	c #A3ACBA",
"<%	c #85B7D4",
"[%	c #78B6D2",
"}%	c #3B78B2",
"|%	c #3DB1DD",
"1%	c #35E2FF",
"2%	c #7EE2FD",
"3%	c #5BF0FB",
"4%	c #5987B5",
"5%	c #284D79",
"6%	c #162F55",
"7%	c #47526A",
"8%	c #B0B8C4",
"9%	c #83B6D3",
"0%	c #66B3D5",
"a%	c #5686A8",
"b%	c #004C86",
"c%	c #2674B8",
"d%	c #82E5F9",
"e%	c #91F3FF",
"f%	c #80F2FF",
"g%	c #92D4E9",
"h%	c #A8B0BD",
"i%	c #172749",
"j%	c #B6BDCA",
"k%	c #A2ACBA",
"l%	c #71B9DB",
"m%	c #649EB8",
"n%	c #46688F",
"o%	c #013F72",
"p%	c #8A9EBA",
"q%	c #B7EBFE",
"r%	c #7CEDFF",
"s%	c #91F2FF",
"t%	c #58DFFF",
"u%	c #A3B9C9",
"v%	c #696D7A",
"w%	c #5E6573",
"x%	c #BBC3CF",
"y%	c #A6AEBA",
"z%	c #86AFCA",
"A%	c #608699",
"B%	c #617691",
"C%	c #0E3560",
"D%	c #A3ADBB",
"E%	c #94DBF9",
"F%	c #52DEFF",
"G%	c #73F1FF",
"H%	c #67DEFB",
"I%	c #93A5B4",
"J%	c #414657",
"K%	c #BCC4CE",
"L%	c #A5ADBB",
"M%	c #879EB2",
"N%	c #68B8DB",
"O%	c #5B7D8F",
"P%	c #8390A3",
"Q%	c #384764",
"R%	c #707684",
"S%	c #9CB0C1",
"T%	c #7BBFDE",
"U%	c #97DBF5",
"V%	c #BFDBEA",
"W%	c #7E838C",
"X%	c #C6CFD6",
"Y%	c #D5E2F1",
"Z%	c #BBC6D5",
"`%	c #909AA9",
" &	c #69B8DB",
".&	c #578397",
"+&	c #838D9C",
"@&	c #989EAB",
"#&	c #878C95",
"$&	c #9A9FA6",
"%&	c #AFB3B9",
"&&	c #C6C7C9",
"*&	c #EFF7F7",
"=&	c #E7F6FF",
"-&	c #D3DFF0",
";&	c #B9C4D3",
">&	c #A0A9B8",
",&	c #8C98A9",
"'&	c #4F90A7",
")&	c #7D8897",
"!&	c #BBC4D3",
"~&	c #EBF8FF",
"{&	c #EFFDFF",
"]&	c #CCD8E9",
"^&	c #B2BDCD",
"/&	c #99A3B2",
"(&	c #839EB4",
"_&	c #52A7C5",
":&	c #758191",
"<&	c #919AA9",
"[&	c #ADB5C4",
"}&	c #C6D0DF",
"|&	c #D9E6F5",
"1&	c #D3E0F0",
"2&	c #BECADB",
"3&	c #A7B2C1",
"4&	c #909BAA",
"5&	c #78ABC8",
"6&	c #66B9DC",
"7&	c #638CA0",
"8&	c #848D9C",
"9&	c #9BA4B2",
"0&	c #B1B9C8",
"a&	c #C2CCDB",
"b&	c #CDD9E8",
"c&	c #D1DDEC",
"d&	c #CBD8E7",
"e&	c #ACB7C7",
"f&	c #98A2B1",
"g&	c #8698AB",
"h&	c #60B1D1",
"i&	c #738A9B",
"j&	c #8992A1",
"k&	c #99A2B1",
"l&	c #A8B1BF",
"m&	c #B1BACA",
"n&	c #B4BECE",
"o&	c #AFBACA",
"p&	c #A5B0BF",
"q&	c #97A1B1",
"r&	c #8A96A7",
"s&	c #73B2D3",
"t&	c #64B3D3",
"u&	c #7196A9",
"v&	c #86909F",
"w&	c #9098A8",
"x&	c #969FAE",
"y&	c #959FAE",
"z&	c #8E98A8",
"A&	c #8697AA",
"B&	c #68B0CE",
"C&	c #71A4BC",
"D&	c #799EB2",
"E&	c #7E9BAE",
"F&	c #7D9FB7",
"G&	c #76ABC9",
"                                                                          . + @ # $ % & *       ",
"                                                                        = - ; > , ' ) , ! ~     ",
"            { ]                                                       ^ / ( ' _ : < [ } | 1 2   ",
"      3 4 5 6 7 8 9 0                                               a b c | d e f g h i j k l m ",
"    n o p q r s t u v w                                             x y z A B C D E F G H I J K ",
"  L 6 M N O P Q R S T U V                                           W X Y Z `  ...+.@.#.$.%.&.*.",
"=.-.;.>.,.'.).!.~.g {.].^./.                                      (._.:.<.[.}.|.1.2.3.4.5.6.7.8.",
"9.' 0.H a.b.c.d.e.f.g.h.i.j.                                      k.l.m.n.o.p.q.r.s.t.u.v.w.7.x.",
"y.z.A.B.C.D.E.F.G.H.I.J.K.L.                  M.N.O.P.Q.            R.S.T.U.V.W.X.Y.Z.`. +.+++@+",
"#+z.$+%+&+*+=+-+;+>+,+'+)+!+~+    {+]+^+/+(+_+:+<+  [+}+            |+1+2+3+4+5+6+7+8+5.9+j 0+a+",
"b+' c+h d+e+f+g+h+i+j+k+l+m+n+o+p+q+r+s+  t+u+v+w+x+y+z+A+B+C+D+E+F+G+H+I+J+K+L+M+N+O+h P+Q+R+m ",
"S+T+U+V+W+X+Y+Z+`+ @.@+@@@#@  $@%@&@*@=@    -@;@>@,@'@)@!@~@{@]@^@/@  (@_@:@<@[@}@|@1@2@3@4@5@  ",
"6@7@8@9@0@a@b@c@d@e@f@g@h@i@                  ~@j@k@l@m@n@~@        o@p@q@r@s@t@u@v@w@x@y@z@    ",
"A@B@C@D@E@F@G@H@I@J@K@L@M@N@O@                                      P@Q@R@S@T@U@V@W@X@Y@Z@      ",
"  `@-  #.#+#@###$#%#&#*#=#-#;#>#,#                                  '#$@)#                      ",
"    `@!#~#{#]#^#/#(#_#:#    <#[#}#                                  |#1#2#                      ",
"      3#4#5#6#7#8#9#0#    a#b#c#w+                                  d#e#f#                      ",
"                        g#h#i#                                      j#k#l#                      ",
"                          m#n#o#                                    p#q#                        ",
"                        r#s#w+t#w+$@w+                              u#v#                        ",
"                        w#x#y#z#A#B#C#D#E#                        F#G#H#                        ",
"                        a#I#J#K#L#M#N#O#P#Q#R#                w+S#T#A+U#                        ",
"                        R#V#W#h#X#Y#Z#w+`# $.$                +$@$#$`#                          ",
"                                $$%$&$*$  =$-$                ;$>$,${+                          ",
"                                '$)$!$~$  {$]$                ^$/$($_$                          ",
"                                  :$<$[$}$|$1$                2$3$4$                            ",
"                                  E#5$6$7$8$              {+9$0$a$b$                            ",
"                                    c$$@~@d$e$          f$g$h$i$j$                              ",
"                                    k$l$m$n$o$~@        p$q$r$                                  ",
"                                    s$t$u$v$w$x$y$    z$A$B$                                    ",
"                                      C$D$E$F$G$H$I$  J$K$D$                                    ",
"                                            L$M$N$O$  :$P$Q$                                    ",
"                                          $@R$S$T$U$    V$W$                                    ",
"                                            X$Y$Z$`$   %.%F#                                    ",
"                                              +%@%#%$%%%%@                                      ",
"                                              &%*%=%-%;%>%,%'%)%                                ",
"                                              !%~%{%]%^%/%(%_%:%<%                              ",
"                                            [%}%|%1%2%3%4%5%6%7%8%9%                            ",
"                                          0%a%b%c%d%e%f%g%h%K.i%j%k%l%                          ",
"                                          m%n%o%p%q%r%s%t%u%v%w%x%y%z%                          ",
"                                          A%B%C%D%E%F%G%H%I%J%K%e L%M%                          ",
"                                        N%O%P%Q%R%S%T%U%V%W%X%Y%Z%:%`%                          ",
"                                         &.&+&:%@&#&$&%&&&*&=&-&;&>&,&                          ",
"                                          '&)&_ !&a.~&+.*+{&C.]&^&/&(&                          ",
"                                          _&:&<&[&}&|&b.=&`.1&2&3&4&5&                          ",
"                                          6&7&8&9&0&a&b&c&d&P e&f&g&{                           ",
"                                            h&i&j&k&l&m&n&o&p&q&r&s&                            ",
"                                              t&u&v&w&x&;.y&z&A&s&                              ",
"                                                * B&C&D&E&F&G&{                                 "};
