/* XPM */
static char * fish_2_xpm[] = {
"48 48 813 2",
"  	c #6DBADE",
". 	c #6CB9DC",
"+ 	c #64AFCB",
"@ 	c #5CA6BB",
"# 	c #5AA4B8",
"$ 	c #59A4B7",
"% 	c #5AA5B8",
"& 	c #62AEC7",
"* 	c #6AB5D6",
"= 	c #6DBADD",
"- 	c #529EA9",
"; 	c #287C53",
"> 	c #217844",
", 	c #1E7544",
"' 	c #1B7845",
") 	c #1C8246",
"! 	c #168146",
"~ 	c #1A8D48",
"{ 	c #169454",
"] 	c #219152",
"^ 	c #3F9A85",
"/ 	c #54A4AD",
"( 	c #68B3D2",
"_ 	c #368570",
": 	c #1F7944",
"< 	c #197B46",
"[ 	c #1A8847",
"} 	c #158648",
"| 	c #179449",
"1 	c #129B54",
"2 	c #159A4B",
"3 	c #13984D",
"4 	c #13964D",
"5 	c #1B934A",
"6 	c #419083",
"7 	c #67B0CF",
"8 	c #6AB6D8",
"9 	c #3E8B80",
"0 	c #1F7D45",
"a 	c #187F46",
"b 	c #198D48",
"c 	c #148C49",
"d 	c #149B4B",
"e 	c #10A154",
"f 	c #12A24C",
"g 	c #0F9F4F",
"h 	c #11A14D",
"i 	c #129A4A",
"j 	c #118743",
"k 	c #208E4A",
"l 	c #5CA4B4",
"m 	c #509CA5",
"n 	c #1F7845",
"o 	c #238045",
"p 	c #238545",
"q 	c #1F9148",
"r 	c #119149",
"s 	c #11A04D",
"t 	c #0FA653",
"u 	c #0FAA4E",
"v 	c #0DA751",
"w 	c #0FAB4E",
"x 	c #0E9947",
"y 	c #119B49",
"z 	c #149C4B",
"A 	c #188947",
"B 	c #5BA3B5",
"C 	c #70BBDD",
"D 	c #A9D0BB",
"E 	c #C4DA8E",
"F 	c #D2E061",
"G 	c #DCEA2A",
"H 	c #99EF66",
"I 	c #C9DA21",
"J 	c #B1CB28",
"K 	c #AECB25",
"L 	c #C2E42C",
"M 	c #ABD637",
"N 	c #A0D93C",
"O 	c #68BF45",
"P 	c #3CB64A",
"Q 	c #0BA34A",
"R 	c #0FAC4E",
"S 	c #0F9C4B",
"T 	c #11924A",
"U 	c #20904B",
"V 	c #63ADC6",
"W 	c #93C8CB",
"X 	c #E8F063",
"Y 	c #F7F708",
"Z 	c #E3E80E",
"` 	c #E4EA10",
" .	c #EEF311",
"..	c #DFF12C",
"+.	c #D0EE3D",
"@.	c #E5F319",
"#.	c #D7EA1D",
"$.	c #DEF41F",
"%.	c #C9EE27",
"&.	c #D4F726",
"*.	c #C8EE27",
"=.	c #CFFC2B",
"-.	c #9EDC3A",
";.	c #4AB84A",
">.	c #0DA24C",
",.	c #179849",
"'.	c #4E9C9B",
").	c #A5CFBF",
"!.	c #F6F832",
"~.	c #F8F807",
"{.	c #F5F60A",
"].	c #F1F411",
"^.	c #BCF75D",
"/.	c #EDF211",
"(.	c #DDF02D",
"_.	c #D2ED34",
":.	c #D5EB25",
"<.	c #E1F51E",
"[.	c #DAF323",
"}.	c #D6F625",
"|.	c #B2E92E",
"1.	c #D5FE29",
"2.	c #D4FF2A",
"3.	c #ABEA32",
"4.	c #B7F031",
"5.	c #55C04A",
"6.	c #11A64B",
"7.	c #1F893F",
"8.	c #178040",
"9.	c #468880",
"0.	c #A0CDC2",
"a.	c #F7F814",
"b.	c #F2F40C",
"c.	c #EFF311",
"d.	c #DEF433",
"e.	c #E3EC15",
"f.	c #E7F217",
"g.	c #C8E32B",
"h.	c #9ED13B",
"i.	c #CEE620",
"j.	c #AACC22",
"k.	c #D9FA25",
"l.	c #C4F42C",
"m.	c #D1FE2C",
"n.	c #B4EB35",
"o.	c #0E9E48",
"p.	c #109A49",
"q.	c #149649",
"r.	c #1D8C46",
"s.	c #63A8C1",
"t.	c #89C4D0",
"u.	c #F0F434",
"v.	c #F4F50A",
"w.	c #F3F50C",
"x.	c #F1F40D",
"y.	c #EFF30F",
"z.	c #EDF312",
"A.	c #EAF214",
"B.	c #D2E219",
"C.	c #E5F31A",
"D.	c #D2E828",
"E.	c #DFF51F",
"F.	c #DBF622",
"G.	c #D1F224",
"H.	c #C5EB26",
"I.	c #B8E328",
"J.	c #A3EC47",
"K.	c #D3FF2A",
"L.	c #D3FE2A",
"M.	c #CEF92A",
"N.	c #5EC249",
"O.	c #10A64D",
"P.	c #129A4D",
"Q.	c #15904D",
"R.	c #3E8871",
"S.	c #64ADCC",
"T.	c #68B3D3",
"U.	c #72BCDC",
"V.	c #E1EC63",
"W.	c #F1F40E",
"X.	c #F0F40E",
"Y.	c #ECF213",
"Z.	c #E9F215",
"`.	c #E2F41C",
" +	c #D9F325",
".+	c #91DF4D",
"++	c #D7F726",
"@+	c #B6E238",
"#+	c #D4FE29",
"$+	c #D0FB2A",
"%+	c #AFDB27",
"&+	c #A7E33C",
"*+	c #0EA350",
"=+	c #119B4E",
"-+	c #15924C",
";+	c #1F8647",
">+	c #66AAC7",
",+	c #68B3D4",
"'+	c #1F6545",
")+	c #277B52",
"!+	c #67B1D2",
"~+	c #7BBEE0",
"{+	c #7FBFE0",
"]+	c #C2DD99",
"^+	c #EDF311",
"/+	c #EBF213",
"(+	c #EAF215",
"_+	c #E8F217",
":+	c #E5F219",
"<+	c #E2F21B",
"[+	c #C8DF1E",
"}+	c #DCF21F",
"|+	c #D8F322",
"1+	c #C2EE33",
"2+	c #D0F527",
"3+	c #CAF62B",
"4+	c #B3EE3D",
"5+	c #CCF72A",
"6+	c #C0EC29",
"7+	c #B5E128",
"8+	c #CCF82A",
"9+	c #CDF92A",
"0+	c #C4F12B",
"a+	c #49B349",
"b+	c #139D4B",
"c+	c #169148",
"d+	c #198545",
"e+	c #529299",
"f+	c #6CB9DD",
"g+	c #38867B",
"h+	c #1A743E",
"i+	c #166435",
"j+	c #367F77",
"k+	c #C6DFEF",
"l+	c #F4F4F4",
"m+	c #E8EBC9",
"n+	c #EDF46B",
"o+	c #F4F8BB",
"p+	c #EDF2BB",
"q+	c #D8E474",
"r+	c #E4EF18",
"s+	c #E3F018",
"t+	c #E0EF1A",
"u+	c #DCEE1C",
"v+	c #D8ED1E",
"w+	c #D4ED20",
"x+	c #D0ED22",
"y+	c #CBED24",
"z+	c #C7ED27",
"A+	c #C3EE29",
"B+	c #C1EE2A",
"C+	c #B1E836",
"D+	c #C1ED29",
"E+	c #BBE729",
"F+	c #BFEE2F",
"G+	c #A7F35A",
"H+	c #C3EF29",
"I+	c #AEDB28",
"J+	c #98CE32",
"K+	c #1C8D44",
"L+	c #148243",
"M+	c #167941",
"N+	c #3E7B6B",
"O+	c #7DC3D2",
"P+	c #89C48C",
"Q+	c #15783C",
"R+	c #117739",
"S+	c #0A7434",
"T+	c #0E6831",
"U+	c #5FA7C3",
"V+	c #70B1D1",
"W+	c #A2A0A0",
"X+	c #8D8E79",
"Y+	c #EDF59B",
"Z+	c #F4F4EF",
"`+	c #FAFAFA",
" @	c #EEEEEE",
".@	c #E6E6E5",
"+@	c #BACF81",
"@@	c #D8EA1C",
"#@	c #D4E91D",
"$@	c #D0E81F",
"%@	c #CBE721",
"&@	c #C7E623",
"*@	c #C2E624",
"=@	c #BDE627",
"-@	c #BAE628",
";@	c #B8E528",
">@	c #B8E428",
",@	c #AAD727",
"'@	c #A2D026",
")@	c #B7E428",
"!@	c #B6E52B",
"~@	c #A4E950",
"{@	c #B9E628",
"]@	c #BAE728",
"^@	c #BCE828",
"/@	c #97D037",
"(@	c #369946",
"_@	c #4D873E",
":@	c #A5DA9C",
"<@	c #C6F239",
"[@	c #C9F529",
"}@	c #55A23A",
"|@	c #08843A",
"1@	c #0E7838",
"2@	c #10693D",
"3@	c #398485",
"4@	c #71ABC9",
"5@	c #3C3A26",
"6@	c #C4D228",
"7@	c #D2D4BE",
"8@	c #575454",
"9@	c #8D8C8C",
"0@	c #CECECE",
"a@	c #E4E4E4",
"b@	c #B9C4B5",
"c@	c #C4DF20",
"d@	c #C7E220",
"e@	c #C2E122",
"f@	c #BDE023",
"g@	c #B8DF25",
"h@	c #B3DE27",
"i@	c #B0DD28",
"j@	c #AFDC28",
"k@	c #ADDB28",
"l@	c #ACD927",
"m@	c #ABD827",
"n@	c #ADDA28",
"o@	c #AEDC28",
"p@	c #AFDD28",
"q@	c #B1DE28",
"r@	c #B2DF28",
"s@	c #B4E128",
"t@	c #A9D92C",
"u@	c #93C833",
"v@	c #B2E02B",
"w@	c #BDE929",
"x@	c #BFEC29",
"y@	c #C2EE29",
"z@	c #81C338",
"A@	c #0C8A40",
"B@	c #0D7941",
"C@	c #0E7140",
"D@	c #17613C",
"E@	c #7BBFDD",
"F@	c #D3E573",
"G@	c #DBEF53",
"H@	c #BEBDBD",
"I@	c #241C1C",
"J@	c #B9B9B9",
"K@	c #ECECEC",
"L@	c #BBC5BA",
"M@	c #B1D423",
"N@	c #B0D625",
"O@	c #A6D127",
"P@	c #A6D328",
"Q@	c #A7D527",
"R@	c #A6D427",
"S@	c #A4D227",
"T@	c #A3D127",
"U@	c #A2D027",
"V@	c #A3D227",
"W@	c #A9D627",
"X@	c #A6D429",
"Y@	c #579C3A",
"Z@	c #4A953C",
"`@	c #5CA03A",
" #	c #AFDD2A",
".#	c #86C637",
"+#	c #0A9944",
"@#	c #0C8E40",
"##	c #0F7738",
"$#	c #0F6230",
"%#	c #5CA4BD",
"&#	c #97D1B9",
"*#	c #96D2BE",
"=#	c #74BDD8",
"-#	c #B9DE76",
";#	c #CEEB22",
">#	c #CCE837",
",#	c #E9ECE3",
"'#	c #AAA9A9",
")#	c #AFAEAE",
"!#	c #E1E1E1",
"~#	c #A0B89A",
"{#	c #A8D326",
"]#	c #A0CD5C",
"^#	c #89C14C",
"/#	c #85BF30",
"(#	c #8DC22A",
"_#	c #97C828",
":#	c #9BCA26",
"<#	c #9AC926",
"[#	c #99C826",
"}#	c #99C726",
"|#	c #98C726",
"1#	c #9AC826",
"2#	c #9BC926",
"3#	c #9CCA27",
"4#	c #9ECC26",
"5#	c #A0CE2B",
"6#	c #8CBE37",
"7#	c #48933F",
"8#	c #49933F",
"9#	c #49943E",
"0#	c #96C730",
"a#	c #B3E028",
"b#	c #87CB3B",
"c#	c #0D9F47",
"d#	c #0E8D40",
"e#	c #0E7C3A",
"f#	c #116A34",
"g#	c #4F93A4",
"h#	c #ADD058",
"i#	c #C7EE45",
"j#	c #75BED7",
"k#	c #6EBADA",
"l#	c #77BCC4",
"m#	c #A4CE58",
"n#	c #BDE326",
"o#	c #C0E726",
"p#	c #BBE427",
"q#	c #ADD18A",
"r#	c #EBEEEB",
"s#	c #F3F3F3",
"t#	c #F1F2F1",
"u#	c #C2CEC1",
"v#	c #79B030",
"w#	c #A2D123",
"x#	c #76BA3B",
"y#	c #7CB964",
"z#	c #85BC66",
"A#	c #99C377",
"B#	c #A0C673",
"C#	c #A8CA73",
"D#	c #AACC72",
"E#	c #A9CA6E",
"F#	c #A7CA6E",
"G#	c #A6C96A",
"H#	c #A3C764",
"I#	c #A4C865",
"J#	c #A6C969",
"K#	c #A7CA6B",
"L#	c #A9CB6D",
"M#	c #A8CB68",
"N#	c #A6CB60",
"O#	c #A3CA52",
"P#	c #85B641",
"Q#	c #46903F",
"R#	c #479140",
"S#	c #489240",
"T#	c #9BC845",
"U#	c #AED743",
"V#	c #AFDA3A",
"W#	c #78C53C",
"X#	c #09A145",
"Y#	c #0D8D3F",
"Z#	c #107839",
"`#	c #136333",
" $	c #488895",
".$	c #6FBBDD",
"+$	c #ADCB1E",
"@$	c #A9C31E",
"#$	c #7AB029",
"$$	c #7CB213",
"%$	c #87B81C",
"&$	c #ACD826",
"*$	c #B5E228",
"=$	c #B2DF27",
"-$	c #A7D826",
";$	c #75B042",
">$	c #85AC80",
",$	c #6F9F64",
"'$	c #70AC25",
")$	c #99CD1E",
"!$	c #98CC1D",
"~$	c #60B333",
"{$	c #41A738",
"]$	c #4EA735",
"^$	c #5DA931",
"/$	c #6CAB2D",
"($	c #79B029",
"_$	c #84B525",
":$	c #86B529",
"<$	c #86B52F",
"[$	c #88B536",
"}$	c #8BB73D",
"|$	c #8BB83D",
"1$	c #8BB73A",
"2$	c #89B733",
"3$	c #88B828",
"4$	c #89B925",
"5$	c #8CBB25",
"6$	c #8EBE26",
"7$	c #87B92A",
"8$	c #48903A",
"9$	c #448F3B",
"0$	c #6EA834",
"a$	c #9ECC27",
"b$	c #6ACA46",
"c$	c #08B54D",
"d$	c #099E45",
"e$	c #0D853D",
"f$	c #116E36",
"g$	c #488B96",
"h$	c #70BBDC",
"i$	c #A5C01C",
"j$	c #94A518",
"k$	c #94C51D",
"l$	c #AFDC25",
"m$	c #B4E127",
"n$	c #B0DE25",
"o$	c #ABDB22",
"p$	c #A5D71F",
"q$	c #9FD41D",
"r$	c #97CF1B",
"s$	c #93CC1A",
"t$	c #8FC919",
"u$	c #8CC718",
"v$	c #8BC519",
"w$	c #53B035",
"x$	c #2CA43C",
"y$	c #3EA238",
"z$	c #4FA233",
"A$	c #5EA32F",
"B$	c #6CA62A",
"C$	c #78AA26",
"D$	c #7AAB24",
"E$	c #79AA24",
"F$	c #7AAA24",
"G$	c #7BAB24",
"H$	c #7DAD25",
"I$	c #7EAF25",
"J$	c #81B125",
"K$	c #84B325",
"L$	c #86B625",
"M$	c #88B826",
"N$	c #7BB02B",
"O$	c #83B52A",
"P$	c #94C326",
"Q$	c #9CCB27",
"R$	c #A0CF27",
"S$	c #4BBE4A",
"T$	c #0FAD4D",
"U$	c #139747",
"V$	c #15813F",
"W$	c #156C37",
"X$	c #4E92A1",
"Y$	c #6FBBDC",
"Z$	c #A3BD1B",
"`$	c #90A118",
" %	c #A5D223",
".%	c #AFDC26",
"+%	c #B3E027",
"@%	c #AFDE24",
"#%	c #A8DA20",
"$%	c #A1D51D",
"%%	c #98D01A",
"&%	c #8FCB17",
"*%	c #87C615",
"=%	c #80C214",
"-%	c #7BBF13",
";%	c #79BD13",
">%	c #7ABC14",
",%	c #58B02F",
"'%	c #27A23C",
")%	c #389F38",
"!%	c #489D33",
"~%	c #579D2E",
"{%	c #639E2A",
"]%	c #689E28",
"^%	c #5F992B",
"/%	c #5B962C",
"(%	c #659B27",
"_%	c #6FA024",
":%	c #70A124",
"<%	c #71A324",
"[%	c #73A424",
"}%	c #76A724",
"|%	c #79A924",
"1%	c #76AE2A",
"2%	c #5DB23A",
"3%	c #319A3E",
"4%	c #2E7E36",
"5%	c #37672C",
"6%	c #80B270",
"7%	c #93C226",
"8%	c #97C626",
"9%	c #98C928",
"0%	c #1BAE4A",
"a%	c #0EA34F",
"b%	c #0B9846",
"c%	c #126E37",
"d%	c #5DA6BF",
"e%	c #A1BC43",
"f%	c #9AB21C",
"g%	c #AFDA27",
"h%	c #B6E328",
"i%	c #B3E127",
"j%	c #AFDE23",
"k%	c #A7DA1F",
"l%	c #9ED41B",
"m%	c #93CE18",
"n%	c #86C715",
"o%	c #7AC012",
"p%	c #6FBA10",
"q%	c #66B50F",
"r%	c #62B20E",
"s%	c #63B20E",
"t%	c #67B310",
"u%	c #65B11B",
"v%	c #329E39",
"w%	c #3E9B35",
"x%	c #4D9C31",
"y%	c #449433",
"z%	c #2E8F38",
"A%	c #0E873A",
"B%	c #09853B",
"C%	c #0A8139",
"D%	c #0E7A37",
"E%	c #48872E",
"F%	c #669823",
"G%	c #689A23",
"H%	c #6B9D23",
"I%	c #6CA126",
"J%	c #4EC145",
"K%	c #22C74E",
"L%	c #18AA48",
"M%	c #21923E",
"N%	c #267533",
"O%	c #305E37",
"P%	c #6CB7DA",
"Q%	c #81BD9D",
"R%	c #7FB830",
"S%	c #3F9B40",
"T%	c #119C44",
"U%	c #0D8F4C",
"V%	c #0C8149",
"W%	c #186F41",
"X%	c #6BB7DA",
"Y%	c #A1C05D",
"Z%	c #B2D825",
"`%	c #9CD29D",
" &	c #84C5C4",
".&	c #99D098",
"+&	c #A5D848",
"@&	c #9ED51B",
"#&	c #91CE18",
"$&	c #83C614",
"%&	c #72BD10",
"&&	c #61B30D",
"*&	c #51AB0B",
"=&	c #47A509",
"-&	c #45A309",
";&	c #4CA60A",
">&	c #57AB0C",
",&	c #5AA91D",
"'&	c #419A34",
")&	c #499F32",
"!&	c #64AE2B",
"~&	c #3F9635",
"{&	c #088C3C",
"]&	c #06923E",
"^&	c #078E3D",
"/&	c #09873B",
"(&	c #0B7E39",
"_&	c #107636",
":&	c #578C26",
"<&	c #609323",
"[&	c #649623",
"}&	c #40AC44",
"|&	c #1BC050",
"1&	c #1CB54A",
"2&	c #1A9F44",
"3&	c #218339",
"4&	c #256B31",
"5&	c #4D8188",
"6&	c #76B27C",
"7&	c #4D9031",
"8&	c #1C9040",
"9&	c #369145",
"0&	c #168740",
"a&	c #0D7B47",
"b&	c #419294",
"c&	c #A2D08C",
"d&	c #A8DB8A",
"e&	c #6EBBDC",
"f&	c #79C0C3",
"g&	c #7EC397",
"h&	c #74BE58",
"i&	c #60B306",
"j&	c #48A609",
"k&	c #319906",
"l&	c #229104",
"m&	c #299505",
"n&	c #3C9E08",
"o&	c #50A73F",
"p&	c #539D37",
"q&	c #529E2F",
"r&	c #5CAA2D",
"s&	c #76B726",
"t&	c #67AF30",
"u&	c #039C40",
"v&	c #05963F",
"w&	c #078F3D",
"x&	c #08893C",
"y&	c #0A8039",
"z&	c #0D7637",
"A&	c #478129",
"B&	c #5A8D22",
"C&	c #4F922E",
"D&	c #0BA24A",
"E&	c #0FA54A",
"F&	c #229C42",
"G&	c #298C39",
"H&	c #1E7435",
"I&	c #2F5F35",
"J&	c #68AFD0",
"K&	c #67B4D3",
"L&	c #247A3E",
"M&	c #2B7C34",
"N&	c #16823E",
"O&	c #268C51",
"P&	c #177643",
"Q&	c #63AFCC",
"R&	c #76BED6",
"S&	c #6DBAD9",
"T&	c #6AB7CB",
"U&	c #66B4C9",
"V&	c #61B1C5",
"W&	c #62B2C4",
"X&	c #64B4C4",
"Y&	c #6BB8D5",
"Z&	c #65ABA6",
"`&	c #609A2B",
" *	c #5FA52B",
".*	c #67AB2D",
"+*	c #2FA53E",
"@*	c #05983F",
"#*	c #08883B",
"$*	c #0D7436",
"%*	c #457F29",
"&*	c #508626",
"**	c #2F8134",
"=*	c #0F8841",
"-*	c #0E8943",
";*	c #288438",
">*	c #1E7436",
",*	c #31642D",
"'*	c #5D9CB6",
")*	c #438E8F",
"!*	c #227135",
"~*	c #1D7338",
"{*	c #157641",
"]*	c #419B95",
"^*	c #6CB5CD",
"/*	c #5FA38E",
"(*	c #088D3C",
"_*	c #049A40",
":*	c #088A3C",
"<*	c #09833A",
"[*	c #0C7A38",
"}*	c #0E7035",
"|*	c #508E6E",
"1*	c #578E96",
"2*	c #427157",
"3*	c #296A3D",
"4*	c #1F6937",
"5*	c #30663C",
"6*	c #46756F",
"7*	c #63A3C0",
"8*	c #61ABC8",
"9*	c #146333",
"0*	c #1C6E3E",
"a*	c #246E53",
"b*	c #69B5D6",
"c*	c #0F8B43",
"d*	c #0B8139",
"e*	c #0B7C38",
"f*	c #186E42",
"g*	c #6CB8DB",
"h*	c #6CB8DC",
"i*	c #6CB6D9",
"j*	c #6DB9DC",
"k*	c #2E6A62",
"l*	c #236651",
"m*	c #62AECB",
"n*	c #1E8452",
"o*	c #0B7F39",
"p*	c #0D7336",
"q*	c #0F6C34",
"r*	c #41888B",
"s*	c #69B4D6",
"t*	c #69B5D7",
"u*	c #388B7D",
"v*	c #0C7837",
"w*	c #106A34",
"x*	c #16653B",
"y*	c #66B1D0",
"z*	c #519CAA",
"A*	c #0F6D34",
"B*	c #106933",
"C*	c #116532",
"D*	c #166239",
"E*	c #5DA6C0",
"F*	c #1D6947",
"G*	c #126131",
"H*	c #135E31",
"I*	c #2F7066",
"J*	c #63ACCA",
"K*	c #599FB7",
"L*	c #61A9C6",
"                                                                                                ",
"                                                                                                ",
"                                                                                                ",
"                                                                                                ",
"                                                                                                ",
"                                                                                                ",
"                                                                                                ",
"                                                                                                ",
"                                    . + @ # $ % @ & * =                                         ",
"                                  - ; > > , ' ) ! ~ { ] ^ / (                                   ",
"                                  _ > > > : < [ } | 1 2 3 4 5 6 7                               ",
"                                  8 9 > > 0 a b c d e f g h i j k l                             ",
"                                    = m n o p q r s t u v w x y z A B                           ",
"                                C D E F G H I J K L M N O P Q R S T U V                         ",
"                              W X Y Z `  ...+.@.#.$.%.&.*.=.-.;.>.f ,.'.*                       ",
"                            ).!.~.{.].^./.(._.:.<.[.}.|.1.2.3.4.5.6.7.8.9.                      ",
"                          0.a.Y {.b.c.d.e.f.g.h.i.j.k.l.2.m.2.2.n.o.p.q.r.s.                    ",
"                        t.u.v.w.x.y.z.A.B.C.D.E.F.G.H.I.2.J.K.L.M.N.O.P.Q.R.          S.T.      ",
"                      U.V.W.X.y. .Y.Z.f.C.`. +.+++@+#+L.L.K.2.$+%+&+*+=+-+;+>+      ,+'+)+!+    ",
"                  ~+{+]+ .^+z./+(+_+:+<+[+}+|+1+2+3+4+5+6+7+5+8+9+0+a+b+c+d+e+    f+g+h+i+j+    ",
"                k+l+m+n+o+p+q+r+s+t+u+v+w+x+y+z+A+B+C+D+6+E+F+G+H+I+J+K+L+M+N+  O+P+Q+R+S+T+U+  ",
"              V+W+X+Y+Z+`+ @.@+@@@#@$@%@&@*@=@-@;@>@,@'@)@)@!@~@{@]@^@/@(@[ _@:@<@[@}@|@1@2@3@  ",
"              4@5@6@7@8@9@0@a@b@c@d@e@f@g@h@i@j@I+k@l@m@n@n@I+o@p@q@r@s@t@u@v@w@x@y@z@A@B@C@D@8 ",
"              E@F@G@H@I@I@J@K@L@M@N@O@P@Q@Q@R@S@T@T@U@U@U@T@V@S@R@Q@W@X@Y@Z@`@ #)@]@.#+#@###$#%#",
"  &#*#      =#-#;#>#,#'#)#!#l+~#{#]#^#/#(#_#:#<#[#}#|#|#|#}#1#2#3#4#5#6#7#8#9#0#i@a#b#c#d#e#f#g#",
"  h#i#j#k#l#m#n#o#p#q#r#s#t#u#v#w#x#y#z#A#B#C#D#E#F#G#H#I#J#K#L#M#N#O#P#Q#R#S#T#U#V#W#X#Y#Z#`# $",
".$+$@$#$$$%$&${@*$=$-$;$>$,$'$)$!$~${$]$^$/$($_$:$<$[$}$|$1$2$3$4$5$6$7$8$9$0$a$U@R@b$c$d$e$f$g$",
"h$i$j$k$l$;@;@m$n$o$p$q$r$s$t$u$v$w$x$y$z$A$B$C$D$E$E$E$F$G$H$I$J$K$L$M$N$O$P$|#Q$R$S$T$U$V$W$X$",
"Y$Z$`$ %.%)@+%@%#%$%%%&%*%=%-%;%>%,%'%)%!%~%{%]%^%/%(%_%:%<%[%}%|%1%2%3%4%5%6%7%8%9%0%a%b%e$c%d%",
"  e%f%g%h%i%j%k%l%m%n%o%p%q%r%s%t%u%v%w%x%y%z%A%B%C%D%E%F%G%H%I%J%K%L%M%N%O%P%Q%P$R%S%T%U%V%W%X%",
"  Y%Z%`% &.&+&@&#&$&%&&&*&=&-&;&>&,&'&)&!&~&{&]&^&/&(&_&:&<&[&}&|&1&2&3&4&5&  = 6&7&8&9&0&a&b&  ",
"  c&d&      e&f&g&h&i&j&k&l&m&n&o&p&q&r&s&t&u&v&w&x&y&z&A&B&C&D&E&F&G&H&I&J&    K&L&M&N&O&P&Q&  ",
"  R&Y$              S&T&U&V&W&X&Y&Z&`& *.*+*v&@*]&#*(&$*%*&***=*-*;*>*,*'*        )*!*~*{*]*    ",
"                                    ^*/*^&(*_*:*:*<*[*}*|*1*2*3*4*5*6*7*          8*9*0*a*b*    ",
"                                      . c*d*w&:*y&e*$*f*g*    h*i*j*                k*l*m*      ",
"                                        n*y&o*y&[*p*q*r*                            s*t*        ",
"                                        u*v*$*$*}*w*x*y*                                        ",
"                                        z*A*q*B*C*D*E*                                          ",
"                                        b*F*G*H*I*J*                                            ",
"                                          ,+K*L*                                                ",
"                                                                                                ",
"                                                                                                ",
"                                                                                                ",
"                                                                                                ",
"                                                                                                ",
"                                                                                                ",
"                                                                                                ",
"                                                                                                "};
