/* XPM */
static char * fish_3_xpm[] = {
"48 48 774 2",
"  	c #6DBADE",
". 	c #6CB9DC",
"+ 	c #63AFCA",
"@ 	c #5CA5BA",
"# 	c #59A4B8",
"$ 	c #59A5B7",
"% 	c #5AA5B8",
"& 	c #5DA8BD",
"* 	c #65B1CD",
"= 	c #6CB8DB",
"- 	c #509BA4",
"; 	c #247949",
"> 	c #217844",
", 	c #1D7544",
"' 	c #1C7C45",
") 	c #198146",
"! 	c #188647",
"~ 	c #18914D",
"{ 	c #199353",
"] 	c #2D9363",
"^ 	c #4B9F9C",
"/ 	c #60ACC2",
"( 	c #3F8C82",
"_ 	c #1E7A45",
": 	c #1A8046",
"< 	c #188747",
"[ 	c #168D48",
"} 	c #15984E",
"| 	c #139C50",
"1 	c #149B4B",
"2 	c #11964F",
"3 	c #16974A",
"4 	c #2A8A5A",
"5 	c #5BA3B4",
"6 	c #6BB8DB",
"7 	c #45918F",
"8 	c #1E7F45",
"9 	c #188247",
"0 	c #178D48",
"a 	c #14934A",
"b 	c #129F51",
"c 	c #11A34F",
"d 	c #10A24E",
"e 	c #10A14F",
"f 	c #12A04B",
"g 	c #108A44",
"h 	c #179147",
"i 	c #479689",
"j 	c #6CB8DC",
"k 	c #55A1B0",
"l 	c #1F7945",
"m 	c #228345",
"n 	c #228846",
"o 	c #1D9248",
"p 	c #11994A",
"q 	c #0EA453",
"r 	c #0FAA4E",
"s 	c #0DA950",
"t 	c #0DAD4E",
"u 	c #0DA14A",
"v 	c #0F9C49",
"w 	c #139F4B",
"x 	c #138E49",
"y 	c #469288",
"z 	c #6DBADD",
"A 	c #70BBDD",
"B 	c #A9D0BB",
"C 	c #C4DA8E",
"D 	c #D2E061",
"E 	c #DCEA2A",
"F 	c #99EF66",
"G 	c #C9DA21",
"H 	c #B1CB28",
"I 	c #AECC25",
"J 	c #C2E42E",
"K 	c #ABD736",
"L 	c #A0D93D",
"M 	c #68C244",
"N 	c #3BAE47",
"O 	c #0DAF4E",
"P 	c #0EA04C",
"Q 	c #11964B",
"R 	c #179549",
"S 	c #549FA5",
"T 	c #93C8CB",
"U 	c #E8F063",
"V 	c #F7F708",
"W 	c #E3E80E",
"X 	c #E4EA10",
"Y 	c #EEF311",
"Z 	c #DFF12C",
"` 	c #D0EE3D",
" .	c #E5F319",
"..	c #D7EA1D",
"+.	c #DEF41F",
"@.	c #C9EE27",
"#.	c #D4F726",
"$.	c #C8EE27",
"%.	c #CFFC2B",
"&.	c #9EDB3A",
"*.	c #4BB349",
"=.	c #10A74D",
"-.	c #1B9747",
";.	c #3D8D78",
">.	c #63AAC4",
",.	c #A5CFBF",
"'.	c #F6F832",
").	c #F8F807",
"!.	c #F5F60A",
"~.	c #F1F411",
"{.	c #BCF75D",
"].	c #EDF211",
"^.	c #DDF02D",
"/.	c #D2ED34",
"(.	c #D5EB25",
"_.	c #E1F51E",
":.	c #DAF323",
"<.	c #D6F625",
"[.	c #B2E92E",
"}.	c #D5FE29",
"|.	c #D4FF2A",
"1.	c #ABEA32",
"2.	c #B7F031",
"3.	c #55B647",
"4.	c #168C42",
"5.	c #138744",
"6.	c #32825A",
"7.	c #6CB7DA",
"8.	c #A0CDC2",
"9.	c #F7F814",
"0.	c #F2F40C",
"a.	c #EFF311",
"b.	c #DEF433",
"c.	c #E3EC15",
"d.	c #E7F217",
"e.	c #C8E32B",
"f.	c #9ED13B",
"g.	c #CEE620",
"h.	c #AACC22",
"i.	c #D9FA25",
"j.	c #C4F42C",
"k.	c #D1FE2C",
"l.	c #B4EA35",
"m.	c #12A44C",
"n.	c #18904A",
"o.	c #579AA5",
"p.	c #89C4D0",
"q.	c #F0F434",
"r.	c #F4F50A",
"s.	c #F3F50C",
"t.	c #F1F40D",
"u.	c #EFF30F",
"v.	c #EDF312",
"w.	c #EAF214",
"x.	c #D2E219",
"y.	c #E5F31A",
"z.	c #D2E828",
"A.	c #DFF51F",
"B.	c #DBF622",
"C.	c #D1F224",
"D.	c #C5EB26",
"E.	c #B8E328",
"F.	c #A3EC47",
"G.	c #D3FF2A",
"H.	c #D3FE2A",
"I.	c #CEF92A",
"J.	c #5EBA49",
"K.	c #10994F",
"L.	c #13904E",
"M.	c #2E8355",
"N.	c #6BB7DA",
"O.	c #63ABCA",
"P.	c #72BCDC",
"Q.	c #E1EC63",
"R.	c #F1F40E",
"S.	c #F0F40E",
"T.	c #ECF213",
"U.	c #E9F215",
"V.	c #E2F41C",
"W.	c #D9F325",
"X.	c #91DF4D",
"Y.	c #D7F726",
"Z.	c #B6E238",
"`.	c #D4FE29",
" +	c #D0FB2A",
".+	c #AFDB27",
"++	c #A7E13A",
"@+	c #139E4C",
"#+	c #179449",
"$+	c #1C8947",
"%+	c #60A2B8",
"&+	c #478B95",
"*+	c #1F7340",
"=+	c #60A9C4",
"-+	c #7BBEE0",
";+	c #7FBFE0",
">+	c #C2DD99",
",+	c #EDF311",
"'+	c #EBF213",
")+	c #EAF215",
"!+	c #E8F217",
"~+	c #E5F219",
"{+	c #E2F21B",
"]+	c #C8DF1E",
"^+	c #DCF21F",
"/+	c #D8F322",
"(+	c #C2EE33",
"_+	c #D0F527",
":+	c #CAF62B",
"<+	c #B3EE3E",
"[+	c #CCF72A",
"}+	c #C0EC29",
"|+	c #B5E128",
"1+	c #CCF82A",
"2+	c #CDF92A",
"3+	c #C4F12B",
"4+	c #49A343",
"5+	c #148744",
"6+	c #167B41",
"7+	c #4C8A8D",
"8+	c #62AEC9",
"9+	c #18723D",
"0+	c #186C3A",
"a+	c #2B7361",
"b+	c #6CB9DD",
"c+	c #C6DFEF",
"d+	c #F4F4F4",
"e+	c #E8EBC9",
"f+	c #EDF46B",
"g+	c #F4F8BB",
"h+	c #EDF2BB",
"i+	c #D8E474",
"j+	c #E4EF18",
"k+	c #E3F018",
"l+	c #E0EF1A",
"m+	c #DCEE1C",
"n+	c #D8ED1E",
"o+	c #D4ED20",
"p+	c #D0ED22",
"q+	c #CBED24",
"r+	c #C7ED27",
"s+	c #C3EE29",
"t+	c #C1EE2A",
"u+	c #B1E836",
"v+	c #C1ED29",
"w+	c #BBE729",
"x+	c #BFEE2F",
"y+	c #A7F35A",
"z+	c #C3EF29",
"A+	c #AEDB28",
"B+	c #96CC33",
"C+	c #1C8E47",
"D+	c #198345",
"E+	c #3C7D66",
"F+	c #28835F",
"G+	c #13793B",
"H+	c #0C7435",
"I+	c #0D6B32",
"J+	c #5CA3BE",
"K+	c #70B1D1",
"L+	c #A2A0A0",
"M+	c #8D8E79",
"N+	c #EDF59B",
"O+	c #F4F4EF",
"P+	c #FAFAFA",
"Q+	c #EEEEEE",
"R+	c #E6E6E5",
"S+	c #BACF81",
"T+	c #D8EA1C",
"U+	c #D4E91D",
"V+	c #D0E81F",
"W+	c #CBE721",
"X+	c #C7E623",
"Y+	c #C2E624",
"Z+	c #BDE627",
"`+	c #BAE628",
" @	c #B8E528",
".@	c #B8E428",
"+@	c #AAD727",
"@@	c #A2D026",
"#@	c #B7E428",
"$@	c #B6E52B",
"%@	c #A4E950",
"&@	c #B9E628",
"*@	c #BAE728",
"=@	c #BCE828",
"-@	c #8EC738",
";@	c #278945",
">@	c #4D8F8D",
",@	c #81C4CD",
"'@	c #ACDF7E",
")@	c #9DD132",
"!@	c #0D873B",
"~@	c #0C7D39",
"{@	c #106B3B",
"]@	c #3A8486",
"^@	c #71ABC9",
"/@	c #3C3A26",
"(@	c #C4D228",
"_@	c #D2D4BE",
":@	c #575454",
"<@	c #8D8C8C",
"[@	c #CECECE",
"}@	c #E4E4E4",
"|@	c #B9C4B5",
"1@	c #C4DF20",
"2@	c #C7E220",
"3@	c #C2E122",
"4@	c #BDE023",
"5@	c #B8DF25",
"6@	c #B3DE27",
"7@	c #B0DD28",
"8@	c #AFDC28",
"9@	c #ADDB28",
"0@	c #ACD927",
"a@	c #ABD827",
"b@	c #ADDA28",
"c@	c #AEDC28",
"d@	c #AFDD28",
"e@	c #B1DE28",
"f@	c #B2DF28",
"g@	c #B4E128",
"h@	c #A8D733",
"i@	c #89C287",
"j@	c #A8DA6C",
"k@	c #BDE929",
"l@	c #BFEC29",
"m@	c #C2EE29",
"n@	c #55A83D",
"o@	c #0D7D40",
"p@	c #0D7341",
"q@	c #1A6444",
"r@	c #7BBFDD",
"s@	c #D3E573",
"t@	c #DBEF53",
"u@	c #BEBDBD",
"v@	c #241C1C",
"w@	c #B9B9B9",
"x@	c #ECECEC",
"y@	c #BBC5BA",
"z@	c #B1D423",
"A@	c #B0D625",
"B@	c #A6D127",
"C@	c #A6D328",
"D@	c #A7D527",
"E@	c #A6D427",
"F@	c #A4D227",
"G@	c #A3D127",
"H@	c #A2D027",
"I@	c #A3D227",
"J@	c #A9D627",
"K@	c #A6D429",
"L@	c #579C3A",
"M@	c #4A953C",
"N@	c #5CA03A",
"O@	c #AFDD2A",
"P@	c #78BD3B",
"Q@	c #0B9342",
"R@	c #0E7B3A",
"S@	c #0F622F",
"T@	c #61AAC8",
"U@	c #74BDD8",
"V@	c #B9DE76",
"W@	c #CEEB22",
"X@	c #CCE837",
"Y@	c #E9ECE3",
"Z@	c #AAA9A9",
"`@	c #AFAEAE",
" #	c #E1E1E1",
".#	c #A0B89A",
"+#	c #A8D326",
"@#	c #A0CD5C",
"##	c #89C14C",
"$#	c #85BF30",
"%#	c #8DC22A",
"&#	c #97C828",
"*#	c #9BCA26",
"=#	c #9AC926",
"-#	c #99C826",
";#	c #99C726",
">#	c #98C726",
",#	c #9AC826",
"'#	c #9BC926",
")#	c #9CCA27",
"!#	c #9ECC26",
"~#	c #A0CE2B",
"{#	c #8CBE37",
"]#	c #48933F",
"^#	c #49933F",
"/#	c #49943E",
"(#	c #96C730",
"_#	c #B3E028",
":#	c #7BC43B",
"<#	c #0E9342",
"[#	c #0E7F3B",
"}#	c #116A34",
"|#	c #569CB2",
"1#	c #7DC2D4",
"2#	c #78C0D8",
"3#	c #6EBADB",
"4#	c #78BCC4",
"5#	c #A4CF58",
"6#	c #BFE426",
"7#	c #C0E726",
"8#	c #BBE427",
"9#	c #ADD18A",
"0#	c #EBEEEB",
"a#	c #F3F3F3",
"b#	c #F1F2F1",
"c#	c #C2CEC1",
"d#	c #79B030",
"e#	c #A2D123",
"f#	c #76BA3B",
"g#	c #7CB964",
"h#	c #85BC66",
"i#	c #99C377",
"j#	c #A0C673",
"k#	c #A8CA73",
"l#	c #AACC72",
"m#	c #A9CA6E",
"n#	c #A7CA6E",
"o#	c #A6C96A",
"p#	c #A3C764",
"q#	c #A4C865",
"r#	c #A6C969",
"s#	c #A7CA6B",
"t#	c #A9CB6D",
"u#	c #A8CB68",
"v#	c #A6CB60",
"w#	c #A3CA52",
"x#	c #85B641",
"y#	c #46903F",
"z#	c #479140",
"A#	c #489240",
"B#	c #9BC845",
"C#	c #AED743",
"D#	c #AFDA3A",
"E#	c #73BF3C",
"F#	c #0C9341",
"G#	c #0F7B3A",
"H#	c #136433",
"I#	c #5194A8",
"J#	c #A4C874",
"K#	c #C6F24A",
"L#	c #5E9F55",
"M#	c #6CA60F",
"N#	c #8CBC1E",
"O#	c #B0DC27",
"P#	c #B5E228",
"Q#	c #B2DF27",
"R#	c #A7D826",
"S#	c #75B042",
"T#	c #85AC80",
"U#	c #6F9F64",
"V#	c #70AC25",
"W#	c #99CD1E",
"X#	c #98CC1D",
"Y#	c #60B333",
"Z#	c #41A738",
"`#	c #4EA735",
" $	c #5DA931",
".$	c #6CAB2D",
"+$	c #79B029",
"@$	c #84B525",
"#$	c #86B529",
"$$	c #86B52F",
"%$	c #88B536",
"&$	c #8BB73D",
"*$	c #8BB83D",
"=$	c #8BB73A",
"-$	c #89B733",
";$	c #88B828",
">$	c #89B925",
",$	c #8CBB25",
"'$	c #8EBE26",
")$	c #87B92A",
"!$	c #48903A",
"~$	c #448F3B",
"{$	c #6EA834",
"]$	c #9ECC27",
"^$	c #61C344",
"/$	c #08A547",
"($	c #0D893E",
"_$	c #116F36",
":$	c #5196A8",
"<$	c #98B35A",
"[$	c #B9DC24",
"}$	c #8DBF1C",
"|$	c #B9E627",
"1$	c #B4E027",
"2$	c #B4E127",
"3$	c #B0DE25",
"4$	c #ABDB22",
"5$	c #A5D71F",
"6$	c #9FD41D",
"7$	c #97CF1B",
"8$	c #93CC1A",
"9$	c #8FC919",
"0$	c #8CC718",
"a$	c #8BC519",
"b$	c #53B035",
"c$	c #2CA43C",
"d$	c #3EA238",
"e$	c #4FA233",
"f$	c #5EA32F",
"g$	c #6CA62A",
"h$	c #78AA26",
"i$	c #7AAB24",
"j$	c #79AA24",
"k$	c #7AAA24",
"l$	c #7BAB24",
"m$	c #7DAD25",
"n$	c #7EAF25",
"o$	c #81B125",
"p$	c #84B325",
"q$	c #86B625",
"r$	c #8AB925",
"s$	c #87B828",
"t$	c #94C326",
"u$	c #9CCB27",
"v$	c #A0CE27",
"w$	c #38B84B",
"x$	c #129E49",
"y$	c #148441",
"z$	c #156D38",
"A$	c #559BAF",
"B$	c #94AE59",
"C$	c #ABC920",
"D$	c #ABD725",
"E$	c #BBE728",
"F$	c #B3E027",
"G$	c #AFDE24",
"H$	c #A8DA20",
"I$	c #A1D51D",
"J$	c #98D01A",
"K$	c #8FCB17",
"L$	c #87C615",
"M$	c #80C214",
"N$	c #7BBF13",
"O$	c #79BD13",
"P$	c #7ABC14",
"Q$	c #58B02F",
"R$	c #27A23C",
"S$	c #389F38",
"T$	c #489D33",
"U$	c #579D2E",
"V$	c #619D2A",
"W$	c #6EA125",
"X$	c #70A124",
"Y$	c #6FA024",
"Z$	c #71A324",
"`$	c #73A424",
" %	c #76A724",
".%	c #79A924",
"+%	c #78AD27",
"@%	c #6BAF31",
"#%	c #5EA234",
"$%	c #679B2C",
"%%	c #76A427",
"&%	c #8FBE24",
"*%	c #93C226",
"=%	c #97C626",
"-%	c #86C331",
";%	c #0EA84E",
">%	c #0C9C4A",
",%	c #126E36",
"'%	c #62ACC9",
")%	c #94AE5A",
"!%	c #B3D724",
"~%	c #B9E528",
"{%	c #B3E127",
"]%	c #AFDE23",
"^%	c #A7DA1F",
"/%	c #9ED41B",
"(%	c #93CE18",
"_%	c #86C715",
":%	c #7AC012",
"<%	c #6FBA10",
"[%	c #66B50F",
"}%	c #62B20E",
"|%	c #63B20E",
"1%	c #67B310",
"2%	c #65B11B",
"3%	c #329E39",
"4%	c #429D34",
"5%	c #3B9535",
"6%	c #238C39",
"7%	c #148339",
"8%	c #3E8631",
"9%	c #659723",
"0%	c #649723",
"a%	c #649623",
"b%	c #669823",
"c%	c #689A23",
"d%	c #6B9D23",
"e%	c #6CA126",
"f%	c #4FBF43",
"g%	c #20C04D",
"h%	c #16A547",
"i%	c #288C39",
"j%	c #216E33",
"k%	c #437166",
"l%	c #70BAD6",
"m%	c #7BB78E",
"n%	c #83B528",
"o%	c #54A13B",
"p%	c #299D44",
"q%	c #0C9349",
"r%	c #0C834B",
"s%	c #1B7148",
"t%	c #A1C46F",
"u%	c #B5E365",
"v%	c #92CDB4",
"w%	c #84C5C4",
"x%	c #99D098",
"y%	c #A5D848",
"z%	c #9ED51B",
"A%	c #91CE18",
"B%	c #83C614",
"C%	c #72BD10",
"D%	c #61B30D",
"E%	c #51AB0B",
"F%	c #47A509",
"G%	c #45A309",
"H%	c #4CA60A",
"I%	c #57AB0C",
"J%	c #5AA91D",
"K%	c #429B34",
"L%	c #5AA82E",
"M%	c #369337",
"N%	c #088C3C",
"O%	c #08883B",
"P%	c #0C7B38",
"Q%	c #508828",
"R%	c #5A8D22",
"S%	c #5B8E22",
"T%	c #5D9023",
"U%	c #609323",
"V%	c #40B044",
"W%	c #1CC04F",
"X%	c #20B046",
"Y%	c #1A9841",
"Z%	c #1B7E39",
"`%	c #2F682B",
" &	c #5794A8",
".&	c #39845B",
"+&	c #268939",
"@&	c #319142",
"#&	c #228C43",
"$&	c #0D7C43",
"%&	c #439396",
"&&	c #79BED2",
"*&	c #71BCDB",
"=&	c #6EBBDC",
"-&	c #79C0C3",
";&	c #7EC397",
">&	c #74BE58",
",&	c #60B306",
"'&	c #48A609",
")&	c #319906",
"!&	c #229104",
"~&	c #299505",
"{&	c #3C9E08",
"]&	c #50A73F",
"^&	c #539D37",
"/&	c #55A02E",
"(&	c #70B428",
"_&	c #4EA737",
":&	c #05953F",
"<&	c #088B3C",
"[&	c #0B7E39",
"}&	c #3D7D2B",
"|&	c #508322",
"1&	c #508422",
"2&	c #538622",
"3&	c #568922",
"4&	c #4C9632",
"5&	c #0AA44C",
"6&	c #1EA646",
"7&	c #1B9A42",
"8&	c #258839",
"9&	c #287031",
"0&	c #346554",
"a&	c #58A5B6",
"b&	c #2E7931",
"c&	c #17813B",
"d&	c #258A4C",
"e&	c #197B46",
"f&	c #61ACC7",
"g&	c #6DBAD9",
"h&	c #6AB7CB",
"i&	c #66B4C9",
"j&	c #61B1C5",
"k&	c #62B2C4",
"l&	c #64B4C4",
"m&	c #6BB8D5",
"n&	c #65ABA6",
"o&	c #5F992B",
"p&	c #5DA72F",
"q&	c #219F3F",
"r&	c #04993F",
"s&	c #078D3D",
"t&	c #0B7D38",
"u&	c #36782B",
"v&	c #477B21",
"w&	c #4A7D21",
"x&	c #4E8122",
"y&	c #518825",
"z&	c #2C8638",
"A&	c #0D8B45",
"B&	c #128B40",
"C&	c #298337",
"D&	c #2A7431",
"E&	c #2A5D31",
"F&	c #65A9C6",
"G&	c #1D7447",
"H&	c #267336",
"I&	c #13723A",
"J&	c #32927D",
"K&	c #6CB5CD",
"L&	c #269153",
"M&	c #05963F",
"N&	c #0C7937",
"O&	c #3E7B2A",
"P&	c #4D8122",
"Q&	c #4F8222",
"R&	c #528524",
"S&	c #5A936E",
"T&	c #497C72",
"U&	c #366B39",
"V&	c #1A6F3B",
"W&	c #1B6C35",
"X&	c #33672C",
"Y&	c #42726F",
"Z&	c #67AAC9",
"`&	c #448A90",
" *	c #196938",
".*	c #196B40",
"+*	c #62ADCA",
"@*	c #2A9369",
"#*	c #09883B",
"$*	c #08893C",
"%*	c #0A8039",
"&*	c #0D7336",
"**	c #589C9D",
"=*	c #63A6AE",
"-*	c #66ADBD",
";*	c #6BB5D3",
">*	c #6AB1D3",
",*	c #6AAFD1",
"'*	c #6CB5D8",
")*	c #5FA6C2",
"!*	c #15562F",
"~*	c #4F98A8",
"{*	c #2C8B69",
"]*	c #0B7F39",
"^*	c #0C7737",
"/*	c #136D3A",
"(*	c #66B0D0",
"_*	c #3E8F88",
":*	c #0D7737",
"<*	c #0D7536",
"[*	c #0F6D34",
"}*	c #3F8686",
"|*	c #469196",
"1*	c #106A34",
"2*	c #16653A",
"3*	c #63ADCB",
"4*	c #58A0B6",
"5*	c #126231",
"6*	c #135E31",
"7*	c #5499AD",
"8*	c #5398AC",
"9*	c #60A9C6",
"                                                                                                ",
"                                                                                                ",
"                                                                                                ",
"                                                                                                ",
"                                                                                                ",
"                                                                                                ",
"                                                                                                ",
"                                                                                                ",
"                                    . + @ # $ % & * =                                           ",
"                                  - ; > > , ' ) ! ~ { ] ^ / .                                   ",
"                                  ( > > > _ : < [ } | 1 2 3 4 5                                 ",
"                                  6 7 > > 8 9 0 a b c d e f g h i j                             ",
"                                      k l m n o p q r s t u v w x y z                           ",
"                                A B C D E F G H I J K L M N O P Q R S                           ",
"                              T U V W X Y Z `  ...+.@.#.$.%.&.*.=.-.;.>.                        ",
"                            ,.'.).!.~.{.].^./.(._.:.<.[.}.|.1.2.3.4.5.6.7.                      ",
"                          8.9.V !.0.a.b.c.d.e.f.g.h.i.j.|.k.|.|.l.m.1 n.o.                      ",
"                        p.q.r.s.t.u.v.w.x.y.z.A.B.C.D.E.|.F.G.H.I.J.K.L.M.=         N.O.        ",
"                      P.Q.R.S.u.Y T.U.d.y.V.W.X.Y.Z.`.H.H.G.|. +.+++@+#+$+%+        &+*+=+      ",
"                  -+;+>+Y ,+v.'+)+!+~+{+]+^+/+(+_+:+<+[+}+|+[+1+2+3+4+5+6+7+      8+9+0+a+b+    ",
"                c+d+e+f+g+h+i+j+k+l+m+n+o+p+q+r+s+t+u+v+}+w+x+y+z+A+B+C+D+E+    6 F+G+H+I+J+    ",
"              K+L+M+N+O+P+Q+R+S+T+U+V+W+X+Y+Z+`+ @.@+@@@#@#@$@%@&@*@=@-@;@>@  ,@'@)@!@~@{@]@    ",
"              ^@/@(@_@:@<@[@}@|@1@2@3@4@5@6@7@8@A+9@0@a@b@b@A+c@d@e@f@g@h@i@j@k@l@m@n@o@p@q@=   ",
"              r@s@t@u@v@v@w@x@y@z@A@B@C@D@D@E@F@G@G@H@H@H@G@I@F@E@D@J@K@L@M@N@O@#@*@P@Q@R@S@T@  ",
"            U@V@W@X@Y@Z@`@ #d+.#+#@###$#%#&#*#=#-#;#>#>#>#;#,#'#)#!#~#{#]#^#/#(#7@_#:#<#[#}#|#  ",
"  1#2#z 3#4#5#6#7#8#9#0#a#b#c#d#e#f#g#h#i#j#k#l#m#n#o#p#q#r#s#t#u#v#w#x#y#z#A#B#C#D#E#F#G#H#I#  ",
"  J#K#L#M#N#O#`+P#Q#R#S#T#U#V#W#X#Y#Z#`# $.$+$@$#$$$%$&$*$=$-$;$>$,$'$)$!$~${$]$H@E@^$/$($_$:$  ",
"  <$[$}$|$1$ @2$3$4$5$6$7$8$9$0$a$b$c$d$e$f$g$h$i$j$j$j$k$l$m$n$o$p$q$r$s$)$t$>#u$v$w$x$y$z$A$  ",
"  B$C$D$E$#@F$G$H$I$J$K$L$M$N$O$P$Q$R$S$T$U$V$W$X$Y$Y$Y$X$Z$`$ %.%+%@%#%$%%%&%*%=%-%;%>%($,%'%  ",
"  )%!%~% @{%]%^%/%(%_%:%<%[%}%|%1%2%3%4%5%6%7%8%9%0%a%9%b%c%d%e%f%g%h%i%j%k%l%m%n%o%p%q%r%s%.   ",
"  t%u%v%w%x%y%z%A%B%C%D%E%F%G%H%I%J%K%L%M%N%O%P%Q%R%R%S%T%U%a%V%W%X%Y%Z%`% &  6 .&+&@&#&$&%&    ",
"  &&*&      =&-&;&>&,&'&)&!&~&{&]&^&/&(&_&:&<&[&}&|&1&2&3&R%4&5&6&7&8&9&0&7.    a&b&c&d&e&f&    ",
"                    g&h&i&j&k&l&m&n&o&p&q&r&s&t&u&v&w&x&2&y&z&A&B&C&D&E&F&      6 G&H&I&J&      ",
"                                    K&L&M&s&O%N&O&P&Q&R&S&T&U&V&W&X&Y&Z&          `& *.*+*      ",
"                                      @*#*$*%*&***=*-*;*    j >*,*'*              )*!*~*        ",
"                                      {*]*%*^*/*6                                   (*          ",
"                                      _*:*<*[*}*                                                ",
"                                      |*[*1*2*3*                                                ",
"                                      4*5*6*7*                                                  ",
"                                      . 8*9*                                                    ",
"                                                                                                ",
"                                                                                                ",
"                                                                                                ",
"                                                                                                ",
"                                                                                                ",
"                                                                                                ",
"                                                                                                ",
"                                                                                                "};
