/* XPM */
static char * ice_xpm[] = {
"48 48 918 2",
"  	c #6DBADE",
". 	c #6CB9DC",
"+ 	c #3C6B80",
"@ 	c #284A5A",
"# 	c #67B1D3",
"$ 	c #6CB9DD",
"% 	c #3D6C82",
"& 	c #111313",
"* 	c #18333A",
"= 	c #1A323D",
"- 	c #64ABCD",
"; 	c #3F6F86",
"> 	c #767D7F",
", 	c #9EA7A9",
"' 	c #115467",
") 	c #5B9AAC",
"! 	c #1F3944",
"~ 	c #5FA3C3",
"{ 	c #6DB9DD",
"] 	c #417289",
"^ 	c #737A7B",
"/ 	c #E7F4F7",
"( 	c #A9B3B5",
"_ 	c #004D61",
": 	c #2F8EAA",
"< 	c #79BCCE",
"[ 	c #233B42",
"} 	c #5897B5",
"| 	c #43758D",
"1 	c #707779",
"2 	c #E6F4F6",
"3 	c #EEFCFF",
"4 	c #004C60",
"5 	c #007E9D",
"6 	c #4CA1BB",
"7 	c #8AD0E2",
"8 	c #2F4B52",
"9 	c #4D87A1",
"0 	c #447890",
"a 	c #6D7476",
"b 	c #E5F3F6",
"c 	c #A9B3B6",
"d 	c #004C5F",
"e 	c #67B8CF",
"f 	c #92DBEE",
"g 	c #3E616A",
"h 	c #467A93",
"i 	c #6A7172",
"j 	c #E4F2F5",
"k 	c #AAB4B6",
"l 	c #004B5F",
"m 	c #037F9E",
"n 	c #7ECDE3",
"o 	c #97E2F5",
"p 	c #4E7782",
"q 	c #3D6B81",
"r 	c #6BB7DA",
"s 	c #477D96",
"t 	c #676E6F",
"u 	c #E3F1F4",
"v 	c #004B5E",
"w 	c #1E86A4",
"x 	c #8EDDF1",
"y 	c #9AE7FB",
"z 	c #5C8C99",
"A 	c #2F5667",
"B 	c #69B3D6",
"C 	c #497F99",
"D 	c #646A6C",
"E 	c #E3F0F3",
"F 	c #AAB5B7",
"G 	c #004A5E",
"H 	c #3C95B1",
"I 	c #98E6FA",
"J 	c #9CEAFD",
"K 	c #6AA0AE",
"L 	c #213F4C",
"M 	c #65ADCF",
"N 	c #4B829C",
"O 	c #5E6466",
"P 	c #E2EFF2",
"Q 	c #ABB5B7",
"R 	c #004A5D",
"S 	c #6DBDD4",
"T 	c #9DEBFF",
"U 	c #9DEAFE",
"V 	c #6497A4",
"W 	c #11242D",
"X 	c #65ADCE",
"Y 	c #2B2E2F",
"Z 	c #99A3A5",
"` 	c #D8E5E8",
" .	c #ABB5B8",
"..	c #318EAB",
"+.	c #7DCBE1",
"@.	c #95E1F4",
"#.	c #78B5C5",
"$.	c #466C75",
"%.	c #324F56",
"&.	c #17272B",
"*.	c #5EA2C1",
"=.	c #2B4F60",
"-.	c #AFBEC2",
";.	c #A9B7BB",
">.	c #535A5C",
",.	c #747B7D",
"'.	c #BEC9CC",
").	c #E8F6F9",
"!.	c #ACB6B8",
"~.	c #00495C",
"{.	c #1984A2",
"].	c #6BBAD1",
"^.	c #7FC3D4",
"/.	c #5C8D99",
"(.	c #16262A",
"_.	c #486E78",
":.	c #7FBECF",
"<.	c #99E4F8",
"[.	c #162428",
"}.	c #366074",
"|.	c #E7FAFF",
"1.	c #E5F7FC",
"2.	c #C1D1D5",
"3.	c #7A8587",
"4.	c #3E4243",
"5.	c #9DA6A9",
"6.	c #D7E3E6",
"7.	c #ACB6B9",
"8.	c #044B5E",
"9.	c #3F90A8",
"0.	c #5B94A4",
"a.	c #335057",
"b.	c #0D191C",
"c.	c #5A8995",
"d.	c #7DC1D3",
"e.	c #7DC8DC",
"f.	c #6DB8CD",
"g.	c #95DFF2",
"h.	c #000000",
"i.	c #79A4B1",
"j.	c #E3F9FF",
"k.	c #D4E5EA",
"l.	c #9BA8AB",
"m.	c #393F40",
"n.	c #36393A",
"o.	c #0B1C21",
"p.	c #040A0C",
"q.	c #021920",
"r.	c #2A6070",
"s.	c #5094A8",
"t.	c #39869E",
"u.	c #046B86",
"v.	c #006A85",
"w.	c #4894AB",
"x.	c #8CD2E4",
"y.	c #0D1F27",
"z.	c #4C849E",
"A.	c #3F8B9E",
"B.	c #BDEFFF",
"C.	c #E6FAFF",
"D.	c #E1F3F8",
"E.	c #889FA6",
"F.	c #00495D",
"G.	c #006781",
"H.	c #006A84",
"I.	c #59A0B5",
"J.	c #81C1D2",
"K.	c #294B5C",
"L.	c #6AB5D8",
"M.	c #5C9FBE",
"N.	c #4F89A4",
"O.	c #5694B2",
"P.	c #337283",
"Q.	c #ADECFF",
"R.	c #BBEFFF",
"S.	c #E5F9FF",
"T.	c #74BED3",
"U.	c #006179",
"V.	c #006883",
"W.	c #5FA8BD",
"X.	c #77B4C3",
"Y.	c #39657A",
"Z.	c #68B2D5",
"`.	c #599AB8",
" +	c #477C95",
".+	c #2A4B5B",
"++	c #464B4C",
"@+	c #5F6365",
"#+	c #081012",
"$+	c #3E6E84",
"%+	c #6AB6D9",
"&+	c #356073",
"*+	c #17333E",
"=+	c #528FAB",
"-+	c #6CB8DC",
";+	c #5C9EBD",
">+	c #2A5D6B",
",+	c #9CE8FF",
"'+	c #96E7FF",
")+	c #B9EEFF",
"!+	c #C7F2FF",
"~+	c #56B8D2",
"{+	c #00657E",
"]+	c #006984",
"^+	c #006782",
"/+	c #005F77",
"(+	c #4D8899",
"_+	c #486F79",
":+	c #3B3F41",
"<+	c #7D8384",
"[+	c #A6AEB0",
"}+	c #C8D1D3",
"|+	c #E1EBEE",
"1+	c #EFFAFD",
"2+	c #787E7F",
"3+	c #406F7D",
"4+	c #3C545A",
"5+	c #5390AD",
"6+	c #69B4D7",
"7+	c #2A4C5D",
"8+	c #7A898D",
"9+	c #0E4A5B",
"0+	c #3FA6C1",
"a+	c #326B7E",
"b+	c #5B9DBC",
"c+	c #63AACB",
"d+	c #253538",
"e+	c #AEECFD",
"f+	c #E8FAFF",
"g+	c #82E4FF",
"h+	c #72E1FF",
"i+	c #DAF7FF",
"j+	c #90E6FF",
"k+	c #56B7D1",
"l+	c #006680",
"m+	c #006882",
"n+	c #00556B",
"o+	c #090A0B",
"p+	c #AFB7BA",
"q+	c #DCE6E8",
"r+	c #F1FCFF",
"s+	c #C5CED1",
"t+	c #003341",
"u+	c #0D6379",
"v+	c #74A2AD",
"w+	c #2E4349",
"x+	c #62A8C9",
"y+	c #67B0D3",
"z+	c #2C4B5A",
"A+	c #B0B7B9",
"B+	c #D6E4E8",
"C+	c #00485C",
"D+	c #1B88A6",
"E+	c #55D0F1",
"F+	c #3E9BB3",
"G+	c #366377",
"H+	c #030404",
"I+	c #B4EAF8",
"J+	c #F0FCFF",
"K+	c #6AE0FF",
"L+	c #86E4FF",
"M+	c #55B7D1",
"N+	c #000609",
"O+	c #00657F",
"P+	c #003949",
"Q+	c #99A4A6",
"R+	c #6E7375",
"S+	c #E5EFF2",
"T+	c #ECF7FA",
"U+	c #595E60",
"V+	c #00586D",
"W+	c #006077",
"X+	c #6094A2",
"Y+	c #75A0AA",
"Z+	c #2C4955",
"`+	c #384A54",
" @	c #C5CED0",
".@	c #F2FCFF",
"+@	c #CFD8DB",
"@@	c #005166",
"#@	c #007795",
"$@	c #2895B3",
"%@	c #5ADAFC",
"&@	c #54CAEA",
"*@	c #2D7486",
"=@	c #A6DCE9",
"-@	c #EDFCFF",
";@	c #EDFBFF",
">@	c #9CEAFF",
",@	c #70E1FF",
"'@	c #55B7D0",
")@	c #000F15",
"!@	c #00647D",
"~@	c #394346",
"{@	c #E6F6FA",
"]@	c #CBD9DC",
"^@	c #696E70",
"/@	c #B1B9BB",
"(@	c #003E4E",
"_@	c #357487",
":@	c #82B1BC",
"<@	c #6C949D",
"[@	c #396478",
"}@	c #62A8C8",
"|@	c #515D63",
"1@	c #D6DFE1",
"2@	c #BFC7CA",
"3@	c #005B72",
"4@	c #3AACCB",
"5@	c #5CDCFE",
"6@	c #47AECA",
"7@	c #143B46",
"8@	c #9DD0DD",
"9@	c #B5F0FF",
"0@	c #AEEEFF",
"a@	c #86E5FF",
"b@	c #54B5CE",
"c@	c #001922",
"d@	c #00546A",
"e@	c #458DA0",
"f@	c #E2F9FF",
"g@	c #EBFBFF",
"h@	c #CDDBDF",
"i@	c #63696A",
"j@	c #DDE7EA",
"k@	c #384043",
"l@	c #005C72",
"m@	c #016077",
"n@	c #74A5B1",
"o@	c #5B7D85",
"p@	c #5FA4C4",
"q@	c #6C757A",
"r@	c #E2EBEE",
"s@	c #B2B9BB",
"t@	c #00617A",
"u@	c #1F8BA9",
"v@	c #4FC6E5",
"w@	c #307B8F",
"x@	c #378AA0",
"y@	c #53C9E8",
"z@	c #010303",
"A@	c #92C3CF",
"B@	c #DEF8FF",
"C@	c #DFF8FF",
"D@	c #59B3CB",
"E@	c #001F29",
"F@	c #006983",
"G@	c #003848",
"H@	c #6AC1D9",
"I@	c #CFDDE1",
"J@	c #5C6263",
"K@	c #D8E2E5",
"L@	c #99A0A2",
"M@	c #00485A",
"N@	c #005E75",
"O@	c #00566B",
"P@	c #00495B",
"Q@	c #365963",
"R@	c #41555A",
"S@	c #4F595C",
"T@	c #142933",
"U@	c #5B9CBB",
"V@	c #868D8F",
"W@	c #EAF4F7",
"X@	c #9BA2A4",
"Y@	c #238FAD",
"Z@	c #42A7C2",
"`@	c #1B4A57",
" #	c #41A6C2",
".#	c #3AAFCF",
"+#	c #4EC9EA",
"@#	c #215867",
"##	c #86B2BD",
"$#	c #D6F6FF",
"%#	c #D8F7FF",
"&#	c #8ABAC7",
"*#	c #00232E",
"=#	c #2B474F",
"-#	c #A7E8FB",
";#	c #E9FBFF",
">#	c #D1DFE3",
",#	c #555A5B",
"'#	c #161C1E",
")#	c #003D4C",
"!#	c #002B36",
"~#	c #101B1F",
"{#	c #616D70",
"]#	c #758D95",
"^#	c #84A3AF",
"/#	c #C3DBE2",
"(#	c #788689",
"_#	c #5796B4",
":#	c #969EA0",
"<#	c #EFF9FC",
"[#	c #898F90",
"}#	c #1A7A94",
"|#	c #297185",
"1#	c #164D5C",
"2#	c #2E99B7",
"3#	c #0C87A8",
"4#	c #0082A3",
"5#	c #38ABCA",
"6#	c #398FA5",
"7#	c #589CAE",
"8#	c #C0F1FF",
"9#	c #D0F5FF",
"0#	c #8AB8C4",
"a#	c #002A36",
"b#	c #005268",
"c#	c #759CA6",
"d#	c #CFF4FF",
"e#	c #E9FAFF",
"f#	c #94A7AC",
"g#	c #001E28",
"h#	c #155568",
"i#	c #367389",
"j#	c #548EA4",
"k#	c #2E839F",
"l#	c #017998",
"m#	c #639AAF",
"n#	c #B5C9CE",
"o#	c #2B4D5D",
"p#	c #254553",
"q#	c #6F7678",
"r#	c #838B8D",
"s#	c #838A8C",
"t#	c #828789",
"u#	c #8F9597",
"v#	c #A0A7A9",
"w#	c #ACB3B5",
"x#	c #535657",
"y#	c #05252E",
"z#	c #015166",
"A#	c #0581A1",
"B#	c #007B9A",
"C#	c #1684A2",
"D#	c #40A1BA",
"E#	c #3B8295",
"F#	c #8FE6FF",
"G#	c #ADEDFF",
"H#	c #B0EFFF",
"I#	c #88B5C0",
"J#	c #003240",
"K#	c #003544",
"L#	c #A3D2DE",
"M#	c #EAFBFF",
"N#	c #B3EDFF",
"O#	c #D1EFF8",
"P#	c #23454E",
"Q#	c #005F78",
"R#	c #007998",
"S#	c #AFCDD7",
"T#	c #646F72",
"U#	c #60A5C5",
"V#	c #71797B",
"W#	c #E8F7FB",
"X#	c #ECFBFF",
"Y#	c #EBFAFE",
"Z#	c #E2F0F4",
"`#	c #D9E7EB",
" $	c #CDDADD",
".$	c #96AFB7",
"+$	c #00151D",
"@$	c #007F9F",
"#$	c #007A99",
"$$	c #007694",
"%$	c #3899B3",
"&$	c #327181",
"*$	c #74E2FF",
"=$	c #81E3FF",
"-$	c #A0EBFF",
";$	c #86B2BE",
">$	c #003948",
",$	c #3B5157",
"'$	c #CEF3FD",
")$	c #F5FDFF",
"!$	c #D5F5FF",
"~$	c #C2F0FF",
"{$	c #E5FAFF",
"]$	c #6FAFC1",
"^$	c #002F3C",
"/$	c #007896",
"($	c #007897",
"_$	c #6197AC",
":$	c #A6B8BD",
"<$	c #345D71",
"[$	c #4A809A",
"}$	c #8BA2A8",
"|$	c #DDF7FF",
"1$	c #B1EBFD",
"2$	c #22515D",
"3$	c #20839E",
"4$	c #204C57",
"5$	c #87E5FF",
"6$	c #AFEEFF",
"7$	c #85B1BC",
"8$	c #003A4A",
"9$	c #004E62",
"0$	c #79A2AC",
"a$	c #E4F9FF",
"b$	c #F3FDFF",
"c$	c #BFF2FF",
"d$	c #A9E7FA",
"e$	c #1F4B56",
"f$	c #005D75",
"g$	c #00728F",
"h$	c #00708C",
"i$	c #006D89",
"j$	c #006B86",
"k$	c #016984",
"l$	c #95AFB7",
"m$	c #434A4C",
"n$	c #63A9CA",
"o$	c #2A4E5F",
"p$	c #B5CDD4",
"q$	c #D4F5FF",
"r$	c #A6EAFF",
"s$	c #4BA1B8",
"t$	c #00475A",
"u$	c #007997",
"v$	c #0081A2",
"w$	c #047A98",
"x$	c #13333B",
"y$	c #69DDFB",
"z$	c #71E1FF",
"A$	c #6EB2C5",
"B$	c #01323F",
"C$	c #9AD2E2",
"D$	c #BEF2FF",
"E$	c #F4FDFF",
"F$	c #D0F4FF",
"G$	c #53AFC7",
"H$	c #002B38",
"I$	c #598799",
"J$	c #859498",
"K$	c #64ABCC",
"L$	c #3E4E54",
"M$	c #E5F0F3",
"N$	c #EAFAFF",
"O$	c #73E1FF",
"P$	c #7CE3FF",
"Q$	c #63D2EF",
"R$	c #051C23",
"S$	c #00718D",
"T$	c #007C9C",
"U$	c #020F14",
"V$	c #7EDAF3",
"W$	c #62D0ED",
"X$	c #63D2F0",
"Y$	c #002F3D",
"Z$	c #00637C",
"`$	c #23535F",
" %	c #A9EAFE",
".%	c #ACEBFC",
"+%	c #245561",
"@%	c #00576E",
"#%	c #026D89",
"$%	c #9BB5BD",
"%%	c #334045",
"&%	c #508BA6",
"*%	c #8F9293",
"=%	c #F9FDFE",
"-%	c #D2F4FF",
";%	c #AAEBFF",
">%	c #85E4FF",
",%	c #6BE0FF",
"'%	c #387C8E",
")%	c #005B73",
"!%	c #0080A0",
"~%	c #00131B",
"{%	c #62838C",
"]%	c #2F4C4D",
"^%	c #354C4E",
"/%	c #3A8194",
"(%	c #5AC0DB",
"_%	c #69DFFD",
":%	c #57BAD4",
"<%	c #002531",
"[%	c #004E63",
"}%	c #489CB2",
"|%	c #CEF3FF",
"1%	c #CAF3FF",
"2%	c #B4F0FF",
"3%	c #E1F8FF",
"4%	c #CEF5FF",
"5%	c #91C1CD",
"6%	c #003847",
"7%	c #007492",
"8%	c #007695",
"9%	c #6B9FB3",
"0%	c #8C9B9F",
"a%	c #CFD2D3",
"b%	c #CCF3FF",
"c%	c #9DC8D5",
"d%	c #003C4C",
"e%	c #2B4A4B",
"f%	c #74BBBB",
"g%	c #9BF7F7",
"h%	c #A6FAFA",
"i%	c #9BCCCC",
"j%	c #607A7A",
"k%	c #275865",
"l%	c #3E879B",
"m%	c #002E3B",
"n%	c #6CCCE6",
"o%	c #7EE3FF",
"p%	c #99E9FF",
"q%	c #DCF8FF",
"r%	c #B4EEFD",
"s%	c #4A656B",
"t%	c #047A99",
"u%	c #A2BFC8",
"v%	c #2B3F4A",
"w%	c #555758",
"x%	c #D3F3FB",
"y%	c #455255",
"z%	c #004D62",
"A%	c #2D4E4F",
"B%	c #76BEBE",
"C%	c #9BF8F8",
"D%	c #A0FFFF",
"E%	c #A8FFFF",
"F%	c #CAFFFF",
"G%	c #9FC9C9",
"H%	c #050808",
"I%	c #00151C",
"J%	c #006078",
"K%	c #41616A",
"L%	c #A8EAFE",
"M%	c #B1EEFF",
"N%	c #95C7D3",
"O%	c #003C4D",
"P%	c #6598AC",
"Q%	c #778588",
"R%	c #5593B0",
"S%	c #43768E",
"T%	c #A8AEB0",
"U%	c #C9F3FF",
"V%	c #D5F6FF",
"W%	c #96ADB3",
"X%	c #004254",
"Y%	c #00080C",
"Z%	c #426D6D",
"`%	c #9AF5F5",
" &	c #A1FFFF",
".&	c #C0FEFE",
"+&	c #9CC4C4",
"@&	c #2D4848",
"#&	c #55A1A1",
"$&	c #81ADB8",
"%&	c #7BE3FF",
"&&	c #7BE2FE",
"*&	c #55757E",
"=&	c #007390",
"-&	c #006F8C",
";&	c #006C88",
">&	c #036C87",
",&	c #8AA2AA",
"'&	c #274655",
")&	c #2E3C43",
"!&	c #7DD3EC",
"~&	c #78E2FF",
"{&	c #9AE8FF",
"]&	c #B8EFFF",
"^&	c #BEE2ED",
"/&	c #17282F",
"(&	c #223A41",
"_&	c #47707B",
":&	c #406B6B",
"<&	c #8ADDDD",
"[&	c #ACF4F4",
"}&	c #729191",
"|&	c #3C7474",
"1&	c #7FEBEB",
"2&	c #86F8F8",
"3&	c #132C2C",
"4&	c #02222B",
"5&	c #9BD8E9",
"6&	c #94E8FF",
"7&	c #60CBE7",
"8&	c #012C38",
"9&	c #007290",
"0&	c #007593",
"a&	c #6EA0B4",
"b&	c #657074",
"c&	c #3D8598",
"d&	c #6CE0FF",
"e&	c #40889B",
"f&	c #081215",
"g&	c #8CD8EC",
"h&	c #78BACB",
"i&	c #2F4C54",
"j&	c #609C9C",
"k&	c #98F2F2",
"l&	c #8BDCDC",
"m&	c #405858",
"n&	c #5CADAD",
"o&	c #84F8F9",
"p&	c #7AEFF5",
"q&	c #87FCFD",
"r&	c #488A8A",
"s&	c #2B6371",
"t&	c #98E7FF",
"u&	c #B0EEFF",
"v&	c #85E5FF",
"w&	c #4595AA",
"x&	c #005A72",
"y&	c #097A99",
"z&	c #89A5AE",
"A&	c #355E72",
"B&	c #203F4C",
"C&	c #5FCAE6",
"D&	c #041116",
"E&	c #75B5C5",
"F&	c #98EAFF",
"G&	c #93E3F7",
"H&	c #67A0AF",
"I&	c #284446",
"J&	c #08313C",
"K&	c #2693AF",
"L&	c #34B2D0",
"M&	c #07A1C7",
"N&	c #009EC6",
"O&	c #6BDFEB",
"P&	c #67C0C0",
"Q&	c #499DB3",
"R&	c #76E2FF",
"S&	c #AFEFFF",
"T&	c #B1EFFF",
"U&	c #76DDF9",
"V&	c #173E48",
"W&	c #007391",
"X&	c #6A9DB1",
"Y&	c #515A5C",
"Z&	c #5797B4",
"`&	c #758D94",
" *	c #C2F1FF",
".*	c #AEECFF",
"+*	c #97E7FF",
"@*	c #79E2FF",
"#*	c #3B8092",
"$*	c #60828A",
"%*	c #ABEEFF",
"&*	c #9BEAFF",
"**	c #7ABDCE",
"=*	c #004153",
"-*	c #3AB6D2",
";*	c #7DE9E9",
">*	c #397D8F",
",*	c #7FE4FF",
"'*	c #B3EFFF",
")*	c #8DBFCC",
"!*	c #004659",
"~*	c #057A99",
"{*	c #7A959E",
"]*	c #42748C",
"^*	c #294754",
"/*	c #B0DCEA",
"(*	c #BADAE3",
"_*	c #1F2A2D",
":*	c #B6EAF7",
"<*	c #BAF1FF",
"[*	c #95E2F5",
"}*	c #102025",
"|*	c #0093B8",
"1*	c #019EC6",
"2*	c #77EBF1",
"3*	c #326568",
"4*	c #68DBFA",
"5*	c #8BE6FF",
"6*	c #58767E",
"7*	c #6397AB",
"8*	c #3A4448",
"9*	c #4291A5",
"0*	c #527D8A",
"a*	c #84C5D6",
"b*	c #AAEDFF",
"c*	c #B7F0FF",
"d*	c #5B7981",
"e*	c #007B9B",
"f*	c #009BC3",
"g*	c #50C1D5",
"h*	c #57A4A4",
"i*	c #5DC1DC",
"j*	c #60CCE8",
"k*	c #022A37",
"l*	c #0B718E",
"m*	c #5C767F",
"n*	c #4B839D",
"o*	c #6CB8DB",
"p*	c #1F424E",
"q*	c #66D7F5",
"r*	c #55B6CF",
"s*	c #6197A5",
"t*	c #A2ECFF",
"u*	c #7DAFBC",
"v*	c #005870",
"w*	c #009CC3",
"x*	c #0096BC",
"y*	c #008FB3",
"z*	c #008BAE",
"A*	c #1091B2",
"B*	c #67C8CB",
"C*	c #70A1AE",
"D*	c #75E2FF",
"E*	c #4596AB",
"F*	c #004B60",
"G*	c #48788A",
"H*	c #2A3E48",
"I*	c #6BB6DA",
"J*	c #4A819A",
"K*	c #71B0C3",
"L*	c #8CE5FF",
"M*	c #64D4F1",
"N*	c #37575F",
"O*	c #9FEAFE",
"P*	c #89D4E7",
"Q*	c #001C25",
"R*	c #0089AB",
"S*	c #008CAF",
"T*	c #0092B7",
"U*	c #0098BF",
"V*	c #009DC5",
"W*	c #59C9DA",
"X*	c #4E6B72",
"Y*	c #A9EDFF",
"Z*	c #6CDCF9",
"`*	c #183C46",
" =	c #096A84",
".=	c #425B63",
"+=	c #5491AE",
"@=	c #67B0D2",
"#=	c #5E6C71",
"$=	c #D5F5FE",
"%=	c #B4EEFF",
"&=	c #4C6168",
"*=	c #ABDCE9",
"==	c #A7EDFF",
"-=	c #99E9FD",
";=	c #314F57",
">=	c #0082A4",
",=	c #28ABCC",
"'=	c #3E7C7E",
")=	c #A9E1EF",
"!=	c #87BECD",
"~=	c #003645",
"{=	c #336B7E",
"]=	c #2C4E5E",
"^=	c #C2DFE7",
"/=	c #869BA1",
"(=	c #90BAC5",
"_=	c #BCF1FF",
":=	c #739AA4",
"<=	c #006A86",
"[=	c #0099BF",
"}=	c #008DB0",
"|=	c #328593",
"1=	c #8EBDC9",
"2=	c #59787F",
"3=	c #066983",
"4=	c #26434C",
"5=	c #8CA3AA",
"6=	c #CCEBF4",
"7=	c #A7C1C8",
"8=	c #5E8893",
"9=	c #ADEEFF",
"0=	c #B9F0FF",
"a=	c #9BC8D3",
"b=	c #003D4E",
"c=	c #0092B6",
"d=	c #008CB0",
"e=	c #1383A0",
"f=	c #4C676E",
"g=	c #041E27",
"h=	c #006681",
"i=	c #145467",
"j=	c #345E71",
"k=	c #4E87A2",
"l=	c #43748B",
"m=	c #456778",
"n=	c #687D86",
"o=	c #6D7E83",
"p=	c #263F45",
"q=	c #8BD6E9",
"r=	c #99EAFF",
"s=	c #A4ECFF",
"t=	c #AAE6F6",
"u=	c #152225",
"v=	c #0081A1",
"w=	c #0095BB",
"x=	c #0199C0",
"y=	c #012E3B",
"z=	c #004052",
"A=	c #00586F",
"B=	c #00465A",
"C=	c #063543",
"D=	c #294D5D",
"E=	c #66AFD1",
"F=	c #60A5C6",
"G=	c #3C6A7F",
"H=	c #5B8E9C",
"I=	c #4D7985",
"J=	c #00708D",
"K=	c #0097BD",
"L=	c #009CC4",
"M=	c #103948",
"N=	c #366174",
"O=	c #4E88A3",
"P=	c #5FA3C2",
"Q=	c #62A9C9",
"R=	c #3B687D",
"S=	c #5A8E9B",
"T=	c #5D919E",
"U=	c #0E4F64",
"V=	c #3F7087",
"W=	c #0E242D",
"X=	c #407188",
"Y=	c #6BB8DB",
"                                              . + @ #                                           ",
"                                            $ % & * = -                                         ",
"                                          $ ; > , ' ) ! ~                                       ",
"                                        { ] ^ / ( _ : < [ }                                     ",
"                                      { | 1 2 3 ( 4 5 6 7 8 9                                   ",
"                                      0 a b 3 3 c d 5 5 e f g ] $                               ",
"                                    h i j 3 3 3 k l 5 5 m n o p q r                             ",
"                                  s t u 3 3 3 3 k v 5 5 5 w x y z A B                           ",
"                                C D E 3 3 3 3 3 F G 5 5 5 5 H I J K L M                         ",
"                              N O P 3 3 3 3 3 3 Q R 5 5 5 5 5 S T U V W X                       ",
"                              W Y Z ` 3 3 3 3 3  .R 5 5 5 ..+.@.#.$.%.&.*.                      ",
"                              =.-.;.>.,.'.).3 3 !.~.5 {.].^./.(._.:.<.[.M                       ",
"                              }.-.|.1.2.3.4.5.6.7.8.9.0.a.b.c.d.e.f.g.h.r                       ",
"                              0 i.j.|.|.|.k.l.m.n.o.p.q.r.s.t.u.v.w.x.y.{                       ",
"                              z.A.B.|.|.C.|.|.D.E.h.F.G.v.v.v.v.H.I.J.K.        L.M.N.r         ",
"                $ r           O.P.Q.|.|.R.S.|.S.T.h.U.v.v.v.v.V.G.W.X.Y.Z.`. +.+++@+#+$+        ",
"              %+&+*+=+-+      ;+>+,+|.|.'+)+|.!+~+h.{+v.v.]+^+G./+(+_+:+<+[+}+|+1+2+3+4+5+      ",
"            6+7+8+9+0+a+b+    c+d+e+f+|.g+h+i+j+k+h.l+H.m+G.G.n+o+p+q+1+r+r+r+r+s+t+u+v+w+x+    ",
"          y+z+A+B+C+D+E+F+G+c+6+H+I+J+|.h+K+L+K+M+N+O+G.G.G.G.P+Q+R+S+r+r+r+r+T+U+V+W+X+Y+Z+6+  ",
"        M `+ @.@+@@@#@$@%@&@*@; h.=@-@;@>@,@K+K+'@)@{+G.G.G.!@~@{@]@^@|+r+r+r+/@(@W+W+_@:@<@[@{ ",
"      }@|@1@.@.@2@3@#@#@4@5@6@7@h.8@C.C.9@0@a@K+b@c@l+G.^+]+d@e@f@g@h@i@j@r+S+k@l@W+W+m@n@:@o@N.",
"    p@q@r@.@.@.@s@t@#@u@v@w@x@y@z@A@B@C@9@9@9@>@D@E@^+F@v.v.G@H@f+g@g@I@J@K@L@M@W+N@O@P@Q@R@S@T@",
"  U@V@W@.@.@.@.@X@]+Y@Z@`@ #.#+#@###$#%#9@9@9@9@&#*#v.v.v.O+=#-#g@;#C.g@>#,#'#)#!#~#{#]#^#/#(#5+",
"_#:#<#.@.@.@.@.@[#}#|#1#2#3#4#5#6#7#8#9#9@9@9@9@0#a#v.v.v.b#c#i+g@d#e#g@g@f#g#h#i#j#k#l#m#n#o#. ",
"p#q#r#s#t#u#v#w#x#y#z#A#4#4#B#C#D#E#F#G#H#9@9@9@I#J#v.v.v.K#L#.@M#N#g@g@O#P#Q#R#R#R#R#l#S#T#b+  ",
"U#V#W#X#Y#Z#`# $.$+$@$4#4##$$$$$%$&$*$=$*$-$9@9@;$>$v.v.!@,$'$)$!$~$g@{$]$^$/$R#R#R#($_$:$<$    ",
"  [$}$e#X#|$e#X#1$2$v.4##$$$$$/$3$4$K+K+K+K+5$6$7$8$v.V.9$0$a$b$c$S.g@d$e$f$g$h$i$j$k$l$m$n$    ",
"  -+o$p$X#q$F#|$r$s$t$#$$$$$u$v$w$x$y$K+K+K+K+z$A$G@m+V.B$C$b$B@D$E$F$G$H$^+V.V.V.V.I$J$;       ",
"    K$L$M$N$O$O$P$Q$R$S$$$R#v$4#T$U$V$W$X$K+K+K+'@Y$]+Z$`$ %.@D$9#r+.%+%@%V.V.]+j$#%$%%%#       ",
"      &%*%=%-%;%>%,%'%)%B#4#4#4#!%~%{%]%^%/%(%_%:%<%v.[%}%|%1%2%3%4%5%6%7%8%/$R#R#9%0%N         ",
"      . =.a%N$$#$#b%c%d%4#4#4##@G e%f%g%h%i%j%k%l%E@v.m%n%j.o%p%q%r%s%^+R#R#R#R#t%u%v%%+        ",
"        x+w%W@$#$#$#x%y%R##@z%A%B%C%D%D%D%E%F%G%H%I%J%K%L%B.K+P$M%N%O%R#R#R#R#($P%Q%R%          ",
"          S%T%U%V%$#$#W%X%Y%Z%`%D%D%D%D% &.&+&@&#&N+t$$&i+%&K+K+&&*&]+$$=&-&;&>&,&'&$           ",
"          6+)&!&~&{&]&^&/&(&_&:&<&D%D%D%[&}&|&1&2&3&4&5&$#6&K+K+7&8&;&-&9&0&($a&b&M.            ",
"            =+c&K+K+K+d&e&f&g&h&i&j&k&l&m&n&o&p&q&r&s&t&u&2%v&K+w&x&R#R#R#R#y&z&A&              ",
"            -+B&C&K+K+K+7&D&E&F&G&H&I&J&K&L&M&N&O&P&Q&g+R&S&T&U&V&W&R#R#R#R#X&Y&n$              ",
"              Z&`& *.*+*@*#*$*%*&*F&**=*N&N&N&N&-*;*>*,%K+,*'*)*!*R#R#R#R#~*{*]*                ",
"              $ ^*/*1%V%$#(*_*:*<*%*[*}*|*N&N&N&1*2*3*4*K+K+5*6*^+R#R#R#R#7*8*#                 ",
"                R%9*K+*$j+r$0*a*b*c*<*d*e*N&N&N&f*g*h*i*K+K+j*k*($($0&9&l*m*n*                  ",
"                o*p*q*K+K+K+r*s*F&F&t*u*v*w*x*y*z*A*B*C*D*K+E*F*v.V.V.V.G*H*I*                  ",
"                  J*K*L*z$K+M*N*O*F&F&P*Q*R*S*T*U*V*W*X*Y*Z*`*t@V.V.V. =.=+=                    ",
"                  @=#=$=q$!+%=&=*=9@==-=;=>=V*N&N&N&,='=)=!=~=V.V.V.V.{=]=$                     ",
"                    <$^=$#$#$#/=(=_=_=<*:=<=N&V*[=|*}=|=1=2=n+V.V.V.3=4=M.                      ",
"                    R%5=6=$#$#7=8=9=0=_=a=b=c=d=z*z*z*e=f=g=h=V.V.O+i=j=                        ",
"                    %+k=l=m=n=o=p=q=r=s=t=u=v=z*z*y*w=x=y=z=A=B=C=D= +E=                        ",
"                              r F=G=H=q=F&I=J=K=L=N&T*7%M=N=O=P=I*                              ",
"                                    Q=R=S=T=@%T*W&U=V=b+o*                                      ",
"                                        n$R=W=X=b+Y=                                            "};
