/* XPM */
static char * swim_left_0_xpm[] = {
"48 48 815 2",
"  	c #6DBADE",
". 	c #6CB9DC",
"+ 	c #64AFCB",
"@ 	c #5CA6BB",
"# 	c #5AA4B8",
"$ 	c #59A4B8",
"% 	c #5AA5B8",
"& 	c #62AEC7",
"* 	c #6AB6D6",
"= 	c #6DBADD",
"- 	c #529EA9",
"; 	c #287C53",
"> 	c #217844",
", 	c #1E7544",
"' 	c #1B7845",
") 	c #1C8246",
"! 	c #168146",
"~ 	c #1A8D48",
"{ 	c #179454",
"] 	c #219152",
"^ 	c #3F9A85",
"/ 	c #54A4AD",
"( 	c #68B3D2",
"_ 	c #368570",
": 	c #1F7944",
"< 	c #197B46",
"[ 	c #1A8847",
"} 	c #158648",
"| 	c #179449",
"1 	c #129B54",
"2 	c #159A4B",
"3 	c #13984D",
"4 	c #13964D",
"5 	c #1B934A",
"6 	c #419083",
"7 	c #67B1CF",
"8 	c #6AB6D8",
"9 	c #3E8B80",
"0 	c #1F7D45",
"a 	c #187F46",
"b 	c #198D48",
"c 	c #148C49",
"d 	c #149B4B",
"e 	c #10A154",
"f 	c #12A24C",
"g 	c #0F9F4F",
"h 	c #11A14D",
"i 	c #129A4A",
"j 	c #118743",
"k 	c #208E4A",
"l 	c #5CA4B4",
"m 	c #509CA6",
"n 	c #1F7845",
"o 	c #238045",
"p 	c #238545",
"q 	c #1F9148",
"r 	c #119149",
"s 	c #11A04D",
"t 	c #0FA653",
"u 	c #0FAA4E",
"v 	c #0DA751",
"w 	c #0FAB4E",
"x 	c #0E9947",
"y 	c #119B49",
"z 	c #149C4B",
"A 	c #188947",
"B 	c #5BA3B5",
"C 	c #70BBDD",
"D 	c #A9D0BB",
"E 	c #C4DA8E",
"F 	c #D2E061",
"G 	c #DCEA2A",
"H 	c #99EF66",
"I 	c #C9DA21",
"J 	c #B1CB28",
"K 	c #AECB25",
"L 	c #C2E42C",
"M 	c #ABD637",
"N 	c #A0D93C",
"O 	c #68BF45",
"P 	c #3CB64A",
"Q 	c #0BA34A",
"R 	c #0FAC4E",
"S 	c #0F9C4B",
"T 	c #11924A",
"U 	c #20904B",
"V 	c #63ADC6",
"W 	c #93C8CB",
"X 	c #E8F063",
"Y 	c #F7F708",
"Z 	c #E3E80E",
"` 	c #E4EA10",
" .	c #EEF311",
"..	c #DFF12C",
"+.	c #D0EE3D",
"@.	c #E5F319",
"#.	c #D7EA1D",
"$.	c #DEF41F",
"%.	c #C9EE27",
"&.	c #D4F726",
"*.	c #C8EE27",
"=.	c #CFFC2B",
"-.	c #9EDC3A",
";.	c #4AB84A",
">.	c #0DA24C",
",.	c #179849",
"'.	c #4E9C9B",
").	c #6AB5D6",
"!.	c #A5CFBF",
"~.	c #F6F832",
"{.	c #F8F807",
"].	c #F5F60A",
"^.	c #F1F411",
"/.	c #BCF75D",
"(.	c #EDF211",
"_.	c #DDF02D",
":.	c #D2ED34",
"<.	c #D5EB25",
"[.	c #E1F51E",
"}.	c #DAF323",
"|.	c #D6F625",
"1.	c #B2E92E",
"2.	c #D5FE29",
"3.	c #D4FF2A",
"4.	c #ABEA32",
"5.	c #B7F031",
"6.	c #55C04A",
"7.	c #11A64B",
"8.	c #1F893F",
"9.	c #178040",
"0.	c #468880",
"a.	c #A0CDC2",
"b.	c #F7F814",
"c.	c #F2F40C",
"d.	c #EFF311",
"e.	c #DEF433",
"f.	c #E3EC15",
"g.	c #E7F217",
"h.	c #C8E32B",
"i.	c #9ED13B",
"j.	c #CEE620",
"k.	c #AACC22",
"l.	c #D9FA25",
"m.	c #C4F42C",
"n.	c #D1FE2C",
"o.	c #B4EB35",
"p.	c #0E9E48",
"q.	c #109A49",
"r.	c #149649",
"s.	c #1D8C46",
"t.	c #64A8C2",
"u.	c #89C4D0",
"v.	c #F0F434",
"w.	c #F4F50A",
"x.	c #F3F50C",
"y.	c #F1F40D",
"z.	c #EFF30F",
"A.	c #EDF312",
"B.	c #EAF214",
"C.	c #D2E219",
"D.	c #E5F31A",
"E.	c #D2E828",
"F.	c #DFF51F",
"G.	c #DBF622",
"H.	c #D1F224",
"I.	c #C5EB26",
"J.	c #B8E328",
"K.	c #A3EC47",
"L.	c #D3FF2A",
"M.	c #D3FE2A",
"N.	c #CEF92A",
"O.	c #5EC249",
"P.	c #10A64D",
"Q.	c #129A4D",
"R.	c #15904D",
"S.	c #3E8872",
"T.	c #64ADCC",
"U.	c #68B3D3",
"V.	c #72BCDC",
"W.	c #E1EC63",
"X.	c #F1F40E",
"Y.	c #F0F40E",
"Z.	c #ECF213",
"`.	c #E9F215",
" +	c #E2F41C",
".+	c #D9F325",
"++	c #91DF4D",
"@+	c #D7F726",
"#+	c #B6E238",
"$+	c #D4FE29",
"%+	c #D0FB2A",
"&+	c #AFDB27",
"*+	c #A7E33C",
"=+	c #0EA350",
"-+	c #119B4E",
";+	c #15924C",
">+	c #1F8647",
",+	c #66AAC7",
"'+	c #68B4D5",
")+	c #22674A",
"!+	c #277B52",
"~+	c #67B1D2",
"{+	c #7BBEE0",
"]+	c #7FBFE0",
"^+	c #C2DD99",
"/+	c #EDF311",
"(+	c #EBF213",
"_+	c #EAF215",
":+	c #E8F217",
"<+	c #E5F219",
"[+	c #E2F21B",
"}+	c #C8DF1E",
"|+	c #DCF21F",
"1+	c #D8F322",
"2+	c #C2EE33",
"3+	c #D0F527",
"4+	c #CAF62B",
"5+	c #B3EE3D",
"6+	c #CCF72A",
"7+	c #C0EC29",
"8+	c #B5E128",
"9+	c #CCF82A",
"0+	c #CDF92A",
"a+	c #C4F12B",
"b+	c #49B349",
"c+	c #139D4B",
"d+	c #169148",
"e+	c #198545",
"f+	c #529299",
"g+	c #6CB9DD",
"h+	c #38867B",
"i+	c #1A743E",
"j+	c #166435",
"k+	c #367F77",
"l+	c #C6DFEF",
"m+	c #F4F4F4",
"n+	c #E8EBC9",
"o+	c #EDF46B",
"p+	c #F4F8BB",
"q+	c #EDF2BB",
"r+	c #D8E474",
"s+	c #E4EF18",
"t+	c #E3F018",
"u+	c #E0EF1A",
"v+	c #DCEE1C",
"w+	c #D8ED1E",
"x+	c #D4ED20",
"y+	c #D0ED22",
"z+	c #CBED24",
"A+	c #C7ED27",
"B+	c #C3EE29",
"C+	c #C1EE2A",
"D+	c #B1E836",
"E+	c #C1ED29",
"F+	c #BBE729",
"G+	c #BFEE2F",
"H+	c #A7F35A",
"I+	c #C3EF29",
"J+	c #AEDB28",
"K+	c #98CE32",
"L+	c #1C8D44",
"M+	c #148243",
"N+	c #167941",
"O+	c #3E7B6C",
"P+	c #7DC3D2",
"Q+	c #89C48C",
"R+	c #15783C",
"S+	c #117739",
"T+	c #0A7434",
"U+	c #0E6831",
"V+	c #5FA7C3",
"W+	c #70B1D1",
"X+	c #A2A0A0",
"Y+	c #8D8E79",
"Z+	c #EDF59B",
"`+	c #F4F4EF",
" @	c #FAFAFA",
".@	c #EEEEEE",
"+@	c #E6E6E5",
"@@	c #BACF81",
"#@	c #D8EA1C",
"$@	c #D4E91D",
"%@	c #D0E81F",
"&@	c #CBE721",
"*@	c #C7E623",
"=@	c #C2E624",
"-@	c #BDE627",
";@	c #BAE628",
">@	c #B8E528",
",@	c #B8E428",
"'@	c #AAD727",
")@	c #A2D026",
"!@	c #B7E428",
"~@	c #B6E52B",
"{@	c #A4E950",
"]@	c #B9E628",
"^@	c #BAE728",
"/@	c #BCE828",
"(@	c #97D037",
"_@	c #369946",
":@	c #4D873E",
"<@	c #A5DA9C",
"[@	c #C6F239",
"}@	c #C9F529",
"|@	c #55A23A",
"1@	c #08843A",
"2@	c #0E7838",
"3@	c #10693D",
"4@	c #398485",
"5@	c #71ABC9",
"6@	c #3C3A26",
"7@	c #C4D228",
"8@	c #D2D4BE",
"9@	c #575454",
"0@	c #8D8C8C",
"a@	c #CECECE",
"b@	c #E4E4E4",
"c@	c #B9C4B5",
"d@	c #C4DF20",
"e@	c #C7E220",
"f@	c #C2E122",
"g@	c #BDE023",
"h@	c #B8DF25",
"i@	c #B3DE27",
"j@	c #B0DD28",
"k@	c #AFDC28",
"l@	c #ADDB28",
"m@	c #ACD927",
"n@	c #ABD827",
"o@	c #ADDA28",
"p@	c #AEDC28",
"q@	c #AFDD28",
"r@	c #B1DE28",
"s@	c #B2DF28",
"t@	c #B4E128",
"u@	c #A9D92C",
"v@	c #93C833",
"w@	c #B2E02B",
"x@	c #BDE929",
"y@	c #BFEC29",
"z@	c #C2EE29",
"A@	c #81C338",
"B@	c #0C8A40",
"C@	c #0D7941",
"D@	c #0E7140",
"E@	c #17613C",
"F@	c #7ABEDD",
"G@	c #D3E573",
"H@	c #DBEF53",
"I@	c #BEBDBD",
"J@	c #241C1C",
"K@	c #B9B9B9",
"L@	c #ECECEC",
"M@	c #BBC5BA",
"N@	c #B1D423",
"O@	c #B0D625",
"P@	c #A6D127",
"Q@	c #A6D328",
"R@	c #A7D527",
"S@	c #A6D427",
"T@	c #A4D227",
"U@	c #A3D127",
"V@	c #A2D027",
"W@	c #A3D227",
"X@	c #A9D627",
"Y@	c #A6D429",
"Z@	c #579C3A",
"`@	c #4A953C",
" #	c #5CA03A",
".#	c #AFDD2A",
"+#	c #86C637",
"@#	c #0A9944",
"##	c #0C8E40",
"$#	c #0F7738",
"%#	c #0F6230",
"&#	c #5CA4BD",
"*#	c #97D1B9",
"=#	c #96D2BE",
"-#	c #74BDD8",
";#	c #B9DE77",
">#	c #CEEB22",
",#	c #CCE837",
"'#	c #E9ECE3",
")#	c #AAA9A9",
"!#	c #AFAEAE",
"~#	c #E1E1E1",
"{#	c #A0B89A",
"]#	c #A8D326",
"^#	c #A0CD5C",
"/#	c #89C14C",
"(#	c #85BF30",
"_#	c #8DC22A",
":#	c #97C828",
"<#	c #9BCA26",
"[#	c #9AC926",
"}#	c #99C826",
"|#	c #99C726",
"1#	c #98C726",
"2#	c #9AC826",
"3#	c #9BC926",
"4#	c #9CCA27",
"5#	c #9ECC26",
"6#	c #A0CE2B",
"7#	c #8CBE37",
"8#	c #48933F",
"9#	c #49933F",
"0#	c #49943E",
"a#	c #96C730",
"b#	c #B3E028",
"c#	c #87CB3B",
"d#	c #0D9F47",
"e#	c #0E8D40",
"f#	c #0E7C3A",
"g#	c #116A34",
"h#	c #4F93A4",
"i#	c #ADD058",
"j#	c #C6EE48",
"k#	c #75BED7",
"l#	c #6EBADA",
"m#	c #77BCC4",
"n#	c #A4CE58",
"o#	c #BDE326",
"p#	c #C0E726",
"q#	c #BBE427",
"r#	c #ADD18A",
"s#	c #EBEEEB",
"t#	c #F3F3F3",
"u#	c #F1F2F1",
"v#	c #C2CEC1",
"w#	c #79B030",
"x#	c #A2D123",
"y#	c #76BA3B",
"z#	c #7CB964",
"A#	c #85BC66",
"B#	c #99C377",
"C#	c #A0C673",
"D#	c #A8CA73",
"E#	c #AACC72",
"F#	c #A9CA6E",
"G#	c #A7CA6E",
"H#	c #A6C96A",
"I#	c #A3C764",
"J#	c #A4C865",
"K#	c #A6C969",
"L#	c #A7CA6B",
"M#	c #A9CB6D",
"N#	c #A8CB68",
"O#	c #A6CB60",
"P#	c #A3CA52",
"Q#	c #85B641",
"R#	c #46903F",
"S#	c #479140",
"T#	c #489240",
"U#	c #9BC845",
"V#	c #AED743",
"W#	c #AFDA3A",
"X#	c #78C53C",
"Y#	c #09A145",
"Z#	c #0D8D3F",
"`#	c #107839",
" $	c #136333",
".$	c #488895",
"+$	c #6FBBDD",
"@$	c #ADCB1E",
"#$	c #A9C31E",
"$$	c #7AB029",
"%$	c #7CB213",
"&$	c #87B81C",
"*$	c #ACD826",
"=$	c #B5E228",
"-$	c #B2DF27",
";$	c #A7D826",
">$	c #75B042",
",$	c #85AC80",
"'$	c #6F9F64",
")$	c #70AC25",
"!$	c #99CD1E",
"~$	c #98CC1D",
"{$	c #60B333",
"]$	c #41A738",
"^$	c #4EA735",
"/$	c #5DA931",
"($	c #6CAB2D",
"_$	c #79B029",
":$	c #84B525",
"<$	c #86B529",
"[$	c #86B52F",
"}$	c #88B536",
"|$	c #8BB73D",
"1$	c #8BB83D",
"2$	c #8BB73A",
"3$	c #89B733",
"4$	c #88B828",
"5$	c #89B925",
"6$	c #8CBB25",
"7$	c #8EBE26",
"8$	c #87B92A",
"9$	c #48903A",
"0$	c #448F3B",
"a$	c #6EA834",
"b$	c #9ECC27",
"c$	c #6ACA46",
"d$	c #08B54D",
"e$	c #099E45",
"f$	c #0D853D",
"g$	c #116E36",
"h$	c #488B96",
"i$	c #70BBDC",
"j$	c #A5C01C",
"k$	c #94A518",
"l$	c #94C51D",
"m$	c #AFDC25",
"n$	c #B4E127",
"o$	c #B0DE25",
"p$	c #ABDB22",
"q$	c #A5D71F",
"r$	c #9FD41D",
"s$	c #97CF1B",
"t$	c #93CC1A",
"u$	c #8FC919",
"v$	c #8CC718",
"w$	c #8BC519",
"x$	c #53B035",
"y$	c #2CA43C",
"z$	c #3EA238",
"A$	c #4FA233",
"B$	c #5EA32F",
"C$	c #6CA62A",
"D$	c #78AA26",
"E$	c #7AAB24",
"F$	c #79AA24",
"G$	c #7AAA24",
"H$	c #7BAB24",
"I$	c #7DAD25",
"J$	c #7EAF25",
"K$	c #81B125",
"L$	c #84B325",
"M$	c #86B625",
"N$	c #88B826",
"O$	c #7BB02B",
"P$	c #83B52A",
"Q$	c #94C326",
"R$	c #9CCB27",
"S$	c #A0CF27",
"T$	c #4BBE4A",
"U$	c #0FAD4D",
"V$	c #139747",
"W$	c #15813F",
"X$	c #156C37",
"Y$	c #4E92A1",
"Z$	c #6FBBDC",
"`$	c #A3BD1B",
" %	c #90A118",
".%	c #A5D223",
"+%	c #AFDC26",
"@%	c #B3E027",
"#%	c #AFDE24",
"$%	c #A8DA20",
"%%	c #A1D51D",
"&%	c #98D01A",
"*%	c #8FCB17",
"=%	c #87C615",
"-%	c #80C214",
";%	c #7BBF13",
">%	c #79BD13",
",%	c #7ABC14",
"'%	c #58B02F",
")%	c #27A23C",
"!%	c #389F38",
"~%	c #489D33",
"{%	c #579D2E",
"]%	c #639E2A",
"^%	c #689E28",
"/%	c #5F992B",
"(%	c #5B962C",
"_%	c #659B27",
":%	c #6FA024",
"<%	c #70A124",
"[%	c #71A324",
"}%	c #73A424",
"|%	c #76A724",
"1%	c #79A924",
"2%	c #76AE2A",
"3%	c #5DB23A",
"4%	c #319A3E",
"5%	c #2E7E36",
"6%	c #37672C",
"7%	c #80B270",
"8%	c #93C226",
"9%	c #97C626",
"0%	c #98C928",
"a%	c #1BAE4A",
"b%	c #0EA34F",
"c%	c #0B9846",
"d%	c #126E37",
"e%	c #5DA6BF",
"f%	c #A0BC48",
"g%	c #9AB21C",
"h%	c #AFDA27",
"i%	c #B6E328",
"j%	c #B3E127",
"k%	c #AFDE23",
"l%	c #A7DA1F",
"m%	c #9ED41B",
"n%	c #93CE18",
"o%	c #86C715",
"p%	c #7AC012",
"q%	c #6FBA10",
"r%	c #66B50F",
"s%	c #62B20E",
"t%	c #63B20E",
"u%	c #67B310",
"v%	c #65B11B",
"w%	c #329E39",
"x%	c #3E9B35",
"y%	c #4D9C31",
"z%	c #449433",
"A%	c #2E8F38",
"B%	c #0E873A",
"C%	c #09853B",
"D%	c #0A8139",
"E%	c #0E7A37",
"F%	c #48872E",
"G%	c #669823",
"H%	c #689A23",
"I%	c #6B9D23",
"J%	c #6CA126",
"K%	c #4EC145",
"L%	c #22C74E",
"M%	c #18AA48",
"N%	c #21923E",
"O%	c #267533",
"P%	c #305E37",
"Q%	c #6CB7DA",
"R%	c #81BD9D",
"S%	c #7FB830",
"T%	c #3F9B40",
"U%	c #119C44",
"V%	c #0D8F4C",
"W%	c #0C8149",
"X%	c #186F41",
"Y%	c #6BB7DA",
"Z%	c #A1C05D",
"`%	c #B2D825",
" &	c #9CD29D",
".&	c #84C5C4",
"+&	c #99D098",
"@&	c #A5D848",
"#&	c #9ED51B",
"$&	c #91CE18",
"%&	c #83C614",
"&&	c #72BD10",
"*&	c #61B30D",
"=&	c #51AB0B",
"-&	c #47A509",
";&	c #45A309",
">&	c #4CA60A",
",&	c #57AB0C",
"'&	c #5AA91D",
")&	c #419A34",
"!&	c #499F32",
"~&	c #64AE2B",
"{&	c #3F9635",
"]&	c #088C3C",
"^&	c #06923E",
"/&	c #078E3D",
"(&	c #09873B",
"_&	c #0B7E39",
":&	c #107636",
"<&	c #578C26",
"[&	c #609323",
"}&	c #649623",
"|&	c #40AC44",
"1&	c #1BC050",
"2&	c #1CB54A",
"3&	c #1A9F44",
"4&	c #218339",
"5&	c #256B31",
"6&	c #4D8188",
"7&	c #76B27C",
"8&	c #4D9031",
"9&	c #1C9040",
"0&	c #369145",
"a&	c #168740",
"b&	c #0D7B47",
"c&	c #429396",
"d&	c #A2D08C",
"e&	c #A8DB8A",
"f&	c #6EBBDC",
"g&	c #79C0C4",
"h&	c #7EC397",
"i&	c #74BE58",
"j&	c #60B306",
"k&	c #48A609",
"l&	c #319906",
"m&	c #229104",
"n&	c #299505",
"o&	c #3C9E08",
"p&	c #50A73F",
"q&	c #539D37",
"r&	c #529E2F",
"s&	c #5CAA2D",
"t&	c #76B726",
"u&	c #67AF30",
"v&	c #039C40",
"w&	c #05963F",
"x&	c #078F3D",
"y&	c #08893C",
"z&	c #0A8039",
"A&	c #0D7637",
"B&	c #478129",
"C&	c #5A8D22",
"D&	c #4F922E",
"E&	c #0BA24A",
"F&	c #0FA54A",
"G&	c #229C42",
"H&	c #298C39",
"I&	c #1E7435",
"J&	c #2F5F35",
"K&	c #68AFD0",
"L&	c #67B4D3",
"M&	c #247A3E",
"N&	c #2B7C34",
"O&	c #16823E",
"P&	c #268C51",
"Q&	c #177643",
"R&	c #63AFCC",
"S&	c #76BED6",
"T&	c #6DBAD9",
"U&	c #6AB7CB",
"V&	c #66B4C9",
"W&	c #61B1C5",
"X&	c #62B2C4",
"Y&	c #64B4C4",
"Z&	c #6BB8D5",
"`&	c #65ABA6",
" *	c #609A2B",
".*	c #5FA52B",
"+*	c #67AB2D",
"@*	c #2FA53E",
"#*	c #05983F",
"$*	c #08883B",
"%*	c #0D7436",
"&*	c #457F29",
"**	c #508626",
"=*	c #2F8134",
"-*	c #0F8841",
";*	c #0E8943",
">*	c #288438",
",*	c #1E7436",
"'*	c #31642D",
")*	c #5E9CB6",
"!*	c #438E8F",
"~*	c #227135",
"{*	c #1D7338",
"]*	c #157641",
"^*	c #419B95",
"/*	c #6CB5CD",
"(*	c #5FA38E",
"_*	c #088D3C",
":*	c #049A40",
"<*	c #088A3C",
"[*	c #09833A",
"}*	c #0C7A38",
"|*	c #0E7035",
"1*	c #508E6E",
"2*	c #578E96",
"3*	c #427157",
"4*	c #296A3D",
"5*	c #1F6937",
"6*	c #30663C",
"7*	c #46756F",
"8*	c #63A3C0",
"9*	c #61ABC8",
"0*	c #146333",
"a*	c #1C6E3E",
"b*	c #246E53",
"c*	c #69B5D6",
"d*	c #0F8B43",
"e*	c #0B8139",
"f*	c #0B7C38",
"g*	c #186E42",
"h*	c #6CB8DB",
"i*	c #6CB8DC",
"j*	c #6CB6D9",
"k*	c #6DB9DC",
"l*	c #2E6A62",
"m*	c #236651",
"n*	c #62AECB",
"o*	c #1E8452",
"p*	c #0B7F39",
"q*	c #0D7336",
"r*	c #0F6C34",
"s*	c #42898D",
"t*	c #69B4D6",
"u*	c #6AB5D7",
"v*	c #388B7D",
"w*	c #0C7837",
"x*	c #106A34",
"y*	c #16653B",
"z*	c #66B1D0",
"A*	c #529DAB",
"B*	c #0F6D34",
"C*	c #106933",
"D*	c #116532",
"E*	c #166239",
"F*	c #5DA6C0",
"G*	c #1D6947",
"H*	c #126131",
"I*	c #135E31",
"J*	c #2F7066",
"K*	c #63ACCA",
"L*	c #68B3D4",
"M*	c #599FB7",
"N*	c #61A9C6",
"                                                                                                ",
"                                                                                                ",
"                                                                                                ",
"                                                                                                ",
"                                                                                                ",
"                                                                                                ",
"                                                                                                ",
"                                                                                                ",
"                                    . + @ # $ % @ & * =                                         ",
"                                  - ; > > , ' ) ! ~ { ] ^ / (                                   ",
"                                  _ > > > : < [ } | 1 2 3 4 5 6 7                               ",
"                                  8 9 > > 0 a b c d e f g h i j k l                             ",
"                                    = m n o p q r s t u v w x y z A B                           ",
"                                C D E F G H I J K L M N O P Q R S T U V                         ",
"                              W X Y Z `  ...+.@.#.$.%.&.*.=.-.;.>.f ,.'.).                      ",
"                            !.~.{.].^./.(._.:.<.[.}.|.1.2.3.4.5.6.7.8.9.0.                      ",
"                          a.b.Y ].c.d.e.f.g.h.i.j.k.l.m.3.n.3.3.o.p.q.r.s.t.                    ",
"                        u.v.w.x.y.z.A.B.C.D.E.F.G.H.I.J.3.K.L.M.N.O.P.Q.R.S.          T.U.      ",
"                      V.W.X.Y.z. .Z.`.g.D. +.+++@+#+$+M.M.L.3.%+&+*+=+-+;+>+,+      '+)+!+~+    ",
"                  {+]+^+ ./+A.(+_+:+<+[+}+|+1+2+3+4+5+6+7+8+6+9+0+a+b+c+d+e+f+    g+h+i+j+k+    ",
"                l+m+n+o+p+q+r+s+t+u+v+w+x+y+z+A+B+C+D+E+7+F+G+H+I+J+K+L+M+N+O+  P+Q+R+S+T+U+V+  ",
"              W+X+Y+Z+`+ @.@+@@@#@$@%@&@*@=@-@;@>@,@'@)@!@!@~@{@]@^@/@(@_@[ :@<@[@}@|@1@2@3@4@  ",
"              5@6@7@8@9@0@a@b@c@d@e@f@g@h@i@j@k@J+l@m@n@o@o@J+p@q@r@s@t@u@v@w@x@y@z@A@B@C@D@E@8 ",
"              F@G@H@I@J@J@K@L@M@N@O@P@Q@R@R@S@T@U@U@V@V@V@U@W@T@S@R@X@Y@Z@`@ #.#!@^@+#@###$#%#&#",
"  *#=#      -#;#>#,#'#)#!#~#m+{#]#^#/#(#_#:#<#[#}#|#1#1#1#|#2#3#4#5#6#7#8#9#0#a#j@b#c#d#e#f#g#h#",
"  i#j#k#l#m#n#o#p#q#r#s#t#u#v#w#x#y#z#A#B#C#D#E#F#G#H#I#J#K#L#M#N#O#P#Q#R#S#T#U#V#W#X#Y#Z#`# $.$",
"+$@$#$$$%$&$*$]@=$-$;$>$,$'$)$!$~${$]$^$/$($_$:$<$[$}$|$1$2$3$4$5$6$7$8$9$0$a$b$V@S@c$d$e$f$g$h$",
"i$j$k$l$m$>@>@n$o$p$q$r$s$t$u$v$w$x$y$z$A$B$C$D$E$F$F$F$G$H$I$J$K$L$M$N$O$P$Q$1#R$S$T$U$V$W$X$Y$",
"Z$`$ %.%+%!@@%#%$%%%&%*%=%-%;%>%,%'%)%!%~%{%]%^%/%(%_%:%<%[%}%|%1%2%3%4%5%6%7%8%9%0%a%b%c%f$d%e%",
"  f%g%h%i%j%k%l%m%n%o%p%q%r%s%t%u%v%w%x%y%z%A%B%C%D%E%F%G%H%I%J%K%L%M%N%O%P%Q%R%Q$S%T%U%V%W%X%Y%",
"  Z%`% &.&+&@&#&$&%&&&*&=&-&;&>&,&'&)&!&~&{&]&^&/&(&_&:&<&[&}&|&1&2&3&4&5&6&  = 7&8&9&0&a&b&c&  ",
"  d&e&      f&g&h&i&j&k&l&m&n&o&p&q&r&s&t&u&v&w&x&y&z&A&B&C&D&E&F&G&H&I&J&K&    L&M&N&O&P&Q&R&  ",
"  S&Z$              T&U&V&W&X&Y&Z&`& *.*+*@*w&#*^&$*_&%*&***=*-*;*>*,*'*)*        !*~*{*]*^*    ",
"                                    /*(*/&_*:*<*<*[*}*|*1*2*3*4*5*6*7*8*          9*0*a*b*c*    ",
"                                      . d*e*x&<*z&f*%*g*h*    i*j*k*                l*m*n*      ",
"                                        o*z&p*z&}*q*r*s*                            t*u*        ",
"                                        v*w*%*%*|*x*y*z*                                        ",
"                                        A*B*r*C*D*E*F*                                          ",
"                                        c*G*H*I*J*K*                                            ",
"                                          L*M*N*                                                ",
"                                                                                                ",
"                                                                                                ",
"                                                                                                ",
"                                                                                                ",
"                                                                                                ",
"                                                                                                ",
"                                                                                                ",
"                                                                                                "};
