/* XPM */
static char * player_walk_7_xpm[] = {
"128 128 9 1",
" 	c None",
".	c #000000",
"+	c #F5FFE8",
"@	c #291D2B",
"#	c #A3A7C2",
"$	c #14182E",
"%	c #DFE0E8",
"&	c #686F99",
"*	c #3A3F5E",
"                                                                                                                                ",
"                                                                                                                                ",
"                                                                                                                                ",
"                                                                                                                                ",
"                                                                                                                                ",
"                                                                                                                                ",
"                                                                                                                                ",
"                                                                                                                                ",
"                                                                                                                                ",
"                                                                                                                                ",
"                                                                                                                                ",
"                                                                                                                                ",
"                                                                                                                                ",
"                                                                                                                                ",
"                                                                                                                                ",
"                                                                                                                                ",
"                                                                                                                                ",
"                                                                                                                                ",
"                                                                                                                                ",
"                                                                                                                                ",
"                                                                                                                                ",
"                                                                                                                                ",
"                                                                                                                                ",
"                                                                                                                                ",
"                                                                                                                                ",
"                                                                                                                                ",
"                                                                                                                                ",
"                                                                                                                                ",
"                                                                                                                                ",
"                                                                                                                                ",
"                                                                                                                                ",
"                                                                                                                                ",
"                                                                                                                                ",
"                                                                                                                                ",
"                                                                                                                                ",
"                                                                                                                                ",
"                                                                                                                                ",
"                                                                                                                                ",
"                                                                                                                                ",
"                                                                                                                                ",
"                                                                                                                                ",
"                                                                                                                                ",
"                                                                                                                                ",
"                                                                                                                                ",
"                                                                                                                                ",
"                                                                                                                                ",
"                                                                                                                                ",
"                                                                                                                                ",
"                                                                                                                                ",
"                                                                                                                                ",
"                                                                                                                                ",
"                                                                                                                                ",
"                                                                                                                                ",
"                                                                                                                                ",
"                                                                                                                                ",
"                                                                                                                                ",
"                                                                                                                                ",
"                                                                                                                                ",
"                                                              .                                                                 ",
"                                                             .+.                                                                ",
"                                                             .++.                                                               ",
"                                                            .++++..                                                             ",
"                                                            .++++++..                                                           ",
"                                                           ..++++...@.                                                          ",
"                                                          .@@.++.@@.@@..                                                        ",
"                                                         .@@@.+.@@.@@@.@.                                                       ",
"                                                         .@@@@.@@@.@@@.@.                                                       ",
"                                                        .@@@@@.@@.@@@@@..                                                       ",
"                                                        .@@@@.@@.@@@@@@.@.                                                      ",
"                                                        .@@@@.@.@@@@@@@.@.                                                      ",
"                                                        .@@@.@.@@@@@@@..@.                                                      ",
"                                                        .@@@..@@@@@.@@..@.                                                      ",
"                                                        .@@@@@.@@...@.#.@.                                                      ",
"                                                        .@@@@@...##..###.                                                       ",
"                                                        ..@@@@@.########.                                                       ",
"                                                        ..@@@@@.########.                                                       ",
"                                                        ..@@@@@..######.                                                        ",
"                                                        .@.@@@@.#..####.                                                        ",
"                                                        .@.@@@@@.##....                                                         ",
"                                                        .@@.@@@@.##.$.                                                          ",
"                                                        .@@.@@@@@...$.                                                          ",
"                                                        .@.%.@@@@.%%.                                                           ",
"                                                        .@.%&.@@@.%%.                                                           ",
"                                                        ..%%%&.@@@.%%.                                                          ",
"                                                        ..%%%&..@@@.%.                                                          ",
"                                                        .%%%%&.&....%%.                                                         ",
"                                                        .%%%%&.&%%%%%%%.                                                        ",
"                                                        .%%%%&.&&%%%%%%.                                                        ",
"                                                        .%%%%&.&&%%%%%%.                                                        ",
"                                                        .%%%%&.&&&%%%%%.                                                        ",
"                                                        .%%%%&.**&&&%%%.                                                        ",
"                                                        .%%%%&.........                                                         ",
"                                                        .%%%%&.*****&%.                                                         ",
"                                                        .%%%%&.&&&%%%%.                                                         ",
"                                                        .%%%%&.&&%%%%%.                                                         ",
"                                                       .%%%%%&.&&%%%%%.                                                         ",
"                                                       .%%%%%&.........                                                         ",
"                                                       .%%%%&&.*&%%%%%%.                                                        ",
"                                                       .%%%%&&.*&%%%%%%.                                                        ",
"                                                       .%%%%&&.&%%%%%%%.                                                        ",
"                                                       .%%%%&&.&%%%%%%%.                                                        ",
"                                                       .%%%%&&.%%%%%%%%.                                                        ",
"                                                       .%%%&&&.%%%%%%%%.                                                        ",
"                                                        .%&&&.&%%%%%%%%.                                                        ",
"                                                         ....&%%%%%%%%%.                                                        ",
"                                                          .&%%%%%%%%%%%.                                                        ",
"                                                          .%%%%%%%%%%%%%.                                                       ",
"                                                          .%%%%%%%%%%%%%.                                                       ",
"                                                         .%%%%%%%%%%%%%%.                                                       ",
"                                                         .%%%%%%%%%%%%%%.                                                       ",
"                                                         .%%%%%%%%%%%%%%.                                                       ",
"                                                         .%%%%%%%*%%%%%%.                                                       ",
"                                                         .%%%%%%%*%%%%%%.                                                       ",
"                                                        .%%%%%%%*&%%%%%%.                                                       ",
"                                                        .%%%%%%%*&%%%%%%.                                                       ",
"                                                        .%%%%%%*&&%%%%%%.                                                       ",
"                                                        .%%%%%%*&&%%%%%.                                                        ",
"                                                        .%%%%%%*&&%%%%%.                                                        ",
"                                                        .%%%%%*&&%%%%%%.                                                        ",
"                                                        .%%%%%*&&%%%%%%.                                                        ",
"                                                         .%%%*&&&&%%%%%.                                                        ",
"                                                         .%%%*&&&&%%%%%.                                                        ",
"                                                          ....&&&&&&%%%.                                                        ",
"                                                            .#..........                                                        ",
"                                                            .###.&&&&&&&.                                                       ",
"                                                            .####.&&&&&&&.                                                      ",
"                                                            .#####........                                                      ",
"                                                            .#######.                                                           "};
